<svg xmlns="http://www.w3.org/2000/svg" xmlns:svg="http://www.w3.org/2000/svg" id="Layer_1" width="100%" height="100%" x="0" y="0" enable-background="new 0 0 1280 800" version="1.1" viewBox="0 0 530 350" xml:space="preserve"><metadata id="metadata287"/><path id="path3" d="M 527,350 H 3 c -1.7,0 -3,-1.3 -3,-3 V 3 C 0,1.4 1.3,0 3,0 h 524 c 1.7,0 3,1.4 3,3 v 344 c 0,1.6 -1.3,3 -3,3 z" style="fill:#f8faf6"/><g id="g5" transform="translate(-374.4,-224.5)"><path id="path7" d="m 519.7,270.1 c -0.5,0.2 -1.5,0.5 -2.8,0.5 -3.4,0 -5.5,-2.1 -5.5,-5.4 0,-3.6 2.5,-5.7 5.8,-5.7 1.3,0 2.2,0.3 2.6,0.5 l -0.4,1.6 c -0.5,-0.2 -1.2,-0.4 -2.1,-0.4 -2.2,0 -3.8,1.4 -3.8,4 0,2.4 1.4,3.9 3.8,3.9 0.8,0 1.6,-0.2 2.1,-0.4 l 0.3,1.4 z" style="fill:#454746"/><path id="path9" d="m 528.5,266.5 c 0,2.9 -2,4.1 -4,4.1 -2.2,0 -3.9,-1.5 -3.9,-4 0,-2.6 1.7,-4.1 4,-4.1 2.3,0 3.9,1.6 3.9,4 z m -5.9,0.1 c 0,1.5 0.7,2.6 1.9,2.6 1.1,0 1.9,-1.1 1.9,-2.7 0,-1.2 -0.5,-2.6 -1.9,-2.6 -1.3,0 -1.9,1.4 -1.9,2.7 z" style="fill:#454746"/><path id="path11" d="m 530.1,265 c 0,-0.9 0,-1.6 -0.1,-2.3 h 1.7 l 0.1,1.2 h 0 c 0.4,-0.6 1.1,-1.3 2.4,-1.3 1,0 1.8,0.6 2.2,1.4 h 0 c 0.3,-0.4 0.6,-0.8 1,-1 0.4,-0.3 0.9,-0.5 1.6,-0.5 1.3,0 2.6,0.9 2.6,3.4 v 4.6 h -1.9 v -4.3 c 0,-1.3 -0.4,-2.1 -1.4,-2.1 -0.7,0 -1.2,0.5 -1.4,1 0,0.2 -0.1,0.4 -0.1,0.7 v 4.7 h -1.9 V 266 c 0,-1.1 -0.4,-1.9 -1.3,-1.9 -0.7,0 -1.2,0.6 -1.4,1.1 -0.1,0.2 -0.1,0.4 -0.1,0.6 v 4.6 h -1.9 V 265 z" style="fill:#454746"/><path id="path13" d="m 543.7,265 c 0,-0.9 0,-1.6 -0.1,-2.3 h 1.7 l 0.1,1.2 h 0 c 0.4,-0.6 1.1,-1.3 2.4,-1.3 1,0 1.8,0.6 2.2,1.4 h 0 c 0.3,-0.4 0.6,-0.8 1,-1 0.4,-0.3 0.9,-0.5 1.6,-0.5 1.3,0 2.6,0.9 2.6,3.4 v 4.6 h -1.9 v -4.3 c 0,-1.3 -0.4,-2.1 -1.4,-2.1 -0.7,0 -1.2,0.5 -1.4,1 0,0.2 -0.1,0.4 -0.1,0.7 v 4.7 h -1.9 V 266 c 0,-1.1 -0.4,-1.9 -1.3,-1.9 -0.7,0 -1.2,0.6 -1.4,1.1 -0.1,0.2 -0.1,0.4 -0.1,0.6 v 4.6 h -1.9 V 265 z" style="fill:#454746"/><path id="path15" d="m 559.3,260.5 c 0,0.6 -0.4,1.1 -1.1,1.1 -0.7,0 -1.1,-0.5 -1.1,-1.1 0,-0.6 0.4,-1.1 1.1,-1.1 0.7,0 1.1,0.5 1.1,1.1 z m -2.1,10 v -7.8 h 2 v 7.8 h -2 z" style="fill:#454746"/><path id="path17" d="m 563.6,260.4 v 2.2 h 1.9 v 1.5 h -1.9 v 3.4 c 0,0.9 0.3,1.4 1,1.4 0.3,0 0.6,0 0.8,-0.1 l 0,1.5 c -0.3,0.1 -0.8,0.2 -1.4,0.2 -0.7,0 -1.3,-0.2 -1.7,-0.6 -0.4,-0.4 -0.6,-1.2 -0.6,-2.2 V 264 h -1.1 v -1.5 h 1.1 v -1.8 l 1.9,-0.3 z" style="fill:#454746"/><path id="path19" d="m 570.3,265.3 c 0,-1 0,-1.9 -0.1,-2.6 h 1.7 l 0.1,1.2 h 0 c 0.6,-0.9 1.5,-1.4 2.7,-1.4 1.8,0 3.3,1.5 3.3,4 0,2.8 -1.8,4.2 -3.6,4.2 -1,0 -1.8,-0.4 -2.2,-1 h 0 v 4 h -2 v -8.4 z m 1.9,1.9 c 0,0.2 0,0.4 0.1,0.5 0.2,0.8 0.9,1.4 1.7,1.4 1.2,0 2,-1 2,-2.6 0,-1.4 -0.7,-2.5 -1.9,-2.5 -0.8,0 -1.6,0.6 -1.8,1.5 0,0.2 -0.1,0.3 -0.1,0.5 v 1.2 z" style="fill:#454746"/><path id="path21" d="m 587,266.5 c 0,2.9 -2,4.1 -4,4.1 -2.2,0 -3.9,-1.5 -3.9,-4 0,-2.6 1.7,-4.1 4,-4.1 2.4,0 3.9,1.6 3.9,4 z m -5.9,0.1 c 0,1.5 0.7,2.6 1.9,2.6 1.1,0 1.9,-1.1 1.9,-2.7 0,-1.2 -0.5,-2.6 -1.9,-2.6 -1.3,0 -1.9,1.4 -1.9,2.7 z" style="fill:#454746"/><path id="path23" d="m 590.7,260.5 c 0,0.6 -0.4,1.1 -1.1,1.1 -0.7,0 -1.1,-0.5 -1.1,-1.1 0,-0.6 0.4,-1.1 1.1,-1.1 0.7,0 1.1,0.5 1.1,1.1 z m -2.1,10 v -7.8 h 2 v 7.8 h -2 z" style="fill:#454746"/><path id="path25" d="m 592.7,265 c 0,-0.9 0,-1.6 -0.1,-2.3 h 1.7 l 0.1,1.2 h 0 c 0.3,-0.6 1.2,-1.3 2.5,-1.3 1.4,0 2.8,0.9 2.8,3.3 v 4.6 h -2 v -4.4 c 0,-1.1 -0.4,-2 -1.5,-2 -0.8,0 -1.3,0.6 -1.5,1.2 -0.1,0.2 -0.1,0.4 -0.1,0.6 v 4.6 h -2 V 265 z" style="fill:#454746"/><path id="path27" d="m 604.1,260.4 v 2.2 h 1.9 v 1.5 h -1.9 v 3.4 c 0,0.9 0.3,1.4 1,1.4 0.3,0 0.6,0 0.8,-0.1 l 0,1.5 c -0.3,0.1 -0.8,0.2 -1.4,0.2 -0.7,0 -1.3,-0.2 -1.7,-0.6 -0.4,-0.4 -0.6,-1.2 -0.6,-2.2 V 264 H 601 v -1.5 h 1.1 v -1.8 l 2,-0.3 z" style="fill:#454746"/></g><g id="g29" transform="translate(-374.4,-224.5)"><path id="path31" d="m 450.6,526.1 v 10.8 h -2 v -10.8 h 2 z" style="fill:#454746"/><path id="path33" d="m 452.9,531.4 c 0,-0.9 0,-1.6 -0.1,-2.3 h 1.7 l 0.1,1.2 h 0 c 0.3,-0.6 1.2,-1.3 2.5,-1.3 1.4,0 2.8,0.9 2.8,3.3 v 4.6 h -2 v -4.4 c 0,-1.1 -0.4,-2 -1.5,-2 -0.8,0 -1.3,0.6 -1.5,1.2 -0.1,0.2 -0.1,0.4 -0.1,0.6 v 4.6 h -2 v -5.5 z" style="fill:#454746"/><path id="path35" d="m 465.6,532 v 1.4 h -4.1 V 532 h 4.1 z" style="fill:#454746"/><path id="path37" d="m 467.1,531.4 c 0,-0.9 0,-1.6 -0.1,-2.3 h 1.7 l 0.1,1.2 h 0 c 0.4,-0.6 1.1,-1.3 2.4,-1.3 1,0 1.8,0.6 2.2,1.4 h 0 c 0.3,-0.4 0.6,-0.8 1,-1 0.4,-0.3 0.9,-0.5 1.6,-0.5 1.3,0 2.6,0.9 2.6,3.4 v 4.6 h -1.9 v -4.3 c 0,-1.3 -0.4,-2.1 -1.4,-2.1 -0.7,0 -1.2,0.5 -1.4,1 0,0.2 -0.1,0.4 -0.1,0.7 v 4.7 h -1.9 v -4.5 c 0,-1.1 -0.4,-1.9 -1.3,-1.9 -0.7,0 -1.2,0.6 -1.4,1.1 -0.1,0.2 -0.1,0.4 -0.1,0.6 v 4.6 h -1.9 v -5.4 z" style="fill:#454746"/><path id="path39" d="m 482.1,533.6 c 0,1.4 1.2,2 2.4,2 0.9,0 1.6,-0.1 2.2,-0.4 l 0.3,1.4 c -0.7,0.3 -1.6,0.5 -2.7,0.5 -2.5,0 -4,-1.6 -4,-3.9 0,-2.2 1.3,-4.2 3.8,-4.2 2.5,0 3.4,2.1 3.4,3.8 0,0.4 0,0.7 -0.1,0.8 h -5.3 z m 3.4,-1.4 c 0,-0.7 -0.3,-1.9 -1.6,-1.9 -1.2,0 -1.7,1.1 -1.8,1.9 h 3.4 z" style="fill:#454746"/><path id="path41" d="m 488.9,531.4 c 0,-0.9 0,-1.6 -0.1,-2.3 h 1.7 l 0.1,1.2 h 0 c 0.4,-0.6 1.1,-1.3 2.4,-1.3 1,0 1.8,0.6 2.2,1.4 h 0 c 0.3,-0.4 0.6,-0.8 1,-1 0.4,-0.3 0.9,-0.5 1.6,-0.5 1.3,0 2.6,0.9 2.6,3.4 v 4.6 h -1.9 v -4.3 c 0,-1.3 -0.4,-2.1 -1.4,-2.1 -0.7,0 -1.2,0.5 -1.4,1 0,0.2 -0.1,0.4 -0.1,0.7 v 4.7 h -1.9 v -4.5 c 0,-1.1 -0.4,-1.9 -1.3,-1.9 -0.7,0 -1.2,0.6 -1.4,1.1 -0.1,0.2 -0.1,0.4 -0.1,0.6 v 4.6 H 489 v -5.4 z" style="fill:#454746"/><path id="path43" d="m 509.9,532.9 c 0,2.9 -2,4.1 -4,4.1 -2.2,0 -3.9,-1.5 -3.9,-4 0,-2.6 1.7,-4.1 4,-4.1 2.4,0 3.9,1.7 3.9,4 z M 504,533 c 0,1.5 0.7,2.6 1.9,2.6 1.1,0 1.9,-1.1 1.9,-2.7 0,-1.2 -0.5,-2.6 -1.9,-2.6 -1.3,0.1 -1.9,1.4 -1.9,2.7 z" style="fill:#454746"/><path id="path45" d="m 511.5,531.6 c 0,-1.1 0,-1.8 -0.1,-2.5 h 1.7 l 0.1,1.5 h 0.1 c 0.4,-1.1 1.3,-1.7 2.1,-1.7 0.2,0 0.3,0 0.5,0 v 1.9 c -0.2,0 -0.3,-0.1 -0.6,-0.1 -0.9,0 -1.6,0.6 -1.8,1.5 0,0.2 -0.1,0.4 -0.1,0.6 v 4 h -2 v -5.2 z" style="fill:#454746"/><path id="path47" d="m 518.8,529.1 1.4,4.2 c 0.2,0.5 0.3,1.1 0.4,1.5 h 0 c 0.1,-0.4 0.3,-1 0.4,-1.5 l 1.2,-4.2 h 2.1 l -2,5.3 c -1.1,2.9 -1.8,4.2 -2.7,5 -0.8,0.7 -1.6,0.9 -2.1,1 l -0.4,-1.7 c 0.3,-0.1 0.8,-0.3 1.2,-0.5 0.4,-0.2 0.8,-0.7 1.1,-1.2 0.1,-0.1 0.1,-0.3 0.1,-0.4 0,-0.1 0,-0.2 -0.1,-0.4 l -2.8,-7.2 h 2.2 z" style="fill:#454746"/><path id="path49" d="m 528.8,536.9 c 0,-0.5 0.1,-1.4 0.1,-2.2 v -9.2 h 2 v 4.6 h 0 c 0.5,-0.8 1.3,-1.2 2.5,-1.2 1.9,0 3.3,1.6 3.2,4 0,2.8 -1.8,4.2 -3.5,4.2 -1,0 -1.9,-0.4 -2.5,-1.3 h 0 l -0.1,1.2 h -1.7 z m 2,-3.2 c 0,0.2 0,0.3 0,0.5 0.2,0.8 0.9,1.4 1.7,1.4 1.2,0 2,-1 2,-2.6 0,-1.4 -0.7,-2.5 -2,-2.5 -0.8,0 -1.5,0.6 -1.7,1.4 0,0.1 -0.1,0.3 -0.1,0.5 v 1.3 z" style="fill:#454746"/><path id="path51" d="m 545.2,534.6 c 0,0.9 0,1.7 0.1,2.3 h -1.7 l -0.1,-1.2 h 0 c -0.3,0.6 -1.1,1.4 -2.5,1.4 -1.4,0 -2.7,-0.8 -2.7,-3.4 v -4.6 h 2 v 4.2 c 0,1.3 0.4,2.1 1.5,2.1 0.8,0 1.3,-0.6 1.5,-1.1 0.1,-0.2 0.1,-0.4 0.1,-0.6 V 529 h 2 v 5.6 z" style="fill:#454746"/><path id="path53" d="m 552.4,536.9 v -6.3 h -2.8 v 6.3 h -2 v -6.3 h -1.1 v -1.5 h 1.1 v -0.2 c 0,-1 0.2,-1.9 0.9,-2.6 0.5,-0.5 1.2,-0.8 2.2,-0.8 0.4,0 0.8,0.1 1.1,0.2 l -0.3,1.5 c -0.2,-0.1 -0.4,-0.1 -0.7,-0.1 -0.9,0 -1.2,0.8 -1.2,1.7 v 0.3 h 2.8 v -0.3 c 0,-1 0.3,-2 1,-2.7 0.6,-0.5 1.3,-0.8 2,-0.8 0.5,0 0.9,0.1 1.2,0.2 l -0.1,1.5 c -0.2,-0.1 -0.5,-0.1 -0.8,-0.1 -1,0 -1.3,0.8 -1.3,1.8 v 0.4 h 1.7 v 1.5 h -1.7 v 6.3 h -2 z" style="fill:#454746"/><path id="path55" d="m 558.5,533.6 c 0,1.4 1.2,2 2.4,2 0.9,0 1.6,-0.1 2.2,-0.4 l 0.3,1.4 c -0.7,0.3 -1.6,0.5 -2.7,0.5 -2.5,0 -4,-1.6 -4,-3.9 0,-2.2 1.3,-4.2 3.8,-4.2 2.5,0 3.4,2.1 3.4,3.8 0,0.4 0,0.7 -0.1,0.8 h -5.3 z m 3.4,-1.4 c 0,-0.7 -0.3,-1.9 -1.6,-1.9 -1.2,0 -1.7,1.1 -1.8,1.9 h 3.4 z" style="fill:#454746"/><path id="path57" d="m 565.3,531.6 c 0,-1.1 0,-1.8 -0.1,-2.5 h 1.7 l 0.1,1.5 h 0.1 c 0.4,-1.1 1.3,-1.7 2.1,-1.7 0.2,0 0.3,0 0.5,0 v 1.9 c -0.2,0 -0.3,-0.1 -0.6,-0.1 -0.9,0 -1.6,0.6 -1.8,1.5 0,0.2 -0.1,0.4 -0.1,0.6 v 4 h -2 v -5.2 z" style="fill:#454746"/></g><g id="g59" transform="translate(-374.4,-224.5)"><path id="path61" d="m 521.4,430.7 c 0.6,0.4 1.6,0.7 2.6,0.7 1.3,0 2,-0.6 2,-1.5 0,-0.8 -0.5,-1.3 -1.9,-1.8 -1.8,-0.6 -2.9,-1.6 -2.9,-3.1 0,-1.8 1.5,-3.1 3.8,-3.1 1.2,0 2,0.3 2.6,0.5 l -0.5,1.6 c -0.4,-0.2 -1.1,-0.5 -2.1,-0.5 -1.2,0 -1.8,0.7 -1.8,1.3 0,0.8 0.6,1.2 2.1,1.8 1.9,0.7 2.8,1.6 2.8,3.2 0,1.7 -1.3,3.2 -4.1,3.2 -1.1,0 -2.3,-0.3 -2.9,-0.7 l 0.3,-1.6 z" style="fill:#454746"/><path id="path63" d="m 531.2,429.5 c 0,1.4 1.2,2 2.4,2 0.9,0 1.6,-0.1 2.2,-0.4 l 0.3,1.4 c -0.7,0.3 -1.6,0.5 -2.7,0.5 -2.5,0 -4,-1.6 -4,-3.9 0,-2.2 1.3,-4.2 3.8,-4.2 2.5,0 3.4,2.1 3.4,3.8 0,0.4 0,0.7 -0.1,0.8 h -5.3 z m 3.4,-1.3 c 0,-0.7 -0.3,-1.9 -1.6,-1.9 -1.2,0 -1.7,1.1 -1.8,1.9 h 3.4 z" style="fill:#454746"/><path id="path65" d="m 542.4,432.9 -0.1,-0.9 h 0 c -0.5,0.6 -1.3,1 -2.3,1 -1.6,0 -2.4,-1.1 -2.4,-2.3 0,-2 1.7,-3 4.6,-2.9 v -0.1 c 0,-0.5 -0.2,-1.4 -1.6,-1.4 -0.8,0 -1.6,0.2 -2.1,0.6 l -0.4,-1.3 c 0.6,-0.4 1.6,-0.7 2.8,-0.7 2.5,0 3.2,1.6 3.2,3.3 v 2.8 c 0,0.7 0,1.4 0.1,1.9 h -1.8 z m -0.2,-3.8 c -1.4,0 -2.7,0.3 -2.7,1.5 0,0.8 0.5,1.1 1.1,1.1 0.8,0 1.4,-0.5 1.5,-1.1 0,-0.1 0.1,-0.3 0.1,-0.4 v -1.1 z" style="fill:#454746"/><path id="path67" d="m 546.2,427.6 c 0,-1.1 0,-1.8 -0.1,-2.5 h 1.7 l 0.1,1.5 h 0.1 c 0.4,-1.1 1.3,-1.7 2.1,-1.7 0.2,0 0.3,0 0.5,0 v 1.9 c -0.2,0 -0.3,-0.1 -0.6,-0.1 -0.9,0 -1.6,0.6 -1.8,1.5 0,0.2 -0.1,0.4 -0.1,0.6 v 4 h -2 v -5.2 z" style="fill:#454746"/><path id="path69" d="m 557.5,432.6 c -0.4,0.2 -1.2,0.4 -2.2,0.4 -2.4,0 -4,-1.6 -4,-4 0,-2.3 1.6,-4.2 4.3,-4.2 0.7,0 1.5,0.2 1.9,0.4 l -0.4,1.5 c -0.3,-0.1 -0.8,-0.3 -1.5,-0.3 -1.5,0 -2.4,1.1 -2.4,2.5 0,1.6 1,2.5 2.4,2.5 0.7,0 1.2,-0.1 1.6,-0.3 l 0.3,1.5 z" style="fill:#454746"/><path id="path71" d="m 558.9,421.5 h 2 v 4.6 h 0 c 0.2,-0.4 0.6,-0.7 1,-0.9 0.4,-0.2 0.8,-0.4 1.3,-0.4 1.3,0 2.7,0.9 2.7,3.4 v 4.6 h -2 v -4.4 c 0,-1.1 -0.4,-2 -1.5,-2 -0.8,0 -1.3,0.5 -1.5,1.1 -0.1,0.2 -0.1,0.4 -0.1,0.6 v 4.7 h -2 v -11.3 z" style="fill:#454746"/><path id="path73" d="m 572.5,432.9 -0.1,-0.9 h 0 c -0.5,0.6 -1.3,1 -2.3,1 -1.6,0 -2.4,-1.1 -2.4,-2.3 0,-2 1.7,-3 4.6,-2.9 v -0.1 c 0,-0.5 -0.2,-1.4 -1.6,-1.4 -0.8,0 -1.6,0.2 -2.1,0.6 l -0.4,-1.3 c 0.6,-0.4 1.6,-0.7 2.8,-0.7 2.5,0 3.2,1.6 3.2,3.3 v 2.8 c 0,0.7 0,1.4 0.1,1.9 h -1.8 z m -0.3,-3.8 c -1.4,0 -2.7,0.3 -2.7,1.5 0,0.8 0.5,1.1 1.1,1.1 0.8,0 1.4,-0.5 1.5,-1.1 0,-0.1 0.1,-0.3 0.1,-0.4 v -1.1 z" style="fill:#454746"/><path id="path75" d="m 576.1,432.9 c 0,-0.5 0.1,-1.4 0.1,-2.2 v -9.2 h 2 v 4.6 h 0 c 0.5,-0.8 1.3,-1.2 2.5,-1.2 1.9,0 3.3,1.6 3.2,4 0,2.8 -1.8,4.2 -3.5,4.2 -1,0 -1.9,-0.4 -2.5,-1.3 h 0 l -0.1,1.2 h -1.7 z m 2.1,-3.2 c 0,0.2 0,0.3 0,0.5 0.2,0.8 0.9,1.4 1.7,1.4 1.2,0 2,-1 2,-2.6 0,-1.4 -0.7,-2.5 -2,-2.5 -0.8,0 -1.5,0.6 -1.7,1.4 0,0.1 -0.1,0.3 -0.1,0.5 v 1.3 z" style="fill:#454746"/><path id="path77" d="m 585.6,421.5 h 2 v 11.4 h -2 v -11.4 z" style="fill:#454746"/><path id="path79" d="m 591.1,429.5 c 0,1.4 1.2,2 2.4,2 0.9,0 1.6,-0.1 2.2,-0.4 l 0.3,1.4 c -0.7,0.3 -1.6,0.5 -2.7,0.5 -2.5,0 -4,-1.6 -4,-3.9 0,-2.2 1.3,-4.2 3.8,-4.2 2.5,0 3.4,2.1 3.4,3.8 0,0.4 0,0.7 -0.1,0.8 h -5.3 z m 3.4,-1.3 c 0,-0.7 -0.3,-1.9 -1.6,-1.9 -1.2,0 -1.7,1.1 -1.8,1.9 h 3.4 z" style="fill:#454746"/></g><g id="g81" transform="translate(-374.4,-224.5)"><g id="g83"><path id="path85" stroke-miterlimit="10" d="m 558.3,282.2 c -14.3,18 -71.7,-0.3 -78.9,33.6" style="fill:none;stroke:#454746;stroke-width:1.60000002;stroke-linecap:round;stroke-miterlimit:10"/><g id="g87"><path id="path89" d="m 478.6,323.5 c -0.9,-3.8 -2.7,-8.5 -4.8,-11.6 l 5.8,2.9 6.3,-1.5 c -2.7,2.5 -5.5,6.7 -7.3,10.2 z" style="fill:#454746"/></g></g></g><g id="g91" transform="translate(-374.4,-224.5)"><g id="g93"><path id="path95" stroke-miterlimit="10" d="m 558.3,282.2 c 14.3,18 71.7,-0.3 78.9,33.6" style="fill:none;stroke:#454746;stroke-width:1.60000002;stroke-linecap:round;stroke-miterlimit:10"/><g id="g97"><path id="path99" d="m 638,323.5 c -1.7,-3.5 -4.5,-7.7 -7.3,-10.2 l 6.3,1.5 5.8,-2.9 c -2.1,3.1 -3.9,7.8 -4.8,11.6 z" style="fill:#454746"/></g></g></g><g id="g101" transform="translate(-374.4,-224.5)"><g id="g103"><path id="path105" stroke-miterlimit="10" d="m 558.3,282.2 c 0,13.1 0.3,-1 0.3,33.6" style="fill:none;stroke:#454746;stroke-width:1.60000002;stroke-linecap:round;stroke-miterlimit:10"/><g id="g107"><path id="path109" d="m 558.6,323.5 c -1.4,-3.6 -3.7,-8.1 -6.1,-10.9 l 6.1,2.2 6.1,-2.2 c -2.5,2.7 -4.8,7.2 -6.1,10.9 z" style="fill:#454746"/></g></g></g><g id="g111" transform="translate(-374.4,-224.5)"><path id="path113" d="M 577,515.5 H 440.2 c -1.7,0 -3.1,-1.3 -3.1,-3 v -48 c 0,-1.7 1.4,-3 3.1,-3 H 577 c 1.7,0 3.1,1.3 3.1,3 v 48 c 0,1.6 -1.4,3 -3.1,3 z" style="fill:#fff"/><path id="path115" stroke-miterlimit="10" d="M 577,515.5 H 440.2 c -1.7,0 -3.1,-1.3 -3.1,-3 v -48 c 0,-1.7 1.4,-3 3.1,-3 H 577 c 1.7,0 3.1,1.3 3.1,3 v 48 c 0,1.6 -1.4,3 -3.1,3 z" style="fill:none;stroke:#c6c6c6;stroke-width:1.60000002;stroke-linecap:round;stroke-miterlimit:10;stroke-dasharray:3.9666,3.9666"/></g><g id="g117" transform="translate(-374.4,-224.5)"><g id="g119"><g id="g121"><path id="path123" d="m 467.8,473.5 h -13 c -1.6,0 -3,1.3 -3,3 v 24 c 0,1.7 1.4,3 3,3 h 18 c 1.7,0 3,-1.3 3,-3 v -19 l -8,-8 z" style="fill:#fff;stroke:#666;stroke-width:1.60000002;stroke-linejoin:round"/></g><line id="line125" x1="456.8" x2="470.8" y1="498.5" y2="498.5" style="fill:none;stroke:#75b640;stroke-width:1.60000002;stroke-linecap:round"/><line id="line127" x1="456.8" x2="470.8" y1="493.5" y2="493.5" style="fill:none;stroke:#75b640;stroke-width:1.60000002;stroke-linecap:round"/><line id="line129" x1="456.8" x2="470.8" y1="488.5" y2="488.5" style="fill:none;stroke:#75b640;stroke-width:1.60000002;stroke-linecap:round"/><line id="line131" x1="456.8" x2="464.8" y1="483.5" y2="483.5" style="fill:none;stroke:#75b640;stroke-width:1.60000002;stroke-linecap:round"/><line id="line133" x1="456.8" x2="462.8" y1="478.5" y2="478.5" style="fill:none;stroke:#75b640;stroke-width:1.60000002;stroke-linecap:round"/><path id="path135" d="m 475.8,481.6 h -5 c -1.6,0 -3,-1.3 -3,-3 v -5" style="fill:none;stroke:#75b640;stroke-width:1.60000002"/></g><g id="g137"><g id="g139"><path id="path141" d="m 477.8,473.5 h -13 c -1.6,0 -3,1.3 -3,3 v 24 c 0,1.7 1.4,3 3,3 h 18 c 1.7,0 3,-1.3 3,-3 v -19 l -8,-8 z" style="fill:#fff;stroke:#666;stroke-width:1.60000002;stroke-linejoin:round"/></g><line id="line143" x1="466.8" x2="480.8" y1="498.5" y2="498.5" style="fill:none;stroke:#75b640;stroke-width:1.60000002;stroke-linecap:round"/><line id="line145" x1="466.8" x2="480.8" y1="493.5" y2="493.5" style="fill:none;stroke:#75b640;stroke-width:1.60000002;stroke-linecap:round"/><line id="line147" x1="466.8" x2="480.8" y1="488.5" y2="488.5" style="fill:none;stroke:#75b640;stroke-width:1.60000002;stroke-linecap:round"/><line id="line149" x1="466.8" x2="474.8" y1="483.5" y2="483.5" style="fill:none;stroke:#75b640;stroke-width:1.60000002;stroke-linecap:round"/><line id="line151" x1="466.8" x2="472.8" y1="478.5" y2="478.5" style="fill:none;stroke:#75b640;stroke-width:1.60000002;stroke-linecap:round"/><path id="path153" d="m 485.8,481.6 h -5 c -1.6,0 -3,-1.3 -3,-3 v -5" style="fill:none;stroke:#75b640;stroke-width:1.60000002"/></g><g id="g155"><g id="g157"><path id="path159" d="m 487.8,473.5 h -13 c -1.6,0 -3,1.3 -3,3 v 24 c 0,1.7 1.4,3 3,3 h 18 c 1.7,0 3,-1.3 3,-3 v -19 l -8,-8 z" style="fill:#fff;stroke:#666;stroke-width:1.60000002;stroke-linejoin:round"/></g><line id="line161" x1="476.8" x2="490.8" y1="498.5" y2="498.5" style="fill:none;stroke:#75b640;stroke-width:1.60000002;stroke-linecap:round"/><line id="line163" x1="476.8" x2="490.8" y1="493.5" y2="493.5" style="fill:none;stroke:#75b640;stroke-width:1.60000002;stroke-linecap:round"/><line id="line165" x1="476.8" x2="490.8" y1="488.5" y2="488.5" style="fill:none;stroke:#75b640;stroke-width:1.60000002;stroke-linecap:round"/><line id="line167" x1="476.8" x2="484.8" y1="483.5" y2="483.5" style="fill:none;stroke:#75b640;stroke-width:1.60000002;stroke-linecap:round"/><line id="line169" x1="476.8" x2="482.8" y1="478.5" y2="478.5" style="fill:none;stroke:#75b640;stroke-width:1.60000002;stroke-linecap:round"/><path id="path171" d="m 495.8,481.6 h -5 c -1.6,0 -3,-1.3 -3,-3 v -5" style="fill:none;stroke:#75b640;stroke-width:1.60000002"/></g><g id="g173"><g id="g175"><path id="path177" d="m 497.8,473.5 h -13 c -1.6,0 -3,1.3 -3,3 v 24 c 0,1.7 1.4,3 3,3 h 18 c 1.7,0 3,-1.3 3,-3 v -19 l -8,-8 z" style="fill:#fff;stroke:#666;stroke-width:1.60000002;stroke-linejoin:round"/></g><line id="line179" x1="486.8" x2="500.8" y1="498.5" y2="498.5" style="fill:none;stroke:#75b640;stroke-width:1.60000002;stroke-linecap:round"/><line id="line181" x1="486.8" x2="500.8" y1="493.5" y2="493.5" style="fill:none;stroke:#75b640;stroke-width:1.60000002;stroke-linecap:round"/><line id="line183" x1="486.8" x2="500.8" y1="488.5" y2="488.5" style="fill:none;stroke:#75b640;stroke-width:1.60000002;stroke-linecap:round"/><line id="line185" x1="486.8" x2="494.8" y1="483.5" y2="483.5" style="fill:none;stroke:#75b640;stroke-width:1.60000002;stroke-linecap:round"/><line id="line187" x1="486.8" x2="492.8" y1="478.5" y2="478.5" style="fill:none;stroke:#75b640;stroke-width:1.60000002;stroke-linecap:round"/><path id="path189" d="m 505.8,481.6 h -5 c -1.6,0 -3,-1.3 -3,-3 v -5" style="fill:none;stroke:#75b640;stroke-width:1.60000002"/></g><g id="g191"><g id="g193"><path id="path195" d="m 507.8,473.5 h -13 c -1.6,0 -3,1.3 -3,3 v 24 c 0,1.7 1.4,3 3,3 h 18 c 1.7,0 3,-1.3 3,-3 v -19 l -8,-8 z" style="fill:#fff;stroke:#666;stroke-width:1.60000002;stroke-linejoin:round"/></g><line id="line197" x1="496.8" x2="510.8" y1="498.5" y2="498.5" style="fill:none;stroke:#75b640;stroke-width:1.60000002;stroke-linecap:round"/><line id="line199" x1="496.8" x2="510.8" y1="493.5" y2="493.5" style="fill:none;stroke:#75b640;stroke-width:1.60000002;stroke-linecap:round"/><line id="line201" x1="496.8" x2="510.8" y1="488.5" y2="488.5" style="fill:none;stroke:#75b640;stroke-width:1.60000002;stroke-linecap:round"/><line id="line203" x1="496.8" x2="504.8" y1="483.5" y2="483.5" style="fill:none;stroke:#75b640;stroke-width:1.60000002;stroke-linecap:round"/><line id="line205" x1="496.8" x2="502.8" y1="478.5" y2="478.5" style="fill:none;stroke:#75b640;stroke-width:1.60000002;stroke-linecap:round"/><path id="path207" d="m 515.8,481.6 h -5 c -1.6,0 -3,-1.3 -3,-3 v -5" style="fill:none;stroke:#75b640;stroke-width:1.60000002"/></g><g id="g209"><g id="g211"><path id="path213" d="m 517.8,473.5 h -13 c -1.6,0 -3,1.3 -3,3 v 24 c 0,1.7 1.4,3 3,3 h 18 c 1.7,0 3,-1.3 3,-3 v -19 l -8,-8 z" style="fill:#fff;stroke:#666;stroke-width:1.60000002;stroke-linejoin:round"/></g><line id="line215" x1="506.8" x2="520.8" y1="498.5" y2="498.5" style="fill:none;stroke:#75b640;stroke-width:1.60000002;stroke-linecap:round"/><line id="line217" x1="506.8" x2="520.8" y1="493.5" y2="493.5" style="fill:none;stroke:#75b640;stroke-width:1.60000002;stroke-linecap:round"/><line id="line219" x1="506.8" x2="520.8" y1="488.5" y2="488.5" style="fill:none;stroke:#75b640;stroke-width:1.60000002;stroke-linecap:round"/><line id="line221" x1="506.8" x2="514.8" y1="483.5" y2="483.5" style="fill:none;stroke:#75b640;stroke-width:1.60000002;stroke-linecap:round"/><line id="line223" x1="506.8" x2="512.8" y1="478.5" y2="478.5" style="fill:none;stroke:#75b640;stroke-width:1.60000002;stroke-linecap:round"/><path id="path225" d="m 525.8,481.6 h -5 c -1.6,0 -3,-1.3 -3,-3 v -5" style="fill:none;stroke:#75b640;stroke-width:1.60000002"/></g><g id="g227"><g id="g229"><path id="path231" d="m 527.8,473.5 h -13 c -1.6,0 -3,1.3 -3,3 v 24 c 0,1.7 1.4,3 3,3 h 18 c 1.7,0 3,-1.3 3,-3 v -19 l -8,-8 z" style="fill:#fff;stroke:#666;stroke-width:1.60000002;stroke-linejoin:round"/></g><line id="line233" x1="516.8" x2="530.8" y1="498.5" y2="498.5" style="fill:none;stroke:#75b640;stroke-width:1.60000002;stroke-linecap:round"/><line id="line235" x1="516.8" x2="530.8" y1="493.5" y2="493.5" style="fill:none;stroke:#75b640;stroke-width:1.60000002;stroke-linecap:round"/><line id="line237" x1="516.8" x2="530.8" y1="488.5" y2="488.5" style="fill:none;stroke:#75b640;stroke-width:1.60000002;stroke-linecap:round"/><line id="line239" x1="516.8" x2="524.8" y1="483.5" y2="483.5" style="fill:none;stroke:#75b640;stroke-width:1.60000002;stroke-linecap:round"/><line id="line241" x1="516.8" x2="522.8" y1="478.5" y2="478.5" style="fill:none;stroke:#75b640;stroke-width:1.60000002;stroke-linecap:round"/><path id="path243" d="m 535.8,481.6 h -5 c -1.6,0 -3,-1.3 -3,-3 v -5" style="fill:none;stroke:#75b640;stroke-width:1.60000002"/></g><g id="g245"><g id="g247"><path id="path249" d="m 537.8,473.5 h -13 c -1.6,0 -3,1.3 -3,3 v 24 c 0,1.7 1.4,3 3,3 h 18 c 1.7,0 3,-1.3 3,-3 v -19 l -8,-8 z" style="fill:#fff;stroke:#666;stroke-width:1.60000002;stroke-linejoin:round"/></g><line id="line251" x1="526.8" x2="540.8" y1="498.5" y2="498.5" style="fill:none;stroke:#75b640;stroke-width:1.60000002;stroke-linecap:round"/><line id="line253" x1="526.8" x2="540.8" y1="493.5" y2="493.5" style="fill:none;stroke:#75b640;stroke-width:1.60000002;stroke-linecap:round"/><line id="line255" x1="526.8" x2="540.8" y1="488.5" y2="488.5" style="fill:none;stroke:#75b640;stroke-width:1.60000002;stroke-linecap:round"/><line id="line257" x1="526.8" x2="534.8" y1="483.5" y2="483.5" style="fill:none;stroke:#75b640;stroke-width:1.60000002;stroke-linecap:round"/><line id="line259" x1="526.8" x2="532.8" y1="478.5" y2="478.5" style="fill:none;stroke:#75b640;stroke-width:1.60000002;stroke-linecap:round"/><path id="path261" d="m 545.8,481.6 h -5 c -1.6,0 -3,-1.3 -3,-3 v -5" style="fill:none;stroke:#666;stroke-width:1.60000002;stroke-linejoin:round"/></g></g><path id="path263" stroke-miterlimit="10" d="m 304.2,170.6 v 12 c 0,1.7 -1.3,3 -3,3 H 65.7 c -1.7,0 -3,-1.3 -3,-3 v -12" style="fill:none;stroke:#454746;stroke-width:1.60000002;stroke-linecap:round;stroke-miterlimit:10"/><path id="path265" d="m 104.2,136.9 c 10.2,0 19.8,-1.8 24.8,-4.7 2,-1.2 3.9,-2.5 5.2,-3.6 v -4.7 c 0,-5.5 -13.4,-10 -30,-10 -16.6,0 -30,4.5 -30,10 v 4.7 c 1.2,1.1 3.1,2.5 5.2,3.6 5.1,2.9 14.6,4.7 24.8,4.7 z" style="fill:#75b640"/><path id="path267" d="m 104.2,153 c 10.2,0 19.8,-1.8 24.8,-4.7 2,-1.2 3.9,-2.5 5.2,-3.6 v -11 c -1.3,0.9 -2.5,1.6 -3.2,2 -5.8,3.2 -15.8,5.2 -26.8,5.2 -11,0 -21.1,-1.9 -26.8,-5.2 -0.7,-0.4 -1.9,-1.1 -3.2,-2 v 11 c 1.2,1.1 3.1,2.5 5.2,3.6 5.1,2.9 14.6,4.7 24.8,4.7 z" style="fill:#75b640"/><path id="path269" d="m 104.2,157 c -11,0 -21.1,-1.9 -26.8,-5.2 -0.7,-0.4 -1.9,-1.1 -3.2,-2 v 8.2 c 0,5.5 13.4,10 30,10 16.6,0 30,-4.5 30,-10 v -8.2 c -1.3,0.9 -2.5,1.6 -3.2,2 -5.7,3.2 -15.7,5.2 -26.8,5.2 z" style="fill:#75b640"/><path id="path271" d="m 184.2,153 c 10.2,0 19.8,-1.8 24.8,-4.7 2,-1.2 3.9,-2.5 5.2,-3.6 v -11 c -1.3,0.9 -2.5,1.6 -3.2,2 -5.8,3.2 -15.8,5.2 -26.8,5.2 -11,0 -21.1,-1.9 -26.8,-5.2 -0.7,-0.4 -1.9,-1.1 -3.2,-2 v 11 c 1.2,1.1 3.1,2.5 5.2,3.6 5.1,2.9 14.6,4.7 24.8,4.7 z" style="fill:#75b640"/><path id="path273" d="m 184.2,136.9 c 10.2,0 19.8,-1.8 24.8,-4.7 2,-1.2 3.9,-2.5 5.2,-3.6 v -4.7 c 0,-5.5 -13.4,-10 -30,-10 -16.6,0 -30,4.5 -30,10 v 4.7 c 1.2,1.1 3.1,2.5 5.2,3.6 5.1,2.9 14.6,4.7 24.8,4.7 z" style="fill:#75b640"/><path id="path275" d="m 184.2,157 c -11,0 -21.1,-1.9 -26.8,-5.2 -0.7,-0.4 -1.9,-1.1 -3.2,-2 v 8.2 c 0,5.5 13.4,10 30,10 16.6,0 30,-4.5 30,-10 v -8.2 c -1.3,0.9 -2.5,1.6 -3.2,2 -5.7,3.2 -15.7,5.2 -26.8,5.2 z" style="fill:#75b640"/><path id="path277" d="m 264.2,153 c 10.2,0 19.8,-1.8 24.8,-4.7 2,-1.2 3.9,-2.5 5.2,-3.6 v -11 c -1.3,0.9 -2.5,1.6 -3.2,2 -5.8,3.2 -15.8,5.2 -26.8,5.2 -11,0 -21.1,-1.9 -26.8,-5.2 -0.7,-0.4 -1.9,-1.1 -3.2,-2 v 11 c 1.2,1.1 3.1,2.5 5.2,3.6 5.1,2.9 14.6,4.7 24.8,4.7 z" style="fill:#75b640"/><path id="path279" d="m 264.2,157 c -11,0 -21.1,-1.9 -26.8,-5.2 -0.7,-0.4 -1.9,-1.1 -3.2,-2 v 8.2 c 0,5.5 13.4,10 30,10 16.6,0 30,-4.5 30,-10 v -8.2 c -1.3,0.9 -2.5,1.6 -3.2,2 -5.7,3.2 -15.7,5.2 -26.8,5.2 z" style="fill:#75b640"/><path id="path281" d="m 264.2,136.9 c 10.2,0 19.8,-1.8 24.8,-4.7 2,-1.2 3.9,-2.5 5.2,-3.6 v -4.7 c 0,-5.5 -13.4,-10 -30,-10 -16.6,0 -30,4.5 -30,10 v 4.7 c 1.2,1.1 3.1,2.5 5.2,3.6 5.1,2.9 14.6,4.7 24.8,4.7 z" style="fill:#75b640"/></svg>