<svg xmlns="http://www.w3.org/2000/svg" xmlns:svg="http://www.w3.org/2000/svg" id="Layer_1" width="100%" height="100%" x="0" y="0" enable-background="new 0 0 1280 800" version="1.1" viewBox="0 0 530 350" xml:space="preserve"><metadata id="metadata3737"/><path id="path3431" d="M 527,350 H 3 c -1.7,0 -3,-1.3 -3,-3 V 3 C 0,1.4 1.3,0 3,0 h 524 c 1.7,0 3,1.4 3,3 v 344 c 0,1.6 -1.3,3 -3,3 z" style="fill:#f8faf6"/><g id="g3433" transform="translate(-374.4,-224.5)"><path id="path3435" d="m 450.6,526 v 10.8 h -2 V 526 h 2 z" style="fill:#454746"/><path id="path3437" d="m 452.9,531.3 c 0,-0.9 0,-1.6 -0.1,-2.3 h 1.7 l 0.1,1.2 h 0 c 0.3,-0.6 1.2,-1.3 2.5,-1.3 1.4,0 2.8,0.9 2.8,3.3 v 4.6 h -2 v -4.4 c 0,-1.1 -0.4,-2 -1.5,-2 -0.8,0 -1.3,0.6 -1.5,1.2 -0.1,0.2 -0.1,0.4 -0.1,0.6 v 4.6 h -2 v -5.5 z" style="fill:#454746"/><path id="path3439" d="m 465.6,531.8 v 1.4 h -4.1 v -1.4 h 4.1 z" style="fill:#454746"/><path id="path3441" d="m 467.1,531.3 c 0,-0.9 0,-1.6 -0.1,-2.3 h 1.7 l 0.1,1.2 h 0 c 0.4,-0.6 1.1,-1.3 2.4,-1.3 1,0 1.8,0.6 2.2,1.4 h 0 c 0.3,-0.4 0.6,-0.8 1,-1 0.4,-0.3 0.9,-0.5 1.6,-0.5 1.3,0 2.6,0.9 2.6,3.4 v 4.6 h -1.9 v -4.3 c 0,-1.3 -0.4,-2.1 -1.4,-2.1 -0.7,0 -1.2,0.5 -1.4,1 0,0.2 -0.1,0.4 -0.1,0.7 v 4.7 h -1.9 v -4.5 c 0,-1.1 -0.4,-1.9 -1.3,-1.9 -0.7,0 -1.2,0.6 -1.4,1.1 -0.1,0.2 -0.1,0.4 -0.1,0.6 v 4.6 h -1.9 v -5.4 z" style="fill:#454746"/><path id="path3443" d="m 482.1,533.4 c 0,1.4 1.2,2 2.4,2 0.9,0 1.6,-0.1 2.2,-0.4 l 0.3,1.4 c -0.7,0.3 -1.6,0.5 -2.7,0.5 -2.5,0 -4,-1.6 -4,-3.9 0,-2.2 1.3,-4.2 3.8,-4.2 2.5,0 3.4,2.1 3.4,3.8 0,0.4 0,0.7 -0.1,0.8 h -5.3 z m 3.4,-1.4 c 0,-0.7 -0.3,-1.9 -1.6,-1.9 -1.2,0 -1.7,1.1 -1.8,1.9 h 3.4 z" style="fill:#454746"/><path id="path3445" d="m 488.9,531.3 c 0,-0.9 0,-1.6 -0.1,-2.3 h 1.7 l 0.1,1.2 h 0 c 0.4,-0.6 1.1,-1.3 2.4,-1.3 1,0 1.8,0.6 2.2,1.4 h 0 c 0.3,-0.4 0.6,-0.8 1,-1 0.4,-0.3 0.9,-0.5 1.6,-0.5 1.3,0 2.6,0.9 2.6,3.4 v 4.6 h -1.9 v -4.3 c 0,-1.3 -0.4,-2.1 -1.4,-2.1 -0.7,0 -1.2,0.5 -1.4,1 0,0.2 -0.1,0.4 -0.1,0.7 v 4.7 h -1.9 v -4.5 c 0,-1.1 -0.4,-1.9 -1.3,-1.9 -0.7,0 -1.2,0.6 -1.4,1.1 -0.1,0.2 -0.1,0.4 -0.1,0.6 v 4.6 H 489 v -5.4 z" style="fill:#454746"/><path id="path3447" d="m 509.9,532.8 c 0,2.9 -2,4.1 -4,4.1 -2.2,0 -3.9,-1.5 -3.9,-4 0,-2.6 1.7,-4.1 4,-4.1 2.4,0 3.9,1.6 3.9,4 z m -5.9,0.1 c 0,1.5 0.7,2.6 1.9,2.6 1.1,0 1.9,-1.1 1.9,-2.7 0,-1.2 -0.5,-2.6 -1.9,-2.6 -1.3,0 -1.9,1.4 -1.9,2.7 z" style="fill:#454746"/><path id="path3449" d="m 511.5,531.5 c 0,-1.1 0,-1.8 -0.1,-2.5 h 1.7 l 0.1,1.5 h 0.1 c 0.4,-1.1 1.3,-1.7 2.1,-1.7 0.2,0 0.3,0 0.5,0 v 1.9 c -0.2,0 -0.3,-0.1 -0.6,-0.1 -0.9,0 -1.6,0.6 -1.8,1.5 0,0.2 -0.1,0.4 -0.1,0.6 v 4 h -2 v -5.2 z" style="fill:#454746"/><path id="path3451" d="m 518.8,529 1.4,4.2 c 0.2,0.5 0.3,1.1 0.4,1.5 h 0 c 0.1,-0.4 0.3,-1 0.4,-1.5 l 1.2,-4.2 h 2.1 l -2,5.3 c -1.1,2.9 -1.8,4.2 -2.7,5 -0.8,0.7 -1.6,0.9 -2.1,1 l -0.4,-1.7 c 0.3,-0.1 0.8,-0.3 1.2,-0.5 0.4,-0.2 0.8,-0.7 1.1,-1.2 0.1,-0.1 0.1,-0.3 0.1,-0.4 0,-0.1 0,-0.2 -0.1,-0.4 l -2.8,-7.2 h 2.2 z" style="fill:#454746"/><path id="path3453" d="m 528.8,536.7 c 0,-0.5 0.1,-1.4 0.1,-2.2 v -9.2 h 2 v 4.6 h 0 c 0.5,-0.8 1.3,-1.2 2.5,-1.2 1.9,0 3.3,1.6 3.2,4 0,2.8 -1.8,4.2 -3.5,4.2 -1,0 -1.9,-0.4 -2.5,-1.3 h 0 l -0.1,1.2 h -1.7 z m 2,-3.2 c 0,0.2 0,0.3 0,0.5 0.2,0.8 0.9,1.4 1.7,1.4 1.2,0 2,-1 2,-2.6 0,-1.4 -0.7,-2.5 -2,-2.5 -0.8,0 -1.5,0.6 -1.7,1.4 0,0.1 -0.1,0.3 -0.1,0.5 v 1.3 z" style="fill:#454746"/><path id="path3455" d="m 545.2,534.4 c 0,0.9 0,1.7 0.1,2.3 h -1.7 l -0.1,-1.2 h 0 c -0.3,0.6 -1.1,1.4 -2.5,1.4 -1.4,0 -2.7,-0.8 -2.7,-3.4 V 529 h 2 v 4.2 c 0,1.3 0.4,2.1 1.5,2.1 0.8,0 1.3,-0.6 1.5,-1.1 0.1,-0.2 0.1,-0.4 0.1,-0.6 V 529 h 2 v 5.4 z" style="fill:#454746"/><path id="path3457" d="m 552.4,536.7 v -6.3 h -2.8 v 6.3 h -2 v -6.3 h -1.1 V 529 h 1.1 v -0.2 c 0,-1 0.2,-1.9 0.9,-2.6 0.5,-0.5 1.2,-0.8 2.2,-0.8 0.4,0 0.8,0.1 1.1,0.2 l -0.3,1.5 c -0.2,-0.1 -0.4,-0.1 -0.7,-0.1 -0.9,0 -1.2,0.8 -1.2,1.7 v 0.3 h 2.8 v -0.3 c 0,-1 0.3,-2 1,-2.7 0.6,-0.5 1.3,-0.8 2,-0.8 0.5,0 0.9,0.1 1.2,0.2 l -0.1,1.5 c -0.2,-0.1 -0.5,-0.1 -0.8,-0.1 -1,0 -1.3,0.8 -1.3,1.8 v 0.4 h 1.7 v 1.5 h -1.7 v 6.3 h -2 z" style="fill:#454746"/><path id="path3459" d="m 558.5,533.4 c 0,1.4 1.2,2 2.4,2 0.9,0 1.6,-0.1 2.2,-0.4 l 0.3,1.4 c -0.7,0.3 -1.6,0.5 -2.7,0.5 -2.5,0 -4,-1.6 -4,-3.9 0,-2.2 1.3,-4.2 3.8,-4.2 2.5,0 3.4,2.1 3.4,3.8 0,0.4 0,0.7 -0.1,0.8 h -5.3 z m 3.4,-1.4 c 0,-0.7 -0.3,-1.9 -1.6,-1.9 -1.2,0 -1.7,1.1 -1.8,1.9 h 3.4 z" style="fill:#454746"/><path id="path3461" d="m 565.3,531.5 c 0,-1.1 0,-1.8 -0.1,-2.5 h 1.7 l 0.1,1.5 h 0.1 c 0.4,-1.1 1.3,-1.7 2.1,-1.7 0.2,0 0.3,0 0.5,0 v 1.9 c -0.2,0 -0.3,-0.1 -0.6,-0.1 -0.9,0 -1.6,0.6 -1.8,1.5 0,0.2 -0.1,0.4 -0.1,0.6 v 4 h -2 v -5.2 z" style="fill:#454746"/></g><path id="path3463" stroke-miterlimit="10" d="M 202.6,290.8 H 65.8 c -1.7,0 -3.1,-1.3 -3.1,-3 v -48 c 0,-1.7 1.4,-3 3.1,-3 h 136.8 c 1.7,0 3.1,1.3 3.1,3 v 48 c 0,1.7 -1.4,3 -3.1,3 z" style="fill:#fff;stroke:#c6c6c6;stroke-width:1.60000002;stroke-linecap:round;stroke-miterlimit:10;stroke-dasharray:4"/><g id="g3465" transform="translate(-374.4,-224.5)"><path id="path3467" d="M 692.1,527.6 H 689 V 526 h 8.1 v 1.6 H 694 v 9.1 h -2 v -9.1 z" style="fill:#454746"/><path id="path3469" d="m 697.5,531.5 c 0,-1.1 0,-1.8 -0.1,-2.5 h 1.7 l 0.1,1.5 h 0.1 c 0.4,-1.1 1.3,-1.7 2.1,-1.7 0.2,0 0.3,0 0.5,0 v 1.9 c -0.2,0 -0.3,-0.1 -0.6,-0.1 -0.9,0 -1.6,0.6 -1.8,1.5 0,0.2 -0.1,0.4 -0.1,0.6 v 4 h -2 v -5.2 z" style="fill:#454746"/><path id="path3471" d="m 707.5,536.7 -0.1,-0.9 h 0 c -0.5,0.6 -1.3,1 -2.3,1 -1.6,0 -2.4,-1.1 -2.4,-2.3 0,-2 1.7,-3 4.6,-2.9 v -0.1 c 0,-0.5 -0.2,-1.4 -1.6,-1.4 -0.8,0 -1.6,0.2 -2.1,0.6 l -0.4,-1.3 c 0.6,-0.4 1.6,-0.7 2.8,-0.7 2.5,0 3.2,1.6 3.2,3.3 v 2.8 c 0,0.7 0,1.4 0.1,1.9 h -1.8 z m -0.3,-3.8 c -1.4,0 -2.7,0.3 -2.7,1.5 0,0.8 0.5,1.1 1.1,1.1 0.8,0 1.4,-0.5 1.5,-1.1 0,-0.1 0.1,-0.3 0.1,-0.4 v -1.1 z" style="fill:#454746"/><path id="path3473" d="m 711.2,531.3 c 0,-0.9 0,-1.6 -0.1,-2.3 h 1.7 l 0.1,1.2 h 0 c 0.3,-0.6 1.2,-1.3 2.5,-1.3 1.4,0 2.8,0.9 2.8,3.3 v 4.6 h -2 v -4.4 c 0,-1.1 -0.4,-2 -1.5,-2 -0.8,0 -1.3,0.6 -1.5,1.2 -0.1,0.2 -0.1,0.4 -0.1,0.6 v 4.6 h -2 v -5.5 z" style="fill:#454746"/><path id="path3475" d="m 720.3,534.9 c 0.4,0.3 1.3,0.6 2,0.6 0.9,0 1.2,-0.4 1.2,-0.9 0,-0.5 -0.3,-0.8 -1.3,-1.1 -1.5,-0.5 -2.2,-1.4 -2.1,-2.3 0,-1.4 1.1,-2.4 2.9,-2.4 0.9,0 1.6,0.2 2.1,0.5 l -0.4,1.4 c -0.3,-0.2 -1,-0.4 -1.6,-0.4 -0.7,0 -1.1,0.3 -1.1,0.8 0,0.5 0.4,0.7 1.4,1.1 1.4,0.5 2.1,1.2 2.1,2.4 0,1.4 -1.1,2.4 -3.2,2.4 -0.9,0 -1.8,-0.2 -2.4,-0.5 l 0.4,-1.6 z" style="fill:#454746"/><path id="path3477" d="m 727,525.4 h 2 v 11.4 h -2 v -11.4 z" style="fill:#454746"/><path id="path3479" d="m 738.6,532.8 c 0,2.9 -2,4.1 -4,4.1 -2.2,0 -3.9,-1.5 -3.9,-4 0,-2.6 1.7,-4.1 4,-4.1 2.3,0 3.9,1.6 3.9,4 z m -5.9,0.1 c 0,1.5 0.7,2.6 1.9,2.6 1.1,0 1.9,-1.1 1.9,-2.7 0,-1.2 -0.5,-2.6 -1.9,-2.6 -1.3,0 -1.9,1.4 -1.9,2.7 z" style="fill:#454746"/><path id="path3481" d="m 747.3,529 c 0,0.5 -0.1,1.2 -0.1,2.2 v 4.4 c 0,1.6 -0.3,2.8 -1.2,3.5 -0.8,0.7 -1.9,0.9 -3,0.9 -1,0 -2,-0.2 -2.7,-0.6 l 0.4,-1.5 c 0.5,0.3 1.3,0.6 2.3,0.6 1.3,0 2.2,-0.7 2.2,-2.4 v -0.7 h 0 c -0.4,0.7 -1.2,1.2 -2.3,1.2 -1.9,0 -3.3,-1.6 -3.3,-3.8 0,-2.6 1.7,-4.1 3.5,-4.1 1.2,0 1.9,0.6 2.3,1.2 h 0 l 0.1,-1 h 1.8 z m -2,3.1 c 0,-0.2 0,-0.4 -0.1,-0.5 -0.2,-0.7 -0.8,-1.3 -1.6,-1.3 -1.1,0 -1.9,1 -1.9,2.5 0,1.3 0.7,2.4 1.9,2.4 0.7,0 1.4,-0.5 1.6,-1.2 0,-0.2 0.1,-0.5 0.1,-0.7 v -1.2 z" style="fill:#454746"/></g><path id="path3483" stroke-miterlimit="10" d="M 462,291.2 H 224.7 c -1.7,0 -3,-1.3 -3,-3 v -48 c 0,-1.7 1.3,-3 3,-3 H 462 c 1.7,0 3,1.3 3,3 v 48 c 0,1.6 -1.4,3 -3,3 z" style="fill:#fff;stroke:#c6c6c6;stroke-width:1.60000002;stroke-miterlimit:10"/><g id="g3485" transform="translate(-374.4,-224.5)"><g id="g3487"><g id="g3489"><path id="path3491" d="m 626.6,473.7 h -13 c -1.6,0 -3,1.3 -3,3 v 24 c 0,1.7 1.4,3 3,3 h 18 c 1.7,0 3,-1.3 3,-3 v -19 l -8,-8 z" style="fill:#fff;stroke:#666;stroke-width:1.60000002;stroke-linejoin:round"/></g><line id="line3493" x1="615.6" x2="629.6" y1="498.7" y2="498.7" style="fill:none;stroke:#75b640;stroke-width:1.60000002;stroke-linecap:round"/><line id="line3495" x1="615.6" x2="629.6" y1="493.7" y2="493.7" style="fill:none;stroke:#75b640;stroke-width:1.60000002;stroke-linecap:round"/><line id="line3497" x1="615.6" x2="629.6" y1="488.7" y2="488.7" style="fill:none;stroke:#75b640;stroke-width:1.60000002;stroke-linecap:round"/><line id="line3499" x1="615.6" x2="623.6" y1="483.7" y2="483.7" style="fill:none;stroke:#75b640;stroke-width:1.60000002;stroke-linecap:round"/><line id="line3501" x1="615.6" x2="621.6" y1="478.7" y2="478.7" style="fill:none;stroke:#75b640;stroke-width:1.60000002;stroke-linecap:round"/><path id="path3503" d="m 634.6,481.8 h -5 c -1.6,0 -3,-1.3 -3,-3 v -5" style="fill:none;stroke:#75b640;stroke-width:1.60000002"/></g><g id="g3505"><g id="g3507"><path id="path3509" d="m 636.6,473.7 h -13 c -1.6,0 -3,1.3 -3,3 v 24 c 0,1.7 1.4,3 3,3 h 18 c 1.7,0 3,-1.3 3,-3 v -19 l -8,-8 z" style="fill:#fff;stroke:#666;stroke-width:1.60000002;stroke-linejoin:round"/></g><line id="line3511" x1="625.6" x2="639.6" y1="498.7" y2="498.7" style="fill:none;stroke:#75b640;stroke-width:1.60000002;stroke-linecap:round"/><line id="line3513" x1="625.6" x2="639.6" y1="493.7" y2="493.7" style="fill:none;stroke:#75b640;stroke-width:1.60000002;stroke-linecap:round"/><line id="line3515" x1="625.6" x2="639.6" y1="488.7" y2="488.7" style="fill:none;stroke:#75b640;stroke-width:1.60000002;stroke-linecap:round"/><line id="line3517" x1="625.6" x2="633.6" y1="483.7" y2="483.7" style="fill:none;stroke:#75b640;stroke-width:1.60000002;stroke-linecap:round"/><line id="line3519" x1="625.6" x2="631.6" y1="478.7" y2="478.7" style="fill:none;stroke:#75b640;stroke-width:1.60000002;stroke-linecap:round"/><path id="path3521" d="m 644.6,481.8 h -5 c -1.6,0 -3,-1.3 -3,-3 v -5" style="fill:none;stroke:#75b640;stroke-width:1.60000002"/></g><g id="g3523"><g id="g3525"><path id="path3527" d="m 646.6,473.7 h -13 c -1.6,0 -3,1.3 -3,3 v 24 c 0,1.7 1.4,3 3,3 h 18 c 1.7,0 3,-1.3 3,-3 v -19 l -8,-8 z" style="fill:#fff;stroke:#666;stroke-width:1.60000002;stroke-linejoin:round"/></g><line id="line3529" x1="635.6" x2="649.6" y1="498.7" y2="498.7" style="fill:none;stroke:#75b640;stroke-width:1.60000002;stroke-linecap:round"/><line id="line3531" x1="635.6" x2="649.6" y1="493.7" y2="493.7" style="fill:none;stroke:#75b640;stroke-width:1.60000002;stroke-linecap:round"/><line id="line3533" x1="635.6" x2="649.6" y1="488.7" y2="488.7" style="fill:none;stroke:#75b640;stroke-width:1.60000002;stroke-linecap:round"/><line id="line3535" x1="635.6" x2="643.6" y1="483.7" y2="483.7" style="fill:none;stroke:#75b640;stroke-width:1.60000002;stroke-linecap:round"/><line id="line3537" x1="635.6" x2="641.6" y1="478.7" y2="478.7" style="fill:none;stroke:#75b640;stroke-width:1.60000002;stroke-linecap:round"/><path id="path3539" d="m 654.6,481.8 h -5 c -1.6,0 -3,-1.3 -3,-3 v -5" style="fill:none;stroke:#75b640;stroke-width:1.60000002"/></g><g id="g3541"><g id="g3543"><path id="path3545" d="m 656.6,473.7 h -13 c -1.6,0 -3,1.3 -3,3 v 24 c 0,1.7 1.4,3 3,3 h 18 c 1.7,0 3,-1.3 3,-3 v -19 l -8,-8 z" style="fill:#fff;stroke:#666;stroke-width:1.60000002;stroke-linejoin:round"/></g><line id="line3547" x1="645.6" x2="659.6" y1="498.7" y2="498.7" style="fill:none;stroke:#75b640;stroke-width:1.60000002;stroke-linecap:round"/><line id="line3549" x1="645.6" x2="659.6" y1="493.7" y2="493.7" style="fill:none;stroke:#75b640;stroke-width:1.60000002;stroke-linecap:round"/><line id="line3551" x1="645.6" x2="659.6" y1="488.7" y2="488.7" style="fill:none;stroke:#75b640;stroke-width:1.60000002;stroke-linecap:round"/><line id="line3553" x1="645.6" x2="653.6" y1="483.7" y2="483.7" style="fill:none;stroke:#75b640;stroke-width:1.60000002;stroke-linecap:round"/><line id="line3555" x1="645.6" x2="651.6" y1="478.7" y2="478.7" style="fill:none;stroke:#75b640;stroke-width:1.60000002;stroke-linecap:round"/><path id="path3557" d="m 664.6,481.8 h -5 c -1.6,0 -3,-1.3 -3,-3 v -5" style="fill:none;stroke:#75b640;stroke-width:1.60000002"/></g><g id="g3559"><g id="g3561"><path id="path3563" d="m 666.6,473.7 h -13 c -1.6,0 -3,1.3 -3,3 v 24 c 0,1.7 1.4,3 3,3 h 18 c 1.7,0 3,-1.3 3,-3 v -19 l -8,-8 z" style="fill:#fff;stroke:#666;stroke-width:1.60000002;stroke-linejoin:round"/></g><line id="line3565" x1="655.6" x2="669.6" y1="498.7" y2="498.7" style="fill:none;stroke:#75b640;stroke-width:1.60000002;stroke-linecap:round"/><line id="line3567" x1="655.6" x2="669.6" y1="493.7" y2="493.7" style="fill:none;stroke:#75b640;stroke-width:1.60000002;stroke-linecap:round"/><line id="line3569" x1="655.6" x2="669.6" y1="488.7" y2="488.7" style="fill:none;stroke:#75b640;stroke-width:1.60000002;stroke-linecap:round"/><line id="line3571" x1="655.6" x2="663.6" y1="483.7" y2="483.7" style="fill:none;stroke:#75b640;stroke-width:1.60000002;stroke-linecap:round"/><line id="line3573" x1="655.6" x2="661.6" y1="478.7" y2="478.7" style="fill:none;stroke:#75b640;stroke-width:1.60000002;stroke-linecap:round"/><path id="path3575" d="m 674.6,481.8 h -5 c -1.6,0 -3,-1.3 -3,-3 v -5" style="fill:none;stroke:#75b640;stroke-width:1.60000002"/></g><g id="g3577"><g id="g3579"><path id="path3581" d="m 676.6,473.7 h -13 c -1.6,0 -3,1.3 -3,3 v 24 c 0,1.7 1.4,3 3,3 h 18 c 1.7,0 3,-1.3 3,-3 v -19 l -8,-8 z" style="fill:#fff;stroke:#666;stroke-width:1.60000002;stroke-linejoin:round"/></g><line id="line3583" x1="665.6" x2="679.6" y1="498.7" y2="498.7" style="fill:none;stroke:#75b640;stroke-width:1.60000002;stroke-linecap:round"/><line id="line3585" x1="665.6" x2="679.6" y1="493.7" y2="493.7" style="fill:none;stroke:#75b640;stroke-width:1.60000002;stroke-linecap:round"/><line id="line3587" x1="665.6" x2="679.6" y1="488.7" y2="488.7" style="fill:none;stroke:#75b640;stroke-width:1.60000002;stroke-linecap:round"/><line id="line3589" x1="665.6" x2="673.6" y1="483.7" y2="483.7" style="fill:none;stroke:#75b640;stroke-width:1.60000002;stroke-linecap:round"/><line id="line3591" x1="665.6" x2="671.6" y1="478.7" y2="478.7" style="fill:none;stroke:#75b640;stroke-width:1.60000002;stroke-linecap:round"/><path id="path3593" d="m 684.6,481.8 h -5 c -1.6,0 -3,-1.3 -3,-3 v -5" style="fill:none;stroke:#75b640;stroke-width:1.60000002"/></g><g id="g3595"><g id="g3597"><path id="path3599" d="m 686.6,473.7 h -13 c -1.6,0 -3,1.3 -3,3 v 24 c 0,1.7 1.4,3 3,3 h 18 c 1.7,0 3,-1.3 3,-3 v -19 l -8,-8 z" style="fill:#fff;stroke:#666;stroke-width:1.60000002;stroke-linejoin:round"/></g><line id="line3601" x1="675.6" x2="689.6" y1="498.7" y2="498.7" style="fill:none;stroke:#75b640;stroke-width:1.60000002;stroke-linecap:round"/><line id="line3603" x1="675.6" x2="689.6" y1="493.7" y2="493.7" style="fill:none;stroke:#75b640;stroke-width:1.60000002;stroke-linecap:round"/><line id="line3605" x1="675.6" x2="689.6" y1="488.7" y2="488.7" style="fill:none;stroke:#75b640;stroke-width:1.60000002;stroke-linecap:round"/><line id="line3607" x1="675.6" x2="683.6" y1="483.7" y2="483.7" style="fill:none;stroke:#75b640;stroke-width:1.60000002;stroke-linecap:round"/><line id="line3609" x1="675.6" x2="681.6" y1="478.7" y2="478.7" style="fill:none;stroke:#75b640;stroke-width:1.60000002;stroke-linecap:round"/><path id="path3611" d="m 694.6,481.8 h -5 c -1.6,0 -3,-1.3 -3,-3 v -5" style="fill:none;stroke:#75b640;stroke-width:1.60000002"/></g><g id="g3613"><g id="g3615"><path id="path3617" d="m 696.6,473.7 h -13 c -1.6,0 -3,1.3 -3,3 v 24 c 0,1.7 1.4,3 3,3 h 18 c 1.7,0 3,-1.3 3,-3 v -19 l -8,-8 z" style="fill:#fff;stroke:#666;stroke-width:1.60000002;stroke-linejoin:round"/></g><line id="line3619" x1="685.6" x2="699.6" y1="498.7" y2="498.7" style="fill:none;stroke:#75b640;stroke-width:1.60000002;stroke-linecap:round"/><line id="line3621" x1="685.6" x2="699.6" y1="493.7" y2="493.7" style="fill:none;stroke:#75b640;stroke-width:1.60000002;stroke-linecap:round"/><line id="line3623" x1="685.6" x2="699.6" y1="488.7" y2="488.7" style="fill:none;stroke:#75b640;stroke-width:1.60000002;stroke-linecap:round"/><line id="line3625" x1="685.6" x2="693.6" y1="483.7" y2="483.7" style="fill:none;stroke:#75b640;stroke-width:1.60000002;stroke-linecap:round"/><line id="line3627" x1="685.6" x2="691.6" y1="478.7" y2="478.7" style="fill:none;stroke:#75b640;stroke-width:1.60000002;stroke-linecap:round"/><path id="path3629" d="m 704.6,481.8 h -5 c -1.6,0 -3,-1.3 -3,-3 v -5" style="fill:none;stroke:#666;stroke-width:1.60000002;stroke-linejoin:round"/></g></g><g id="g3631" transform="translate(-374.4,-224.5)"><path id="path3633" d="m 520,270.4 c -0.5,0.2 -1.5,0.5 -2.8,0.5 -3.4,0 -5.5,-2.1 -5.5,-5.4 0,-3.6 2.5,-5.7 5.8,-5.7 1.3,0 2.2,0.3 2.6,0.5 l -0.4,1.6 c -0.5,-0.2 -1.2,-0.4 -2.1,-0.4 -2.2,0 -3.8,1.4 -3.8,4 0,2.4 1.4,3.9 3.8,3.9 0.8,0 1.6,-0.2 2.1,-0.4 l 0.3,1.4 z" style="fill:#454746"/><path id="path3635" d="m 528.8,266.8 c 0,2.9 -2,4.1 -4,4.1 -2.2,0 -3.9,-1.5 -3.9,-4 0,-2.6 1.7,-4.1 4,-4.1 2.3,0 3.9,1.6 3.9,4 z m -5.9,0.1 c 0,1.5 0.7,2.6 1.9,2.6 1.1,0 1.9,-1.1 1.9,-2.7 0,-1.2 -0.5,-2.6 -1.9,-2.6 -1.3,0 -1.9,1.4 -1.9,2.7 z" style="fill:#454746"/><path id="path3637" d="m 530.4,265.3 c 0,-0.9 0,-1.6 -0.1,-2.3 h 1.7 l 0.1,1.2 h 0 c 0.4,-0.6 1.1,-1.3 2.4,-1.3 1,0 1.8,0.6 2.2,1.4 h 0 c 0.3,-0.4 0.6,-0.8 1,-1 0.4,-0.3 0.9,-0.5 1.6,-0.5 1.3,0 2.6,0.9 2.6,3.4 v 4.6 H 540 v -4.3 c 0,-1.3 -0.4,-2.1 -1.4,-2.1 -0.7,0 -1.2,0.5 -1.4,1 0,0.2 -0.1,0.4 -0.1,0.7 v 4.7 h -1.9 v -4.5 c 0,-1.1 -0.4,-1.9 -1.3,-1.9 -0.7,0 -1.2,0.6 -1.4,1.1 -0.1,0.2 -0.1,0.4 -0.1,0.6 v 4.6 h -1.9 v -5.4 z" style="fill:#454746"/><path id="path3639" d="m 544,265.3 c 0,-0.9 0,-1.6 -0.1,-2.3 h 1.7 l 0.1,1.2 h 0 c 0.4,-0.6 1.1,-1.3 2.4,-1.3 1,0 1.8,0.6 2.2,1.4 h 0 c 0.3,-0.4 0.6,-0.8 1,-1 0.4,-0.3 0.9,-0.5 1.6,-0.5 1.3,0 2.6,0.9 2.6,3.4 v 4.6 h -1.9 v -4.3 c 0,-1.3 -0.4,-2.1 -1.4,-2.1 -0.7,0 -1.2,0.5 -1.4,1 0,0.2 -0.1,0.4 -0.1,0.7 v 4.7 h -1.9 v -4.5 c 0,-1.1 -0.4,-1.9 -1.3,-1.9 -0.7,0 -1.2,0.6 -1.4,1.1 -0.1,0.2 -0.1,0.4 -0.1,0.6 v 4.6 h -2 v -5.4 z" style="fill:#454746"/><path id="path3641" d="m 559.6,260.8 c 0,0.6 -0.4,1.1 -1.1,1.1 -0.7,0 -1.1,-0.5 -1.1,-1.1 0,-0.6 0.4,-1.1 1.1,-1.1 0.7,0 1.1,0.5 1.1,1.1 z m -2.1,9.9 V 263 h 2 v 7.8 h -2 z" style="fill:#454746"/><path id="path3643" d="m 563.9,260.7 v 2.2 h 1.9 v 1.5 h -1.9 v 3.4 c 0,0.9 0.3,1.4 1,1.4 0.3,0 0.6,0 0.8,-0.1 l 0,1.5 c -0.3,0.1 -0.8,0.2 -1.4,0.2 -0.7,0 -1.3,-0.2 -1.7,-0.6 -0.4,-0.4 -0.6,-1.2 -0.6,-2.2 v -3.7 h -1.1 V 263 h 1.1 v -1.8 l 1.9,-0.5 z" style="fill:#454746"/><path id="path3645" d="m 570.6,265.5 c 0,-1 0,-1.9 -0.1,-2.6 h 1.7 l 0.1,1.2 h 0 c 0.6,-0.9 1.5,-1.4 2.7,-1.4 1.8,0 3.3,1.5 3.3,4 0,2.8 -1.8,4.2 -3.6,4.2 -1,0 -1.8,-0.4 -2.2,-1 h 0 v 4 h -2 v -8.4 z m 1.9,2 c 0,0.2 0,0.4 0.1,0.5 0.2,0.8 0.9,1.4 1.7,1.4 1.2,0 2,-1 2,-2.6 0,-1.4 -0.7,-2.5 -1.9,-2.5 -0.8,0 -1.6,0.6 -1.8,1.5 0,0.2 -0.1,0.3 -0.1,0.5 v 1.2 z" style="fill:#454746"/><path id="path3647" d="m 587.3,266.8 c 0,2.9 -2,4.1 -4,4.1 -2.2,0 -3.9,-1.5 -3.9,-4 0,-2.6 1.7,-4.1 4,-4.1 2.4,0 3.9,1.6 3.9,4 z m -5.9,0.1 c 0,1.5 0.7,2.6 1.9,2.6 1.1,0 1.9,-1.1 1.9,-2.7 0,-1.2 -0.5,-2.6 -1.9,-2.6 -1.3,0 -1.9,1.4 -1.9,2.7 z" style="fill:#454746"/><path id="path3649" d="m 591,260.8 c 0,0.6 -0.4,1.1 -1.1,1.1 -0.7,0 -1.1,-0.5 -1.1,-1.1 0,-0.6 0.4,-1.1 1.1,-1.1 0.7,0 1.1,0.5 1.1,1.1 z m -2.1,9.9 V 263 h 2 v 7.8 h -2 z" style="fill:#454746"/><path id="path3651" d="m 593,265.3 c 0,-0.9 0,-1.6 -0.1,-2.3 h 1.7 l 0.1,1.2 h 0 c 0.3,-0.6 1.2,-1.3 2.5,-1.3 1.4,0 2.8,0.9 2.8,3.3 v 4.6 h -2 v -4.4 c 0,-1.1 -0.4,-2 -1.5,-2 -0.8,0 -1.3,0.6 -1.5,1.2 -0.1,0.2 -0.1,0.4 -0.1,0.6 v 4.6 h -2 v -5.5 z" style="fill:#454746"/><path id="path3653" d="m 604.4,260.7 v 2.2 h 1.9 v 1.5 h -1.9 v 3.4 c 0,0.9 0.3,1.4 1,1.4 0.3,0 0.6,0 0.8,-0.1 l 0,1.5 c -0.3,0.1 -0.8,0.2 -1.4,0.2 -0.7,0 -1.3,-0.2 -1.7,-0.6 -0.4,-0.4 -0.6,-1.2 -0.6,-2.2 v -3.7 h -1.1 V 263 h 1.1 v -1.8 l 1.9,-0.5 z" style="fill:#454746"/></g><g id="g3655" transform="translate(-374.4,-224.5)"><path id="path3657" d="m 561.4,431 c 0.6,0.4 1.6,0.7 2.6,0.7 1.3,0 2,-0.6 2,-1.5 0,-0.8 -0.5,-1.3 -1.9,-1.8 -1.8,-0.6 -2.9,-1.6 -2.9,-3.1 0,-1.8 1.5,-3.1 3.8,-3.1 1.2,0 2,0.3 2.6,0.5 l -0.5,1.6 c -0.4,-0.2 -1.1,-0.5 -2.1,-0.5 -1.2,0 -1.8,0.7 -1.8,1.3 0,0.8 0.6,1.2 2.1,1.8 1.9,0.7 2.8,1.6 2.8,3.2 0,1.7 -1.3,3.2 -4.1,3.2 -1.1,0 -2.3,-0.3 -2.9,-0.7 l 0.3,-1.6 z" style="fill:#454746"/><path id="path3659" d="m 571.2,429.8 c 0,1.4 1.2,2 2.4,2 0.9,0 1.6,-0.1 2.2,-0.4 l 0.3,1.4 c -0.7,0.3 -1.6,0.5 -2.7,0.5 -2.5,0 -4,-1.6 -4,-3.9 0,-2.2 1.3,-4.2 3.8,-4.2 2.5,0 3.4,2.1 3.4,3.8 0,0.4 0,0.7 -0.1,0.8 h -5.3 z m 3.4,-1.4 c 0,-0.7 -0.3,-1.9 -1.6,-1.9 -1.2,0 -1.7,1.1 -1.8,1.9 h 3.4 z" style="fill:#454746"/><path id="path3661" d="m 582.4,433.2 -0.1,-0.9 h 0 c -0.5,0.6 -1.3,1 -2.3,1 -1.6,0 -2.4,-1.1 -2.4,-2.3 0,-2 1.7,-3 4.6,-2.9 V 428 c 0,-0.5 -0.2,-1.4 -1.6,-1.4 -0.8,0 -1.6,0.2 -2.1,0.6 l -0.4,-1.3 c 0.6,-0.4 1.6,-0.7 2.8,-0.7 2.5,0 3.2,1.6 3.2,3.3 v 2.8 c 0,0.7 0,1.4 0.1,1.9 h -1.8 z m -0.2,-3.9 c -1.4,0 -2.7,0.3 -2.7,1.5 0,0.8 0.5,1.1 1.1,1.1 0.8,0 1.4,-0.5 1.5,-1.1 0,-0.1 0.1,-0.3 0.1,-0.4 v -1.1 z" style="fill:#454746"/><path id="path3663" d="m 586.2,427.9 c 0,-1.1 0,-1.8 -0.1,-2.5 h 1.7 l 0.1,1.5 h 0.1 c 0.4,-1.1 1.3,-1.7 2.1,-1.7 0.2,0 0.3,0 0.5,0 v 1.9 c -0.2,0 -0.3,-0.1 -0.6,-0.1 -0.9,0 -1.6,0.6 -1.8,1.5 0,0.2 -0.1,0.4 -0.1,0.6 v 4 h -2 v -5.2 z" style="fill:#454746"/><path id="path3665" d="m 597.5,432.9 c -0.4,0.2 -1.2,0.4 -2.2,0.4 -2.4,0 -4,-1.6 -4,-4 0,-2.3 1.6,-4.2 4.3,-4.2 0.7,0 1.5,0.2 1.9,0.4 l -0.4,1.5 c -0.3,-0.1 -0.8,-0.3 -1.5,-0.3 -1.5,0 -2.4,1.1 -2.4,2.5 0,1.6 1,2.5 2.4,2.5 0.7,0 1.2,-0.1 1.6,-0.3 l 0.3,1.5 z" style="fill:#454746"/><path id="path3667" d="m 598.9,421.8 h 2 v 4.6 h 0 c 0.2,-0.4 0.6,-0.7 1,-0.9 0.4,-0.2 0.8,-0.4 1.3,-0.4 1.3,0 2.7,0.9 2.7,3.4 v 4.6 h -2 v -4.4 c 0,-1.1 -0.4,-2 -1.5,-2 -0.8,0 -1.3,0.5 -1.5,1.1 -0.1,0.2 -0.1,0.4 -0.1,0.6 v 4.7 h -2 v -11.3 z" style="fill:#454746"/><path id="path3669" d="m 612.5,433.2 -0.1,-0.9 h 0 c -0.5,0.6 -1.3,1 -2.3,1 -1.6,0 -2.4,-1.1 -2.4,-2.3 0,-2 1.7,-3 4.6,-2.9 V 428 c 0,-0.5 -0.2,-1.4 -1.6,-1.4 -0.8,0 -1.6,0.2 -2.1,0.6 l -0.4,-1.3 c 0.6,-0.4 1.6,-0.7 2.8,-0.7 2.5,0 3.2,1.6 3.2,3.3 v 2.8 c 0,0.7 0,1.4 0.1,1.9 h -1.8 z m -0.3,-3.9 c -1.4,0 -2.7,0.3 -2.7,1.5 0,0.8 0.5,1.1 1.1,1.1 0.8,0 1.4,-0.5 1.5,-1.1 0,-0.1 0.1,-0.3 0.1,-0.4 v -1.1 z" style="fill:#454746"/><path id="path3671" d="m 616.1,433.2 c 0,-0.5 0.1,-1.4 0.1,-2.2 v -9.2 h 2 v 4.6 h 0 c 0.5,-0.8 1.3,-1.2 2.5,-1.2 1.9,0 3.3,1.6 3.2,4 0,2.8 -1.8,4.2 -3.5,4.2 -1,0 -1.9,-0.4 -2.5,-1.3 h 0 l -0.1,1.2 h -1.7 z m 2.1,-3.3 c 0,0.2 0,0.3 0,0.5 0.2,0.8 0.9,1.4 1.7,1.4 1.2,0 2,-1 2,-2.6 0,-1.4 -0.7,-2.5 -2,-2.5 -0.8,0 -1.5,0.6 -1.7,1.4 0,0.1 -0.1,0.3 -0.1,0.5 v 1.3 z" style="fill:#454746"/><path id="path3673" d="m 625.6,421.8 h 2 v 11.4 h -2 v -11.4 z" style="fill:#454746"/><path id="path3675" d="m 631.1,429.8 c 0,1.4 1.2,2 2.4,2 0.9,0 1.6,-0.1 2.2,-0.4 l 0.3,1.4 c -0.7,0.3 -1.6,0.5 -2.7,0.5 -2.5,0 -4,-1.6 -4,-3.9 0,-2.2 1.3,-4.2 3.8,-4.2 2.5,0 3.4,2.1 3.4,3.8 0,0.4 0,0.7 -0.1,0.8 h -5.3 z m 3.4,-1.4 c 0,-0.7 -0.3,-1.9 -1.6,-1.9 -1.2,0 -1.7,1.1 -1.8,1.9 h 3.4 z" style="fill:#454746"/></g><g id="g3677" transform="translate(-374.4,-224.5)"><g id="g3679"><path id="path3681" stroke-miterlimit="10" d="m 558.6,282.5 c -14.3,18 -71.7,-0.3 -78.9,33.6" style="fill:none;stroke:#454746;stroke-width:1.60000002;stroke-linecap:round;stroke-miterlimit:10"/><g id="g3683"><path id="path3685" d="m 478.9,323.7 c -0.9,-3.8 -2.7,-8.5 -4.8,-11.6 l 5.8,2.9 6.3,-1.5 c -2.7,2.6 -5.5,6.8 -7.3,10.2 z" style="fill:#454746"/></g></g></g><g id="g3687" transform="translate(-374.4,-224.5)"><g id="g3689"><path id="path3691" stroke-miterlimit="10" d="m 558.6,282.5 c 14.3,18 71.7,-0.3 78.9,33.6" style="fill:none;stroke:#454746;stroke-width:1.60000002;stroke-linecap:round;stroke-miterlimit:10"/><g id="g3693"><path id="path3695" d="m 638.3,323.7 c -1.7,-3.5 -4.5,-7.7 -7.3,-10.2 l 6.3,1.5 5.8,-2.9 c -2.1,3.1 -3.9,7.9 -4.8,11.6 z" style="fill:#454746"/></g></g></g><g id="g3697" transform="translate(-374.4,-224.5)"><g id="g3699"><path id="path3701" stroke-miterlimit="10" d="m 558.6,282.5 c 0,13.1 0.3,-1 0.3,33.6" style="fill:none;stroke:#454746;stroke-width:1.60000002;stroke-linecap:round;stroke-miterlimit:10"/><g id="g3703"><path id="path3705" d="m 558.9,323.7 c -1.4,-3.6 -3.7,-8.1 -6.1,-10.9 l 6.1,2.2 6.1,-2.2 c -2.5,2.8 -4.8,7.3 -6.1,10.9 z" style="fill:#454746"/></g></g></g><path id="path3707" stroke-miterlimit="10" d="m 385.7,170.9 v 12 c 0,1.7 -1.3,3 -3,3 h -317 c -1.7,0 -3,-1.3 -3,-3 v -12" style="fill:none;stroke:#454746;stroke-width:1.60000002;stroke-linecap:round;stroke-miterlimit:10"/><path id="path3709" d="m 104.2,153.2 c 10.2,0 19.7,-1.8 24.9,-4.7 2,-1.2 3.9,-2.5 5.1,-3.6 v -11 c -1.3,0.9 -2.5,1.6 -3.2,2 -5.8,3.2 -15.8,5.2 -26.8,5.2 -11,0 -21.1,-1.9 -26.8,-5.2 -0.7,-0.4 -1.9,-1.1 -3.2,-2 v 11 c 1.2,1.1 3.1,2.5 5.2,3.6 5.1,3 14.6,4.7 24.8,4.7 z" style="fill:#75b640"/><path id="path3711" d="M 134.2,158.2 V 150 c -1.3,0.9 -2.5,1.6 -3.2,2 -5.8,3.2 -15.8,5.2 -26.8,5.2 -11,0 -21.1,-1.9 -26.8,-5.2 -0.7,-0.4 -1.9,-1.1 -3.2,-2 v 8.2 c 0,5.5 13.4,10 30,10 16.6,0 30,-4.4 30,-10 z" style="fill:#75b640"/><path id="path3713" d="m 104.2,137.2 c 10.2,0 19.7,-1.8 24.8,-4.7 2,-1.2 3.9,-2.5 5.2,-3.6 v -4.7 c 0,-5.5 -13.4,-10 -30,-10 -16.6,0 -30,4.5 -30,10 v 4.7 c 1.2,1.1 3.1,2.5 5.1,3.6 5.2,2.9 14.7,4.7 24.9,4.7 z" style="fill:#75b640"/><path id="path3715" d="M 214.2,158.2 V 150 c -1.3,0.9 -2.5,1.6 -3.2,2 -5.8,3.2 -15.8,5.2 -26.8,5.2 -11,0 -21.1,-1.9 -26.8,-5.2 -0.7,-0.4 -1.9,-1.1 -3.2,-2 v 8.2 c 0,5.5 13.4,10 30,10 16.6,0 30,-4.4 30,-10 z" style="fill:#75b640"/><path id="path3717" d="m 184.2,153.2 c 10.2,0 19.7,-1.8 24.9,-4.7 2,-1.2 3.9,-2.5 5.1,-3.6 v -11 c -1.3,0.9 -2.5,1.6 -3.2,2 -5.8,3.2 -15.8,5.2 -26.8,5.2 -11,0 -21.1,-1.9 -26.8,-5.2 -0.7,-0.4 -1.9,-1.1 -3.2,-2 v 11 c 1.2,1.1 3.1,2.5 5.2,3.6 5.1,3 14.6,4.7 24.8,4.7 z" style="fill:#75b640"/><path id="path3719" d="m 184.2,137.2 c 10.2,0 19.7,-1.8 24.8,-4.7 2,-1.2 3.9,-2.5 5.2,-3.6 v -4.7 c 0,-5.5 -13.4,-10 -30,-10 -16.6,0 -30,4.5 -30,10 v 4.7 c 1.2,1.1 3.1,2.5 5.1,3.6 5.2,2.9 14.7,4.7 24.9,4.7 z" style="fill:#75b640"/><path id="path3721" d="m 264.2,137.2 c 10.2,0 19.7,-1.8 24.8,-4.7 2,-1.2 3.9,-2.5 5.2,-3.6 v -4.7 c 0,-5.5 -13.4,-10 -30,-10 -16.6,0 -30,4.5 -30,10 v 4.7 c 1.2,1.1 3.1,2.5 5.1,3.6 5.2,2.9 14.7,4.7 24.9,4.7 z" style="fill:#75b640"/><path id="path3723" d="m 264.2,153.2 c 10.2,0 19.7,-1.8 24.9,-4.7 2,-1.2 3.9,-2.5 5.1,-3.6 v -11 c -1.3,0.9 -2.5,1.6 -3.2,2 -5.8,3.2 -15.8,5.2 -26.8,5.2 -11,0 -21.1,-1.9 -26.8,-5.2 -0.7,-0.4 -1.9,-1.1 -3.2,-2 v 11 c 1.2,1.1 3.1,2.5 5.2,3.6 5.1,3 14.6,4.7 24.8,4.7 z" style="fill:#75b640"/><path id="path3725" d="M 294.2,158.2 V 150 c -1.3,0.9 -2.5,1.6 -3.2,2 -5.8,3.2 -15.8,5.2 -26.8,5.2 -11,0 -21.1,-1.9 -26.8,-5.2 -0.7,-0.4 -1.9,-1.1 -3.2,-2 v 8.2 c 0,5.5 13.4,10 30,10 16.6,0 30,-4.4 30,-10 z" style="fill:#75b640"/><path id="path3727" d="M 374.2,158.2 V 150 c -1.3,0.9 -2.5,1.6 -3.2,2 -5.8,3.2 -15.8,5.2 -26.8,5.2 -11,0 -21.1,-1.9 -26.8,-5.2 -0.7,-0.4 -1.9,-1.1 -3.2,-2 v 8.2 c 0,5.5 13.4,10 30,10 16.6,0 30,-4.4 30,-10 z" style="fill:#d3d3d3"/><path id="path3729" d="m 344.2,153.2 c 10.2,0 19.7,-1.8 24.9,-4.7 2,-1.2 3.9,-2.5 5.1,-3.6 v -11 c -1.3,0.9 -2.5,1.6 -3.2,2 -5.8,3.2 -15.8,5.2 -26.8,5.2 -11,0 -21.1,-1.9 -26.8,-5.2 -0.7,-0.4 -1.9,-1.1 -3.2,-2 v 11 c 1.2,1.1 3.1,2.5 5.2,3.6 5.1,3 14.6,4.7 24.8,4.7 z" style="fill:#d3d3d3"/><path id="path3731" d="m 344.2,137.2 c 10.2,0 19.7,-1.8 24.8,-4.7 2,-1.2 3.9,-2.5 5.2,-3.6 v -4.7 c 0,-5.5 -13.4,-10 -30,-10 -16.6,0 -30,4.5 -30,10 v 4.7 c 1.2,1.1 3.1,2.5 5.1,3.6 5.2,2.9 14.7,4.7 24.9,4.7 z" style="fill:#d3d3d3"/></svg>