<svg xmlns="http://www.w3.org/2000/svg" xmlns:svg="http://www.w3.org/2000/svg" id="Layer_1" width="100%" height="100%" x="0" y="0" enable-background="new 0 0 1280 800" version="1.1" viewBox="0 0 530 350" xml:space="preserve"><metadata id="metadata3405"/><path id="path3265" d="M 527,350 H 3 c -1.7,0 -3,-1.3 -3,-3 V 3 C 0,1.4 1.3,0 3,0 h 524 c 1.7,0 3,1.4 3,3 v 344 c 0,1.6 -1.3,3 -3,3 z" style="fill:#f8faf6"/><g id="g3267" transform="translate(-374.4,-224.5)"><path id="path3269" d="m 450.6,524.5 v 10.8 h -2 v -10.8 h 2 z" style="fill:#454746"/><path id="path3271" d="m 452.9,529.8 c 0,-0.9 0,-1.6 -0.1,-2.3 h 1.7 l 0.1,1.2 h 0 c 0.3,-0.6 1.2,-1.3 2.5,-1.3 1.4,0 2.8,0.9 2.8,3.3 v 4.6 h -2 v -4.4 c 0,-1.1 -0.4,-2 -1.5,-2 -0.8,0 -1.3,0.6 -1.5,1.2 -0.1,0.2 -0.1,0.4 -0.1,0.6 v 4.6 h -2 v -5.5 z" style="fill:#454746"/><path id="path3273" d="m 465.6,530.3 v 1.4 h -4.1 v -1.4 h 4.1 z" style="fill:#454746"/><path id="path3275" d="m 467.1,529.8 c 0,-0.9 0,-1.6 -0.1,-2.3 h 1.7 l 0.1,1.2 h 0 c 0.4,-0.6 1.1,-1.3 2.4,-1.3 1,0 1.8,0.6 2.2,1.4 h 0 c 0.3,-0.4 0.6,-0.8 1,-1 0.4,-0.3 0.9,-0.5 1.6,-0.5 1.3,0 2.6,0.9 2.6,3.4 v 4.6 h -1.9 V 531 c 0,-1.3 -0.4,-2.1 -1.4,-2.1 -0.7,0 -1.2,0.5 -1.4,1 0,0.2 -0.1,0.4 -0.1,0.7 v 4.7 h -1.9 v -4.5 c 0,-1.1 -0.4,-1.9 -1.3,-1.9 -0.7,0 -1.2,0.6 -1.4,1.1 -0.1,0.2 -0.1,0.4 -0.1,0.6 v 4.6 h -1.9 v -5.4 z" style="fill:#454746"/><path id="path3277" d="m 482.1,531.9 c 0,1.4 1.2,2 2.4,2 0.9,0 1.6,-0.1 2.2,-0.4 l 0.3,1.4 c -0.7,0.3 -1.6,0.5 -2.7,0.5 -2.5,0 -4,-1.6 -4,-3.9 0,-2.2 1.3,-4.2 3.8,-4.2 2.5,0 3.4,2.1 3.4,3.8 0,0.4 0,0.7 -0.1,0.8 h -5.3 z m 3.4,-1.4 c 0,-0.7 -0.3,-1.9 -1.6,-1.9 -1.2,0 -1.7,1.1 -1.8,1.9 h 3.4 z" style="fill:#454746"/><path id="path3279" d="m 488.9,529.8 c 0,-0.9 0,-1.6 -0.1,-2.3 h 1.7 l 0.1,1.2 h 0 c 0.4,-0.6 1.1,-1.3 2.4,-1.3 1,0 1.8,0.6 2.2,1.4 h 0 c 0.3,-0.4 0.6,-0.8 1,-1 0.4,-0.3 0.9,-0.5 1.6,-0.5 1.3,0 2.6,0.9 2.6,3.4 v 4.6 h -1.9 V 531 c 0,-1.3 -0.4,-2.1 -1.4,-2.1 -0.7,0 -1.2,0.5 -1.4,1 0,0.2 -0.1,0.4 -0.1,0.7 v 4.7 h -1.9 v -4.5 c 0,-1.1 -0.4,-1.9 -1.3,-1.9 -0.7,0 -1.2,0.6 -1.4,1.1 -0.1,0.2 -0.1,0.4 -0.1,0.6 v 4.6 H 489 v -5.4 z" style="fill:#454746"/><path id="path3281" d="m 509.9,531.3 c 0,2.9 -2,4.1 -4,4.1 -2.2,0 -3.9,-1.5 -3.9,-4 0,-2.6 1.7,-4.1 4,-4.1 2.4,0 3.9,1.6 3.9,4 z m -5.9,0.1 c 0,1.5 0.7,2.6 1.9,2.6 1.1,0 1.9,-1.1 1.9,-2.7 0,-1.2 -0.5,-2.6 -1.9,-2.6 -1.3,0 -1.9,1.4 -1.9,2.7 z" style="fill:#454746"/><path id="path3283" d="m 511.5,530 c 0,-1.1 0,-1.8 -0.1,-2.5 h 1.7 l 0.1,1.5 h 0.1 c 0.4,-1.1 1.3,-1.7 2.1,-1.7 0.2,0 0.3,0 0.5,0 v 1.9 c -0.2,0 -0.3,-0.1 -0.6,-0.1 -0.9,0 -1.6,0.6 -1.8,1.5 0,0.2 -0.1,0.4 -0.1,0.6 v 4 h -2 V 530 z" style="fill:#454746"/><path id="path3285" d="m 518.8,527.5 1.4,4.2 c 0.2,0.5 0.3,1.1 0.4,1.5 h 0 c 0.1,-0.4 0.3,-1 0.4,-1.5 l 1.2,-4.2 h 2.1 l -2,5.3 c -1.1,2.9 -1.8,4.2 -2.7,5 -0.8,0.7 -1.6,0.9 -2.1,1 l -0.4,-1.7 c 0.3,-0.1 0.8,-0.3 1.2,-0.5 0.4,-0.2 0.8,-0.7 1.1,-1.2 0.1,-0.1 0.1,-0.3 0.1,-0.4 0,-0.1 0,-0.2 -0.1,-0.4 l -2.8,-7.2 h 2.2 z" style="fill:#454746"/><path id="path3287" d="m 528.8,535.3 c 0,-0.5 0.1,-1.4 0.1,-2.2 v -9.2 h 2 v 4.6 h 0 c 0.5,-0.8 1.3,-1.2 2.5,-1.2 1.9,0 3.3,1.6 3.2,4 0,2.8 -1.8,4.2 -3.5,4.2 -1,0 -1.9,-0.4 -2.5,-1.3 h 0 l -0.1,1.2 h -1.7 z m 2,-3.3 c 0,0.2 0,0.3 0,0.5 0.2,0.8 0.9,1.4 1.7,1.4 1.2,0 2,-1 2,-2.6 0,-1.4 -0.7,-2.5 -2,-2.5 -0.8,0 -1.5,0.6 -1.7,1.4 0,0.1 -0.1,0.3 -0.1,0.5 v 1.3 z" style="fill:#454746"/><path id="path3289" d="m 545.2,532.9 c 0,0.9 0,1.7 0.1,2.3 h -1.7 l -0.1,-1.2 h 0 c -0.3,0.6 -1.1,1.4 -2.5,1.4 -1.4,0 -2.7,-0.8 -2.7,-3.4 v -4.6 h 2 v 4.2 c 0,1.3 0.4,2.1 1.5,2.1 0.8,0 1.3,-0.6 1.5,-1.1 0.1,-0.2 0.1,-0.4 0.1,-0.6 v -4.7 h 2 v 5.6 z" style="fill:#454746"/><path id="path3291" d="M 552.4,535.3 V 529 h -2.8 v 6.3 h -2 V 529 h -1.1 v -1.5 h 1.1 v -0.2 c 0,-1 0.2,-1.9 0.9,-2.6 0.5,-0.5 1.2,-0.8 2.2,-0.8 0.4,0 0.8,0.1 1.1,0.2 l -0.3,1.5 c -0.2,-0.1 -0.4,-0.1 -0.7,-0.1 -0.9,0 -1.2,0.8 -1.2,1.7 v 0.3 h 2.8 v -0.3 c 0,-1 0.3,-2 1,-2.7 0.6,-0.5 1.3,-0.8 2,-0.8 0.5,0 0.9,0.1 1.2,0.2 l -0.1,1.5 c -0.2,-0.1 -0.5,-0.1 -0.8,-0.1 -1,0 -1.3,0.8 -1.3,1.8 v 0.4 h 1.7 v 1.5 h -1.7 v 6.3 h -2 z" style="fill:#454746"/><path id="path3293" d="m 558.5,531.9 c 0,1.4 1.2,2 2.4,2 0.9,0 1.6,-0.1 2.2,-0.4 l 0.3,1.4 c -0.7,0.3 -1.6,0.5 -2.7,0.5 -2.5,0 -4,-1.6 -4,-3.9 0,-2.2 1.3,-4.2 3.8,-4.2 2.5,0 3.4,2.1 3.4,3.8 0,0.4 0,0.7 -0.1,0.8 h -5.3 z m 3.4,-1.4 c 0,-0.7 -0.3,-1.9 -1.6,-1.9 -1.2,0 -1.7,1.1 -1.8,1.9 h 3.4 z" style="fill:#454746"/><path id="path3295" d="m 565.3,530 c 0,-1.1 0,-1.8 -0.1,-2.5 h 1.7 l 0.1,1.5 h 0.1 c 0.4,-1.1 1.3,-1.7 2.1,-1.7 0.2,0 0.3,0 0.5,0 v 1.9 c -0.2,0 -0.3,-0.1 -0.6,-0.1 -0.9,0 -1.6,0.6 -1.8,1.5 0,0.2 -0.1,0.4 -0.1,0.6 v 4 h -2 V 530 z" style="fill:#454746"/></g><path id="path3297" stroke-miterlimit="10" d="M 202.6,289.3 H 65.8 c -1.7,0 -3.1,-1.3 -3.1,-3 v -48 c 0,-1.7 1.4,-3 3.1,-3 h 136.8 c 1.7,0 3.1,1.3 3.1,3 v 48 c 0,1.7 -1.4,3 -3.1,3 z" style="fill:#fff;stroke:#c6c6c6;stroke-width:1.60000002;stroke-linecap:round;stroke-miterlimit:10;stroke-dasharray:4"/><g id="g3299" transform="translate(-374.4,-224.5)"><path id="path3301" d="m 521,270.1 c -0.5,0.2 -1.5,0.5 -2.8,0.5 -3.4,0 -5.5,-2.1 -5.5,-5.4 0,-3.6 2.5,-5.7 5.8,-5.7 1.3,0 2.2,0.3 2.6,0.5 l -0.4,1.6 c -0.5,-0.2 -1.2,-0.4 -2.1,-0.4 -2.2,0 -3.8,1.4 -3.8,4 0,2.4 1.4,3.9 3.8,3.9 0.8,0 1.6,-0.2 2.1,-0.4 l 0.3,1.4 z" style="fill:#454746"/><path id="path3303" d="m 529.7,266.5 c 0,2.9 -2,4.1 -4,4.1 -2.2,0 -3.9,-1.5 -3.9,-4 0,-2.6 1.7,-4.1 4,-4.1 2.4,0 3.9,1.6 3.9,4 z m -5.8,0.1 c 0,1.5 0.7,2.6 1.9,2.6 1.1,0 1.9,-1.1 1.9,-2.7 0,-1.2 -0.5,-2.6 -1.9,-2.6 -1.4,0 -1.9,1.4 -1.9,2.7 z" style="fill:#454746"/><path id="path3305" d="m 531.3,265 c 0,-0.9 0,-1.6 -0.1,-2.3 h 1.7 l 0.1,1.2 h 0 c 0.4,-0.6 1.1,-1.3 2.4,-1.3 1,0 1.8,0.6 2.2,1.4 h 0 c 0.3,-0.4 0.6,-0.8 1,-1 0.4,-0.3 0.9,-0.5 1.6,-0.5 1.3,0 2.6,0.9 2.6,3.4 v 4.6 h -1.9 v -4.3 c 0,-1.3 -0.4,-2.1 -1.4,-2.1 -0.7,0 -1.2,0.5 -1.4,1 0,0.2 -0.1,0.4 -0.1,0.7 v 4.7 h -1.9 V 266 c 0,-1.1 -0.4,-1.9 -1.3,-1.9 -0.7,0 -1.2,0.6 -1.4,1.1 -0.1,0.2 -0.1,0.4 -0.1,0.6 v 4.6 h -1.9 V 265 z" style="fill:#454746"/><path id="path3307" d="m 544.9,265 c 0,-0.9 0,-1.6 -0.1,-2.3 h 1.7 l 0.1,1.2 h 0 c 0.4,-0.6 1.1,-1.3 2.4,-1.3 1,0 1.8,0.6 2.2,1.4 h 0 c 0.3,-0.4 0.6,-0.8 1,-1 0.4,-0.3 0.9,-0.5 1.6,-0.5 1.3,0 2.6,0.9 2.6,3.4 v 4.6 h -1.9 v -4.3 c 0,-1.3 -0.4,-2.1 -1.4,-2.1 -0.7,0 -1.2,0.5 -1.4,1 0,0.2 -0.1,0.4 -0.1,0.7 v 4.7 h -1.9 V 266 c 0,-1.1 -0.4,-1.9 -1.3,-1.9 -0.7,0 -1.2,0.6 -1.4,1.1 -0.1,0.2 -0.1,0.4 -0.1,0.6 v 4.6 H 545 V 265 z" style="fill:#454746"/><path id="path3309" d="m 560.6,260.5 c 0,0.6 -0.4,1.1 -1.1,1.1 -0.7,0 -1.1,-0.5 -1.1,-1.1 0,-0.6 0.4,-1.1 1.1,-1.1 0.6,0 1.1,0.5 1.1,1.1 z m -2.1,10 v -7.8 h 2 v 7.8 h -2 z" style="fill:#454746"/><path id="path3311" d="m 564.8,260.4 v 2.2 h 1.9 v 1.5 h -1.9 v 3.4 c 0,0.9 0.3,1.4 1,1.4 0.3,0 0.6,0 0.8,-0.1 l 0,1.5 c -0.3,0.1 -0.8,0.2 -1.4,0.2 -0.7,0 -1.3,-0.2 -1.7,-0.6 -0.4,-0.4 -0.6,-1.2 -0.6,-2.2 V 264 h -1.1 v -1.5 h 1.1 v -1.8 l 1.9,-0.3 z" style="fill:#454746"/><path id="path3313" d="m 571.5,265.3 c 0,-1 0,-1.9 -0.1,-2.6 h 1.7 l 0.1,1.2 h 0 c 0.6,-0.9 1.5,-1.4 2.7,-1.4 1.8,0 3.3,1.5 3.3,4 0,2.8 -1.8,4.2 -3.6,4.2 -1,0 -1.8,-0.4 -2.2,-1 h 0 v 4 h -2 v -8.4 z m 2,1.9 c 0,0.2 0,0.4 0.1,0.5 0.2,0.8 0.9,1.4 1.7,1.4 1.2,0 2,-1 2,-2.6 0,-1.4 -0.7,-2.5 -1.9,-2.5 -0.8,0 -1.6,0.6 -1.8,1.5 0,0.2 -0.1,0.3 -0.1,0.5 v 1.2 z" style="fill:#454746"/><path id="path3315" d="m 588.3,266.5 c 0,2.9 -2,4.1 -4,4.1 -2.2,0 -3.9,-1.5 -3.9,-4 0,-2.6 1.7,-4.1 4,-4.1 2.3,0 3.9,1.6 3.9,4 z m -5.9,0.1 c 0,1.5 0.7,2.6 1.9,2.6 1.1,0 1.9,-1.1 1.9,-2.7 0,-1.2 -0.5,-2.6 -1.9,-2.6 -1.3,0 -1.9,1.4 -1.9,2.7 z" style="fill:#454746"/><path id="path3317" d="m 592,260.5 c 0,0.6 -0.4,1.1 -1.1,1.1 -0.7,0 -1.1,-0.5 -1.1,-1.1 0,-0.6 0.4,-1.1 1.1,-1.1 0.7,0 1.1,0.5 1.1,1.1 z m -2.1,10 v -7.8 h 2 v 7.8 h -2 z" style="fill:#454746"/><path id="path3319" d="m 594,265 c 0,-0.9 0,-1.6 -0.1,-2.3 h 1.7 l 0.1,1.2 h 0 c 0.3,-0.6 1.2,-1.3 2.5,-1.3 1.4,0 2.8,0.9 2.8,3.3 v 4.6 h -2 v -4.4 c 0,-1.1 -0.4,-2 -1.5,-2 -0.8,0 -1.3,0.6 -1.5,1.2 -0.1,0.2 -0.1,0.4 -0.1,0.6 v 4.6 h -2 V 265 z" style="fill:#454746"/><path id="path3321" d="m 605.3,260.4 v 2.2 h 1.9 v 1.5 h -1.9 v 3.4 c 0,0.9 0.3,1.4 1,1.4 0.3,0 0.6,0 0.8,-0.1 l 0,1.5 c -0.3,0.1 -0.8,0.2 -1.4,0.2 -0.7,0 -1.3,-0.2 -1.7,-0.6 -0.4,-0.4 -0.6,-1.2 -0.6,-2.2 V 264 h -1.1 v -1.5 h 1.1 v -1.8 l 1.9,-0.3 z" style="fill:#454746"/></g><g id="g3323" transform="translate(-374.4,-224.5)"><path id="path3325" d="m 562.4,430.7 c 0.6,0.4 1.6,0.7 2.6,0.7 1.3,0 2,-0.6 2,-1.5 0,-0.8 -0.5,-1.3 -1.9,-1.8 -1.8,-0.6 -2.9,-1.6 -2.9,-3.1 0,-1.8 1.5,-3.1 3.8,-3.1 1.2,0 2,0.3 2.6,0.5 l -0.5,1.6 c -0.4,-0.2 -1.1,-0.5 -2.1,-0.5 -1.2,0 -1.8,0.7 -1.8,1.3 0,0.8 0.6,1.2 2.1,1.8 1.9,0.7 2.8,1.6 2.8,3.2 0,1.7 -1.3,3.2 -4.1,3.2 -1.1,0 -2.3,-0.3 -2.9,-0.7 l 0.3,-1.6 z" style="fill:#454746"/><path id="path3327" d="m 572.2,429.5 c 0,1.4 1.2,2 2.4,2 0.9,0 1.6,-0.1 2.2,-0.4 l 0.3,1.4 c -0.7,0.3 -1.6,0.5 -2.7,0.5 -2.5,0 -4,-1.6 -4,-3.9 0,-2.2 1.3,-4.2 3.8,-4.2 2.5,0 3.4,2.1 3.4,3.8 0,0.4 0,0.7 -0.1,0.8 h -5.3 z m 3.4,-1.3 c 0,-0.7 -0.3,-1.9 -1.6,-1.9 -1.2,0 -1.7,1.1 -1.8,1.9 h 3.4 z" style="fill:#454746"/><path id="path3329" d="m 583.4,432.9 -0.1,-0.9 h 0 c -0.5,0.6 -1.3,1 -2.3,1 -1.6,0 -2.4,-1.1 -2.4,-2.3 0,-2 1.7,-3 4.6,-2.9 v -0.1 c 0,-0.5 -0.2,-1.4 -1.6,-1.4 -0.8,0 -1.6,0.2 -2.1,0.6 l -0.4,-1.3 c 0.6,-0.4 1.6,-0.7 2.8,-0.7 2.5,0 3.2,1.6 3.2,3.3 v 2.8 c 0,0.7 0,1.4 0.1,1.9 h -1.8 z m -0.3,-3.8 c -1.4,0 -2.7,0.3 -2.7,1.5 0,0.8 0.5,1.1 1.1,1.1 0.8,0 1.4,-0.5 1.5,-1.1 0,-0.1 0.1,-0.3 0.1,-0.4 v -1.1 z" style="fill:#454746"/><path id="path3331" d="m 587.1,427.6 c 0,-1.1 0,-1.8 -0.1,-2.5 h 1.7 l 0.1,1.5 h 0.1 c 0.4,-1.1 1.3,-1.7 2.1,-1.7 0.2,0 0.3,0 0.5,0 v 1.9 c -0.2,0 -0.3,-0.1 -0.6,-0.1 -0.9,0 -1.6,0.6 -1.8,1.5 0,0.2 -0.1,0.4 -0.1,0.6 v 4 h -2 v -5.2 z" style="fill:#454746"/><path id="path3333" d="m 598.4,432.6 c -0.4,0.2 -1.2,0.4 -2.2,0.4 -2.4,0 -4,-1.6 -4,-4 0,-2.3 1.6,-4.2 4.3,-4.2 0.7,0 1.5,0.2 1.9,0.4 l -0.4,1.5 c -0.3,-0.1 -0.8,-0.3 -1.5,-0.3 -1.5,0 -2.4,1.1 -2.4,2.5 0,1.6 1,2.5 2.4,2.5 0.7,0 1.2,-0.1 1.6,-0.3 l 0.3,1.5 z" style="fill:#454746"/><path id="path3335" d="m 599.9,421.5 h 2 v 4.6 h 0 c 0.2,-0.4 0.6,-0.7 1,-0.9 0.4,-0.2 0.8,-0.4 1.3,-0.4 1.3,0 2.7,0.9 2.7,3.4 v 4.6 h -2 v -4.4 c 0,-1.1 -0.4,-2 -1.5,-2 -0.8,0 -1.3,0.5 -1.5,1.1 -0.1,0.2 -0.1,0.4 -0.1,0.6 v 4.7 h -2 v -11.3 z" style="fill:#454746"/><path id="path3337" d="m 613.4,432.9 -0.1,-0.9 h 0 c -0.5,0.6 -1.3,1 -2.3,1 -1.6,0 -2.4,-1.1 -2.4,-2.3 0,-2 1.7,-3 4.6,-2.9 v -0.1 c 0,-0.5 -0.2,-1.4 -1.6,-1.4 -0.8,0 -1.6,0.2 -2.1,0.6 l -0.4,-1.3 c 0.6,-0.4 1.6,-0.7 2.8,-0.7 2.5,0 3.2,1.6 3.2,3.3 v 2.8 c 0,0.7 0,1.4 0.1,1.9 h -1.8 z m -0.2,-3.8 c -1.4,0 -2.7,0.3 -2.7,1.5 0,0.8 0.5,1.1 1.1,1.1 0.8,0 1.4,-0.5 1.5,-1.1 0,-0.1 0.1,-0.3 0.1,-0.4 v -1.1 z" style="fill:#454746"/><path id="path3339" d="m 617.1,432.9 c 0,-0.5 0.1,-1.4 0.1,-2.2 v -9.2 h 2 v 4.6 h 0 c 0.5,-0.8 1.3,-1.2 2.5,-1.2 1.9,0 3.3,1.6 3.2,4 0,2.8 -1.8,4.2 -3.5,4.2 -1,0 -1.9,-0.4 -2.5,-1.3 h 0 l -0.1,1.2 h -1.7 z m 2,-3.2 c 0,0.2 0,0.3 0,0.5 0.2,0.8 0.9,1.4 1.7,1.4 1.2,0 2,-1 2,-2.6 0,-1.4 -0.7,-2.5 -2,-2.5 -0.8,0 -1.5,0.6 -1.7,1.4 0,0.1 -0.1,0.3 -0.1,0.5 v 1.3 z" style="fill:#454746"/><path id="path3341" d="m 626.5,421.5 h 2 v 11.4 h -2 v -11.4 z" style="fill:#454746"/><path id="path3343" d="m 632,429.5 c 0,1.4 1.2,2 2.4,2 0.9,0 1.6,-0.1 2.2,-0.4 l 0.3,1.4 c -0.7,0.3 -1.6,0.5 -2.7,0.5 -2.5,0 -4,-1.6 -4,-3.9 0,-2.2 1.3,-4.2 3.8,-4.2 2.5,0 3.4,2.1 3.4,3.8 0,0.4 0,0.7 -0.1,0.8 H 632 z m 3.4,-1.3 c 0,-0.7 -0.3,-1.9 -1.6,-1.9 -1.2,0 -1.7,1.1 -1.8,1.9 h 3.4 z" style="fill:#454746"/></g><g id="g3345" transform="translate(-374.4,-224.5)"><g id="g3347"><path id="path3349" stroke-miterlimit="10" d="m 559.6,282.2 c -14.3,18 -71.7,-0.3 -78.9,33.6" style="fill:none;stroke:#454746;stroke-width:1.60000002;stroke-linecap:round;stroke-miterlimit:10"/><g id="g3351"><path id="path3353" d="m 479.9,323.5 c -0.9,-3.8 -2.7,-8.5 -4.8,-11.6 l 5.8,2.9 6.3,-1.5 c -2.8,2.5 -5.6,6.7 -7.3,10.2 z" style="fill:#454746"/></g></g></g><g id="g3355" transform="translate(-374.4,-224.5)"><g id="g3357"><path id="path3359" stroke-miterlimit="10" d="m 559.6,282.2 c 14.3,18 71.7,-0.3 78.9,33.6" style="fill:none;stroke:#454746;stroke-width:1.60000002;stroke-linecap:round;stroke-miterlimit:10"/><g id="g3361"><path id="path3363" d="m 639.3,323.5 c -1.7,-3.5 -4.5,-7.7 -7.3,-10.2 l 6.3,1.5 5.8,-2.9 c -2.1,3.1 -3.9,7.8 -4.8,11.6 z" style="fill:#454746"/></g></g></g><g id="g3365" transform="translate(-374.4,-224.5)"><g id="g3367"><path id="path3369" stroke-miterlimit="10" d="m 559.6,282.2 c 0,13.1 0.3,-1 0.3,33.6" style="fill:none;stroke:#454746;stroke-width:1.60000002;stroke-linecap:round;stroke-miterlimit:10"/><g id="g3371"><path id="path3373" d="m 559.9,323.5 c -1.4,-3.6 -3.7,-8.1 -6.1,-10.9 l 6.1,2.2 6.1,-2.2 c -2.5,2.7 -4.8,7.2 -6.1,10.9 z" style="fill:#454746"/></g></g></g><path id="path3375" stroke-miterlimit="10" d="m 386.7,170.6 v 12 c 0,1.7 -1.3,3 -3,3 h -317 c -1.7,0 -3,-1.3 -3,-3 v -12" style="fill:none;stroke:#454746;stroke-width:1.60000002;stroke-linecap:round;stroke-miterlimit:10"/><path id="path3377" d="m 105.2,153 c 10.2,0 19.7,-1.8 24.9,-4.7 2,-1.2 3.9,-2.5 5.1,-3.6 v -11 c -1.3,0.9 -2.5,1.6 -3.2,2 -5.8,3.2 -15.8,5.2 -26.8,5.2 -11,0 -21.1,-1.9 -26.8,-5.2 -0.7,-0.4 -1.9,-1.1 -3.2,-2 v 11 c 1.2,1.1 3.1,2.5 5.2,3.6 5,2.9 14.5,4.7 24.8,4.7 z" style="fill:#75b640"/><path id="path3379" d="m 135.2,158 v -8.2 c -1.3,0.9 -2.5,1.6 -3.2,2 -5.8,3.2 -15.8,5.2 -26.8,5.2 -11,0 -21.1,-1.9 -26.8,-5.2 -0.7,-0.4 -1.9,-1.1 -3.2,-2 v 8.2 c 0,5.5 13.4,10 30,10 16.5,0 30,-4.5 30,-10 z" style="fill:#75b640"/><path id="path3381" d="m 105.2,136.9 c 10.2,0 19.7,-1.8 24.8,-4.7 2,-1.2 3.9,-2.5 5.2,-3.6 v -4.7 c 0,-5.5 -13.4,-10 -30,-10 -16.6,0 -30,4.5 -30,10 v 4.7 c 1.2,1.1 3.1,2.5 5.1,3.6 5.1,2.9 14.6,4.7 24.9,4.7 z" style="fill:#75b640"/><path id="path3383" d="m 215.2,158 v -8.2 c -1.3,0.9 -2.5,1.6 -3.2,2 -5.8,3.2 -15.8,5.2 -26.8,5.2 -11,0 -21.1,-1.9 -26.8,-5.2 -0.7,-0.4 -1.9,-1.1 -3.2,-2 v 8.2 c 0,5.5 13.4,10 30,10 16.5,0 30,-4.5 30,-10 z" style="fill:#75b640"/><path id="path3385" d="m 185.2,153 c 10.2,0 19.7,-1.8 24.9,-4.7 2,-1.2 3.9,-2.5 5.1,-3.6 v -11 c -1.3,0.9 -2.5,1.6 -3.2,2 -5.8,3.2 -15.8,5.2 -26.8,5.2 -11,0 -21.1,-1.9 -26.8,-5.2 -0.7,-0.4 -1.9,-1.1 -3.2,-2 v 11 c 1.2,1.1 3.1,2.5 5.2,3.6 5,2.9 14.5,4.7 24.8,4.7 z" style="fill:#75b640"/><path id="path3387" d="m 185.2,136.9 c 10.2,0 19.7,-1.8 24.8,-4.7 2,-1.2 3.9,-2.5 5.2,-3.6 v -4.7 c 0,-5.5 -13.4,-10 -30,-10 -16.6,0 -30,4.5 -30,10 v 4.7 c 1.2,1.1 3.1,2.5 5.1,3.6 5.1,2.9 14.6,4.7 24.9,4.7 z" style="fill:#75b640"/><path id="path3389" d="m 265.2,136.9 c 10.2,0 19.7,-1.8 24.8,-4.7 2,-1.2 3.9,-2.5 5.2,-3.6 v -4.7 c 0,-5.5 -13.4,-10 -30,-10 -16.6,0 -30,4.5 -30,10 v 4.7 c 1.2,1.1 3.1,2.5 5.1,3.6 5.1,2.9 14.6,4.7 24.9,4.7 z" style="fill:#75b640"/><path id="path3391" d="m 265.2,153 c 10.2,0 19.7,-1.8 24.9,-4.7 2,-1.2 3.9,-2.5 5.1,-3.6 v -11 c -1.3,0.9 -2.5,1.6 -3.2,2 -5.8,3.2 -15.8,5.2 -26.8,5.2 -11,0 -21.1,-1.9 -26.8,-5.2 -0.7,-0.4 -1.9,-1.1 -3.2,-2 v 11 c 1.2,1.1 3.1,2.5 5.2,3.6 5,2.9 14.5,4.7 24.8,4.7 z" style="fill:#75b640"/><path id="path3393" d="m 295.2,158 v -8.2 c -1.3,0.9 -2.5,1.6 -3.2,2 -5.8,3.2 -15.8,5.2 -26.8,5.2 -11,0 -21.1,-1.9 -26.8,-5.2 -0.7,-0.4 -1.9,-1.1 -3.2,-2 v 8.2 c 0,5.5 13.4,10 30,10 16.5,0 30,-4.5 30,-10 z" style="fill:#75b640"/><path id="path3395" d="m 375.2,158 v -8.2 c -1.3,0.9 -2.5,1.6 -3.2,2 -5.8,3.2 -15.8,5.2 -26.8,5.2 -11,0 -21.1,-1.9 -26.8,-5.2 -0.7,-0.4 -1.9,-1.1 -3.2,-2 v 8.2 c 0,5.5 13.4,10 30,10 16.5,0 30,-4.5 30,-10 z" style="fill:#d3d3d3"/><path id="path3397" d="m 345.2,153 c 10.2,0 19.7,-1.8 24.9,-4.7 2,-1.2 3.9,-2.5 5.1,-3.6 v -11 c -1.3,0.9 -2.5,1.6 -3.2,2 -5.8,3.2 -15.8,5.2 -26.8,5.2 -11,0 -21.1,-1.9 -26.8,-5.2 -0.7,-0.4 -1.9,-1.1 -3.2,-2 v 11 c 1.2,1.1 3.1,2.5 5.2,3.6 5,2.9 14.5,4.7 24.8,4.7 z" style="fill:#d3d3d3"/><path id="path3399" d="m 345.2,136.9 c 10.2,0 19.7,-1.8 24.8,-4.7 2,-1.2 3.9,-2.5 5.2,-3.6 v -4.7 c 0,-5.5 -13.4,-10 -30,-10 -16.6,0 -30,4.5 -30,10 v 4.7 c 1.2,1.1 3.1,2.5 5.1,3.6 5.1,2.9 14.6,4.7 24.9,4.7 z" style="fill:#d3d3d3"/></svg>