<svg xmlns="http://www.w3.org/2000/svg" xmlns:svg="http://www.w3.org/2000/svg" id="Layer_1" width="100%" height="100%" x="0" y="0" enable-background="new 0 0 1280 800" version="1.1" viewBox="0 0 530 350" xml:space="preserve"><metadata id="metadata4338"/><path id="path3740" d="M 527,350 H 3 c -1.7,0 -3,-1.3 -3,-3 V 3 C 0,1.4 1.3,0 3,0 h 524 c 1.7,0 3,1.4 3,3 v 344 c 0,1.6 -1.3,3 -3,3 z" style="fill:#f8faf6"/><g id="g3742" transform="translate(-374.4,-224.5)"><path id="path3744" d="m 450.6,524.5 v 10.8 h -2 v -10.8 h 2 z" style="fill:#454746"/><path id="path3746" d="m 452.9,529.8 c 0,-0.9 0,-1.6 -0.1,-2.3 h 1.7 l 0.1,1.2 h 0 c 0.3,-0.6 1.2,-1.3 2.5,-1.3 1.4,0 2.8,0.9 2.8,3.3 v 4.6 h -2 v -4.4 c 0,-1.1 -0.4,-2 -1.5,-2 -0.8,0 -1.3,0.6 -1.5,1.2 -0.1,0.2 -0.1,0.4 -0.1,0.6 v 4.6 h -2 v -5.5 z" style="fill:#454746"/><path id="path3748" d="m 465.6,530.3 v 1.4 h -4.1 v -1.4 h 4.1 z" style="fill:#454746"/><path id="path3750" d="m 467.1,529.8 c 0,-0.9 0,-1.6 -0.1,-2.3 h 1.7 l 0.1,1.2 h 0 c 0.4,-0.6 1.1,-1.3 2.4,-1.3 1,0 1.8,0.6 2.2,1.4 h 0 c 0.3,-0.4 0.6,-0.8 1,-1 0.4,-0.3 0.9,-0.5 1.6,-0.5 1.3,0 2.6,0.9 2.6,3.4 v 4.6 h -1.9 V 531 c 0,-1.3 -0.4,-2.1 -1.4,-2.1 -0.7,0 -1.2,0.5 -1.4,1 0,0.2 -0.1,0.4 -0.1,0.7 v 4.7 h -1.9 v -4.5 c 0,-1.1 -0.4,-1.9 -1.3,-1.9 -0.7,0 -1.2,0.6 -1.4,1.1 -0.1,0.2 -0.1,0.4 -0.1,0.6 v 4.6 h -1.9 v -5.4 z" style="fill:#454746"/><path id="path3752" d="m 482.1,531.9 c 0,1.4 1.2,2 2.4,2 0.9,0 1.6,-0.1 2.2,-0.4 l 0.3,1.4 c -0.7,0.3 -1.6,0.5 -2.7,0.5 -2.5,0 -4,-1.6 -4,-3.9 0,-2.2 1.3,-4.2 3.8,-4.2 2.5,0 3.4,2.1 3.4,3.8 0,0.4 0,0.7 -0.1,0.8 h -5.3 z m 3.4,-1.4 c 0,-0.7 -0.3,-1.9 -1.6,-1.9 -1.2,0 -1.7,1.1 -1.8,1.9 h 3.4 z" style="fill:#454746"/><path id="path3754" d="m 488.9,529.8 c 0,-0.9 0,-1.6 -0.1,-2.3 h 1.7 l 0.1,1.2 h 0 c 0.4,-0.6 1.1,-1.3 2.4,-1.3 1,0 1.8,0.6 2.2,1.4 h 0 c 0.3,-0.4 0.6,-0.8 1,-1 0.4,-0.3 0.9,-0.5 1.6,-0.5 1.3,0 2.6,0.9 2.6,3.4 v 4.6 h -1.9 V 531 c 0,-1.3 -0.4,-2.1 -1.4,-2.1 -0.7,0 -1.2,0.5 -1.4,1 0,0.2 -0.1,0.4 -0.1,0.7 v 4.7 h -1.9 v -4.5 c 0,-1.1 -0.4,-1.9 -1.3,-1.9 -0.7,0 -1.2,0.6 -1.4,1.1 -0.1,0.2 -0.1,0.4 -0.1,0.6 v 4.6 H 489 v -5.4 z" style="fill:#454746"/><path id="path3756" d="m 509.9,531.3 c 0,2.9 -2,4.1 -4,4.1 -2.2,0 -3.9,-1.5 -3.9,-4 0,-2.6 1.7,-4.1 4,-4.1 2.4,0 3.9,1.6 3.9,4 z m -5.9,0.1 c 0,1.5 0.7,2.6 1.9,2.6 1.1,0 1.9,-1.1 1.9,-2.7 0,-1.2 -0.5,-2.6 -1.9,-2.6 -1.3,0 -1.9,1.4 -1.9,2.7 z" style="fill:#454746"/><path id="path3758" d="m 511.5,530 c 0,-1.1 0,-1.8 -0.1,-2.5 h 1.7 l 0.1,1.5 h 0.1 c 0.4,-1.1 1.3,-1.7 2.1,-1.7 0.2,0 0.3,0 0.5,0 v 1.9 c -0.2,0 -0.3,-0.1 -0.6,-0.1 -0.9,0 -1.6,0.6 -1.8,1.5 0,0.2 -0.1,0.4 -0.1,0.6 v 4 h -2 V 530 z" style="fill:#454746"/><path id="path3760" d="m 518.8,527.5 1.4,4.2 c 0.2,0.5 0.3,1.1 0.4,1.5 h 0 c 0.1,-0.4 0.3,-1 0.4,-1.5 l 1.2,-4.2 h 2.1 l -2,5.3 c -1.1,2.9 -1.8,4.2 -2.7,5 -0.8,0.7 -1.6,0.9 -2.1,1 l -0.4,-1.7 c 0.3,-0.1 0.8,-0.3 1.2,-0.5 0.4,-0.2 0.8,-0.7 1.1,-1.2 0.1,-0.1 0.1,-0.3 0.1,-0.4 0,-0.1 0,-0.2 -0.1,-0.4 l -2.8,-7.2 h 2.2 z" style="fill:#454746"/><path id="path3762" d="m 528.8,535.3 c 0,-0.5 0.1,-1.4 0.1,-2.2 v -9.2 h 2 v 4.6 h 0 c 0.5,-0.8 1.3,-1.2 2.5,-1.2 1.9,0 3.3,1.6 3.2,4 0,2.8 -1.8,4.2 -3.5,4.2 -1,0 -1.9,-0.4 -2.5,-1.3 h 0 l -0.1,1.2 h -1.7 z m 2,-3.3 c 0,0.2 0,0.3 0,0.5 0.2,0.8 0.9,1.4 1.7,1.4 1.2,0 2,-1 2,-2.6 0,-1.4 -0.7,-2.5 -2,-2.5 -0.8,0 -1.5,0.6 -1.7,1.4 0,0.1 -0.1,0.3 -0.1,0.5 v 1.3 z" style="fill:#454746"/><path id="path3764" d="m 545.2,532.9 c 0,0.9 0,1.7 0.1,2.3 h -1.7 l -0.1,-1.2 h 0 c -0.3,0.6 -1.1,1.4 -2.5,1.4 -1.4,0 -2.7,-0.8 -2.7,-3.4 v -4.6 h 2 v 4.2 c 0,1.3 0.4,2.1 1.5,2.1 0.8,0 1.3,-0.6 1.5,-1.1 0.1,-0.2 0.1,-0.4 0.1,-0.6 v -4.7 h 2 v 5.6 z" style="fill:#454746"/><path id="path3766" d="M 552.4,535.3 V 529 h -2.8 v 6.3 h -2 V 529 h -1.1 v -1.5 h 1.1 v -0.2 c 0,-1 0.2,-1.9 0.9,-2.6 0.5,-0.5 1.2,-0.8 2.2,-0.8 0.4,0 0.8,0.1 1.1,0.2 l -0.3,1.5 c -0.2,-0.1 -0.4,-0.1 -0.7,-0.1 -0.9,0 -1.2,0.8 -1.2,1.7 v 0.3 h 2.8 v -0.3 c 0,-1 0.3,-2 1,-2.7 0.6,-0.5 1.3,-0.8 2,-0.8 0.5,0 0.9,0.1 1.2,0.2 l -0.1,1.5 c -0.2,-0.1 -0.5,-0.1 -0.8,-0.1 -1,0 -1.3,0.8 -1.3,1.8 v 0.4 h 1.7 v 1.5 h -1.7 v 6.3 h -2 z" style="fill:#454746"/><path id="path3768" d="m 558.5,531.9 c 0,1.4 1.2,2 2.4,2 0.9,0 1.6,-0.1 2.2,-0.4 l 0.3,1.4 c -0.7,0.3 -1.6,0.5 -2.7,0.5 -2.5,0 -4,-1.6 -4,-3.9 0,-2.2 1.3,-4.2 3.8,-4.2 2.5,0 3.4,2.1 3.4,3.8 0,0.4 0,0.7 -0.1,0.8 h -5.3 z m 3.4,-1.4 c 0,-0.7 -0.3,-1.9 -1.6,-1.9 -1.2,0 -1.7,1.1 -1.8,1.9 h 3.4 z" style="fill:#454746"/><path id="path3770" d="m 565.3,530 c 0,-1.1 0,-1.8 -0.1,-2.5 h 1.7 l 0.1,1.5 h 0.1 c 0.4,-1.1 1.3,-1.7 2.1,-1.7 0.2,0 0.3,0 0.5,0 v 1.9 c -0.2,0 -0.3,-0.1 -0.6,-0.1 -0.9,0 -1.6,0.6 -1.8,1.5 0,0.2 -0.1,0.4 -0.1,0.6 v 4 h -2 V 530 z" style="fill:#454746"/></g><path id="path3772" stroke-miterlimit="10" d="M 202.6,289.3 H 65.8 c -1.7,0 -3.1,-1.3 -3.1,-3 v -48 c 0,-1.7 1.4,-3 3.1,-3 h 136.8 c 1.7,0 3.1,1.3 3.1,3 v 48 c 0,1.7 -1.4,3 -3.1,3 z" style="fill:#fff;stroke:#c6c6c6;stroke-width:1.60000002;stroke-linecap:round;stroke-miterlimit:10;stroke-dasharray:4"/><g id="g3774" transform="translate(-374.4,-224.5)"><path id="path3776" d="m 520,270.1 c -0.5,0.2 -1.5,0.5 -2.8,0.5 -3.4,0 -5.5,-2.1 -5.5,-5.4 0,-3.6 2.5,-5.7 5.8,-5.7 1.3,0 2.2,0.3 2.6,0.5 l -0.4,1.6 c -0.5,-0.2 -1.2,-0.4 -2.1,-0.4 -2.2,0 -3.8,1.4 -3.8,4 0,2.4 1.4,3.9 3.8,3.9 0.8,0 1.6,-0.2 2.1,-0.4 l 0.3,1.4 z" style="fill:#454746"/><path id="path3778" d="m 528.8,266.5 c 0,2.9 -2,4.1 -4,4.1 -2.2,0 -3.9,-1.5 -3.9,-4 0,-2.6 1.7,-4.1 4,-4.1 2.3,0 3.9,1.6 3.9,4 z m -5.9,0.1 c 0,1.5 0.7,2.6 1.9,2.6 1.1,0 1.9,-1.1 1.9,-2.7 0,-1.2 -0.5,-2.6 -1.9,-2.6 -1.3,0 -1.9,1.4 -1.9,2.7 z" style="fill:#454746"/><path id="path3780" d="m 530.4,265 c 0,-0.9 0,-1.6 -0.1,-2.3 h 1.7 l 0.1,1.2 h 0 c 0.4,-0.6 1.1,-1.3 2.4,-1.3 1,0 1.8,0.6 2.2,1.4 h 0 c 0.3,-0.4 0.6,-0.8 1,-1 0.4,-0.3 0.9,-0.5 1.6,-0.5 1.3,0 2.6,0.9 2.6,3.4 v 4.6 H 540 v -4.3 c 0,-1.3 -0.4,-2.1 -1.4,-2.1 -0.7,0 -1.2,0.5 -1.4,1 0,0.2 -0.1,0.4 -0.1,0.7 v 4.7 h -1.9 V 266 c 0,-1.1 -0.4,-1.9 -1.3,-1.9 -0.7,0 -1.2,0.6 -1.4,1.1 -0.1,0.2 -0.1,0.4 -0.1,0.6 v 4.6 h -1.9 V 265 z" style="fill:#454746"/><path id="path3782" d="m 544,265 c 0,-0.9 0,-1.6 -0.1,-2.3 h 1.7 l 0.1,1.2 h 0 c 0.4,-0.6 1.1,-1.3 2.4,-1.3 1,0 1.8,0.6 2.2,1.4 h 0 c 0.3,-0.4 0.6,-0.8 1,-1 0.4,-0.3 0.9,-0.5 1.6,-0.5 1.3,0 2.6,0.9 2.6,3.4 v 4.6 h -1.9 v -4.3 c 0,-1.3 -0.4,-2.1 -1.4,-2.1 -0.7,0 -1.2,0.5 -1.4,1 0,0.2 -0.1,0.4 -0.1,0.7 v 4.7 h -1.9 V 266 c 0,-1.1 -0.4,-1.9 -1.3,-1.9 -0.7,0 -1.2,0.6 -1.4,1.1 -0.1,0.2 -0.1,0.4 -0.1,0.6 v 4.6 h -2 V 265 z" style="fill:#454746"/><path id="path3784" d="m 559.6,260.5 c 0,0.6 -0.4,1.1 -1.1,1.1 -0.7,0 -1.1,-0.5 -1.1,-1.1 0,-0.6 0.4,-1.1 1.1,-1.1 0.7,0 1.1,0.5 1.1,1.1 z m -2.1,10 v -7.8 h 2 v 7.8 h -2 z" style="fill:#454746"/><path id="path3786" d="m 563.9,260.4 v 2.2 h 1.9 v 1.5 h -1.9 v 3.4 c 0,0.9 0.3,1.4 1,1.4 0.3,0 0.6,0 0.8,-0.1 l 0,1.5 c -0.3,0.1 -0.8,0.2 -1.4,0.2 -0.7,0 -1.3,-0.2 -1.7,-0.6 -0.4,-0.4 -0.6,-1.2 -0.6,-2.2 V 264 h -1.1 v -1.5 h 1.1 v -1.8 l 1.9,-0.3 z" style="fill:#454746"/><path id="path3788" d="m 570.6,265.3 c 0,-1 0,-1.9 -0.1,-2.6 h 1.7 l 0.1,1.2 h 0 c 0.6,-0.9 1.5,-1.4 2.7,-1.4 1.8,0 3.3,1.5 3.3,4 0,2.8 -1.8,4.2 -3.6,4.2 -1,0 -1.8,-0.4 -2.2,-1 h 0 v 4 h -2 v -8.4 z m 1.9,1.9 c 0,0.2 0,0.4 0.1,0.5 0.2,0.8 0.9,1.4 1.7,1.4 1.2,0 2,-1 2,-2.6 0,-1.4 -0.7,-2.5 -1.9,-2.5 -0.8,0 -1.6,0.6 -1.8,1.5 0,0.2 -0.1,0.3 -0.1,0.5 v 1.2 z" style="fill:#454746"/><path id="path3790" d="m 587.3,266.5 c 0,2.9 -2,4.1 -4,4.1 -2.2,0 -3.9,-1.5 -3.9,-4 0,-2.6 1.7,-4.1 4,-4.1 2.4,0 3.9,1.6 3.9,4 z m -5.9,0.1 c 0,1.5 0.7,2.6 1.9,2.6 1.1,0 1.9,-1.1 1.9,-2.7 0,-1.2 -0.5,-2.6 -1.9,-2.6 -1.3,0 -1.9,1.4 -1.9,2.7 z" style="fill:#454746"/><path id="path3792" d="m 591,260.5 c 0,0.6 -0.4,1.1 -1.1,1.1 -0.7,0 -1.1,-0.5 -1.1,-1.1 0,-0.6 0.4,-1.1 1.1,-1.1 0.7,0 1.1,0.5 1.1,1.1 z m -2.1,10 v -7.8 h 2 v 7.8 h -2 z" style="fill:#454746"/><path id="path3794" d="m 593,265 c 0,-0.9 0,-1.6 -0.1,-2.3 h 1.7 l 0.1,1.2 h 0 c 0.3,-0.6 1.2,-1.3 2.5,-1.3 1.4,0 2.8,0.9 2.8,3.3 v 4.6 h -2 v -4.4 c 0,-1.1 -0.4,-2 -1.5,-2 -0.8,0 -1.3,0.6 -1.5,1.2 -0.1,0.2 -0.1,0.4 -0.1,0.6 v 4.6 h -2 V 265 z" style="fill:#454746"/><path id="path3796" d="m 604.4,260.4 v 2.2 h 1.9 v 1.5 h -1.9 v 3.4 c 0,0.9 0.3,1.4 1,1.4 0.3,0 0.6,0 0.8,-0.1 l 0,1.5 c -0.3,0.1 -0.8,0.2 -1.4,0.2 -0.7,0 -1.3,-0.2 -1.7,-0.6 -0.4,-0.4 -0.6,-1.2 -0.6,-2.2 V 264 h -1.1 v -1.5 h 1.1 v -1.8 l 1.9,-0.3 z" style="fill:#454746"/></g><g id="g3798" transform="translate(-374.4,-224.5)"><path id="path3800" d="m 561.4,430.7 c 0.6,0.4 1.6,0.7 2.6,0.7 1.3,0 2,-0.6 2,-1.5 0,-0.8 -0.5,-1.3 -1.9,-1.8 -1.8,-0.6 -2.9,-1.6 -2.9,-3.1 0,-1.8 1.5,-3.1 3.8,-3.1 1.2,0 2,0.3 2.6,0.5 l -0.5,1.6 c -0.4,-0.2 -1.1,-0.5 -2.1,-0.5 -1.2,0 -1.8,0.7 -1.8,1.3 0,0.8 0.6,1.2 2.1,1.8 1.9,0.7 2.8,1.6 2.8,3.2 0,1.7 -1.3,3.2 -4.1,3.2 -1.1,0 -2.3,-0.3 -2.9,-0.7 l 0.3,-1.6 z" style="fill:#454746"/><path id="path3802" d="m 571.2,429.5 c 0,1.4 1.2,2 2.4,2 0.9,0 1.6,-0.1 2.2,-0.4 l 0.3,1.4 c -0.7,0.3 -1.6,0.5 -2.7,0.5 -2.5,0 -4,-1.6 -4,-3.9 0,-2.2 1.3,-4.2 3.8,-4.2 2.5,0 3.4,2.1 3.4,3.8 0,0.4 0,0.7 -0.1,0.8 h -5.3 z m 3.4,-1.3 c 0,-0.7 -0.3,-1.9 -1.6,-1.9 -1.2,0 -1.7,1.1 -1.8,1.9 h 3.4 z" style="fill:#454746"/><path id="path3804" d="m 582.4,432.9 -0.1,-0.9 h 0 c -0.5,0.6 -1.3,1 -2.3,1 -1.6,0 -2.4,-1.1 -2.4,-2.3 0,-2 1.7,-3 4.6,-2.9 v -0.1 c 0,-0.5 -0.2,-1.4 -1.6,-1.4 -0.8,0 -1.6,0.2 -2.1,0.6 l -0.4,-1.3 c 0.6,-0.4 1.6,-0.7 2.8,-0.7 2.5,0 3.2,1.6 3.2,3.3 v 2.8 c 0,0.7 0,1.4 0.1,1.9 h -1.8 z m -0.2,-3.8 c -1.4,0 -2.7,0.3 -2.7,1.5 0,0.8 0.5,1.1 1.1,1.1 0.8,0 1.4,-0.5 1.5,-1.1 0,-0.1 0.1,-0.3 0.1,-0.4 v -1.1 z" style="fill:#454746"/><path id="path3806" d="m 586.2,427.6 c 0,-1.1 0,-1.8 -0.1,-2.5 h 1.7 l 0.1,1.5 h 0.1 c 0.4,-1.1 1.3,-1.7 2.1,-1.7 0.2,0 0.3,0 0.5,0 v 1.9 c -0.2,0 -0.3,-0.1 -0.6,-0.1 -0.9,0 -1.6,0.6 -1.8,1.5 0,0.2 -0.1,0.4 -0.1,0.6 v 4 h -2 v -5.2 z" style="fill:#454746"/><path id="path3808" d="m 597.5,432.6 c -0.4,0.2 -1.2,0.4 -2.2,0.4 -2.4,0 -4,-1.6 -4,-4 0,-2.3 1.6,-4.2 4.3,-4.2 0.7,0 1.5,0.2 1.9,0.4 l -0.4,1.5 c -0.3,-0.1 -0.8,-0.3 -1.5,-0.3 -1.5,0 -2.4,1.1 -2.4,2.5 0,1.6 1,2.5 2.4,2.5 0.7,0 1.2,-0.1 1.6,-0.3 l 0.3,1.5 z" style="fill:#454746"/><path id="path3810" d="m 598.9,421.5 h 2 v 4.6 h 0 c 0.2,-0.4 0.6,-0.7 1,-0.9 0.4,-0.2 0.8,-0.4 1.3,-0.4 1.3,0 2.7,0.9 2.7,3.4 v 4.6 h -2 v -4.4 c 0,-1.1 -0.4,-2 -1.5,-2 -0.8,0 -1.3,0.5 -1.5,1.1 -0.1,0.2 -0.1,0.4 -0.1,0.6 v 4.7 h -2 v -11.3 z" style="fill:#454746"/><path id="path3812" d="m 612.5,432.9 -0.1,-0.9 h 0 c -0.5,0.6 -1.3,1 -2.3,1 -1.6,0 -2.4,-1.1 -2.4,-2.3 0,-2 1.7,-3 4.6,-2.9 v -0.1 c 0,-0.5 -0.2,-1.4 -1.6,-1.4 -0.8,0 -1.6,0.2 -2.1,0.6 l -0.4,-1.3 c 0.6,-0.4 1.6,-0.7 2.8,-0.7 2.5,0 3.2,1.6 3.2,3.3 v 2.8 c 0,0.7 0,1.4 0.1,1.9 h -1.8 z m -0.3,-3.8 c -1.4,0 -2.7,0.3 -2.7,1.5 0,0.8 0.5,1.1 1.1,1.1 0.8,0 1.4,-0.5 1.5,-1.1 0,-0.1 0.1,-0.3 0.1,-0.4 v -1.1 z" style="fill:#454746"/><path id="path3814" d="m 616.1,432.9 c 0,-0.5 0.1,-1.4 0.1,-2.2 v -9.2 h 2 v 4.6 h 0 c 0.5,-0.8 1.3,-1.2 2.5,-1.2 1.9,0 3.3,1.6 3.2,4 0,2.8 -1.8,4.2 -3.5,4.2 -1,0 -1.9,-0.4 -2.5,-1.3 h 0 l -0.1,1.2 h -1.7 z m 2.1,-3.2 c 0,0.2 0,0.3 0,0.5 0.2,0.8 0.9,1.4 1.7,1.4 1.2,0 2,-1 2,-2.6 0,-1.4 -0.7,-2.5 -2,-2.5 -0.8,0 -1.5,0.6 -1.7,1.4 0,0.1 -0.1,0.3 -0.1,0.5 v 1.3 z" style="fill:#454746"/><path id="path3816" d="m 625.6,421.5 h 2 v 11.4 h -2 v -11.4 z" style="fill:#454746"/><path id="path3818" d="m 631.1,429.5 c 0,1.4 1.2,2 2.4,2 0.9,0 1.6,-0.1 2.2,-0.4 l 0.3,1.4 c -0.7,0.3 -1.6,0.5 -2.7,0.5 -2.5,0 -4,-1.6 -4,-3.9 0,-2.2 1.3,-4.2 3.8,-4.2 2.5,0 3.4,2.1 3.4,3.8 0,0.4 0,0.7 -0.1,0.8 h -5.3 z m 3.4,-1.3 c 0,-0.7 -0.3,-1.9 -1.6,-1.9 -1.2,0 -1.7,1.1 -1.8,1.9 h 3.4 z" style="fill:#454746"/></g><g id="g3820" transform="translate(-374.4,-224.5)"><g id="g3822"><path id="path3824" stroke-miterlimit="10" d="m 558.6,282.2 c -14.3,18 -71.7,-0.3 -78.9,33.6" style="fill:none;stroke:#454746;stroke-width:1.60000002;stroke-linecap:round;stroke-miterlimit:10"/><g id="g3826"><path id="path3828" d="m 478.9,323.5 c -0.9,-3.8 -2.7,-8.5 -4.8,-11.6 l 5.8,2.9 6.3,-1.5 c -2.7,2.5 -5.5,6.7 -7.3,10.2 z" style="fill:#454746"/></g></g></g><g id="g3830" transform="translate(-374.4,-224.5)"><g id="g3832"><path id="path3834" stroke-miterlimit="10" d="m 558.6,282.2 c 14.3,18 71.7,-0.3 78.9,33.6" style="fill:none;stroke:#454746;stroke-width:1.60000002;stroke-linecap:round;stroke-miterlimit:10"/><g id="g3836"><path id="path3838" d="m 638.3,323.5 c -1.7,-3.5 -4.5,-7.7 -7.3,-10.2 l 6.3,1.5 5.8,-2.9 c -2.1,3.1 -3.9,7.8 -4.8,11.6 z" style="fill:#454746"/></g></g></g><g id="g3840" transform="translate(-374.4,-224.5)"><g id="g3842"><path id="path3844" stroke-miterlimit="10" d="m 558.6,282.2 c 0,13.1 0.3,-1 0.3,33.6" style="fill:none;stroke:#454746;stroke-width:1.60000002;stroke-linecap:round;stroke-miterlimit:10"/><g id="g3846"><path id="path3848" d="m 558.9,323.5 c -1.4,-3.6 -3.7,-8.1 -6.1,-10.9 l 6.1,2.2 6.1,-2.2 c -2.5,2.7 -4.8,7.2 -6.1,10.9 z" style="fill:#454746"/></g></g></g><path id="path3850" stroke-miterlimit="10" d="m 385.7,170.6 v 12 c 0,1.7 -1.3,3 -3,3 h -317 c -1.7,0 -3,-1.3 -3,-3 v -12" style="fill:none;stroke:#454746;stroke-width:1.60000002;stroke-linecap:round;stroke-miterlimit:10"/><path id="path3852" d="m 104.2,153 c 10.2,0 19.7,-1.8 24.9,-4.7 2,-1.2 3.9,-2.5 5.1,-3.6 v -11 c -1.3,0.9 -2.5,1.6 -3.2,2 -5.8,3.2 -15.8,5.2 -26.8,5.2 -11,0 -21.1,-1.9 -26.8,-5.2 -0.7,-0.4 -1.9,-1.1 -3.2,-2 v 11 c 1.2,1.1 3.1,2.5 5.2,3.6 5.1,2.9 14.6,4.7 24.8,4.7 z" style="fill:#75b640"/><path id="path3854" d="m 134.2,158 v -8.2 c -1.3,0.9 -2.5,1.6 -3.2,2 -5.8,3.2 -15.8,5.2 -26.8,5.2 -11,0 -21.1,-1.9 -26.8,-5.2 -0.7,-0.4 -1.9,-1.1 -3.2,-2 v 8.2 c 0,5.5 13.4,10 30,10 16.6,0 30,-4.5 30,-10 z" style="fill:#75b640"/><path id="path3856" d="m 104.2,136.9 c 10.2,0 19.7,-1.8 24.8,-4.7 2,-1.2 3.9,-2.5 5.2,-3.6 v -4.7 c 0,-5.5 -13.4,-10 -30,-10 -16.6,0 -30,4.5 -30,10 v 4.7 c 1.2,1.1 3.1,2.5 5.1,3.6 5.2,2.9 14.7,4.7 24.9,4.7 z" style="fill:#75b640"/><path id="path3858" d="m 214.2,158 v -8.2 c -1.3,0.9 -2.5,1.6 -3.2,2 -5.8,3.2 -15.8,5.2 -26.8,5.2 -11,0 -21.1,-1.9 -26.8,-5.2 -0.7,-0.4 -1.9,-1.1 -3.2,-2 v 8.2 c 0,5.5 13.4,10 30,10 16.6,0 30,-4.5 30,-10 z" style="fill:#75b640"/><path id="path3860" d="m 184.2,153 c 10.2,0 19.7,-1.8 24.9,-4.7 2,-1.2 3.9,-2.5 5.1,-3.6 v -11 c -1.3,0.9 -2.5,1.6 -3.2,2 -5.8,3.2 -15.8,5.2 -26.8,5.2 -11,0 -21.1,-1.9 -26.8,-5.2 -0.7,-0.4 -1.9,-1.1 -3.2,-2 v 11 c 1.2,1.1 3.1,2.5 5.2,3.6 5.1,2.9 14.6,4.7 24.8,4.7 z" style="fill:#75b640"/><path id="path3862" d="m 184.2,136.9 c 10.2,0 19.7,-1.8 24.8,-4.7 2,-1.2 3.9,-2.5 5.2,-3.6 v -4.7 c 0,-5.5 -13.4,-10 -30,-10 -16.6,0 -30,4.5 -30,10 v 4.7 c 1.2,1.1 3.1,2.5 5.1,3.6 5.2,2.9 14.7,4.7 24.9,4.7 z" style="fill:#75b640"/><path id="path3864" d="m 264.2,136.9 c 10.2,0 19.7,-1.8 24.8,-4.7 2,-1.2 3.9,-2.5 5.2,-3.6 v -4.7 c 0,-5.5 -13.4,-10 -30,-10 -16.6,0 -30,4.5 -30,10 v 4.7 c 1.2,1.1 3.1,2.5 5.1,3.6 5.2,2.9 14.7,4.7 24.9,4.7 z" style="fill:#75b640"/><path id="path3866" d="m 264.2,153 c 10.2,0 19.7,-1.8 24.9,-4.7 2,-1.2 3.9,-2.5 5.1,-3.6 v -11 c -1.3,0.9 -2.5,1.6 -3.2,2 -5.8,3.2 -15.8,5.2 -26.8,5.2 -11,0 -21.1,-1.9 -26.8,-5.2 -0.7,-0.4 -1.9,-1.1 -3.2,-2 v 11 c 1.2,1.1 3.1,2.5 5.2,3.6 5.1,2.9 14.6,4.7 24.8,4.7 z" style="fill:#75b640"/><path id="path3868" d="m 294.2,158 v -8.2 c -1.3,0.9 -2.5,1.6 -3.2,2 -5.8,3.2 -15.8,5.2 -26.8,5.2 -11,0 -21.1,-1.9 -26.8,-5.2 -0.7,-0.4 -1.9,-1.1 -3.2,-2 v 8.2 c 0,5.5 13.4,10 30,10 16.6,0 30,-4.5 30,-10 z" style="fill:#75b640"/><path id="path3870" d="m 374.2,158 v -8.2 c -1.3,0.9 -2.5,1.6 -3.2,2 -5.8,3.2 -15.8,5.2 -26.8,5.2 -11,0 -21.1,-1.9 -26.8,-5.2 -0.7,-0.4 -1.9,-1.1 -3.2,-2 v 8.2 c 0,5.5 13.4,10 30,10 16.6,0 30,-4.5 30,-10 z" style="fill:#d3d3d3"/><path id="path3872" d="m 344.2,153 c 10.2,0 19.7,-1.8 24.9,-4.7 2,-1.2 3.9,-2.5 5.1,-3.6 v -11 c -1.3,0.9 -2.5,1.6 -3.2,2 -5.8,3.2 -15.8,5.2 -26.8,5.2 -11,0 -21.1,-1.9 -26.8,-5.2 -0.7,-0.4 -1.9,-1.1 -3.2,-2 v 11 c 1.2,1.1 3.1,2.5 5.2,3.6 5.1,2.9 14.6,4.7 24.8,4.7 z" style="fill:#d3d3d3"/><path id="path3874" d="m 344.2,136.9 c 10.2,0 19.7,-1.8 24.8,-4.7 2,-1.2 3.9,-2.5 5.2,-3.6 v -4.7 c 0,-5.5 -13.4,-10 -30,-10 -16.6,0 -30,4.5 -30,10 v 4.7 c 1.2,1.1 3.1,2.5 5.1,3.6 5.2,2.9 14.7,4.7 24.9,4.7 z" style="fill:#d3d3d3"/><g id="g3876" transform="translate(-374.4,-224.5)"><path id="path3878" d="M 692.1,526.1 H 689 v -1.6 h 8.1 v 1.6 H 694 v 9.1 h -2 v -9.1 z" style="fill:#454746"/><path id="path3880" d="m 697.5,530 c 0,-1.1 0,-1.8 -0.1,-2.5 h 1.7 l 0.1,1.5 h 0.1 c 0.4,-1.1 1.3,-1.7 2.1,-1.7 0.2,0 0.3,0 0.5,0 v 1.9 c -0.2,0 -0.3,-0.1 -0.6,-0.1 -0.9,0 -1.6,0.6 -1.8,1.5 0,0.2 -0.1,0.4 -0.1,0.6 v 4 h -2 V 530 z" style="fill:#454746"/><path id="path3882" d="m 707.5,535.3 -0.1,-0.9 h 0 c -0.5,0.6 -1.3,1 -2.3,1 -1.6,0 -2.4,-1.1 -2.4,-2.3 0,-2 1.7,-3 4.6,-2.9 V 530 c 0,-0.5 -0.2,-1.4 -1.6,-1.4 -0.8,0 -1.6,0.2 -2.1,0.6 l -0.4,-1.3 c 0.6,-0.4 1.6,-0.7 2.8,-0.7 2.5,0 3.2,1.6 3.2,3.3 v 2.8 c 0,0.7 0,1.4 0.1,1.9 h -1.8 z m -0.3,-3.9 c -1.4,0 -2.7,0.3 -2.7,1.5 0,0.8 0.5,1.1 1.1,1.1 0.8,0 1.4,-0.5 1.5,-1.1 0,-0.1 0.1,-0.3 0.1,-0.4 v -1.1 z" style="fill:#454746"/><path id="path3884" d="m 711.2,529.8 c 0,-0.9 0,-1.6 -0.1,-2.3 h 1.7 l 0.1,1.2 h 0 c 0.3,-0.6 1.2,-1.3 2.5,-1.3 1.4,0 2.8,0.9 2.8,3.3 v 4.6 h -2 v -4.4 c 0,-1.1 -0.4,-2 -1.5,-2 -0.8,0 -1.3,0.6 -1.5,1.2 -0.1,0.2 -0.1,0.4 -0.1,0.6 v 4.6 h -2 v -5.5 z" style="fill:#454746"/><path id="path3886" d="m 720.3,533.4 c 0.4,0.3 1.3,0.6 2,0.6 0.9,0 1.2,-0.4 1.2,-0.9 0,-0.5 -0.3,-0.8 -1.3,-1.1 -1.5,-0.5 -2.2,-1.4 -2.1,-2.3 0,-1.4 1.1,-2.4 2.9,-2.4 0.9,0 1.6,0.2 2.1,0.5 l -0.4,1.4 c -0.3,-0.2 -1,-0.4 -1.6,-0.4 -0.7,0 -1.1,0.3 -1.1,0.8 0,0.5 0.4,0.7 1.4,1.1 1.4,0.5 2.1,1.2 2.1,2.4 0,1.4 -1.1,2.4 -3.2,2.4 -0.9,0 -1.8,-0.2 -2.4,-0.5 l 0.4,-1.6 z" style="fill:#454746"/><path id="path3888" d="m 727,523.9 h 2 v 11.4 h -2 v -11.4 z" style="fill:#454746"/><path id="path3890" d="m 738.6,531.3 c 0,2.9 -2,4.1 -4,4.1 -2.2,0 -3.9,-1.5 -3.9,-4 0,-2.6 1.7,-4.1 4,-4.1 2.3,0 3.9,1.6 3.9,4 z m -5.9,0.1 c 0,1.5 0.7,2.6 1.9,2.6 1.1,0 1.9,-1.1 1.9,-2.7 0,-1.2 -0.5,-2.6 -1.9,-2.6 -1.3,0 -1.9,1.4 -1.9,2.7 z" style="fill:#454746"/><path id="path3892" d="m 747.3,527.5 c 0,0.5 -0.1,1.2 -0.1,2.2 v 4.4 c 0,1.6 -0.3,2.8 -1.2,3.5 -0.8,0.7 -1.9,0.9 -3,0.9 -1,0 -2,-0.2 -2.7,-0.6 l 0.4,-1.5 c 0.5,0.3 1.3,0.6 2.3,0.6 1.3,0 2.2,-0.7 2.2,-2.4 v -0.7 h 0 c -0.4,0.7 -1.2,1.2 -2.3,1.2 -1.9,0 -3.3,-1.6 -3.3,-3.8 0,-2.6 1.7,-4.1 3.5,-4.1 1.2,0 1.9,0.6 2.3,1.2 h 0 l 0.1,-1 h 1.8 z m -2,3.1 c 0,-0.2 0,-0.4 -0.1,-0.5 -0.2,-0.7 -0.8,-1.3 -1.6,-1.3 -1.1,0 -1.9,1 -1.9,2.5 0,1.3 0.7,2.4 1.9,2.4 0.7,0 1.4,-0.5 1.6,-1.2 0,-0.2 0.1,-0.5 0.1,-0.7 v -1.2 z" style="fill:#454746"/></g><g id="g3894" transform="translate(-374.4,-224.5)"><g id="g3896"><g id="g3898"><path id="path3900" d="m 467.8,471.8 h -13 c -1.6,0 -3,1.3 -3,3 v 24 c 0,1.7 1.4,3 3,3 h 18 c 1.7,0 3,-1.3 3,-3 v -19 l -8,-8 z" style="fill:#fff;stroke:#666;stroke-width:1.60000002;stroke-linejoin:round"/></g><line id="line3902" x1="456.8" x2="470.8" y1="496.8" y2="496.8" style="fill:none;stroke:#75b640;stroke-width:1.60000002;stroke-linecap:round"/><line id="line3904" x1="456.8" x2="470.8" y1="491.8" y2="491.8" style="fill:none;stroke:#75b640;stroke-width:1.60000002;stroke-linecap:round"/><line id="line3906" x1="456.8" x2="470.8" y1="486.8" y2="486.8" style="fill:none;stroke:#75b640;stroke-width:1.60000002;stroke-linecap:round"/><line id="line3908" x1="456.8" x2="464.8" y1="481.8" y2="481.8" style="fill:none;stroke:#75b640;stroke-width:1.60000002;stroke-linecap:round"/><line id="line3910" x1="456.8" x2="462.8" y1="476.8" y2="476.8" style="fill:none;stroke:#75b640;stroke-width:1.60000002;stroke-linecap:round"/><path id="path3912" d="m 475.8,480 h -5 c -1.6,0 -3,-1.3 -3,-3 v -5" style="fill:none;stroke:#75b640;stroke-width:1.60000002"/></g><g id="g3914"><g id="g3916"><path id="path3918" d="m 477.8,471.8 h -13 c -1.6,0 -3,1.3 -3,3 v 24 c 0,1.7 1.4,3 3,3 h 18 c 1.7,0 3,-1.3 3,-3 v -19 l -8,-8 z" style="fill:#fff;stroke:#666;stroke-width:1.60000002;stroke-linejoin:round"/></g><line id="line3920" x1="466.8" x2="480.8" y1="496.8" y2="496.8" style="fill:none;stroke:#75b640;stroke-width:1.60000002;stroke-linecap:round"/><line id="line3922" x1="466.8" x2="480.8" y1="491.8" y2="491.8" style="fill:none;stroke:#75b640;stroke-width:1.60000002;stroke-linecap:round"/><line id="line3924" x1="466.8" x2="480.8" y1="486.8" y2="486.8" style="fill:none;stroke:#75b640;stroke-width:1.60000002;stroke-linecap:round"/><line id="line3926" x1="466.8" x2="474.8" y1="481.8" y2="481.8" style="fill:none;stroke:#75b640;stroke-width:1.60000002;stroke-linecap:round"/><line id="line3928" x1="466.8" x2="472.8" y1="476.8" y2="476.8" style="fill:none;stroke:#75b640;stroke-width:1.60000002;stroke-linecap:round"/><path id="path3930" d="m 485.8,480 h -5 c -1.6,0 -3,-1.3 -3,-3 v -5" style="fill:none;stroke:#75b640;stroke-width:1.60000002"/></g><g id="g3932"><g id="g3934"><path id="path3936" d="m 487.8,471.8 h -13 c -1.6,0 -3,1.3 -3,3 v 24 c 0,1.7 1.4,3 3,3 h 18 c 1.7,0 3,-1.3 3,-3 v -19 l -8,-8 z" style="fill:#fff;stroke:#666;stroke-width:1.60000002;stroke-linejoin:round"/></g><line id="line3938" x1="476.8" x2="490.8" y1="496.8" y2="496.8" style="fill:none;stroke:#75b640;stroke-width:1.60000002;stroke-linecap:round"/><line id="line3940" x1="476.8" x2="490.8" y1="491.8" y2="491.8" style="fill:none;stroke:#75b640;stroke-width:1.60000002;stroke-linecap:round"/><line id="line3942" x1="476.8" x2="490.8" y1="486.8" y2="486.8" style="fill:none;stroke:#75b640;stroke-width:1.60000002;stroke-linecap:round"/><line id="line3944" x1="476.8" x2="484.8" y1="481.8" y2="481.8" style="fill:none;stroke:#75b640;stroke-width:1.60000002;stroke-linecap:round"/><line id="line3946" x1="476.8" x2="482.8" y1="476.8" y2="476.8" style="fill:none;stroke:#75b640;stroke-width:1.60000002;stroke-linecap:round"/><path id="path3948" d="m 495.8,480 h -5 c -1.6,0 -3,-1.3 -3,-3 v -5" style="fill:none;stroke:#75b640;stroke-width:1.60000002"/></g><g id="g3950"><g id="g3952"><path id="path3954" d="m 497.8,471.8 h -13 c -1.6,0 -3,1.3 -3,3 v 24 c 0,1.7 1.4,3 3,3 h 18 c 1.7,0 3,-1.3 3,-3 v -19 l -8,-8 z" style="fill:#fff;stroke:#666;stroke-width:1.60000002;stroke-linejoin:round"/></g><line id="line3956" x1="486.8" x2="500.8" y1="496.8" y2="496.8" style="fill:none;stroke:#75b640;stroke-width:1.60000002;stroke-linecap:round"/><line id="line3958" x1="486.8" x2="500.8" y1="491.8" y2="491.8" style="fill:none;stroke:#75b640;stroke-width:1.60000002;stroke-linecap:round"/><line id="line3960" x1="486.8" x2="500.8" y1="486.8" y2="486.8" style="fill:none;stroke:#75b640;stroke-width:1.60000002;stroke-linecap:round"/><line id="line3962" x1="486.8" x2="494.8" y1="481.8" y2="481.8" style="fill:none;stroke:#75b640;stroke-width:1.60000002;stroke-linecap:round"/><line id="line3964" x1="486.8" x2="492.8" y1="476.8" y2="476.8" style="fill:none;stroke:#75b640;stroke-width:1.60000002;stroke-linecap:round"/><path id="path3966" d="m 505.8,480 h -5 c -1.6,0 -3,-1.3 -3,-3 v -5" style="fill:none;stroke:#75b640;stroke-width:1.60000002"/></g><g id="g3968"><g id="g3970"><path id="path3972" d="m 507.8,471.8 h -13 c -1.6,0 -3,1.3 -3,3 v 24 c 0,1.7 1.4,3 3,3 h 18 c 1.7,0 3,-1.3 3,-3 v -19 l -8,-8 z" style="fill:#fff;stroke:#666;stroke-width:1.60000002;stroke-linejoin:round"/></g><line id="line3974" x1="496.8" x2="510.8" y1="496.8" y2="496.8" style="fill:none;stroke:#75b640;stroke-width:1.60000002;stroke-linecap:round"/><line id="line3976" x1="496.8" x2="510.8" y1="491.8" y2="491.8" style="fill:none;stroke:#75b640;stroke-width:1.60000002;stroke-linecap:round"/><line id="line3978" x1="496.8" x2="510.8" y1="486.8" y2="486.8" style="fill:none;stroke:#75b640;stroke-width:1.60000002;stroke-linecap:round"/><line id="line3980" x1="496.8" x2="504.8" y1="481.8" y2="481.8" style="fill:none;stroke:#75b640;stroke-width:1.60000002;stroke-linecap:round"/><line id="line3982" x1="496.8" x2="502.8" y1="476.8" y2="476.8" style="fill:none;stroke:#75b640;stroke-width:1.60000002;stroke-linecap:round"/><path id="path3984" d="m 515.8,480 h -5 c -1.6,0 -3,-1.3 -3,-3 v -5" style="fill:none;stroke:#75b640;stroke-width:1.60000002"/></g><g id="g3986"><g id="g3988"><path id="path3990" d="m 517.8,471.8 h -13 c -1.6,0 -3,1.3 -3,3 v 24 c 0,1.7 1.4,3 3,3 h 18 c 1.7,0 3,-1.3 3,-3 v -19 l -8,-8 z" style="fill:#fff;stroke:#666;stroke-width:1.60000002;stroke-linejoin:round"/></g><line id="line3992" x1="506.8" x2="520.8" y1="496.8" y2="496.8" style="fill:none;stroke:#75b640;stroke-width:1.60000002;stroke-linecap:round"/><line id="line3994" x1="506.8" x2="520.8" y1="491.8" y2="491.8" style="fill:none;stroke:#75b640;stroke-width:1.60000002;stroke-linecap:round"/><line id="line3996" x1="506.8" x2="520.8" y1="486.8" y2="486.8" style="fill:none;stroke:#75b640;stroke-width:1.60000002;stroke-linecap:round"/><line id="line3998" x1="506.8" x2="514.8" y1="481.8" y2="481.8" style="fill:none;stroke:#75b640;stroke-width:1.60000002;stroke-linecap:round"/><line id="line4000" x1="506.8" x2="512.8" y1="476.8" y2="476.8" style="fill:none;stroke:#75b640;stroke-width:1.60000002;stroke-linecap:round"/><path id="path4002" d="m 525.8,480 h -5 c -1.6,0 -3,-1.3 -3,-3 v -5" style="fill:none;stroke:#75b640;stroke-width:1.60000002"/></g><g id="g4004"><g id="g4006"><path id="path4008" d="m 527.8,471.8 h -13 c -1.6,0 -3,1.3 -3,3 v 24 c 0,1.7 1.4,3 3,3 h 18 c 1.7,0 3,-1.3 3,-3 v -19 l -8,-8 z" style="fill:#fff;stroke:#666;stroke-width:1.60000002;stroke-linejoin:round"/></g><line id="line4010" x1="516.8" x2="530.8" y1="496.8" y2="496.8" style="fill:none;stroke:#75b640;stroke-width:1.60000002;stroke-linecap:round"/><line id="line4012" x1="516.8" x2="530.8" y1="491.8" y2="491.8" style="fill:none;stroke:#75b640;stroke-width:1.60000002;stroke-linecap:round"/><line id="line4014" x1="516.8" x2="530.8" y1="486.8" y2="486.8" style="fill:none;stroke:#75b640;stroke-width:1.60000002;stroke-linecap:round"/><line id="line4016" x1="516.8" x2="524.8" y1="481.8" y2="481.8" style="fill:none;stroke:#75b640;stroke-width:1.60000002;stroke-linecap:round"/><line id="line4018" x1="516.8" x2="522.8" y1="476.8" y2="476.8" style="fill:none;stroke:#75b640;stroke-width:1.60000002;stroke-linecap:round"/><path id="path4020" d="m 535.8,480 h -5 c -1.6,0 -3,-1.3 -3,-3 v -5" style="fill:none;stroke:#75b640;stroke-width:1.60000002"/></g><g id="g4022"><g id="g4024"><path id="path4026" d="m 537.8,471.8 h -13 c -1.6,0 -3,1.3 -3,3 v 24 c 0,1.7 1.4,3 3,3 h 18 c 1.7,0 3,-1.3 3,-3 v -19 l -8,-8 z" style="fill:#fff;stroke:#666;stroke-width:1.60000002;stroke-linejoin:round"/></g><line id="line4028" x1="526.8" x2="540.8" y1="496.8" y2="496.8" style="fill:none;stroke:#75b640;stroke-width:1.60000002;stroke-linecap:round"/><line id="line4030" x1="526.8" x2="540.8" y1="491.8" y2="491.8" style="fill:none;stroke:#75b640;stroke-width:1.60000002;stroke-linecap:round"/><line id="line4032" x1="526.8" x2="540.8" y1="486.8" y2="486.8" style="fill:none;stroke:#75b640;stroke-width:1.60000002;stroke-linecap:round"/><line id="line4034" x1="526.8" x2="534.8" y1="481.8" y2="481.8" style="fill:none;stroke:#75b640;stroke-width:1.60000002;stroke-linecap:round"/><line id="line4036" x1="526.8" x2="532.8" y1="476.8" y2="476.8" style="fill:none;stroke:#75b640;stroke-width:1.60000002;stroke-linecap:round"/><path id="path4038" d="m 545.8,480 h -5 c -1.6,0 -3,-1.3 -3,-3 v -5" style="fill:none;stroke:#666;stroke-width:1.60000002;stroke-linejoin:round"/></g></g><path id="path4040" stroke-miterlimit="10" d="M 462,289.7 H 224.7 c -1.7,0 -3,-1.3 -3,-3 v -48 c 0,-1.7 1.3,-3 3,-3 H 462 c 1.7,0 3,1.3 3,3 v 48 c 0,1.6 -1.4,3 -3,3 z" style="fill:#fff;stroke:#c6c6c6;stroke-width:1.60000002;stroke-miterlimit:10"/><g id="g4042" transform="translate(-374.4,-224.5)"><g id="g4044"><g id="g4046"><path id="path4048" d="m 626.6,472.2 h -13 c -1.6,0 -3,1.3 -3,3 v 24 c 0,1.7 1.4,3 3,3 h 18 c 1.7,0 3,-1.3 3,-3 v -19 l -8,-8 z" style="fill:#fff;stroke:#666;stroke-width:1.60000002;stroke-linejoin:round"/></g><line id="line4050" x1="615.6" x2="629.6" y1="497.2" y2="497.2" style="fill:none;stroke:#75b640;stroke-width:1.60000002;stroke-linecap:round"/><line id="line4052" x1="615.6" x2="629.6" y1="492.2" y2="492.2" style="fill:none;stroke:#75b640;stroke-width:1.60000002;stroke-linecap:round"/><line id="line4054" x1="615.6" x2="629.6" y1="487.2" y2="487.2" style="fill:none;stroke:#75b640;stroke-width:1.60000002;stroke-linecap:round"/><line id="line4056" x1="615.6" x2="623.6" y1="482.2" y2="482.2" style="fill:none;stroke:#75b640;stroke-width:1.60000002;stroke-linecap:round"/><line id="line4058" x1="615.6" x2="621.6" y1="477.2" y2="477.2" style="fill:none;stroke:#75b640;stroke-width:1.60000002;stroke-linecap:round"/><path id="path4060" d="m 634.6,480.3 h -5 c -1.6,0 -3,-1.3 -3,-3 v -5" style="fill:none;stroke:#75b640;stroke-width:1.60000002"/></g><g id="g4062"><g id="g4064"><path id="path4066" d="m 636.6,472.2 h -13 c -1.6,0 -3,1.3 -3,3 v 24 c 0,1.7 1.4,3 3,3 h 18 c 1.7,0 3,-1.3 3,-3 v -19 l -8,-8 z" style="fill:#fff;stroke:#666;stroke-width:1.60000002;stroke-linejoin:round"/></g><line id="line4068" x1="625.6" x2="639.6" y1="497.2" y2="497.2" style="fill:none;stroke:#75b640;stroke-width:1.60000002;stroke-linecap:round"/><line id="line4070" x1="625.6" x2="639.6" y1="492.2" y2="492.2" style="fill:none;stroke:#75b640;stroke-width:1.60000002;stroke-linecap:round"/><line id="line4072" x1="625.6" x2="639.6" y1="487.2" y2="487.2" style="fill:none;stroke:#75b640;stroke-width:1.60000002;stroke-linecap:round"/><line id="line4074" x1="625.6" x2="633.6" y1="482.2" y2="482.2" style="fill:none;stroke:#75b640;stroke-width:1.60000002;stroke-linecap:round"/><line id="line4076" x1="625.6" x2="631.6" y1="477.2" y2="477.2" style="fill:none;stroke:#75b640;stroke-width:1.60000002;stroke-linecap:round"/><path id="path4078" d="m 644.6,480.3 h -5 c -1.6,0 -3,-1.3 -3,-3 v -5" style="fill:none;stroke:#75b640;stroke-width:1.60000002"/></g><g id="g4080"><g id="g4082"><path id="path4084" d="m 646.6,472.2 h -13 c -1.6,0 -3,1.3 -3,3 v 24 c 0,1.7 1.4,3 3,3 h 18 c 1.7,0 3,-1.3 3,-3 v -19 l -8,-8 z" style="fill:#fff;stroke:#666;stroke-width:1.60000002;stroke-linejoin:round"/></g><line id="line4086" x1="635.6" x2="649.6" y1="497.2" y2="497.2" style="fill:none;stroke:#75b640;stroke-width:1.60000002;stroke-linecap:round"/><line id="line4088" x1="635.6" x2="649.6" y1="492.2" y2="492.2" style="fill:none;stroke:#75b640;stroke-width:1.60000002;stroke-linecap:round"/><line id="line4090" x1="635.6" x2="649.6" y1="487.2" y2="487.2" style="fill:none;stroke:#75b640;stroke-width:1.60000002;stroke-linecap:round"/><line id="line4092" x1="635.6" x2="643.6" y1="482.2" y2="482.2" style="fill:none;stroke:#75b640;stroke-width:1.60000002;stroke-linecap:round"/><line id="line4094" x1="635.6" x2="641.6" y1="477.2" y2="477.2" style="fill:none;stroke:#75b640;stroke-width:1.60000002;stroke-linecap:round"/><path id="path4096" d="m 654.6,480.3 h -5 c -1.6,0 -3,-1.3 -3,-3 v -5" style="fill:none;stroke:#75b640;stroke-width:1.60000002"/></g><g id="g4098"><g id="g4100"><path id="path4102" d="m 656.6,472.2 h -13 c -1.6,0 -3,1.3 -3,3 v 24 c 0,1.7 1.4,3 3,3 h 18 c 1.7,0 3,-1.3 3,-3 v -19 l -8,-8 z" style="fill:#fff;stroke:#666;stroke-width:1.60000002;stroke-linejoin:round"/></g><line id="line4104" x1="645.6" x2="659.6" y1="497.2" y2="497.2" style="fill:none;stroke:#75b640;stroke-width:1.60000002;stroke-linecap:round"/><line id="line4106" x1="645.6" x2="659.6" y1="492.2" y2="492.2" style="fill:none;stroke:#75b640;stroke-width:1.60000002;stroke-linecap:round"/><line id="line4108" x1="645.6" x2="659.6" y1="487.2" y2="487.2" style="fill:none;stroke:#75b640;stroke-width:1.60000002;stroke-linecap:round"/><line id="line4110" x1="645.6" x2="653.6" y1="482.2" y2="482.2" style="fill:none;stroke:#75b640;stroke-width:1.60000002;stroke-linecap:round"/><line id="line4112" x1="645.6" x2="651.6" y1="477.2" y2="477.2" style="fill:none;stroke:#75b640;stroke-width:1.60000002;stroke-linecap:round"/><path id="path4114" d="m 664.6,480.3 h -5 c -1.6,0 -3,-1.3 -3,-3 v -5" style="fill:none;stroke:#75b640;stroke-width:1.60000002"/></g><g id="g4116"><g id="g4118"><path id="path4120" d="m 666.6,472.2 h -13 c -1.6,0 -3,1.3 -3,3 v 24 c 0,1.7 1.4,3 3,3 h 18 c 1.7,0 3,-1.3 3,-3 v -19 l -8,-8 z" style="fill:#fff;stroke:#666;stroke-width:1.60000002;stroke-linejoin:round"/></g><line id="line4122" x1="655.6" x2="669.6" y1="497.2" y2="497.2" style="fill:none;stroke:#75b640;stroke-width:1.60000002;stroke-linecap:round"/><line id="line4124" x1="655.6" x2="669.6" y1="492.2" y2="492.2" style="fill:none;stroke:#75b640;stroke-width:1.60000002;stroke-linecap:round"/><line id="line4126" x1="655.6" x2="669.6" y1="487.2" y2="487.2" style="fill:none;stroke:#75b640;stroke-width:1.60000002;stroke-linecap:round"/><line id="line4128" x1="655.6" x2="663.6" y1="482.2" y2="482.2" style="fill:none;stroke:#75b640;stroke-width:1.60000002;stroke-linecap:round"/><line id="line4130" x1="655.6" x2="661.6" y1="477.2" y2="477.2" style="fill:none;stroke:#75b640;stroke-width:1.60000002;stroke-linecap:round"/><path id="path4132" d="m 674.6,480.3 h -5 c -1.6,0 -3,-1.3 -3,-3 v -5" style="fill:none;stroke:#75b640;stroke-width:1.60000002"/></g><g id="g4134"><g id="g4136"><path id="path4138" d="m 676.6,472.2 h -13 c -1.6,0 -3,1.3 -3,3 v 24 c 0,1.7 1.4,3 3,3 h 18 c 1.7,0 3,-1.3 3,-3 v -19 l -8,-8 z" style="fill:#fff;stroke:#666;stroke-width:1.60000002;stroke-linejoin:round"/></g><line id="line4140" x1="665.6" x2="679.6" y1="497.2" y2="497.2" style="fill:none;stroke:#75b640;stroke-width:1.60000002;stroke-linecap:round"/><line id="line4142" x1="665.6" x2="679.6" y1="492.2" y2="492.2" style="fill:none;stroke:#75b640;stroke-width:1.60000002;stroke-linecap:round"/><line id="line4144" x1="665.6" x2="679.6" y1="487.2" y2="487.2" style="fill:none;stroke:#75b640;stroke-width:1.60000002;stroke-linecap:round"/><line id="line4146" x1="665.6" x2="673.6" y1="482.2" y2="482.2" style="fill:none;stroke:#75b640;stroke-width:1.60000002;stroke-linecap:round"/><line id="line4148" x1="665.6" x2="671.6" y1="477.2" y2="477.2" style="fill:none;stroke:#75b640;stroke-width:1.60000002;stroke-linecap:round"/><path id="path4150" d="m 684.6,480.3 h -5 c -1.6,0 -3,-1.3 -3,-3 v -5" style="fill:none;stroke:#75b640;stroke-width:1.60000002"/></g><g id="g4152"><g id="g4154"><path id="path4156" d="m 686.6,472.2 h -13 c -1.6,0 -3,1.3 -3,3 v 24 c 0,1.7 1.4,3 3,3 h 18 c 1.7,0 3,-1.3 3,-3 v -19 l -8,-8 z" style="fill:#fff;stroke:#666;stroke-width:1.60000002;stroke-linejoin:round"/></g><line id="line4158" x1="675.6" x2="689.6" y1="497.2" y2="497.2" style="fill:none;stroke:#75b640;stroke-width:1.60000002;stroke-linecap:round"/><line id="line4160" x1="675.6" x2="689.6" y1="492.2" y2="492.2" style="fill:none;stroke:#75b640;stroke-width:1.60000002;stroke-linecap:round"/><line id="line4162" x1="675.6" x2="689.6" y1="487.2" y2="487.2" style="fill:none;stroke:#75b640;stroke-width:1.60000002;stroke-linecap:round"/><line id="line4164" x1="675.6" x2="683.6" y1="482.2" y2="482.2" style="fill:none;stroke:#75b640;stroke-width:1.60000002;stroke-linecap:round"/><line id="line4166" x1="675.6" x2="681.6" y1="477.2" y2="477.2" style="fill:none;stroke:#75b640;stroke-width:1.60000002;stroke-linecap:round"/><path id="path4168" d="m 694.6,480.3 h -5 c -1.6,0 -3,-1.3 -3,-3 v -5" style="fill:none;stroke:#75b640;stroke-width:1.60000002"/></g><g id="g4170"><g id="g4172"><path id="path4174" d="m 696.6,472.2 h -13 c -1.6,0 -3,1.3 -3,3 v 24 c 0,1.7 1.4,3 3,3 h 18 c 1.7,0 3,-1.3 3,-3 v -19 l -8,-8 z" style="fill:#fff;stroke:#666;stroke-width:1.60000002;stroke-linejoin:round"/></g><line id="line4176" x1="685.6" x2="699.6" y1="497.2" y2="497.2" style="fill:none;stroke:#75b640;stroke-width:1.60000002;stroke-linecap:round"/><line id="line4178" x1="685.6" x2="699.6" y1="492.2" y2="492.2" style="fill:none;stroke:#75b640;stroke-width:1.60000002;stroke-linecap:round"/><line id="line4180" x1="685.6" x2="699.6" y1="487.2" y2="487.2" style="fill:none;stroke:#75b640;stroke-width:1.60000002;stroke-linecap:round"/><line id="line4182" x1="685.6" x2="693.6" y1="482.2" y2="482.2" style="fill:none;stroke:#75b640;stroke-width:1.60000002;stroke-linecap:round"/><line id="line4184" x1="685.6" x2="691.6" y1="477.2" y2="477.2" style="fill:none;stroke:#75b640;stroke-width:1.60000002;stroke-linecap:round"/><path id="path4186" d="m 704.6,480.3 h -5 c -1.6,0 -3,-1.3 -3,-3 v -5" style="fill:none;stroke:#666;stroke-width:1.60000002;stroke-linejoin:round"/></g></g><g id="g4188" transform="translate(-374.4,-224.5)"><g id="g4190"><g id="g4192"><path id="path4194" d="m 705.6,472.2 h -13 c -1.6,0 -3,1.3 -3,3 v 24 c 0,1.7 1.4,3 3,3 h 18 c 1.7,0 3,-1.3 3,-3 v -19 l -8,-8 z" style="fill:#fff;stroke:#666;stroke-width:1.60000002;stroke-linejoin:round"/></g><line id="line4196" x1="694.6" x2="708.6" y1="497.2" y2="497.2" style="fill:none;stroke:#75b640;stroke-width:1.60000002;stroke-linecap:round"/><line id="line4198" x1="694.6" x2="708.6" y1="492.2" y2="492.2" style="fill:none;stroke:#75b640;stroke-width:1.60000002;stroke-linecap:round"/><line id="line4200" x1="694.6" x2="708.6" y1="487.2" y2="487.2" style="fill:none;stroke:#75b640;stroke-width:1.60000002;stroke-linecap:round"/><line id="line4202" x1="694.6" x2="702.6" y1="482.2" y2="482.2" style="fill:none;stroke:#75b640;stroke-width:1.60000002;stroke-linecap:round"/><line id="line4204" x1="694.6" x2="700.6" y1="477.2" y2="477.2" style="fill:none;stroke:#75b640;stroke-width:1.60000002;stroke-linecap:round"/><path id="path4206" d="m 713.6,480.3 h -5 c -1.6,0 -3,-1.3 -3,-3 v -5" style="fill:none;stroke:#75b640;stroke-width:1.60000002"/></g><g id="g4208"><g id="g4210"><path id="path4212" d="m 715.6,472.2 h -13 c -1.6,0 -3,1.3 -3,3 v 24 c 0,1.7 1.4,3 3,3 h 18 c 1.7,0 3,-1.3 3,-3 v -19 l -8,-8 z" style="fill:#fff;stroke:#666;stroke-width:1.60000002;stroke-linejoin:round"/></g><line id="line4214" x1="704.6" x2="718.6" y1="497.2" y2="497.2" style="fill:none;stroke:#75b640;stroke-width:1.60000002;stroke-linecap:round"/><line id="line4216" x1="704.6" x2="718.6" y1="492.2" y2="492.2" style="fill:none;stroke:#75b640;stroke-width:1.60000002;stroke-linecap:round"/><line id="line4218" x1="704.6" x2="718.6" y1="487.2" y2="487.2" style="fill:none;stroke:#75b640;stroke-width:1.60000002;stroke-linecap:round"/><line id="line4220" x1="704.6" x2="712.6" y1="482.2" y2="482.2" style="fill:none;stroke:#75b640;stroke-width:1.60000002;stroke-linecap:round"/><line id="line4222" x1="704.6" x2="710.6" y1="477.2" y2="477.2" style="fill:none;stroke:#75b640;stroke-width:1.60000002;stroke-linecap:round"/><path id="path4224" d="m 723.6,480.3 h -5 c -1.6,0 -3,-1.3 -3,-3 v -5" style="fill:none;stroke:#75b640;stroke-width:1.60000002"/></g><g id="g4226"><g id="g4228"><path id="path4230" d="m 725.6,472.2 h -13 c -1.6,0 -3,1.3 -3,3 v 24 c 0,1.7 1.4,3 3,3 h 18 c 1.7,0 3,-1.3 3,-3 v -19 l -8,-8 z" style="fill:#fff;stroke:#666;stroke-width:1.60000002;stroke-linejoin:round"/></g><line id="line4232" x1="714.6" x2="728.6" y1="497.2" y2="497.2" style="fill:none;stroke:#75b640;stroke-width:1.60000002;stroke-linecap:round"/><line id="line4234" x1="714.6" x2="728.6" y1="492.2" y2="492.2" style="fill:none;stroke:#75b640;stroke-width:1.60000002;stroke-linecap:round"/><line id="line4236" x1="714.6" x2="728.6" y1="487.2" y2="487.2" style="fill:none;stroke:#75b640;stroke-width:1.60000002;stroke-linecap:round"/><line id="line4238" x1="714.6" x2="722.6" y1="482.2" y2="482.2" style="fill:none;stroke:#75b640;stroke-width:1.60000002;stroke-linecap:round"/><line id="line4240" x1="714.6" x2="720.6" y1="477.2" y2="477.2" style="fill:none;stroke:#75b640;stroke-width:1.60000002;stroke-linecap:round"/><path id="path4242" d="m 733.6,480.3 h -5 c -1.6,0 -3,-1.3 -3,-3 v -5" style="fill:none;stroke:#75b640;stroke-width:1.60000002"/></g><g id="g4244"><g id="g4246"><path id="path4248" d="m 735.6,472.2 h -13 c -1.6,0 -3,1.3 -3,3 v 24 c 0,1.7 1.4,3 3,3 h 18 c 1.7,0 3,-1.3 3,-3 v -19 l -8,-8 z" style="fill:#fff;stroke:#666;stroke-width:1.60000002;stroke-linejoin:round"/></g><line id="line4250" x1="724.6" x2="738.6" y1="497.2" y2="497.2" style="fill:none;stroke:#75b640;stroke-width:1.60000002;stroke-linecap:round"/><line id="line4252" x1="724.6" x2="738.6" y1="492.2" y2="492.2" style="fill:none;stroke:#75b640;stroke-width:1.60000002;stroke-linecap:round"/><line id="line4254" x1="724.6" x2="738.6" y1="487.2" y2="487.2" style="fill:none;stroke:#75b640;stroke-width:1.60000002;stroke-linecap:round"/><line id="line4256" x1="724.6" x2="732.6" y1="482.2" y2="482.2" style="fill:none;stroke:#75b640;stroke-width:1.60000002;stroke-linecap:round"/><line id="line4258" x1="724.6" x2="730.6" y1="477.2" y2="477.2" style="fill:none;stroke:#75b640;stroke-width:1.60000002;stroke-linecap:round"/><path id="path4260" d="m 743.6,480.3 h -5 c -1.6,0 -3,-1.3 -3,-3 v -5" style="fill:none;stroke:#75b640;stroke-width:1.60000002"/></g><g id="g4262"><g id="g4264"><path id="path4266" d="m 745.6,472.2 h -13 c -1.6,0 -3,1.3 -3,3 v 24 c 0,1.7 1.4,3 3,3 h 18 c 1.7,0 3,-1.3 3,-3 v -19 l -8,-8 z" style="fill:#fff;stroke:#666;stroke-width:1.60000002;stroke-linejoin:round"/></g><line id="line4268" x1="734.6" x2="748.6" y1="497.2" y2="497.2" style="fill:none;stroke:#75b640;stroke-width:1.60000002;stroke-linecap:round"/><line id="line4270" x1="734.6" x2="748.6" y1="492.2" y2="492.2" style="fill:none;stroke:#75b640;stroke-width:1.60000002;stroke-linecap:round"/><line id="line4272" x1="734.6" x2="748.6" y1="487.2" y2="487.2" style="fill:none;stroke:#75b640;stroke-width:1.60000002;stroke-linecap:round"/><line id="line4274" x1="734.6" x2="742.6" y1="482.2" y2="482.2" style="fill:none;stroke:#75b640;stroke-width:1.60000002;stroke-linecap:round"/><line id="line4276" x1="734.6" x2="740.6" y1="477.2" y2="477.2" style="fill:none;stroke:#75b640;stroke-width:1.60000002;stroke-linecap:round"/><path id="path4278" d="m 753.6,480.3 h -5 c -1.6,0 -3,-1.3 -3,-3 v -5" style="fill:none;stroke:#75b640;stroke-width:1.60000002"/></g><g id="g4280"><g id="g4282"><path id="path4284" d="m 755.6,472.2 h -13 c -1.6,0 -3,1.3 -3,3 v 24 c 0,1.7 1.4,3 3,3 h 18 c 1.7,0 3,-1.3 3,-3 v -19 l -8,-8 z" style="fill:#fff;stroke:#666;stroke-width:1.60000002;stroke-linejoin:round"/></g><line id="line4286" x1="744.6" x2="758.6" y1="497.2" y2="497.2" style="fill:none;stroke:#75b640;stroke-width:1.60000002;stroke-linecap:round"/><line id="line4288" x1="744.6" x2="758.6" y1="492.2" y2="492.2" style="fill:none;stroke:#75b640;stroke-width:1.60000002;stroke-linecap:round"/><line id="line4290" x1="744.6" x2="758.6" y1="487.2" y2="487.2" style="fill:none;stroke:#75b640;stroke-width:1.60000002;stroke-linecap:round"/><line id="line4292" x1="744.6" x2="752.6" y1="482.2" y2="482.2" style="fill:none;stroke:#75b640;stroke-width:1.60000002;stroke-linecap:round"/><line id="line4294" x1="744.6" x2="750.6" y1="477.2" y2="477.2" style="fill:none;stroke:#75b640;stroke-width:1.60000002;stroke-linecap:round"/><path id="path4296" d="m 763.6,480.3 h -5 c -1.6,0 -3,-1.3 -3,-3 v -5" style="fill:none;stroke:#75b640;stroke-width:1.60000002"/></g><g id="g4298"><g id="g4300"><path id="path4302" d="m 765.6,472.2 h -13 c -1.6,0 -3,1.3 -3,3 v 24 c 0,1.7 1.4,3 3,3 h 18 c 1.7,0 3,-1.3 3,-3 v -19 l -8,-8 z" style="fill:#fff;stroke:#666;stroke-width:1.60000002;stroke-linejoin:round"/></g><line id="line4304" x1="754.6" x2="768.6" y1="497.2" y2="497.2" style="fill:none;stroke:#75b640;stroke-width:1.60000002;stroke-linecap:round"/><line id="line4306" x1="754.6" x2="768.6" y1="492.2" y2="492.2" style="fill:none;stroke:#75b640;stroke-width:1.60000002;stroke-linecap:round"/><line id="line4308" x1="754.6" x2="768.6" y1="487.2" y2="487.2" style="fill:none;stroke:#75b640;stroke-width:1.60000002;stroke-linecap:round"/><line id="line4310" x1="754.6" x2="762.6" y1="482.2" y2="482.2" style="fill:none;stroke:#75b640;stroke-width:1.60000002;stroke-linecap:round"/><line id="line4312" x1="754.6" x2="760.6" y1="477.2" y2="477.2" style="fill:none;stroke:#75b640;stroke-width:1.60000002;stroke-linecap:round"/><path id="path4314" d="m 773.6,480.3 h -5 c -1.6,0 -3,-1.3 -3,-3 v -5" style="fill:none;stroke:#75b640;stroke-width:1.60000002"/></g><g id="g4316"><g id="g4318"><path id="path4320" d="m 775.6,472.2 h -13 c -1.6,0 -3,1.3 -3,3 v 24 c 0,1.7 1.4,3 3,3 h 18 c 1.7,0 3,-1.3 3,-3 v -19 l -8,-8 z" style="fill:#fff;stroke:#666;stroke-width:1.60000002;stroke-linejoin:round"/></g><line id="line4322" x1="764.6" x2="778.6" y1="497.2" y2="497.2" style="fill:none;stroke:#75b640;stroke-width:1.60000002;stroke-linecap:round"/><line id="line4324" x1="764.6" x2="778.6" y1="492.2" y2="492.2" style="fill:none;stroke:#75b640;stroke-width:1.60000002;stroke-linecap:round"/><line id="line4326" x1="764.6" x2="778.6" y1="487.2" y2="487.2" style="fill:none;stroke:#75b640;stroke-width:1.60000002;stroke-linecap:round"/><line id="line4328" x1="764.6" x2="772.6" y1="482.2" y2="482.2" style="fill:none;stroke:#75b640;stroke-width:1.60000002;stroke-linecap:round"/><line id="line4330" x1="764.6" x2="770.6" y1="477.2" y2="477.2" style="fill:none;stroke:#75b640;stroke-width:1.60000002;stroke-linecap:round"/><path id="path4332" d="m 783.6,480.3 h -5 c -1.6,0 -3,-1.3 -3,-3 v -5" style="fill:none;stroke:#666;stroke-width:1.60000002;stroke-linejoin:round"/></g></g></svg>