<svg xmlns="http://www.w3.org/2000/svg" xmlns:svg="http://www.w3.org/2000/svg" id="Layer_1" width="100%" height="100%" x="0" y="0" enable-background="new 0 0 1280 800" version="1.1" viewBox="0 0 530 350" xml:space="preserve"><metadata id="metadata287"/><path id="path3" d="M 527,350 H 3 c -1.7,0 -3,-1.3 -3,-3 V 3 C 0,1.4 1.3,0 3,0 h 524 c 1.7,0 3,1.4 3,3 v 344 c 0,1.6 -1.3,3 -3,3 z" style="fill:#f8faf6"/><g id="g5" transform="translate(-375.4,-225.5)"><path id="path7" d="m 520.7,271.1 c -0.5,0.2 -1.5,0.5 -2.8,0.5 -3.4,0 -5.5,-2.1 -5.5,-5.4 0,-3.6 2.5,-5.7 5.8,-5.7 1.3,0 2.2,0.3 2.6,0.5 l -0.4,1.6 c -0.5,-0.2 -1.2,-0.4 -2.1,-0.4 -2.2,0 -3.8,1.4 -3.8,4 0,2.4 1.4,3.9 3.8,3.9 0.8,0 1.6,-0.2 2.1,-0.4 l 0.3,1.4 z" style="fill:#454746"/><path id="path9" d="m 529.5,267.5 c 0,2.9 -2,4.1 -4,4.1 -2.2,0 -3.9,-1.5 -3.9,-4 0,-2.6 1.7,-4.1 4,-4.1 2.3,0 3.9,1.6 3.9,4 z m -5.9,0.1 c 0,1.5 0.7,2.6 1.9,2.6 1.1,0 1.9,-1.1 1.9,-2.7 0,-1.2 -0.5,-2.6 -1.9,-2.6 -1.3,0 -1.9,1.4 -1.9,2.7 z" style="fill:#454746"/><path id="path11" d="m 531.1,266 c 0,-0.9 0,-1.6 -0.1,-2.3 h 1.7 l 0.1,1.2 0,0 c 0.4,-0.6 1.1,-1.3 2.4,-1.3 1,0 1.8,0.6 2.2,1.4 l 0,0 c 0.3,-0.4 0.6,-0.8 1,-1 0.4,-0.3 0.9,-0.5 1.6,-0.5 1.3,0 2.6,0.9 2.6,3.4 v 4.6 h -1.9 v -4.3 c 0,-1.3 -0.4,-2.1 -1.4,-2.1 -0.7,0 -1.2,0.5 -1.4,1 0,0.2 -0.1,0.4 -0.1,0.7 v 4.7 h -1.9 V 267 c 0,-1.1 -0.4,-1.9 -1.3,-1.9 -0.7,0 -1.2,0.6 -1.4,1.1 -0.1,0.2 -0.1,0.4 -0.1,0.6 v 4.6 h -1.9 l -0.1,-5.4 0,0 z" style="fill:#454746"/><path id="path13" d="m 544.7,266 c 0,-0.9 0,-1.6 -0.1,-2.3 h 1.7 l 0.1,1.2 0,0 c 0.4,-0.6 1.1,-1.3 2.4,-1.3 1,0 1.8,0.6 2.2,1.4 l 0,0 c 0.3,-0.4 0.6,-0.8 1,-1 0.4,-0.3 0.9,-0.5 1.6,-0.5 1.3,0 2.6,0.9 2.6,3.4 v 4.6 h -1.9 v -4.3 c 0,-1.3 -0.4,-2.1 -1.4,-2.1 -0.7,0 -1.2,0.5 -1.4,1 0,0.2 -0.1,0.4 -0.1,0.7 v 4.7 h -1.9 V 267 c 0,-1.1 -0.4,-1.9 -1.3,-1.9 -0.7,0 -1.2,0.6 -1.4,1.1 -0.1,0.2 -0.1,0.4 -0.1,0.6 v 4.6 h -1.9 l -0.1,-5.4 0,0 z" style="fill:#454746"/><path id="path15" d="m 560.3,261.5 c 0,0.6 -0.4,1.1 -1.1,1.1 -0.7,0 -1.1,-0.5 -1.1,-1.1 0,-0.6 0.4,-1.1 1.1,-1.1 0.7,0 1.1,0.5 1.1,1.1 z m -2.1,10 v -7.8 h 2 v 7.8 h -2 z" style="fill:#454746"/><path id="path17" d="m 564.6,261.4 v 2.2 h 1.9 v 1.5 h -1.9 v 3.4 c 0,0.9 0.3,1.4 1,1.4 0.3,0 0.6,0 0.8,-0.1 v 1.5 c -0.3,0.1 -0.8,0.2 -1.4,0.2 -0.7,0 -1.3,-0.2 -1.7,-0.6 -0.4,-0.4 -0.6,-1.2 -0.6,-2.2 V 265 h -1.1 v -1.5 h 1.1 v -1.8 l 1.9,-0.3 z" style="fill:#454746"/><path id="path19" d="m 571.3,266.3 c 0,-1 0,-1.9 -0.1,-2.6 h 1.7 l 0.1,1.2 0,0 c 0.6,-0.9 1.5,-1.4 2.7,-1.4 1.8,0 3.3,1.5 3.3,4 0,2.8 -1.8,4.2 -3.6,4.2 -1,0 -1.8,-0.4 -2.2,-1 l 0,0 v 4 h -2 l 0.1,-8.4 0,0 z m 1.9,1.9 c 0,0.2 0,0.4 0.1,0.5 0.2,0.8 0.9,1.4 1.7,1.4 1.2,0 2,-1 2,-2.6 0,-1.4 -0.7,-2.5 -1.9,-2.5 -0.8,0 -1.6,0.6 -1.8,1.5 0,0.2 -0.1,0.3 -0.1,0.5 v 1.2 z" style="fill:#454746"/><path id="path21" d="m 588,267.5 c 0,2.9 -2,4.1 -4,4.1 -2.2,0 -3.9,-1.5 -3.9,-4 0,-2.6 1.7,-4.1 4,-4.1 2.4,0 3.9,1.6 3.9,4 z m -5.9,0.1 c 0,1.5 0.7,2.6 1.9,2.6 1.1,0 1.9,-1.1 1.9,-2.7 0,-1.2 -0.5,-2.6 -1.9,-2.6 -1.3,0 -1.9,1.4 -1.9,2.7 z" style="fill:#454746"/><path id="path23" d="m 591.7,261.5 c 0,0.6 -0.4,1.1 -1.1,1.1 -0.7,0 -1.1,-0.5 -1.1,-1.1 0,-0.6 0.4,-1.1 1.1,-1.1 0.7,0 1.1,0.5 1.1,1.1 z m -2.1,10 v -7.8 h 2 v 7.8 h -2 z" style="fill:#454746"/><path id="path25" d="m 593.7,266 c 0,-0.9 0,-1.6 -0.1,-2.3 h 1.7 l 0.1,1.2 0,0 c 0.3,-0.6 1.2,-1.3 2.5,-1.3 1.4,0 2.8,0.9 2.8,3.3 v 4.6 h -2 v -4.4 c 0,-1.1 -0.4,-2 -1.5,-2 -0.8,0 -1.3,0.6 -1.5,1.2 -0.1,0.2 -0.1,0.4 -0.1,0.6 v 4.6 h -2 l 0.1,-5.5 0,0 z" style="fill:#454746"/><path id="path27" d="m 605.1,261.4 v 2.2 h 1.9 v 1.5 h -1.9 v 3.4 c 0,0.9 0.3,1.4 1,1.4 0.3,0 0.6,0 0.8,-0.1 v 1.5 c -0.3,0.1 -0.8,0.2 -1.4,0.2 -0.7,0 -1.3,-0.2 -1.7,-0.6 -0.4,-0.4 -0.6,-1.2 -0.6,-2.2 V 265 H 602 v -1.5 h 1.1 v -1.8 l 2,-0.3 z" style="fill:#454746"/></g><g id="g29" transform="translate(-375.4,-225.5)"><path id="path31" d="m 451.6,527.1 v 10.8 h -2 v -10.8 h 2 z" style="fill:#454746"/><path id="path33" d="m 453.9,532.4 c 0,-0.9 0,-1.6 -0.1,-2.3 h 1.7 l 0.1,1.2 0,0 c 0.3,-0.6 1.2,-1.3 2.5,-1.3 1.4,0 2.8,0.9 2.8,3.3 v 4.6 h -2 v -4.4 c 0,-1.1 -0.4,-2 -1.5,-2 -0.8,0 -1.3,0.6 -1.5,1.2 -0.1,0.2 -0.1,0.4 -0.1,0.6 v 4.6 h -2 v -5.5 h 0.1 z" style="fill:#454746"/><path id="path35" d="m 466.6,533 v 1.4 h -4.1 V 533 h 4.1 z" style="fill:#454746"/><path id="path37" d="m 468.1,532.4 c 0,-0.9 0,-1.6 -0.1,-2.3 h 1.7 l 0.1,1.2 0,0 c 0.4,-0.6 1.1,-1.3 2.4,-1.3 1,0 1.8,0.6 2.2,1.4 l 0,0 c 0.3,-0.4 0.6,-0.8 1,-1 0.4,-0.3 0.9,-0.5 1.6,-0.5 1.3,0 2.6,0.9 2.6,3.4 v 4.6 h -1.9 v -4.3 c 0,-1.3 -0.4,-2.1 -1.4,-2.1 -0.7,0 -1.2,0.5 -1.4,1 0,0.2 -0.1,0.4 -0.1,0.7 v 4.7 h -1.9 v -4.5 c 0,-1.1 -0.4,-1.9 -1.3,-1.9 -0.7,0 -1.2,0.6 -1.4,1.1 -0.1,0.2 -0.1,0.4 -0.1,0.6 v 4.6 h -1.9 v -5.4 h -0.1 z" style="fill:#454746"/><path id="path39" d="m 483.1,534.6 c 0,1.4 1.2,2 2.4,2 0.9,0 1.6,-0.1 2.2,-0.4 l 0.3,1.4 c -0.7,0.3 -1.6,0.5 -2.7,0.5 -2.5,0 -4,-1.6 -4,-3.9 0,-2.2 1.3,-4.2 3.8,-4.2 2.5,0 3.4,2.1 3.4,3.8 0,0.4 0,0.7 -0.1,0.8 l -5.3,0 0,0 z m 3.4,-1.4 c 0,-0.7 -0.3,-1.9 -1.6,-1.9 -1.2,0 -1.7,1.1 -1.8,1.9 h 3.4 z" style="fill:#454746"/><path id="path41" d="m 489.9,532.4 c 0,-0.9 0,-1.6 -0.1,-2.3 h 1.7 l 0.1,1.2 0,0 c 0.4,-0.6 1.1,-1.3 2.4,-1.3 1,0 1.8,0.6 2.2,1.4 l 0,0 c 0.3,-0.4 0.6,-0.8 1,-1 0.4,-0.3 0.9,-0.5 1.6,-0.5 1.3,0 2.6,0.9 2.6,3.4 v 4.6 h -1.9 v -4.3 c 0,-1.3 -0.4,-2.1 -1.4,-2.1 -0.7,0 -1.2,0.5 -1.4,1 0,0.2 -0.1,0.4 -0.1,0.7 v 4.7 h -1.9 v -4.5 c 0,-1.1 -0.4,-1.9 -1.3,-1.9 -0.7,0 -1.2,0.6 -1.4,1.1 -0.1,0.2 -0.1,0.4 -0.1,0.6 v 4.6 H 490 v -5.4 h -0.1 z" style="fill:#454746"/><path id="path43" d="m 510.9,533.9 c 0,2.9 -2,4.1 -4,4.1 -2.2,0 -3.9,-1.5 -3.9,-4 0,-2.6 1.7,-4.1 4,-4.1 2.4,0 3.9,1.7 3.9,4 z M 505,534 c 0,1.5 0.7,2.6 1.9,2.6 1.1,0 1.9,-1.1 1.9,-2.7 0,-1.2 -0.5,-2.6 -1.9,-2.6 -1.3,0.1 -1.9,1.4 -1.9,2.7 z" style="fill:#454746"/><path id="path45" d="m 512.5,532.6 c 0,-1.1 0,-1.8 -0.1,-2.5 h 1.7 l 0.1,1.5 h 0.1 c 0.4,-1.1 1.3,-1.7 2.1,-1.7 0.2,0 0.3,0 0.5,0 v 1.9 c -0.2,0 -0.3,-0.1 -0.6,-0.1 -0.9,0 -1.6,0.6 -1.8,1.5 0,0.2 -0.1,0.4 -0.1,0.6 v 4 h -2 l 0.1,-5.2 0,0 z" style="fill:#454746"/><path id="path47" d="m 519.8,530.1 1.4,4.2 c 0.2,0.5 0.3,1.1 0.4,1.5 l 0,0 c 0.1,-0.4 0.3,-1 0.4,-1.5 l 1.2,-4.2 h 2.1 l -2,5.3 c -1.1,2.9 -1.8,4.2 -2.7,5 -0.8,0.7 -1.6,0.9 -2.1,1 l -0.4,-1.7 c 0.3,-0.1 0.8,-0.3 1.2,-0.5 0.4,-0.2 0.8,-0.7 1.1,-1.2 0.1,-0.1 0.1,-0.3 0.1,-0.4 0,-0.1 0,-0.2 -0.1,-0.4 l -2.8,-7.2 h 2.2 v 0.1 z" style="fill:#454746"/><path id="path49" d="m 529.8,537.9 c 0,-0.5 0.1,-1.4 0.1,-2.2 v -9.2 h 2 v 4.6 l 0,0 c 0.5,-0.8 1.3,-1.2 2.5,-1.2 1.9,0 3.3,1.6 3.2,4 0,2.8 -1.8,4.2 -3.5,4.2 -1,0 -1.9,-0.4 -2.5,-1.3 l 0,0 -0.1,1.2 -1.7,-0.1 0,0 z m 2,-3.2 c 0,0.2 0,0.3 0,0.5 0.2,0.8 0.9,1.4 1.7,1.4 1.2,0 2,-1 2,-2.6 0,-1.4 -0.7,-2.5 -2,-2.5 -0.8,0 -1.5,0.6 -1.7,1.4 0,0.1 -0.1,0.3 -0.1,0.5 l 0.1,1.3 0,0 z" style="fill:#454746"/><path id="path51" d="m 546.2,535.6 c 0,0.9 0,1.7 0.1,2.3 h -1.7 l -0.1,-1.2 0,0 c -0.3,0.6 -1.1,1.4 -2.5,1.4 -1.4,0 -2.7,-0.8 -2.7,-3.4 v -4.6 h 2 v 4.2 c 0,1.3 0.4,2.1 1.5,2.1 0.8,0 1.3,-0.6 1.5,-1.1 0.1,-0.2 0.1,-0.4 0.1,-0.6 V 530 h 2 v 5.6 h -0.2 z" style="fill:#454746"/><path id="path53" d="m 553.4,537.9 v -6.3 h -2.8 v 6.3 h -2 v -6.3 h -1.1 v -1.5 h 1.1 v -0.2 c 0,-1 0.2,-1.9 0.9,-2.6 0.5,-0.5 1.2,-0.8 2.2,-0.8 0.4,0 0.8,0.1 1.1,0.2 l -0.3,1.5 c -0.2,-0.1 -0.4,-0.1 -0.7,-0.1 -0.9,0 -1.2,0.8 -1.2,1.7 v 0.3 h 2.8 v -0.3 c 0,-1 0.3,-2 1,-2.7 0.6,-0.5 1.3,-0.8 2,-0.8 0.5,0 0.9,0.1 1.2,0.2 l -0.1,1.5 c -0.2,-0.1 -0.5,-0.1 -0.8,-0.1 -1,0 -1.3,0.8 -1.3,1.8 v 0.4 h 1.7 v 1.5 h -1.7 v 6.3 l -2,0 0,0 z" style="fill:#454746"/><path id="path55" d="m 559.5,534.6 c 0,1.4 1.2,2 2.4,2 0.9,0 1.6,-0.1 2.2,-0.4 l 0.3,1.4 c -0.7,0.3 -1.6,0.5 -2.7,0.5 -2.5,0 -4,-1.6 -4,-3.9 0,-2.2 1.3,-4.2 3.8,-4.2 2.5,0 3.4,2.1 3.4,3.8 0,0.4 0,0.7 -0.1,0.8 l -5.3,0 0,0 z m 3.4,-1.4 c 0,-0.7 -0.3,-1.9 -1.6,-1.9 -1.2,0 -1.7,1.1 -1.8,1.9 h 3.4 z" style="fill:#454746"/><path id="path57" d="m 566.3,532.6 c 0,-1.1 0,-1.8 -0.1,-2.5 h 1.7 l 0.1,1.5 h 0.1 c 0.4,-1.1 1.3,-1.7 2.1,-1.7 0.2,0 0.3,0 0.5,0 v 1.9 c -0.2,0 -0.3,-0.1 -0.6,-0.1 -0.9,0 -1.6,0.6 -1.8,1.5 0,0.2 -0.1,0.4 -0.1,0.6 v 4 h -2 l 0.1,-5.2 0,0 z" style="fill:#454746"/></g><g id="g59" transform="translate(-375.4,-225.5)"><path id="path61" d="m 522.4,431.7 c 0.6,0.4 1.6,0.7 2.6,0.7 1.3,0 2,-0.6 2,-1.5 0,-0.8 -0.5,-1.3 -1.9,-1.8 -1.8,-0.6 -2.9,-1.6 -2.9,-3.1 0,-1.8 1.5,-3.1 3.8,-3.1 1.2,0 2,0.3 2.6,0.5 l -0.5,1.6 c -0.4,-0.2 -1.1,-0.5 -2.1,-0.5 -1.2,0 -1.8,0.7 -1.8,1.3 0,0.8 0.6,1.2 2.1,1.8 1.9,0.7 2.8,1.6 2.8,3.2 0,1.7 -1.3,3.2 -4.1,3.2 -1.1,0 -2.3,-0.3 -2.9,-0.7 l 0.3,-1.6 z" style="fill:#454746"/><path id="path63" d="m 532.2,430.5 c 0,1.4 1.2,2 2.4,2 0.9,0 1.6,-0.1 2.2,-0.4 l 0.3,1.4 c -0.7,0.3 -1.6,0.5 -2.7,0.5 -2.5,0 -4,-1.6 -4,-3.9 0,-2.2 1.3,-4.2 3.8,-4.2 2.5,0 3.4,2.1 3.4,3.8 0,0.4 0,0.7 -0.1,0.8 l -5.3,0 0,0 z m 3.4,-1.3 c 0,-0.7 -0.3,-1.9 -1.6,-1.9 -1.2,0 -1.7,1.1 -1.8,1.9 h 3.4 z" style="fill:#454746"/><path id="path65" d="m 543.4,433.9 -0.1,-0.9 0,0 c -0.5,0.6 -1.3,1 -2.3,1 -1.6,0 -2.4,-1.1 -2.4,-2.3 0,-2 1.7,-3 4.6,-2.9 v -0.1 c 0,-0.5 -0.2,-1.4 -1.6,-1.4 -0.8,0 -1.6,0.2 -2.1,0.6 l -0.4,-1.3 c 0.6,-0.4 1.6,-0.7 2.8,-0.7 2.5,0 3.2,1.6 3.2,3.3 v 2.8 c 0,0.7 0,1.4 0.1,1.9 h -1.8 z m -0.2,-3.8 c -1.4,0 -2.7,0.3 -2.7,1.5 0,0.8 0.5,1.1 1.1,1.1 0.8,0 1.4,-0.5 1.5,-1.1 0,-0.1 0.1,-0.3 0.1,-0.4 l 0,-1.1 0,0 z" style="fill:#454746"/><path id="path67" d="m 547.2,428.6 c 0,-1.1 0,-1.8 -0.1,-2.5 h 1.7 l 0.1,1.5 h 0.1 c 0.4,-1.1 1.3,-1.7 2.1,-1.7 0.2,0 0.3,0 0.5,0 v 1.9 c -0.2,0 -0.3,-0.1 -0.6,-0.1 -0.9,0 -1.6,0.6 -1.8,1.5 0,0.2 -0.1,0.4 -0.1,0.6 v 4 h -2 l 0.1,-5.2 0,0 z" style="fill:#454746"/><path id="path69" d="m 558.5,433.6 c -0.4,0.2 -1.2,0.4 -2.2,0.4 -2.4,0 -4,-1.6 -4,-4 0,-2.3 1.6,-4.2 4.3,-4.2 0.7,0 1.5,0.2 1.9,0.4 l -0.4,1.5 c -0.3,-0.1 -0.8,-0.3 -1.5,-0.3 -1.5,0 -2.4,1.1 -2.4,2.5 0,1.6 1,2.5 2.4,2.5 0.7,0 1.2,-0.1 1.6,-0.3 l 0.3,1.5 z" style="fill:#454746"/><path id="path71" d="m 559.9,422.5 h 2 v 4.6 l 0,0 c 0.2,-0.4 0.6,-0.7 1,-0.9 0.4,-0.2 0.8,-0.4 1.3,-0.4 1.3,0 2.7,0.9 2.7,3.4 v 4.6 h -2 v -4.4 c 0,-1.1 -0.4,-2 -1.5,-2 -0.8,0 -1.3,0.5 -1.5,1.1 -0.1,0.2 -0.1,0.4 -0.1,0.6 v 4.7 h -2 l 0.1,-11.3 0,0 z" style="fill:#454746"/><path id="path73" d="m 573.5,433.9 -0.1,-0.9 0,0 c -0.5,0.6 -1.3,1 -2.3,1 -1.6,0 -2.4,-1.1 -2.4,-2.3 0,-2 1.7,-3 4.6,-2.9 v -0.1 c 0,-0.5 -0.2,-1.4 -1.6,-1.4 -0.8,0 -1.6,0.2 -2.1,0.6 l -0.4,-1.3 c 0.6,-0.4 1.6,-0.7 2.8,-0.7 2.5,0 3.2,1.6 3.2,3.3 v 2.8 c 0,0.7 0,1.4 0.1,1.9 h -1.8 z m -0.3,-3.8 c -1.4,0 -2.7,0.3 -2.7,1.5 0,0.8 0.5,1.1 1.1,1.1 0.8,0 1.4,-0.5 1.5,-1.1 0,-0.1 0.1,-0.3 0.1,-0.4 l 0,-1.1 0,0 z" style="fill:#454746"/><path id="path75" d="m 577.1,433.9 c 0,-0.5 0.1,-1.4 0.1,-2.2 v -9.2 h 2 v 4.6 l 0,0 c 0.5,-0.8 1.3,-1.2 2.5,-1.2 1.9,0 3.3,1.6 3.2,4 0,2.8 -1.8,4.2 -3.5,4.2 -1,0 -1.9,-0.4 -2.5,-1.3 l 0,0 -0.1,1.2 h -1.7 v -0.1 z m 2.1,-3.2 c 0,0.2 0,0.3 0,0.5 0.2,0.8 0.9,1.4 1.7,1.4 1.2,0 2,-1 2,-2.6 0,-1.4 -0.7,-2.5 -2,-2.5 -0.8,0 -1.5,0.6 -1.7,1.4 0,0.1 -0.1,0.3 -0.1,0.5 l 0.1,1.3 0,0 z" style="fill:#454746"/><path id="path77" d="m 586.6,422.5 h 2 v 11.4 h -2 v -11.4 z" style="fill:#454746"/><path id="path79" d="m 592.1,430.5 c 0,1.4 1.2,2 2.4,2 0.9,0 1.6,-0.1 2.2,-0.4 l 0.3,1.4 c -0.7,0.3 -1.6,0.5 -2.7,0.5 -2.5,0 -4,-1.6 -4,-3.9 0,-2.2 1.3,-4.2 3.8,-4.2 2.5,0 3.4,2.1 3.4,3.8 0,0.4 0,0.7 -0.1,0.8 l -5.3,0 0,0 z m 3.4,-1.3 c 0,-0.7 -0.3,-1.9 -1.6,-1.9 -1.2,0 -1.7,1.1 -1.8,1.9 h 3.4 z" style="fill:#454746"/></g><g id="g81" transform="translate(-375.4,-225.5)"><g id="g83"><path id="path85" stroke-miterlimit="10" d="m 559.3,283.2 c -14.3,18 -71.7,-0.3 -78.9,33.6" style="fill:none;stroke:#454746;stroke-width:1.60000002;stroke-linecap:round;stroke-miterlimit:10"/><g id="g87"><path id="path89" d="m 479.6,324.5 c -0.9,-3.8 -2.7,-8.5 -4.8,-11.6 l 5.8,2.9 6.3,-1.5 c -2.7,2.5 -5.5,6.7 -7.3,10.2 z" style="fill:#454746"/></g></g></g><g id="g91" transform="translate(-375.4,-225.5)"><g id="g93"><path id="path95" stroke-miterlimit="10" d="m 559.3,283.2 c 14.3,18 71.7,-0.3 78.9,33.6" style="fill:none;stroke:#454746;stroke-width:1.60000002;stroke-linecap:round;stroke-miterlimit:10"/><g id="g97"><path id="path99" d="m 639,324.5 c -1.7,-3.5 -4.5,-7.7 -7.3,-10.2 l 6.3,1.5 5.8,-2.9 c -2.1,3.1 -3.9,7.8 -4.8,11.6 z" style="fill:#454746"/></g></g></g><g id="g101" transform="translate(-375.4,-225.5)"><g id="g103"><path id="path105" stroke-miterlimit="10" d="m 559.3,283.2 c 0,13.1 0.3,-1 0.3,33.6" style="fill:none;stroke:#454746;stroke-width:1.60000002;stroke-linecap:round;stroke-miterlimit:10"/><g id="g107"><path id="path109" d="m 559.6,324.5 c -1.4,-3.6 -3.7,-8.1 -6.1,-10.9 l 6.1,2.2 6.1,-2.2 c -2.5,2.7 -4.8,7.2 -6.1,10.9 z" style="fill:#454746"/></g></g></g><g id="g111" transform="translate(-375.4,-225.5)"><path id="path113" d="M 578,516.5 H 441.2 c -1.7,0 -3.1,-1.3 -3.1,-3 v -48 c 0,-1.7 1.4,-3 3.1,-3 H 578 c 1.7,0 3.1,1.3 3.1,3 v 48 c 0,1.6 -1.4,3 -3.1,3 z" style="fill:#fff"/><path id="path115" stroke-miterlimit="10" d="M 578,516.5 H 441.2 c -1.7,0 -3.1,-1.3 -3.1,-3 v -48 c 0,-1.7 1.4,-3 3.1,-3 H 578 c 1.7,0 3.1,1.3 3.1,3 v 48 c 0,1.6 -1.4,3 -3.1,3 z" style="fill:none;stroke:#c6c6c6;stroke-width:1.60000002;stroke-linecap:round;stroke-miterlimit:10;stroke-dasharray:3.9666,3.9666"/></g><g id="g117" transform="translate(-375.4,-225.5)"><g id="g119"><g id="g121"><path id="path123" d="m 468.8,474.5 h -13 c -1.6,0 -3,1.3 -3,3 v 24 c 0,1.7 1.4,3 3,3 h 18 c 1.7,0 3,-1.3 3,-3 v -19 l -8,-8 z" style="fill:#fff;stroke:#666;stroke-width:1.60000002;stroke-linejoin:round"/></g><line id="line125" x1="457.8" x2="471.8" y1="499.5" y2="499.5" style="fill:none;stroke:#75b640;stroke-width:1.60000002;stroke-linecap:round"/><line id="line127" x1="457.8" x2="471.8" y1="494.5" y2="494.5" style="fill:none;stroke:#75b640;stroke-width:1.60000002;stroke-linecap:round"/><line id="line129" x1="457.8" x2="471.8" y1="489.5" y2="489.5" style="fill:none;stroke:#75b640;stroke-width:1.60000002;stroke-linecap:round"/><line id="line131" x1="457.8" x2="465.8" y1="484.5" y2="484.5" style="fill:none;stroke:#75b640;stroke-width:1.60000002;stroke-linecap:round"/><line id="line133" x1="457.8" x2="463.8" y1="479.5" y2="479.5" style="fill:none;stroke:#75b640;stroke-width:1.60000002;stroke-linecap:round"/><path id="path135" d="m 476.8,482.6 h -5 c -1.6,0 -3,-1.3 -3,-3 v -5" style="fill:none;stroke:#75b640;stroke-width:1.60000002"/></g><g id="g137"><g id="g139"><path id="path141" d="m 478.8,474.5 h -13 c -1.6,0 -3,1.3 -3,3 v 24 c 0,1.7 1.4,3 3,3 h 18 c 1.7,0 3,-1.3 3,-3 v -19 l -8,-8 z" style="fill:#fff;stroke:#666;stroke-width:1.60000002;stroke-linejoin:round"/></g><line id="line143" x1="467.8" x2="481.8" y1="499.5" y2="499.5" style="fill:none;stroke:#75b640;stroke-width:1.60000002;stroke-linecap:round"/><line id="line145" x1="467.8" x2="481.8" y1="494.5" y2="494.5" style="fill:none;stroke:#75b640;stroke-width:1.60000002;stroke-linecap:round"/><line id="line147" x1="467.8" x2="481.8" y1="489.5" y2="489.5" style="fill:none;stroke:#75b640;stroke-width:1.60000002;stroke-linecap:round"/><line id="line149" x1="467.8" x2="475.8" y1="484.5" y2="484.5" style="fill:none;stroke:#75b640;stroke-width:1.60000002;stroke-linecap:round"/><line id="line151" x1="467.8" x2="473.8" y1="479.5" y2="479.5" style="fill:none;stroke:#75b640;stroke-width:1.60000002;stroke-linecap:round"/><path id="path153" d="m 486.8,482.6 h -5 c -1.6,0 -3,-1.3 -3,-3 v -5" style="fill:none;stroke:#75b640;stroke-width:1.60000002"/></g><g id="g155"><g id="g157"><path id="path159" d="m 488.8,474.5 h -13 c -1.6,0 -3,1.3 -3,3 v 24 c 0,1.7 1.4,3 3,3 h 18 c 1.7,0 3,-1.3 3,-3 v -19 l -8,-8 z" style="fill:#fff;stroke:#666;stroke-width:1.60000002;stroke-linejoin:round"/></g><line id="line161" x1="477.8" x2="491.8" y1="499.5" y2="499.5" style="fill:none;stroke:#75b640;stroke-width:1.60000002;stroke-linecap:round"/><line id="line163" x1="477.8" x2="491.8" y1="494.5" y2="494.5" style="fill:none;stroke:#75b640;stroke-width:1.60000002;stroke-linecap:round"/><line id="line165" x1="477.8" x2="491.8" y1="489.5" y2="489.5" style="fill:none;stroke:#75b640;stroke-width:1.60000002;stroke-linecap:round"/><line id="line167" x1="477.8" x2="485.8" y1="484.5" y2="484.5" style="fill:none;stroke:#75b640;stroke-width:1.60000002;stroke-linecap:round"/><line id="line169" x1="477.8" x2="483.8" y1="479.5" y2="479.5" style="fill:none;stroke:#75b640;stroke-width:1.60000002;stroke-linecap:round"/><path id="path171" d="m 496.8,482.6 h -5 c -1.6,0 -3,-1.3 -3,-3 v -5" style="fill:none;stroke:#75b640;stroke-width:1.60000002"/></g><g id="g173"><g id="g175"><path id="path177" d="m 498.8,474.5 h -13 c -1.6,0 -3,1.3 -3,3 v 24 c 0,1.7 1.4,3 3,3 h 18 c 1.7,0 3,-1.3 3,-3 v -19 l -8,-8 z" style="fill:#fff;stroke:#666;stroke-width:1.60000002;stroke-linejoin:round"/></g><line id="line179" x1="487.8" x2="501.8" y1="499.5" y2="499.5" style="fill:none;stroke:#75b640;stroke-width:1.60000002;stroke-linecap:round"/><line id="line181" x1="487.8" x2="501.8" y1="494.5" y2="494.5" style="fill:none;stroke:#75b640;stroke-width:1.60000002;stroke-linecap:round"/><line id="line183" x1="487.8" x2="501.8" y1="489.5" y2="489.5" style="fill:none;stroke:#75b640;stroke-width:1.60000002;stroke-linecap:round"/><line id="line185" x1="487.8" x2="495.8" y1="484.5" y2="484.5" style="fill:none;stroke:#75b640;stroke-width:1.60000002;stroke-linecap:round"/><line id="line187" x1="487.8" x2="493.8" y1="479.5" y2="479.5" style="fill:none;stroke:#75b640;stroke-width:1.60000002;stroke-linecap:round"/><path id="path189" d="m 506.8,482.6 h -5 c -1.6,0 -3,-1.3 -3,-3 v -5" style="fill:none;stroke:#75b640;stroke-width:1.60000002"/></g><g id="g191"><g id="g193"><path id="path195" d="m 508.8,474.5 h -13 c -1.6,0 -3,1.3 -3,3 v 24 c 0,1.7 1.4,3 3,3 h 18 c 1.7,0 3,-1.3 3,-3 v -19 l -8,-8 z" style="fill:#fff;stroke:#666;stroke-width:1.60000002;stroke-linejoin:round"/></g><line id="line197" x1="497.8" x2="511.8" y1="499.5" y2="499.5" style="fill:none;stroke:#75b640;stroke-width:1.60000002;stroke-linecap:round"/><line id="line199" x1="497.8" x2="511.8" y1="494.5" y2="494.5" style="fill:none;stroke:#75b640;stroke-width:1.60000002;stroke-linecap:round"/><line id="line201" x1="497.8" x2="511.8" y1="489.5" y2="489.5" style="fill:none;stroke:#75b640;stroke-width:1.60000002;stroke-linecap:round"/><line id="line203" x1="497.8" x2="505.8" y1="484.5" y2="484.5" style="fill:none;stroke:#75b640;stroke-width:1.60000002;stroke-linecap:round"/><line id="line205" x1="497.8" x2="503.8" y1="479.5" y2="479.5" style="fill:none;stroke:#75b640;stroke-width:1.60000002;stroke-linecap:round"/><path id="path207" d="m 516.8,482.6 h -5 c -1.6,0 -3,-1.3 -3,-3 v -5" style="fill:none;stroke:#75b640;stroke-width:1.60000002"/></g><g id="g209"><g id="g211"><path id="path213" d="m 518.8,474.5 h -13 c -1.6,0 -3,1.3 -3,3 v 24 c 0,1.7 1.4,3 3,3 h 18 c 1.7,0 3,-1.3 3,-3 v -19 l -8,-8 z" style="fill:#fff;stroke:#666;stroke-width:1.60000002;stroke-linejoin:round"/></g><line id="line215" x1="507.8" x2="521.8" y1="499.5" y2="499.5" style="fill:none;stroke:#75b640;stroke-width:1.60000002;stroke-linecap:round"/><line id="line217" x1="507.8" x2="521.8" y1="494.5" y2="494.5" style="fill:none;stroke:#75b640;stroke-width:1.60000002;stroke-linecap:round"/><line id="line219" x1="507.8" x2="521.8" y1="489.5" y2="489.5" style="fill:none;stroke:#75b640;stroke-width:1.60000002;stroke-linecap:round"/><line id="line221" x1="507.8" x2="515.8" y1="484.5" y2="484.5" style="fill:none;stroke:#75b640;stroke-width:1.60000002;stroke-linecap:round"/><line id="line223" x1="507.8" x2="513.8" y1="479.5" y2="479.5" style="fill:none;stroke:#75b640;stroke-width:1.60000002;stroke-linecap:round"/><path id="path225" d="m 526.8,482.6 h -5 c -1.6,0 -3,-1.3 -3,-3 v -5" style="fill:none;stroke:#75b640;stroke-width:1.60000002"/></g><g id="g227"><g id="g229"><path id="path231" d="m 528.8,474.5 h -13 c -1.6,0 -3,1.3 -3,3 v 24 c 0,1.7 1.4,3 3,3 h 18 c 1.7,0 3,-1.3 3,-3 v -19 l -8,-8 z" style="fill:#fff;stroke:#666;stroke-width:1.60000002;stroke-linejoin:round"/></g><line id="line233" x1="517.8" x2="531.8" y1="499.5" y2="499.5" style="fill:none;stroke:#75b640;stroke-width:1.60000002;stroke-linecap:round"/><line id="line235" x1="517.8" x2="531.8" y1="494.5" y2="494.5" style="fill:none;stroke:#75b640;stroke-width:1.60000002;stroke-linecap:round"/><line id="line237" x1="517.8" x2="531.8" y1="489.5" y2="489.5" style="fill:none;stroke:#75b640;stroke-width:1.60000002;stroke-linecap:round"/><line id="line239" x1="517.8" x2="525.8" y1="484.5" y2="484.5" style="fill:none;stroke:#75b640;stroke-width:1.60000002;stroke-linecap:round"/><line id="line241" x1="517.8" x2="523.8" y1="479.5" y2="479.5" style="fill:none;stroke:#75b640;stroke-width:1.60000002;stroke-linecap:round"/><path id="path243" d="m 536.8,482.6 h -5 c -1.6,0 -3,-1.3 -3,-3 v -5" style="fill:none;stroke:#75b640;stroke-width:1.60000002"/></g><g id="g245"><g id="g247"><path id="path249" d="m 538.8,474.5 h -13 c -1.6,0 -3,1.3 -3,3 v 24 c 0,1.7 1.4,3 3,3 h 18 c 1.7,0 3,-1.3 3,-3 v -19 l -8,-8 z" style="fill:#fff;stroke:#666;stroke-width:1.60000002;stroke-linejoin:round"/></g><line id="line251" x1="527.8" x2="541.8" y1="499.5" y2="499.5" style="fill:none;stroke:#75b640;stroke-width:1.60000002;stroke-linecap:round"/><line id="line253" x1="527.8" x2="541.8" y1="494.5" y2="494.5" style="fill:none;stroke:#75b640;stroke-width:1.60000002;stroke-linecap:round"/><line id="line255" x1="527.8" x2="541.8" y1="489.5" y2="489.5" style="fill:none;stroke:#75b640;stroke-width:1.60000002;stroke-linecap:round"/><line id="line257" x1="527.8" x2="535.8" y1="484.5" y2="484.5" style="fill:none;stroke:#75b640;stroke-width:1.60000002;stroke-linecap:round"/><line id="line259" x1="527.8" x2="533.8" y1="479.5" y2="479.5" style="fill:none;stroke:#75b640;stroke-width:1.60000002;stroke-linecap:round"/><path id="path261" d="m 546.8,482.6 h -5 c -1.6,0 -3,-1.3 -3,-3 v -5" style="fill:none;stroke:#666;stroke-width:1.60000002;stroke-linejoin:round"/></g></g><path id="path263" stroke-miterlimit="10" d="m 304.2,170.6 v 12 c 0,1.7 -1.3,3 -3,3 H 65.7 c -1.7,0 -3,-1.3 -3,-3 v -12" style="fill:none;stroke:#454746;stroke-width:1.60000002;stroke-linecap:round;stroke-miterlimit:10"/><path id="path265" d="m 104.2,136.9 c 10.2,0 19.8,-1.8 24.8,-4.7 2,-1.2 3.9,-2.5 5.2,-3.6 v -4.7 c 0,-5.5 -13.4,-10 -30,-10 -16.6,0 -30,4.5 -30,10 v 4.7 c 1.2,1.1 3.1,2.5 5.2,3.6 5.1,2.9 14.6,4.7 24.8,4.7 z" style="fill:#75b640"/><path id="path267" d="m 104.2,153 c 10.2,0 19.8,-1.8 24.8,-4.7 2,-1.2 3.9,-2.5 5.2,-3.6 v -11 c -1.3,0.9 -2.5,1.6 -3.2,2 -5.8,3.2 -15.8,5.2 -26.8,5.2 -11,0 -21.1,-1.9 -26.8,-5.2 -0.7,-0.4 -1.9,-1.1 -3.2,-2 v 11 c 1.2,1.1 3.1,2.5 5.2,3.6 5.1,2.9 14.6,4.7 24.8,4.7 z" style="fill:#75b640"/><path id="path269" d="m 104.2,157 c -11,0 -21.1,-1.9 -26.8,-5.2 -0.7,-0.4 -1.9,-1.1 -3.2,-2 v 8.2 c 0,5.5 13.4,10 30,10 16.6,0 30,-4.5 30,-10 v -8.2 c -1.3,0.9 -2.5,1.6 -3.2,2 -5.7,3.2 -15.7,5.2 -26.8,5.2 z" style="fill:#75b640"/><path id="path271" d="m 184.2,153 c 10.2,0 19.8,-1.8 24.8,-4.7 2,-1.2 3.9,-2.5 5.2,-3.6 v -11 c -1.3,0.9 -2.5,1.6 -3.2,2 -5.8,3.2 -15.8,5.2 -26.8,5.2 -11,0 -21.1,-1.9 -26.8,-5.2 -0.7,-0.4 -1.9,-1.1 -3.2,-2 v 11 c 1.2,1.1 3.1,2.5 5.2,3.6 5.1,2.9 14.6,4.7 24.8,4.7 z" style="fill:#75b640"/><path id="path273" d="m 184.2,136.9 c 10.2,0 19.8,-1.8 24.8,-4.7 2,-1.2 3.9,-2.5 5.2,-3.6 v -4.7 c 0,-5.5 -13.4,-10 -30,-10 -16.6,0 -30,4.5 -30,10 v 4.7 c 1.2,1.1 3.1,2.5 5.2,3.6 5.1,2.9 14.6,4.7 24.8,4.7 z" style="fill:#75b640"/><path id="path275" d="m 184.2,157 c -11,0 -21.1,-1.9 -26.8,-5.2 -0.7,-0.4 -1.9,-1.1 -3.2,-2 v 8.2 c 0,5.5 13.4,10 30,10 16.6,0 30,-4.5 30,-10 v -8.2 c -1.3,0.9 -2.5,1.6 -3.2,2 -5.7,3.2 -15.7,5.2 -26.8,5.2 z" style="fill:#75b640"/><path id="path277" d="m 264.2,153 c 10.2,0 19.8,-1.8 24.8,-4.7 2,-1.2 3.9,-2.5 5.2,-3.6 v -11 c -1.3,0.9 -2.5,1.6 -3.2,2 -5.8,3.2 -15.8,5.2 -26.8,5.2 -11,0 -21.1,-1.9 -26.8,-5.2 -0.7,-0.4 -1.9,-1.1 -3.2,-2 v 11 c 1.2,1.1 3.1,2.5 5.2,3.6 5.1,2.9 14.6,4.7 24.8,4.7 z" style="fill:#75b640"/><path id="path279" d="m 264.2,157 c -11,0 -21.1,-1.9 -26.8,-5.2 -0.7,-0.4 -1.9,-1.1 -3.2,-2 v 8.2 c 0,5.5 13.4,10 30,10 16.6,0 30,-4.5 30,-10 v -8.2 c -1.3,0.9 -2.5,1.6 -3.2,2 -5.7,3.2 -15.7,5.2 -26.8,5.2 z" style="fill:#75b640"/><path id="path281" d="m 264.2,136.9 c 10.2,0 19.8,-1.8 24.8,-4.7 2,-1.2 3.9,-2.5 5.2,-3.6 v -4.7 c 0,-5.5 -13.4,-10 -30,-10 -16.6,0 -30,4.5 -30,10 v 4.7 c 1.2,1.1 3.1,2.5 5.2,3.6 5.1,2.9 14.6,4.7 24.8,4.7 z" style="fill:#75b640"/></svg>