<svg xmlns="http://www.w3.org/2000/svg" xmlns:svg="http://www.w3.org/2000/svg" id="graphs" width="100%" height="100%" x="0" y="0" enable-background="new 0 0 900 600" version="1.1" viewBox="0 0 778 509.7" xml:space="preserve"><metadata id="metadata3459"/><path id="path3211" d="M 725,440.3 H 71 c -1.6,0 -3,-1.4 -3,-3 V 53 c 0,-1.7 1.4,-3 3,-3 h 654 c 1.7,0 3,1.3 3,3 v 384.3 c 0,1.7 -1.3,3 -3,3 z" style="fill:#f8faf6"/><g id="g3213" transform="translate(-61,-54.5)"><line id="line3215" x1="134" x2="134" y1="109.5" y2="489.5" stroke-miterlimit="10" style="fill:none;stroke:#d6d6d6;stroke-miterlimit:10"/><line id="line3217" x1="199" x2="199" y1="109.5" y2="489.5" stroke-miterlimit="10" style="fill:none;stroke:#d6d6d6;stroke-miterlimit:10"/><line id="line3219" x1="264" x2="264" y1="109.5" y2="489.5" stroke-miterlimit="10" style="fill:none;stroke:#d6d6d6;stroke-miterlimit:10"/><line id="line3221" x1="329" x2="329" y1="109.5" y2="489.5" stroke-miterlimit="10" style="fill:none;stroke:#d6d6d6;stroke-miterlimit:10"/><line id="line3223" x1="394" x2="394" y1="109.5" y2="489.5" stroke-miterlimit="10" style="fill:none;stroke:#d6d6d6;stroke-miterlimit:10"/><line id="line3225" x1="459" x2="459" y1="109.5" y2="489.5" stroke-miterlimit="10" style="fill:none;stroke:#d6d6d6;stroke-miterlimit:10"/><line id="line3227" x1="524" x2="524" y1="109.5" y2="489.5" stroke-miterlimit="10" style="fill:none;stroke:#d6d6d6;stroke-miterlimit:10"/><line id="line3229" x1="589" x2="589" y1="109.5" y2="489.5" stroke-miterlimit="10" style="fill:none;stroke:#d6d6d6;stroke-miterlimit:10"/><line id="line3231" x1="654" x2="654" y1="109.5" y2="489.5" stroke-miterlimit="10" style="fill:none;stroke:#d6d6d6;stroke-miterlimit:10"/><line id="line3233" x1="719" x2="719" y1="109.5" y2="489.5" stroke-miterlimit="10" style="fill:none;stroke:#d6d6d6;stroke-miterlimit:10"/><line id="line3235" x1="784" x2="784" y1="109.5" y2="489.5" stroke-miterlimit="10" style="fill:none;stroke:#d6d6d6;stroke-miterlimit:10"/><line id="line3237" x1="134" x2="784" y1="109.5" y2="109.5" stroke-miterlimit="10" style="fill:none;stroke:#d6d6d6;stroke-miterlimit:10"/><line id="line3239" x1="134" x2="784" y1="185.5" y2="185.5" stroke-miterlimit="10" style="fill:none;stroke:#d6d6d6;stroke-miterlimit:10"/><line id="line3241" x1="134" x2="784" y1="261.5" y2="261.5" stroke-miterlimit="10" style="fill:none;stroke:#d6d6d6;stroke-miterlimit:10"/><line id="line3243" x1="134" x2="784" y1="337.5" y2="337.5" stroke-miterlimit="10" style="fill:none;stroke:#d6d6d6;stroke-miterlimit:10"/><line id="line3245" x1="134" x2="784" y1="413.5" y2="413.5" stroke-miterlimit="10" style="fill:none;stroke:#d6d6d6;stroke-miterlimit:10"/><line id="line3247" x1="134" x2="784" y1="489.5" y2="489.5" stroke-miterlimit="10" style="fill:none;stroke:#d6d6d6;stroke-miterlimit:10"/></g><g id="g3249" transform="translate(-61,-54.5)"><g id="g3251"><path id="path3253" d="m 225.8,368.1 c 1.6,0 2.9,0.6 3.8,1.7 0.9,1.1 1.4,2.6 1.4,4.4 0,1.8 -0.5,3.3 -1.4,4.5 -1,1.1 -2.2,1.7 -3.8,1.7 -1.6,0 -2.9,-0.6 -3.8,-1.7 -0.9,-1.1 -1.4,-2.6 -1.4,-4.5 0,-1.8 0.5,-3.3 1.4,-4.4 0.9,-1.2 2.2,-1.7 3.8,-1.7 z m 0,10.7 c 1.1,0 1.9,-0.4 2.5,-1.3 0.6,-0.9 0.9,-2 0.9,-3.3 0,-1.3 -0.3,-2.5 -0.9,-3.3 -0.6,-0.9 -1.4,-1.3 -2.5,-1.3 -1.1,0 -1.9,0.4 -2.5,1.3 -0.6,0.9 -0.9,2 -0.9,3.3 0,1.3 0.3,2.4 0.9,3.3 0.6,0.9 1.4,1.3 2.5,1.3 z" style="fill:#454746"/><path id="path3255" d="m 243.3,380.1 h -4.8 v -14.3 h -3.1 v -1.5 h 4.8 v 14.3 h 3 v 1.5 z" style="fill:#454746"/><path id="path3257" d="m 257.9,380.1 h -1.8 v -1.7 c -0.4,0.6 -0.9,1.1 -1.5,1.4 -0.7,0.4 -1.4,0.6 -2.1,0.6 -1.3,0 -2.4,-0.6 -3.2,-1.8 -0.8,-1.2 -1.2,-2.7 -1.2,-4.5 0,-1.7 0.4,-3.1 1.2,-4.3 0.8,-1.1 1.9,-1.7 3.2,-1.7 1.5,0 2.7,0.6 3.6,1.8 v -5.7 h 1.8 v 15.9 z m -1.8,-3.6 v -4.9 c -0.8,-1.3 -1.8,-2 -3,-2 -1,0 -1.7,0.4 -2.3,1.3 -0.6,0.9 -0.8,1.9 -0.8,3.3 0,1.3 0.3,2.5 0.8,3.3 0.5,0.9 1.3,1.3 2.2,1.3 0.4,0 0.9,-0.1 1.3,-0.4 0.4,-0.2 0.9,-0.6 1.3,-1.1 0.3,-0.4 0.5,-0.7 0.5,-0.8 z" style="fill:#454746"/><path id="path3259" d="m 274.1,385.1 h -13.8 v -1.5 h 13.8 v 1.5 z" style="fill:#454746"/><path id="path3261" d="m 284.3,370 c -1,-0.3 -1.9,-0.5 -2.8,-0.5 -1,0 -1.7,0.2 -2.3,0.5 -0.6,0.3 -0.8,0.7 -0.8,1.3 0,0.3 0.1,0.6 0.4,0.9 0.3,0.3 0.8,0.5 1.5,0.7 l 1.7,0.5 c 0.8,0.2 1.4,0.5 1.9,0.8 0.5,0.3 0.9,0.7 1.1,1.1 0.2,0.4 0.4,0.9 0.4,1.5 0,1.1 -0.5,2 -1.4,2.6 -0.9,0.6 -2.1,1 -3.6,1 -1.4,0 -2.6,-0.2 -3.6,-0.7 l 0.3,-1.5 c 1,0.5 2,0.7 3.2,0.7 1,0 1.8,-0.2 2.4,-0.5 0.6,-0.4 0.9,-0.8 0.9,-1.4 0,-0.4 -0.2,-0.8 -0.5,-1.1 -0.3,-0.3 -1,-0.6 -2.1,-1 -0.9,-0.3 -1.6,-0.5 -2,-0.6 -0.4,-0.1 -0.8,-0.3 -1.2,-0.6 -0.4,-0.3 -0.6,-0.6 -0.8,-1 -0.2,-0.4 -0.3,-0.8 -0.3,-1.3 0,-1 0.4,-1.8 1.3,-2.4 0.9,-0.6 2.1,-0.9 3.5,-0.9 0.9,0 2,0.2 3.1,0.5 l -0.3,1.4 z" style="fill:#454746"/><path id="path3263" d="m 299.3,379.7 c -1,0.5 -2.1,0.7 -3.4,0.7 -1.8,0 -3.3,-0.6 -4.4,-1.7 -1.1,-1.1 -1.6,-2.6 -1.6,-4.5 0,-1.9 0.6,-3.3 1.7,-4.5 1.1,-1.1 2.6,-1.7 4.4,-1.7 1.2,0 2.3,0.2 3.4,0.6 l -0.5,1.4 c -1.1,-0.4 -2,-0.6 -2.9,-0.6 -1.3,0 -2.3,0.4 -3.1,1.2 -0.8,0.8 -1.1,2 -1.1,3.4 0,1.3 0.4,2.4 1.2,3.3 0.8,0.9 1.8,1.3 3,1.3 1,0 2,-0.2 3.1,-0.6 l 0.2,1.7 z" style="fill:#454746"/><path id="path3265" d="m 308.6,368.1 c 1.6,0 2.9,0.6 3.8,1.7 0.9,1.1 1.4,2.6 1.4,4.4 0,1.8 -0.5,3.3 -1.4,4.5 -1,1.1 -2.2,1.7 -3.8,1.7 -1.6,0 -2.9,-0.6 -3.8,-1.7 -0.9,-1.1 -1.4,-2.6 -1.4,-4.5 0,-1.8 0.5,-3.3 1.4,-4.4 0.9,-1.2 2.2,-1.7 3.8,-1.7 z m 0,10.7 c 1.1,0 1.9,-0.4 2.5,-1.3 0.6,-0.9 0.9,-2 0.9,-3.3 0,-1.3 -0.3,-2.5 -0.9,-3.3 -0.6,-0.9 -1.4,-1.3 -2.5,-1.3 -1.1,0 -1.9,0.4 -2.5,1.3 -0.6,0.9 -0.9,2 -0.9,3.3 0,1.3 0.3,2.4 0.9,3.3 0.6,0.9 1.4,1.3 2.5,1.3 z" style="fill:#454746"/><path id="path3267" d="m 327.1,368.7 -0.7,1.7 c -0.8,-0.3 -1.4,-0.5 -2,-0.5 -0.5,0 -1,0.1 -1.5,0.4 -0.5,0.3 -0.9,0.7 -1.4,1.3 -0.4,0.6 -0.6,0.9 -0.6,0.9 v 7.6 h -1.7 v -11.7 h 1.7 v 2.4 c 0.9,-1.8 2.1,-2.7 3.6,-2.7 0.9,0 1.8,0.2 2.6,0.6 z" style="fill:#454746"/><path id="path3269" d="m 341.1,374.3 h -8 c 0,1.3 0.4,2.4 1.2,3.3 0.8,0.9 1.7,1.3 2.8,1.3 1.1,0 2.2,-0.2 3.3,-0.6 l 0.3,1.4 c -1,0.5 -2.2,0.7 -3.6,0.7 -1.7,0 -3.1,-0.6 -4.2,-1.7 -1.1,-1.1 -1.6,-2.6 -1.6,-4.5 0,-1.9 0.5,-3.3 1.4,-4.4 1,-1.1 2.2,-1.7 3.7,-1.7 1.3,0 2.5,0.5 3.4,1.5 0.9,1 1.4,2.4 1.4,4.1 v 0.6 z m -1.9,-1.5 c 0,-0.9 -0.3,-1.7 -0.9,-2.3 -0.6,-0.6 -1.2,-0.9 -1.9,-0.9 -0.9,0 -1.7,0.3 -2.3,0.9 -0.6,0.6 -0.9,1.4 -1,2.3 h 6.1 z" style="fill:#454746"/><path id="path3271" d="m 367.8,370.4 -0.7,1.1 -2.7,-1.8 v 3.2 h -1.2 v -3.2 l -2.7,1.8 -0.7,-1.1 2.8,-1.8 -2.8,-1.8 0.7,-1.1 2.7,1.8 v -3.2 h 1.2 v 3.2 l 2.7,-1.8 0.7,1.1 -2.8,1.8 2.8,1.8 z" style="fill:#454746"/><path id="path3273" d="m 395.1,380.1 h -4.8 v -14.3 h -3.1 v -1.5 h 4.8 v 14.3 h 3 v 1.5 z" style="fill:#454746"/><path id="path3275" d="m 405.2,368.1 c 1.6,0 2.9,0.6 3.8,1.7 0.9,1.1 1.4,2.6 1.4,4.4 0,1.8 -0.5,3.3 -1.4,4.5 -1,1.1 -2.2,1.7 -3.8,1.7 -1.6,0 -2.9,-0.6 -3.8,-1.7 -0.9,-1.1 -1.4,-2.6 -1.4,-4.5 0,-1.8 0.5,-3.3 1.4,-4.4 0.9,-1.2 2.2,-1.7 3.8,-1.7 z m 0,10.7 c 1.1,0 1.9,-0.4 2.5,-1.3 0.6,-0.9 0.9,-2 0.9,-3.3 0,-1.3 -0.3,-2.5 -0.9,-3.3 -0.6,-0.9 -1.4,-1.3 -2.5,-1.3 -1.1,0 -1.9,0.4 -2.5,1.3 -0.6,0.9 -0.9,2 -0.9,3.3 0,1.3 0.3,2.4 0.9,3.3 0.6,0.9 1.4,1.3 2.5,1.3 z" style="fill:#454746"/><path id="path3277" d="m 417.8,375.6 c -1.1,0.5 -1.6,1 -1.6,1.4 0,0.2 0.1,0.4 0.4,0.6 0.3,0.1 0.6,0.2 1,0.2 l 3.9,-0.1 c 0.9,0 1.7,0.2 2.2,0.7 0.5,0.5 0.8,1.1 0.8,1.9 0,1.3 -0.6,2.4 -1.8,3.2 -1.2,0.8 -2.6,1.2 -4.1,1.2 -1.3,0 -2.4,-0.3 -3.2,-0.8 -0.8,-0.5 -1.2,-1.2 -1.2,-2.1 0,-0.9 0.6,-1.7 1.9,-2.4 -1.1,-0.5 -1.6,-1.1 -1.6,-1.8 0,-0.8 0.7,-1.6 2,-2.3 -0.6,-0.4 -1.1,-0.9 -1.4,-1.5 -0.3,-0.6 -0.5,-1.2 -0.5,-1.9 0,-1.1 0.4,-2 1.1,-2.7 0.7,-0.7 1.7,-1.1 2.8,-1.1 0.8,0 1.5,0.2 2.2,0.5 l 3.5,-0.5 v 1.7 H 422 c 0.3,0.6 0.5,1.3 0.5,2.1 0,1.1 -0.4,2 -1.1,2.7 -0.7,0.7 -1.7,1.1 -2.8,1.1 -0.4,0 -0.6,0 -0.8,-0.1 z m 0.7,7.7 c 1.2,0 2.1,-0.3 2.9,-0.8 0.8,-0.5 1.2,-1.1 1.2,-1.9 0,-0.8 -0.6,-1.2 -1.7,-1.2 -0.4,0 -1,0 -2,0.1 -0.6,0 -1.1,0 -1.4,0 -0.2,0 -0.4,0.1 -0.8,0.4 -0.3,0.3 -0.6,0.5 -0.8,0.8 -0.2,0.3 -0.3,0.6 -0.3,0.8 0,0.5 0.3,0.8 0.8,1.2 0.6,0.5 1.3,0.6 2.1,0.6 z m 0,-9 c 0.6,0 1.2,-0.2 1.6,-0.7 0.4,-0.5 0.6,-1 0.6,-1.7 0,-0.8 -0.2,-1.3 -0.6,-1.8 -0.4,-0.4 -0.9,-0.6 -1.6,-0.6 -0.6,0 -1.1,0.2 -1.6,0.7 -0.4,0.4 -0.6,1 -0.6,1.7 0,0.7 0.2,1.3 0.6,1.7 0.4,0.5 0.9,0.7 1.6,0.7 z" style="fill:#454746"/><path id="path3279" d="m 436.7,382.4 -0.7,1 c -1.7,-1.3 -2.9,-2.7 -3.8,-4.4 -0.9,-1.7 -1.3,-3.4 -1.3,-5.3 0,-1.9 0.4,-3.7 1.3,-5.3 0.9,-1.7 2.1,-3.1 3.8,-4.4 l 0.7,1 c -1.4,1.2 -2.4,2.5 -3,3.9 -0.6,1.3 -0.9,3 -0.9,4.9 0,2 0.3,3.6 0.9,5 0.7,1.1 1.7,2.4 3,3.6 z" style="fill:#454746"/><path id="path3281" d="m 451.2,380.1 h -8.3 v -1.6 h 3.4 v -12.3 l -3.2,1.6 V 366 l 3.4,-1.8 h 1.6 v 14.3 h 3.1 v 1.6 z" style="fill:#454746"/><path id="path3283" d="M 479.5,372.7 H 475 v 4.6 h -1.5 v -4.6 h -4.6 v -1.5 h 4.6 v -4.6 h 1.5 v 4.6 h 4.5 v 1.5 z" style="fill:#454746"/><path id="path3285" d="m 506.4,380.1 h -1.8 v -7.5 c 0,-1 -0.2,-1.8 -0.5,-2.3 -0.3,-0.5 -0.9,-0.7 -1.6,-0.7 -1.1,0 -2.2,0.7 -3.4,2 v 8.5 h -1.8 v -11.7 h 1.8 v 1.7 c 1.3,-1.3 2.6,-2 4,-2 2.2,0 3.3,1.3 3.3,4 v 8 z" style="fill:#454746"/><path id="path3287" d="m 520.1,380.1 h -1.8 v -1.7 c -1.3,1.3 -2.6,2 -4,2 -2.2,0 -3.3,-1.3 -3.3,-4 v -8 h 1.8 v 7.5 c 0,1 0.2,1.7 0.5,2.2 0.3,0.5 0.8,0.7 1.6,0.7 1.1,0 2.2,-0.7 3.4,-2 v -8.5 h 1.8 v 11.8 z" style="fill:#454746"/><path id="path3289" d="m 534.9,380.1 h -1.8 v -7.7 c 0,-1.9 -0.3,-2.8 -1,-2.8 -0.4,0 -0.7,0.3 -1.2,1 -0.4,0.6 -0.6,1 -0.6,1.1 v 8.4 h -1.7 v -7.7 c 0,-1.9 -0.3,-2.8 -1,-2.8 -0.3,0 -0.7,0.3 -1.2,1 -0.4,0.6 -0.6,1 -0.6,1.1 v 8.4 H 524 v -11.7 h 1.7 v 1.8 c 0.3,-0.6 0.7,-1.1 1.2,-1.5 0.5,-0.4 0.9,-0.6 1.4,-0.6 0.5,0 0.9,0.2 1.3,0.6 0.4,0.4 0.6,0.9 0.8,1.5 0.3,-0.6 0.7,-1.1 1.2,-1.5 0.5,-0.4 0.9,-0.6 1.3,-0.6 1.4,0 2.1,1.3 2.1,3.8 v 8.2 z" style="fill:#454746"/><path id="path3291" d="m 540.5,369.9 c 0.4,-0.5 0.9,-1 1.6,-1.3 0.7,-0.3 1.4,-0.5 2.1,-0.5 1.4,0 2.4,0.5 3.2,1.6 0.8,1.1 1.1,2.5 1.1,4.3 0,1.8 -0.4,3.3 -1.2,4.5 -0.8,1.2 -1.9,1.8 -3.2,1.8 -0.7,0 -1.4,-0.2 -2,-0.5 -0.6,-0.3 -1.1,-0.8 -1.5,-1.4 v 1.7 h -1.8 v -15.8 h 1.8 v 5.6 z m 0,1.7 v 4.9 c 0.3,0.7 0.8,1.2 1.3,1.7 0.6,0.4 1.1,0.7 1.7,0.7 0.9,0 1.7,-0.4 2.3,-1.3 0.6,-0.9 0.8,-2 0.8,-3.3 0,-1.3 -0.3,-2.4 -0.8,-3.3 -0.5,-0.8 -1.3,-1.3 -2.2,-1.3 -1.2,-0.1 -2.2,0.6 -3.1,1.9 z" style="fill:#454746"/><path id="path3293" d="m 561.9,374.3 h -8 c 0,1.3 0.4,2.4 1.2,3.3 0.8,0.9 1.7,1.3 2.8,1.3 1.1,0 2.2,-0.2 3.3,-0.6 l 0.3,1.4 c -1,0.5 -2.2,0.7 -3.6,0.7 -1.7,0 -3.1,-0.6 -4.2,-1.7 -1.1,-1.1 -1.6,-2.6 -1.6,-4.5 0,-1.9 0.5,-3.3 1.4,-4.4 1,-1.1 2.2,-1.7 3.7,-1.7 1.3,0 2.5,0.5 3.4,1.5 0.9,1 1.4,2.4 1.4,4.1 v 0.6 z m -1.9,-1.5 c 0,-0.9 -0.3,-1.7 -0.9,-2.3 -0.6,-0.6 -1.2,-0.9 -1.9,-0.9 -0.9,0 -1.7,0.3 -2.3,0.9 -0.6,0.6 -0.9,1.4 -1,2.3 h 6.1 z" style="fill:#454746"/><path id="path3295" d="m 575.6,368.7 -0.7,1.7 c -0.8,-0.3 -1.4,-0.5 -2,-0.5 -0.5,0 -1,0.1 -1.5,0.4 -0.5,0.3 -0.9,0.7 -1.4,1.3 -0.4,0.6 -0.6,0.9 -0.6,0.9 v 7.6 h -1.7 v -11.7 h 1.7 v 2.4 c 0.9,-1.8 2.1,-2.7 3.6,-2.7 0.9,0 1.7,0.2 2.6,0.6 z" style="fill:#454746"/><path id="path3297" d="m 591.5,385.1 h -13.8 v -1.5 h 13.8 v 1.5 z" style="fill:#454746"/><path id="path3299" d="m 598.4,368.1 c 1.6,0 2.9,0.6 3.8,1.7 0.9,1.1 1.4,2.6 1.4,4.4 0,1.8 -0.5,3.3 -1.4,4.5 -1,1.1 -2.2,1.7 -3.8,1.7 -1.6,0 -2.9,-0.6 -3.8,-1.7 -0.9,-1.1 -1.4,-2.6 -1.4,-4.5 0,-1.8 0.5,-3.3 1.4,-4.4 1,-1.2 2.2,-1.7 3.8,-1.7 z m 0,10.7 c 1.1,0 1.9,-0.4 2.5,-1.3 0.6,-0.9 0.9,-2 0.9,-3.3 0,-1.3 -0.3,-2.5 -0.9,-3.3 -0.6,-0.9 -1.4,-1.3 -2.5,-1.3 -1.1,0 -1.9,0.4 -2.5,1.3 -0.6,0.9 -0.9,2 -0.9,3.3 0,1.3 0.3,2.4 0.9,3.3 0.6,0.9 1.5,1.3 2.5,1.3 z" style="fill:#454746"/><path id="path3301" d="m 616.9,364.4 -0.5,1.4 c -0.8,-0.2 -1.6,-0.4 -2.2,-0.4 -0.6,0 -1.1,0.2 -1.3,0.5 -0.2,0.4 -0.4,1.1 -0.4,2.2 v 0.2 h 3.9 v 1.5 h -3.9 V 380 h -1.8 v -10.2 h -2.9 v -1.5 h 2.9 V 368 c 0,-1.5 0.3,-2.5 0.8,-3.1 0.5,-0.6 1.4,-0.9 2.6,-0.9 0.9,-0.1 1.8,0.1 2.8,0.4 z" style="fill:#454746"/><path id="path3303" d="m 633,385.1 h -13.8 v -1.5 H 633 v 1.5 z" style="fill:#454746"/><path id="path3305" d="m 644.9,368.4 -4.4,11.7 h -1.6 l -4.4,-11.7 h 1.9 l 3.3,9.3 3.3,-9.3 h 1.9 z" style="fill:#454746"/><path id="path3307" d="m 653.7,368.1 c 1.6,0 2.9,0.6 3.8,1.7 0.9,1.1 1.4,2.6 1.4,4.4 0,1.8 -0.5,3.3 -1.4,4.5 -1,1.1 -2.2,1.7 -3.8,1.7 -1.6,0 -2.9,-0.6 -3.8,-1.7 -0.9,-1.1 -1.4,-2.6 -1.4,-4.5 0,-1.8 0.5,-3.3 1.4,-4.4 0.9,-1.2 2.1,-1.7 3.8,-1.7 z m 0,10.7 c 1.1,0 1.9,-0.4 2.5,-1.3 0.6,-0.9 0.9,-2 0.9,-3.3 0,-1.3 -0.3,-2.5 -0.9,-3.3 -0.6,-0.9 -1.4,-1.3 -2.5,-1.3 -1.1,0 -1.9,0.4 -2.5,1.3 -0.6,0.9 -0.9,2 -0.9,3.3 0,1.3 0.3,2.4 0.9,3.3 0.5,0.9 1.4,1.3 2.5,1.3 z" style="fill:#454746"/><path id="path3309" d="m 672.1,379.5 c -1.2,0.5 -2.3,0.8 -3.5,0.8 -2.1,0 -3.1,-1.1 -3.1,-3.3 v -7.2 h -2.2 v -1.5 h 2.2 v -3.2 h 1.7 v 3.2 h 4 v 1.5 h -4 v 6.7 c 0,0.7 0.2,1.3 0.5,1.7 0.3,0.4 0.7,0.6 1.3,0.6 1,0 1.9,-0.2 2.8,-0.6 l 0.3,1.3 z" style="fill:#454746"/><path id="path3311" d="m 686.1,374.3 h -8 c 0,1.3 0.4,2.4 1.2,3.3 0.8,0.9 1.7,1.3 2.8,1.3 1.1,0 2.2,-0.2 3.3,-0.6 l 0.3,1.4 c -1,0.5 -2.2,0.7 -3.6,0.7 -1.7,0 -3.1,-0.6 -4.2,-1.7 -1.1,-1.1 -1.6,-2.6 -1.6,-4.5 0,-1.9 0.5,-3.3 1.4,-4.4 1,-1.1 2.2,-1.7 3.7,-1.7 1.3,0 2.5,0.5 3.4,1.5 0.9,1 1.4,2.4 1.4,4.1 v 0.6 z m -1.9,-1.5 c 0,-0.9 -0.3,-1.7 -0.9,-2.3 -0.6,-0.6 -1.2,-0.9 -1.9,-0.9 -0.9,0 -1.7,0.3 -2.3,0.9 -0.6,0.6 -0.9,1.4 -1,2.3 h 6.1 z" style="fill:#454746"/><path id="path3313" d="m 698.4,370 c -1,-0.3 -1.9,-0.5 -2.8,-0.5 -1,0 -1.7,0.2 -2.3,0.5 -0.6,0.3 -0.8,0.7 -0.8,1.3 0,0.3 0.1,0.6 0.4,0.9 0.3,0.3 0.8,0.5 1.5,0.7 l 1.7,0.5 c 0.8,0.2 1.4,0.5 1.9,0.8 0.5,0.3 0.9,0.7 1.1,1.1 0.2,0.4 0.4,0.9 0.4,1.5 0,1.1 -0.5,2 -1.4,2.6 -0.9,0.6 -2.1,1 -3.6,1 -1.4,0 -2.6,-0.2 -3.6,-0.7 l 0.3,-1.5 c 1,0.5 2,0.7 3.2,0.7 1,0 1.8,-0.2 2.4,-0.5 0.6,-0.4 0.9,-0.8 0.9,-1.4 0,-0.4 -0.2,-0.8 -0.5,-1.1 -0.3,-0.3 -1,-0.6 -2.1,-1 -0.9,-0.3 -1.6,-0.5 -2,-0.6 -0.4,-0.1 -0.8,-0.3 -1.2,-0.6 -0.4,-0.3 -0.6,-0.6 -0.8,-1 -0.2,-0.4 -0.3,-0.8 -0.3,-1.3 0,-1 0.4,-1.8 1.3,-2.4 0.9,-0.6 2.1,-0.9 3.5,-0.9 0.9,0 2,0.2 3.1,0.5 l -0.3,1.4 z" style="fill:#454746"/><path id="path3315" d="m 705.7,363.9 c 1.7,1.3 3,2.7 3.8,4.4 0.9,1.7 1.3,3.4 1.3,5.3 0,1.9 -0.4,3.6 -1.3,5.3 -0.9,1.7 -2.1,3.1 -3.8,4.4 l -0.7,-1 c 1.4,-1.2 2.4,-2.5 3,-3.9 0.6,-1.4 0.9,-3 0.9,-4.9 0,-2 -0.3,-3.6 -0.9,-4.9 -0.6,-1.3 -1.6,-2.6 -2.9,-3.8 l 0.6,-0.9 z" style="fill:#454746"/></g></g><g id="g3317" transform="translate(-61,-54.5)"><path id="path3319" d="m 372,533.8 v -16.2 h 3.4 l 4.2,6.9 c 1.1,1.8 2,3.7 2.8,5.4 h 0 c -0.2,-2.2 -0.3,-4.2 -0.3,-6.7 v -5.6 h 2.7 v 16.2 h -3 l -4.2,-7.1 c -1,-1.8 -2.1,-3.8 -2.9,-5.6 l -0.1,0 c 0.1,2.1 0.1,4.2 0.1,6.9 v 5.8 H 372 z" style="fill:#454746"/><path id="path3321" d="m 398.6,530.3 c 0,1.4 0,2.5 0.1,3.5 h -2.6 L 396,532 h 0 c -0.5,0.8 -1.7,2 -3.7,2 -2.1,0 -4.1,-1.3 -4.1,-5.1 V 522 h 3 v 6.4 c 0,1.9 0.6,3.2 2.2,3.2 1.2,0 1.9,-0.8 2.3,-1.6 0.1,-0.3 0.2,-0.6 0.2,-0.9 V 522 h 3 v 8.3 z" style="fill:#454746"/><path id="path3323" d="m 401.8,525.6 c 0,-1.3 0,-2.5 -0.1,-3.5 h 2.5 l 0.1,1.7 h 0.1 c 0.6,-0.9 1.6,-2 3.6,-2 1.5,0 2.7,0.9 3.2,2.2 h 0 c 0.4,-0.6 0.9,-1.1 1.4,-1.5 0.6,-0.5 1.4,-0.7 2.4,-0.7 1.9,0 3.9,1.3 3.9,5.1 v 6.9 H 416 v -6.5 c 0,-1.9 -0.7,-3.1 -2.1,-3.1 -1,0 -1.8,0.7 -2.1,1.6 -0.1,0.3 -0.1,0.6 -0.1,1 v 7 H 409 V 527 c 0,-1.6 -0.6,-2.8 -2,-2.8 -1.1,0 -1.8,0.9 -2.1,1.7 -0.1,0.3 -0.2,0.6 -0.2,1 v 6.9 h -2.9 v -8.2 z" style="fill:#454746"/><path id="path3325" d="m 422,533.8 c 0,-0.8 0.1,-2.1 0.1,-3.3 v -13.8 h 3 v 7 h 0 c 0.7,-1.1 2,-1.9 3.7,-1.9 2.9,0 4.9,2.4 4.9,5.9 0,4.2 -2.7,6.3 -5.3,6.3 -1.5,0 -2.9,-0.6 -3.7,-2 h 0 l -0.1,1.8 H 422 z m 3.1,-4.8 c 0,0.2 0,0.5 0.1,0.7 0.3,1.2 1.3,2.1 2.6,2.1 1.8,0 3,-1.5 3,-3.8 0,-2.1 -1,-3.7 -3,-3.7 -1.2,0 -2.3,0.9 -2.6,2.2 0,0.2 -0.1,0.5 -0.1,0.8 v 1.7 z" style="fill:#454746"/><path id="path3327" d="m 438.3,528.8 c 0.1,2.1 1.7,3 3.6,3 1.4,0 2.4,-0.2 3.2,-0.5 l 0.4,2 c -1,0.4 -2.4,0.7 -4.1,0.7 -3.8,0 -6,-2.3 -6,-5.9 0,-3.2 2,-6.3 5.7,-6.3 3.8,0 5,3.1 5,5.7 0,0.6 0,1 -0.1,1.2 h -7.7 z m 5.1,-2 c 0,-1.1 -0.5,-2.9 -2.4,-2.9 -1.8,0 -2.6,1.7 -2.7,2.9 h 5.1 z" style="fill:#454746"/><path id="path3329" d="m 448.6,525.9 c 0,-1.6 0,-2.7 -0.1,-3.8 h 2.6 l 0.1,2.2 h 0.1 c 0.6,-1.7 1.9,-2.5 3.2,-2.5 0.3,0 0.5,0 0.7,0.1 v 2.8 c -0.2,0 -0.5,-0.1 -0.9,-0.1 -1.4,0 -2.4,0.9 -2.6,2.2 0,0.3 -0.1,0.6 -0.1,0.9 v 6 h -3 v -7.8 z" style="fill:#454746"/><path id="path3331" d="m 473.2,527.9 c 0,4.3 -3,6.2 -6,6.2 -3.3,0 -5.9,-2.3 -5.9,-6 0,-3.8 2.5,-6.2 6,-6.2 3.6,0 5.9,2.4 5.9,6 z m -8.8,0.1 c 0,2.3 1.1,4 2.9,4 1.7,0 2.9,-1.7 2.9,-4 0,-1.8 -0.8,-3.9 -2.8,-3.9 -2.2,-0.1 -3,2 -3,3.9 z" style="fill:#454746"/><path id="path3333" d="m 475.9,533.8 v -9.5 h -1.6 v -2.2 h 1.6 v -0.5 c 0,-1.5 0.4,-3 1.4,-4 0.9,-0.8 2,-1.1 3,-1.1 0.8,0 1.4,0.1 1.9,0.3 l -0.2,2.3 c -0.3,-0.1 -0.7,-0.2 -1.2,-0.2 -1.5,0 -2,1.2 -2,2.7 v 0.6 h 2.6 v 2.2 h -2.5 v 9.5 h -3 z" style="fill:#454746"/><path id="path3335" d="m 490.1,522.1 1.9,5.9 c 0.3,1 0.6,2 0.8,2.9 h 0.1 c 0.2,-1 0.5,-1.9 0.8,-2.9 l 1.8,-5.9 h 3.1 l -4.5,11.7 h -2.9 l -4.3,-11.7 h 3.2 z" style="fill:#454746"/><path id="path3337" d="m 511.2,527.9 c 0,4.3 -3,6.2 -6,6.2 -3.3,0 -5.9,-2.3 -5.9,-6 0,-3.8 2.5,-6.2 6,-6.2 3.6,0 5.9,2.4 5.9,6 z m -8.8,0.1 c 0,2.3 1.1,4 2.9,4 1.7,0 2.9,-1.7 2.9,-4 0,-1.8 -0.8,-3.9 -2.8,-3.9 -2.1,-0.1 -3,2 -3,3.9 z" style="fill:#454746"/><path id="path3339" d="m 517,518.8 v 3.3 h 2.8 v 2.2 H 517 v 5.2 c 0,1.4 0.4,2.2 1.5,2.2 0.5,0 0.9,-0.1 1.2,-0.1 l 0,2.3 c -0.4,0.2 -1.2,0.3 -2.1,0.3 -1.1,0 -2,-0.4 -2.5,-1 -0.6,-0.7 -0.9,-1.7 -0.9,-3.3 v -5.5 h -1.7 v -2.2 h 1.7 v -2.6 l 2.8,-0.8 z" style="fill:#454746"/><path id="path3341" d="m 524,528.8 c 0.1,2.1 1.7,3 3.6,3 1.4,0 2.4,-0.2 3.2,-0.5 l 0.4,2 c -1,0.4 -2.4,0.7 -4.1,0.7 -3.8,0 -6,-2.3 -6,-5.9 0,-3.2 2,-6.3 5.7,-6.3 3.8,0 5,3.1 5,5.7 0,0.6 0,1 -0.1,1.2 H 524 z m 5.2,-2 c 0,-1.1 -0.5,-2.9 -2.4,-2.9 -1.8,0 -2.6,1.7 -2.7,2.9 h 5.1 z" style="fill:#454746"/><path id="path3343" d="m 534.2,531.1 c 0.7,0.4 1.9,0.8 3,0.8 1.3,0 1.9,-0.5 1.9,-1.3 0,-0.8 -0.5,-1.2 -1.9,-1.7 -2.3,-0.8 -3.2,-2 -3.2,-3.4 0,-2.1 1.7,-3.7 4.4,-3.7 1.3,0 2.4,0.3 3.1,0.7 l -0.6,2.1 c -0.5,-0.3 -1.4,-0.7 -2.5,-0.7 -1.1,0 -1.6,0.5 -1.6,1.2 0,0.7 0.6,1.1 2,1.6 2.1,0.8 3.1,1.8 3.1,3.6 0,2.1 -1.7,3.6 -4.8,3.6 -1.4,0 -2.7,-0.3 -3.6,-0.8 l 0.7,-2 z" style="fill:#454746"/></g><g id="g3345" transform="translate(-61,-54.5)"><path id="path3347" d="M 107.2,350.9 H 91 v -3.4 l 6.9,-4.2 c 1.8,-1.1 3.7,-2 5.4,-2.8 v 0 c -2.2,0.2 -4.2,0.3 -6.7,0.3 H 91 v -2.7 h 16.2 v 3 l -7.1,4.2 c -1.8,1 -3.8,2.1 -5.6,2.9 l 0,0.1 c 2.1,-0.1 4.2,-0.1 6.9,-0.1 h 5.8 v 2.7 z" style="fill:#454746"/><path id="path3349" d="m 102.2,332.8 c 2.1,-0.1 3,-1.7 3,-3.6 0,-1.4 -0.2,-2.4 -0.5,-3.2 l 2,-0.4 c 0.4,1 0.7,2.4 0.7,4.1 0,3.8 -2.3,6 -5.9,6 -3.2,0 -6.3,-2 -6.3,-5.7 0,-3.8 3.1,-5 5.7,-5 0.6,0 1,0 1.2,0.1 v 7.7 z m -2.1,-5.2 c -1.1,0 -2.9,0.5 -2.9,2.4 0,1.8 1.7,2.6 2.9,2.7 v -5.1 z" style="fill:#454746"/><path id="path3351" d="m 95.5,320.8 5.3,-1.2 c 1.2,-0.3 2.5,-0.5 3.8,-0.7 v 0 c -1.3,-0.2 -2.6,-0.6 -3.8,-1 l -5.3,-1.5 V 314 l 5.2,-1.5 c 1.4,-0.4 2.6,-0.7 3.9,-0.9 v 0 c -1.3,-0.2 -2.5,-0.5 -3.9,-0.8 l -5.2,-1.3 v -2.9 l 11.7,3.7 v 2.7 l -4.8,1.4 c -1.2,0.4 -2.3,0.6 -3.7,0.9 v 0 c 1.4,0.2 2.6,0.6 3.7,0.9 l 4.8,1.5 v 2.8 L 95.5,324 v -3.2 z" style="fill:#454746"/><path id="path3353" d="m 104.5,299.7 c 0.4,-0.7 0.8,-1.9 0.8,-3 0,-1.3 -0.5,-1.9 -1.3,-1.9 -0.8,0 -1.2,0.5 -1.7,1.9 -0.8,2.3 -2,3.2 -3.4,3.2 -2.1,0 -3.7,-1.7 -3.7,-4.4 0,-1.3 0.3,-2.4 0.7,-3.1 L 98,293 c -0.3,0.5 -0.7,1.4 -0.7,2.5 0,1.1 0.5,1.6 1.2,1.6 0.7,0 1.1,-0.6 1.6,-2 0.8,-2.1 1.8,-3.1 3.6,-3.1 2.1,0 3.6,1.7 3.6,4.8 0,1.4 -0.3,2.7 -0.8,3.6 l -2,-0.7 z" style="fill:#454746"/><path id="path3355" d="m 106.8,281 c 0.3,0.6 0.6,1.8 0.6,3.3 0,3.6 -2.3,6 -6,6 -3.5,0 -6.2,-2.4 -6.2,-6.5 0,-1.1 0.2,-2.2 0.6,-2.9 l 2.2,0.5 c -0.2,0.5 -0.5,1.2 -0.5,2.2 0,2.3 1.7,3.6 3.8,3.6 2.4,0 3.8,-1.6 3.8,-3.6 0,-1 -0.2,-1.8 -0.5,-2.3 l 2.2,-0.3 z" style="fill:#454746"/><path id="path3357" d="m 101.2,267.9 c 4.3,0 6.2,3 6.2,6 0,3.3 -2.3,5.9 -6,5.9 -3.8,0 -6.2,-2.5 -6.2,-6 0,-3.6 2.5,-5.9 6,-5.9 z m 0.2,8.8 c 2.3,0 4,-1.1 4,-2.9 0,-1.7 -1.7,-2.9 -4,-2.9 -1.8,0 -3.9,0.8 -3.9,2.8 -0.1,2.2 1.9,3 3.9,3 z" style="fill:#454746"/><path id="path3359" d="m 99.3,265.5 c -1.6,0 -2.7,0 -3.8,0.1 V 263 l 2.2,-0.1 v -0.1 c -1.7,-0.6 -2.5,-1.9 -2.5,-3.2 0,-0.3 0,-0.5 0.1,-0.7 h 2.8 c 0,0.2 -0.1,0.5 -0.1,0.9 0,1.4 0.9,2.4 2.2,2.6 0.3,0 0.6,0.1 0.9,0.1 h 6 v 3 h -7.8 z" style="fill:#454746"/><path id="path3361" d="m 102.2,255.1 c 2.1,-0.1 3,-1.7 3,-3.6 0,-1.4 -0.2,-2.4 -0.5,-3.2 l 2,-0.4 c 0.4,1 0.7,2.4 0.7,4.1 0,3.8 -2.3,6 -5.9,6 -3.2,0 -6.3,-2 -6.3,-5.7 0,-3.8 3.1,-5 5.7,-5 0.6,0 1,0 1.2,0.1 v 7.7 z m -2.1,-5.2 c -1.1,0 -2.9,0.5 -2.9,2.4 0,1.8 1.7,2.6 2.9,2.7 v -5.1 z" style="fill:#454746"/></g><line id="line3363" x1="73" x2="73" y1="55" y2="435" stroke-miterlimit="10" style="fill:none;stroke:#454746;stroke-miterlimit:10"/><line id="line3365" x1="73" x2="723" y1="435" y2="435" stroke-miterlimit="10" style="fill:none;stroke:#454746;stroke-miterlimit:10"/><g id="g3367" transform="translate(-61,-54.5)"><g id="g3369"><path id="path3371" d="m 145.9,418.5 v -1.2 l 1.2,-1.1 c 2.4,-2.3 3.6,-3.5 3.6,-4.9 0,-0.9 -0.5,-1.7 -1.9,-1.7 -0.9,0 -1.7,0.5 -2.2,0.9 l -0.6,-1.4 c 0.8,-0.6 1.9,-1.1 3.2,-1.1 2.3,0 3.4,1.5 3.4,3.2 0,1.8 -1.3,3.3 -3.1,5 l -0.9,0.8 v 0 h 4.3 v 1.6 h -7 z" style="fill:#454746"/></g><g id="g3373"><path id="path3375" d="m 150.2,342.5 v -2.6 h -4.7 v -1.3 l 4.2,-6.5 h 2.3 v 6.3 h 1.3 v 1.5 H 152 v 2.6 h -1.8 z m 0,-4.1 v -2.8 c 0,-0.6 0,-1.2 0.1,-1.8 h -0.1 c -0.3,0.7 -0.6,1.2 -0.9,1.8 l -1.9,2.8 0,0 h 2.8 z" style="fill:#454746"/></g><g id="g3377"><path id="path3379" d="m 152.2,257.5 c -0.3,0 -0.6,0 -1,0 -2.2,0.3 -3.2,1.6 -3.5,3 h 0 c 0.5,-0.6 1.3,-1 2.3,-1 1.8,0 3.2,1.3 3.2,3.4 0,2 -1.5,3.7 -3.7,3.7 -2.5,0 -3.9,-1.9 -3.9,-4.5 0,-2 0.7,-3.6 1.8,-4.7 1,-0.9 2.2,-1.4 3.7,-1.5 0.4,0 0.8,0 1,0 l 0.1,1.6 z m -0.9,5.6 c 0,-1.2 -0.7,-2.1 -1.8,-2.1 -0.7,0 -1.4,0.4 -1.7,1.1 -0.1,0.2 -0.1,0.4 -0.1,0.6 0,1.4 0.7,2.5 2,2.5 1,0 1.6,-0.9 1.6,-2.1 z" style="fill:#454746"/></g><g id="g3381"><path id="path3383" d="m 145.8,187.8 c 0,-1.3 0.8,-2.2 2,-2.7 v 0 c -1.1,-0.5 -1.6,-1.4 -1.6,-2.3 0,-1.7 1.5,-2.8 3.5,-2.8 2.2,0 3.3,1.3 3.3,2.6 0,0.9 -0.5,1.8 -1.6,2.4 v 0 c 1.1,0.4 2,1.3 2,2.6 0,1.9 -1.6,3.1 -3.8,3.1 -2.6,0 -3.8,-1.4 -3.8,-2.9 z m 5.4,-0.1 c 0,-1.1 -0.8,-1.6 -1.9,-2 -1,0.3 -1.5,1 -1.5,1.8 0,0.9 0.6,1.7 1.7,1.7 1.1,0.1 1.7,-0.6 1.7,-1.5 z m -3.2,-5 c 0,0.8 0.7,1.4 1.7,1.6 0.7,-0.2 1.3,-0.8 1.3,-1.6 0,-0.7 -0.4,-1.5 -1.5,-1.5 -1,0.1 -1.5,0.7 -1.5,1.5 z" style="fill:#454746"/></g></g><g id="g3385" transform="translate(-61,-54.5)"><g id="g3387"><path id="path3389" d="m 198.5,470.9 0,0 -1.9,1 -0.3,-1.5 2.5,-1.2 h 1.6 v 10.4 h -1.9 v -8.7 z" style="fill:#454746"/></g><g id="g3391"><path id="path3393" d="m 260.4,479.5 v -1.2 l 1.2,-1.1 c 2.4,-2.3 3.6,-3.5 3.6,-4.9 0,-0.9 -0.5,-1.7 -1.9,-1.7 -0.9,0 -1.7,0.5 -2.2,0.9 l -0.6,-1.4 c 0.8,-0.6 1.9,-1.1 3.2,-1.1 2.3,0 3.4,1.5 3.4,3.2 0,1.8 -1.3,3.3 -3.1,5 l -0.9,0.8 v 0 h 4.3 v 1.6 h -7 z" style="fill:#454746"/></g><g id="g3395"><path id="path3397" d="m 325.8,477.5 c 0.4,0.2 1.4,0.6 2.4,0.6 1.5,0 2.1,-0.8 2.1,-1.7 0,-1.2 -1.2,-1.8 -2.4,-1.8 H 327 v -1.4 h 0.9 c 0.9,0 2.1,-0.4 2.1,-1.5 0,-0.7 -0.5,-1.3 -1.7,-1.3 -0.8,0 -1.7,0.4 -2.1,0.7 l -0.4,-1.4 c 0.6,-0.4 1.7,-0.8 3,-0.8 2.1,0 3.2,1.2 3.2,2.5 0,1.1 -0.6,2 -1.9,2.4 v 0 c 1.3,0.2 2.3,1.2 2.3,2.6 0,1.8 -1.5,3.2 -4,3.2 -1.3,0 -2.4,-0.4 -2.9,-0.7 l 0.3,-1.4 z" style="fill:#454746"/></g><g id="g3399"><path id="path3401" d="m 394.7,479.5 v -2.6 H 390 v -1.3 l 4.2,-6.5 h 2.3 v 6.3 h 1.3 v 1.5 h -1.3 v 2.6 h -1.8 z m 0,-4.1 v -2.8 c 0,-0.6 0,-1.2 0.1,-1.8 h -0.1 c -0.3,0.7 -0.6,1.2 -0.9,1.8 l -1.9,2.8 0,0 h 2.8 z" style="fill:#454746"/></g><g id="g3403"><path id="path3405" d="m 462,470.7 h -4 l -0.3,2.1 c 0.2,0 0.4,0 0.8,0 0.9,0 1.8,0.2 2.5,0.7 0.8,0.5 1.4,1.4 1.4,2.6 0,2 -1.6,3.6 -4.2,3.6 -1.2,0 -2.2,-0.3 -2.8,-0.6 l 0.4,-1.5 c 0.4,0.2 1.3,0.5 2.3,0.5 1.2,0 2.3,-0.7 2.3,-1.9 0,-1.2 -0.9,-2 -3,-2 -0.6,0 -1,0 -1.4,0.1 l 0.7,-5.2 h 5.4 v 1.6 z" style="fill:#454746"/></g><g id="g3407"><path id="path3409" d="m 526.7,470.5 c -0.3,0 -0.6,0 -1,0 -2.2,0.3 -3.2,1.6 -3.5,3 h 0 c 0.5,-0.6 1.3,-1 2.3,-1 1.8,0 3.2,1.3 3.2,3.4 0,2 -1.5,3.7 -3.7,3.7 -2.5,0 -3.9,-1.9 -3.9,-4.5 0,-2 0.7,-3.6 1.8,-4.7 1,-0.9 2.2,-1.4 3.7,-1.5 0.4,0 0.8,0 1,0 l 0.1,1.6 z m -0.9,5.6 c 0,-1.2 -0.7,-2.1 -1.8,-2.1 -0.7,0 -1.4,0.4 -1.7,1.1 -0.1,0.2 -0.1,0.4 -0.1,0.6 0,1.4 0.7,2.5 2,2.5 1,0 1.6,-0.9 1.6,-2.1 z" style="fill:#454746"/></g><g id="g3411"><path id="path3413" d="m 592.6,469.1 v 1.3 l -4.4,9.1 h -2.1 l 4.4,-8.7 v 0 h -4.9 v -1.6 h 7 z" style="fill:#454746"/></g><g id="g3415"><path id="path3417" d="m 650.3,476.8 c 0,-1.3 0.8,-2.2 2,-2.7 v 0 c -1.1,-0.5 -1.6,-1.4 -1.6,-2.3 0,-1.7 1.5,-2.8 3.5,-2.8 2.2,0 3.3,1.3 3.3,2.6 0,0.9 -0.5,1.8 -1.6,2.4 v 0 c 1.1,0.4 2,1.3 2,2.6 0,1.9 -1.6,3.1 -3.8,3.1 -2.6,0 -3.8,-1.4 -3.8,-2.9 z m 5.4,-0.1 c 0,-1.1 -0.8,-1.6 -1.9,-2 -1,0.3 -1.5,1 -1.5,1.8 0,0.9 0.6,1.7 1.7,1.7 1.1,0.1 1.7,-0.6 1.7,-1.5 z m -3.2,-5 c 0,0.8 0.7,1.4 1.7,1.6 0.7,-0.2 1.3,-0.8 1.3,-1.6 0,-0.7 -0.4,-1.5 -1.5,-1.5 -1,0.1 -1.5,0.7 -1.5,1.5 z" style="fill:#454746"/></g><g id="g3419"><path id="path3421" d="m 716.2,478.1 c 0.3,0 0.6,0 1.1,0 0.8,-0.1 1.5,-0.3 2.1,-0.8 0.7,-0.5 1.1,-1.3 1.3,-2.3 l 0,0 c -0.5,0.6 -1.3,0.9 -2.3,0.9 -1.8,0 -3.2,-1.3 -3.2,-3.2 0,-2 1.5,-3.7 3.8,-3.7 2.4,0 3.7,1.9 3.7,4.4 0,2.2 -0.7,3.8 -1.8,4.8 -0.9,0.8 -2.2,1.3 -3.6,1.4 -0.4,0 -0.9,0 -1.2,0 v -1.5 z m 1,-5.6 c 0,1.1 0.6,1.9 1.7,1.9 0.8,0 1.4,-0.4 1.7,-0.9 0.1,-0.1 0.1,-0.3 0.1,-0.6 0,-1.4 -0.5,-2.6 -1.8,-2.6 -1,0.1 -1.7,1 -1.7,2.2 z" style="fill:#454746"/></g></g><line id="line3423" x1="79.5" x2="73" y1="131" y2="131" stroke-miterlimit="10" style="fill:none;stroke:#454746;stroke-miterlimit:10"/><line id="line3425" x1="79.5" x2="73" y1="55.3" y2="55.3" stroke-miterlimit="10" style="fill:none;stroke:#454746;stroke-miterlimit:10"/><line id="line3427" x1="79.5" x2="73" y1="207" y2="207" stroke-miterlimit="10" style="fill:none;stroke:#454746;stroke-miterlimit:10"/><line id="line3429" x1="79.5" x2="73" y1="283" y2="283" stroke-miterlimit="10" style="fill:none;stroke:#454746;stroke-miterlimit:10"/><line id="line3431" x1="79.5" x2="73" y1="359" y2="359" stroke-miterlimit="10" style="fill:none;stroke:#454746;stroke-miterlimit:10"/><line id="line3433" x1="138" x2="138" y1="428.5" y2="435" stroke-miterlimit="10" style="fill:none;stroke:#454746;stroke-miterlimit:10"/><line id="line3435" x1="203" x2="203" y1="428.5" y2="435" stroke-miterlimit="10" style="fill:none;stroke:#454746;stroke-miterlimit:10"/><line id="line3437" x1="268" x2="268" y1="428.5" y2="435" stroke-miterlimit="10" style="fill:none;stroke:#454746;stroke-miterlimit:10"/><line id="line3439" x1="333" x2="333" y1="428.5" y2="435" stroke-miterlimit="10" style="fill:none;stroke:#454746;stroke-miterlimit:10"/><line id="line3441" x1="398" x2="398" y1="428.5" y2="435" stroke-miterlimit="10" style="fill:none;stroke:#454746;stroke-miterlimit:10"/><line id="line3443" x1="463" x2="463" y1="428.5" y2="435" stroke-miterlimit="10" style="fill:none;stroke:#454746;stroke-miterlimit:10"/><line id="line3445" x1="528" x2="528" y1="428.5" y2="435" stroke-miterlimit="10" style="fill:none;stroke:#454746;stroke-miterlimit:10"/><line id="line3447" x1="593" x2="593" y1="428.5" y2="435" stroke-miterlimit="10" style="fill:none;stroke:#454746;stroke-miterlimit:10"/><line id="line3449" x1="658" x2="658" y1="428.5" y2="435" stroke-miterlimit="10" style="fill:none;stroke:#454746;stroke-miterlimit:10"/><line id="line3451" x1="723" x2="723" y1="428.5" y2="435" stroke-miterlimit="10" style="fill:none;stroke:#454746;stroke-miterlimit:10"/><path id="path3453" stroke-miterlimit="10" d="M 73,435 C 97,380.5 723,355 723,355" style="fill:none;stroke:#75b640;stroke-width:4;stroke-linecap:round;stroke-miterlimit:10"/></svg>