<svg xmlns="http://www.w3.org/2000/svg" xmlns:svg="http://www.w3.org/2000/svg" id="graphs" width="100%" height="100%" x="0" y="0" enable-background="new 0 0 900 600" version="1.1" viewBox="0 0 650.3 457" xml:space="preserve"><metadata id="metadata3343"/><path id="path3119" d="m 597.3,362 h -504 c -1.6,0 -3,-1.4 -3,-3 V 55 c 0,-1.7 1.4,-3 3,-3 h 504 c 1.7,0 3,1.3 3,3 v 304 c 0,1.7 -1.3,3 -3,3 z" style="fill:#f8faf6"/><g id="g3121" transform="translate(-107.2,-63.5)"><line id="line3123" x1="202.5" x2="202.5" y1="120.5" y2="420.5" stroke-miterlimit="10" style="fill:none;stroke:#d6d6d6;stroke-miterlimit:10"/><line id="line3125" x1="302.5" x2="302.5" y1="120.5" y2="420.5" stroke-miterlimit="10" style="fill:none;stroke:#d6d6d6;stroke-miterlimit:10"/><line id="line3127" x1="402.5" x2="402.5" y1="120.5" y2="420.5" stroke-miterlimit="10" style="fill:none;stroke:#d6d6d6;stroke-miterlimit:10"/><line id="line3129" x1="502.5" x2="502.5" y1="120.5" y2="420.5" stroke-miterlimit="10" style="fill:none;stroke:#d6d6d6;stroke-miterlimit:10"/><line id="line3131" x1="602.5" x2="602.5" y1="120.5" y2="420.5" stroke-miterlimit="10" style="fill:none;stroke:#d6d6d6;stroke-miterlimit:10"/><line id="line3133" x1="702.5" x2="702.5" y1="120.5" y2="420.5" stroke-miterlimit="10" style="fill:none;stroke:#d6d6d6;stroke-miterlimit:10"/><line id="line3135" x1="202.5" x2="702.5" y1="120.5" y2="120.5" stroke-miterlimit="10" style="fill:none;stroke:#d6d6d6;stroke-miterlimit:10"/><line id="line3137" x1="202.5" x2="702.5" y1="220.5" y2="220.5" stroke-miterlimit="10" style="fill:none;stroke:#d6d6d6;stroke-miterlimit:10"/><line id="line3139" x1="202.5" x2="702.5" y1="320.5" y2="320.5" stroke-miterlimit="10" style="fill:none;stroke:#d6d6d6;stroke-miterlimit:10"/></g><line id="line3141" x1="95.3" x2="595.3" y1="357" y2="357" stroke-miterlimit="10" style="fill:none;stroke:#c6c6c6;stroke-miterlimit:10"/><g id="g3143" transform="translate(-107.2,-63.5)"><path id="path3145" d="m 206.7,438.6 c 0,3.8 -1.5,6.1 -4.3,6.1 -2.7,0 -4.1,-2.4 -4.2,-6 0,-3.6 1.5,-6.1 4.3,-6.1 2.9,0 4.2,2.5 4.2,6 z m -6.1,0.1 c 0,2.8 0.8,4.3 2,4.3 1.3,0 2,-1.6 2,-4.4 0,-2.7 -0.6,-4.3 -2,-4.3 -1.2,0 -2.1,1.5 -2,4.4 z" style="fill:#454746"/></g><g id="g3147" transform="translate(-107.2,-63.5)"><path id="path3149" d="m 302,434.8 0,0 -2.2,1.1 -0.4,-1.7 2.8,-1.4 h 1.9 v 11.7 H 302 v -9.7 z" style="fill:#454746"/></g><g id="g3151" transform="translate(-107.2,-63.5)"><path id="path3153" d="m 398.5,444.5 v -1.4 l 1.4,-1.3 c 2.8,-2.6 4.1,-4 4.1,-5.5 0,-1 -0.6,-2 -2.1,-2 -1,0 -1.9,0.5 -2.5,1 l -0.6,-1.6 c 0.8,-0.7 2.1,-1.2 3.6,-1.2 2.6,0 3.9,1.6 3.9,3.5 0,2.1 -1.5,3.7 -3.5,5.6 l -1,0.9 v 0 h 4.8 v 1.8 h -8.1 z" style="fill:#454746"/></g><g id="g3155" transform="translate(-107.2,-63.5)"><path id="path3157" d="m 498.9,442.2 c 0.5,0.3 1.5,0.7 2.7,0.7 1.7,0 2.4,-1 2.4,-1.9 0,-1.4 -1.3,-2 -2.6,-2 h -1 v -1.6 h 1 c 1,0 2.3,-0.5 2.3,-1.6 0,-0.8 -0.6,-1.5 -1.9,-1.5 -1,0 -1.9,0.4 -2.4,0.7 l -0.5,-1.6 c 0.7,-0.5 2,-0.9 3.4,-0.9 2.4,0 3.7,1.3 3.7,2.9 0,1.2 -0.7,2.2 -2.2,2.7 v 0 c 1.4,0.3 2.6,1.3 2.6,2.9 0,2 -1.7,3.5 -4.6,3.5 -1.4,0 -2.6,-0.4 -3.3,-0.8 l 0.4,-1.5 z" style="fill:#454746"/></g><g id="g3159" transform="translate(-107.2,-63.5)"><path id="path3161" d="m 603.4,444.5 v -3 h -5.3 v -1.4 l 4.8,-7.3 h 2.6 v 7.1 h 1.5 v 1.7 h -1.5 v 3 h -2.1 z m 0,-4.6 v -3.2 c 0,-0.7 0,-1.4 0.1,-2 h -0.1 c -0.4,0.7 -0.7,1.3 -1,2 l -2.1,3.2 0,0 h 3.1 z" style="fill:#454746"/></g><g id="g3163" transform="translate(-107.2,-63.5)"><path id="path3165" d="m 705.9,434.6 h -4.5 l -0.3,2.3 c 0.3,0 0.5,-0.1 0.8,-0.1 1,0 2.1,0.2 2.8,0.8 0.9,0.6 1.5,1.5 1.5,3 0,2.2 -1.9,4.1 -4.7,4.1 -1.4,0 -2.5,-0.3 -3.1,-0.7 l 0.5,-1.7 c 0.5,0.3 1.5,0.6 2.6,0.6 1.3,0 2.5,-0.7 2.5,-2.1 0,-1.3 -1,-2.2 -3.3,-2.2 -0.6,0 -1.1,0 -1.6,0.1 l 0.8,-5.9 h 6 v 1.8 z" style="fill:#454746"/></g><g id="g3167" transform="translate(-107.2,-63.5)"><path id="path3169" d="m 181.9,123.2 c 0.5,0.3 1.5,0.7 2.7,0.7 1.7,0 2.4,-1 2.4,-1.9 0,-1.4 -1.3,-2 -2.6,-2 h -1 v -1.6 h 1 c 1,0 2.3,-0.5 2.3,-1.6 0,-0.8 -0.6,-1.5 -1.9,-1.5 -1,0 -1.9,0.4 -2.4,0.7 l -0.5,-1.6 c 0.7,-0.5 2,-0.9 3.4,-0.9 2.4,0 3.7,1.3 3.7,2.9 0,1.2 -0.7,2.2 -2.2,2.7 v 0 c 1.4,0.3 2.6,1.3 2.6,2.9 0,2 -1.7,3.5 -4.6,3.5 -1.4,0 -2.6,-0.4 -3.3,-0.8 l 0.4,-1.5 z" style="fill:#454746"/></g><g id="g3171" transform="translate(-107.2,-63.5)"><path id="path3173" d="m 181.5,225.5 v -1.4 l 1.4,-1.3 c 2.8,-2.6 4.1,-4 4.1,-5.5 0,-1 -0.6,-2 -2.1,-2 -1,0 -1.9,0.5 -2.5,1 l -0.6,-1.6 c 0.8,-0.7 2.1,-1.2 3.6,-1.2 2.6,0 3.9,1.6 3.9,3.5 0,2.1 -1.5,3.7 -3.5,5.6 l -1,0.9 v 0 h 4.8 v 1.8 h -8.1 z" style="fill:#454746"/></g><g id="g3175" transform="translate(-107.2,-63.5)"><path id="path3177" d="m 185,315.8 0,0 -2.2,1.1 -0.4,-1.7 2.8,-1.4 h 1.9 v 11.7 H 185 v -9.7 z" style="fill:#454746"/></g><g id="g3179" transform="translate(-107.2,-63.5)"><path id="path3181" d="m 189.7,419.6 c 0,3.8 -1.5,6.1 -4.3,6.1 -2.7,0 -4.1,-2.4 -4.2,-6 0,-3.6 1.5,-6.1 4.3,-6.1 2.9,0 4.2,2.5 4.2,6 z m -6.1,0.1 c 0,2.8 0.8,4.3 2,4.3 1.3,0 2,-1.6 2,-4.4 0,-2.7 -0.6,-4.3 -2,-4.3 -1.2,0 -2.1,1.5 -2,4.4 z" style="fill:#454746"/></g><g id="g3183" transform="translate(-107.2,-63.5)"><path id="path3185" d="m 367.6,475.7 c 0.6,-2.2 1.7,-4.7 2.6,-6.1 l 1.8,-0.2 c -0.6,1.8 -1.2,4.2 -1.6,6.1 l -2.8,0.2 z m 4.2,0 c 0.6,-2.2 1.7,-4.7 2.6,-6.1 l 1.8,-0.2 c -0.6,1.8 -1.3,4.2 -1.6,6.1 l -2.8,0.2 z" style="fill:#454746"/><path id="path3187" d="m 378.4,468.8 h 3 v 7 h 0 c 0.4,-0.6 0.8,-1 1.5,-1.3 0.6,-0.3 1.3,-0.5 2,-0.5 2,0 4.1,1.3 4.1,5.1 v 6.9 h -3 v -6.6 c 0,-1.7 -0.6,-3 -2.3,-3 -1.2,0 -2,0.8 -2.3,1.7 -0.1,0.2 -0.1,0.6 -0.1,0.9 v 7 h -3 v -17.2 z" style="fill:#454746"/><path id="path3189" d="m 395.3,470.9 c 0,0.9 -0.6,1.6 -1.7,1.6 -1,0 -1.6,-0.7 -1.6,-1.6 0,-0.9 0.7,-1.6 1.7,-1.6 0.9,0 1.6,0.7 1.6,1.6 z m -3.2,14.9 v -11.7 h 3 v 11.7 h -3 z" style="fill:#454746"/><path id="path3191" d="m 398.3,478 c 0,-1.5 0,-2.8 -0.1,-3.9 h 2.6 l 0.1,1.8 h 0 c 0.9,-1.3 2.2,-2.1 4,-2.1 2.7,0 4.9,2.3 4.9,6 0,4.2 -2.7,6.3 -5.3,6.3 -1.5,0 -2.7,-0.6 -3.3,-1.6 h 0 v 6 h -3 V 478 z m 2.9,2.9 c 0,0.3 0,0.6 0.1,0.8 0.3,1.2 1.3,2.1 2.6,2.1 1.9,0 3,-1.6 3,-3.9 0,-2.1 -1,-3.7 -2.9,-3.7 -1.2,0 -2.4,0.9 -2.6,2.2 -0.1,0.2 -0.1,0.5 -0.1,0.7 v 1.8 z" style="fill:#454746"/><path id="path3193" d="m 412.3,478 c 0,-1.5 0,-2.8 -0.1,-3.9 h 2.6 l 0.1,1.8 h 0 c 0.9,-1.3 2.2,-2.1 4,-2.1 2.7,0 4.9,2.3 4.9,6 0,4.2 -2.7,6.3 -5.3,6.3 -1.5,0 -2.7,-0.6 -3.3,-1.6 h 0 v 6 h -3 V 478 z m 3,2.9 c 0,0.3 0,0.6 0.1,0.8 0.3,1.2 1.3,2.1 2.6,2.1 1.9,0 3,-1.6 3,-3.9 0,-2.1 -1,-3.7 -2.9,-3.7 -1.2,0 -2.4,0.9 -2.6,2.2 -0.1,0.2 -0.1,0.5 -0.1,0.7 v 1.8 z" style="fill:#454746"/><path id="path3195" d="m 437.5,479.9 c 0,4.3 -3,6.2 -6,6.2 -3.3,0 -5.9,-2.3 -5.9,-6 0,-3.8 2.5,-6.2 6,-6.2 3.5,0 5.9,2.4 5.9,6 z m -8.8,0.1 c 0,2.3 1.1,4 2.9,4 1.7,0 2.9,-1.7 2.9,-4 0,-1.8 -0.8,-3.9 -2.8,-3.9 -2.2,-0.1 -3,2 -3,3.9 z" style="fill:#454746"/><path id="path3197" d="m 439.9,478 c 0,-1.5 0,-2.8 -0.1,-3.9 h 2.6 l 0.1,1.8 h 0 c 0.9,-1.3 2.2,-2.1 4,-2.1 2.7,0 4.9,2.3 4.9,6 0,4.2 -2.7,6.3 -5.3,6.3 -1.5,0 -2.7,-0.6 -3.3,-1.6 h 0 v 6 h -3 V 478 z m 3,2.9 c 0,0.3 0,0.6 0.1,0.8 0.3,1.2 1.3,2.1 2.6,2.1 1.9,0 3,-1.6 3,-3.9 0,-2.1 -1,-3.7 -2.9,-3.7 -1.2,0 -2.4,0.9 -2.6,2.2 -0.1,0.2 -0.1,0.5 -0.1,0.7 v 1.8 z" style="fill:#454746"/><path id="path3199" d="m 465.1,479.9 c 0,4.3 -3,6.2 -6,6.2 -3.3,0 -5.9,-2.3 -5.9,-6 0,-3.8 2.5,-6.2 6,-6.2 3.5,0 5.9,2.4 5.9,6 z m -8.9,0.1 c 0,2.3 1.1,4 2.9,4 1.7,0 2.9,-1.7 2.9,-4 0,-1.8 -0.8,-3.9 -2.8,-3.9 -2.1,-0.1 -3,2 -3,3.9 z" style="fill:#454746"/><path id="path3201" d="m 470.9,470.8 v 3.3 h 2.8 v 2.2 h -2.8 v 5.2 c 0,1.4 0.4,2.2 1.5,2.2 0.5,0 0.9,-0.1 1.2,-0.1 l 0,2.3 c -0.4,0.2 -1.2,0.3 -2.1,0.3 -1.1,0 -2,-0.4 -2.5,-1 -0.6,-0.7 -0.9,-1.7 -0.9,-3.3 v -5.5 h -1.7 v -2.2 h 1.7 v -2.6 l 2.8,-0.8 z" style="fill:#454746"/><path id="path3203" d="m 482.5,485.8 -0.2,-1.3 h -0.1 c -0.7,0.9 -1.9,1.6 -3.5,1.6 -2.4,0 -3.7,-1.7 -3.7,-3.5 0,-3 2.6,-4.4 6.9,-4.4 V 478 c 0,-0.8 -0.3,-2 -2.4,-2 -1.2,0 -2.4,0.4 -3.1,0.9 l -0.6,-1.9 c 0.9,-0.5 2.4,-1 4.2,-1 3.7,0 4.8,2.4 4.8,4.9 v 4.2 c 0,1.1 0,2.1 0.2,2.8 h -2.5 z m -0.4,-5.7 c -2.1,0 -4.1,0.4 -4.1,2.2 0,1.2 0.7,1.7 1.7,1.7 1.2,0 2,-0.8 2.3,-1.6 0.1,-0.2 0.1,-0.5 0.1,-0.6 v -1.7 z" style="fill:#454746"/><path id="path3205" d="m 488.1,477.6 c 0,-1.3 0,-2.5 -0.1,-3.5 h 2.5 l 0.1,1.7 h 0.1 c 0.6,-0.9 1.6,-2 3.6,-2 1.5,0 2.7,0.9 3.2,2.2 h 0 c 0.4,-0.6 0.9,-1.1 1.4,-1.5 0.6,-0.5 1.4,-0.7 2.4,-0.7 1.9,0 3.9,1.3 3.9,5.1 v 6.9 h -2.9 v -6.5 c 0,-1.9 -0.7,-3.1 -2.1,-3.1 -1,0 -1.8,0.7 -2.1,1.6 -0.1,0.3 -0.1,0.6 -0.1,1 v 7 h -2.9 V 479 c 0,-1.6 -0.6,-2.8 -2,-2.8 -1.1,0 -1.8,0.9 -2.1,1.7 -0.1,0.3 -0.2,0.6 -0.2,1 v 6.9 h -2.9 v -8.2 z" style="fill:#454746"/><path id="path3207" d="m 518.9,482.3 c 0,1.4 0,2.5 0.1,3.5 h -2.6 l -0.1,-1.8 h 0 c -0.5,0.8 -1.7,2 -3.7,2 -2.1,0 -4.1,-1.3 -4.1,-5.1 V 474 h 3 v 6.4 c 0,1.9 0.6,3.2 2.2,3.2 1.2,0 1.9,-0.8 2.3,-1.6 0.1,-0.3 0.2,-0.6 0.2,-0.9 V 474 h 3 v 8.3 z" style="fill:#454746"/><path id="path3209" d="m 522,483.1 c 0.7,0.4 1.9,0.8 3,0.8 1.3,0 1.9,-0.5 1.9,-1.3 0,-0.8 -0.5,-1.2 -1.9,-1.7 -2.3,-0.8 -3.2,-2 -3.2,-3.4 0,-2.1 1.7,-3.7 4.4,-3.7 1.3,0 2.4,0.3 3.1,0.7 l -0.6,2.1 c -0.5,-0.3 -1.4,-0.7 -2.5,-0.7 -1.1,0 -1.6,0.5 -1.6,1.2 0,0.7 0.6,1.1 2,1.6 2.1,0.8 3.1,1.8 3.1,3.6 0,2.1 -1.7,3.6 -4.8,3.6 -1.4,0 -2.7,-0.3 -3.6,-0.8 l 0.7,-2 z" style="fill:#454746"/><path id="path3211" d="m 535.3,469.4 c -0.7,2.2 -1.7,4.7 -2.6,6.1 l -1.8,0.2 c 0.6,-1.8 1.2,-4.2 1.6,-6.1 l 2.8,-0.2 z m 4.2,0 c -0.6,2.2 -1.7,4.7 -2.6,6.1 l -1.8,0.2 c 0.6,-1.8 1.3,-4.2 1.6,-6.1 l 2.8,-0.2 z" style="fill:#454746"/></g><g id="g3213" transform="translate(-107.2,-63.5)"><path id="path3215" d="m 145.1,308.2 c -2.2,-0.6 -4.7,-1.7 -6.1,-2.6 l -0.2,-1.8 c 1.8,0.6 4.2,1.3 6.1,1.6 l 0.2,2.8 z m 0,4.2 c -2.2,-0.6 -4.7,-1.7 -6.1,-2.6 l -0.2,-1.8 c 1.8,0.6 4.2,1.2 6.1,1.6 l 0.2,2.8 z" style="fill:#454746"/><path id="path3217" d="m 137.2,301.7 v -3 h 7 v 0 c -0.6,-0.4 -1,-0.8 -1.3,-1.5 -0.3,-0.6 -0.5,-1.3 -0.5,-2 0,-2 1.3,-4.1 5.1,-4.1 h 6.9 v 3 h -6.6 c -1.7,0 -3,0.6 -3,2.3 0,1.2 0.8,2 1.7,2.3 0.2,0.1 0.6,0.1 0.9,0.1 h 7 v 3 h -17.2 z" style="fill:#454746"/><path id="path3219" d="m 154.2,281.4 -1.3,0.2 v 0.1 c 0.9,0.7 1.6,1.9 1.6,3.5 0,2.4 -1.7,3.7 -3.5,3.7 -3,0 -4.4,-2.6 -4.4,-6.9 h -0.2 c -0.8,0 -2,0.3 -2,2.4 0,1.2 0.4,2.4 0.9,3.1 l -1.9,0.6 c -0.5,-0.9 -1,-2.4 -1,-4.2 0,-3.7 2.4,-4.8 4.9,-4.8 h 4.2 c 1.1,0 2.1,0 2.8,-0.2 v 2.5 z m -5.7,0.4 c 0,2.1 0.4,4.1 2.2,4.1 1.2,0 1.7,-0.7 1.7,-1.7 0,-1.2 -0.8,-2 -1.6,-2.3 -0.2,-0.1 -0.5,-0.1 -0.6,-0.1 h -1.7 z" style="fill:#454746"/><path id="path3221" d="m 146.4,275.8 c -1.5,0 -2.8,0 -3.9,0.1 v -2.6 l 1.8,-0.1 v 0 c -1.3,-0.9 -2.1,-2.2 -2.1,-4 0,-2.7 2.3,-4.9 6,-4.9 4.2,0 6.3,2.7 6.3,5.3 0,1.5 -0.6,2.7 -1.6,3.3 v 0 h 6 v 3 h -12.5 z m 2.9,-3 c 0.3,0 0.6,0 0.8,-0.1 1.2,-0.3 2.1,-1.3 2.1,-2.6 0,-1.9 -1.6,-3 -3.9,-3 -2.1,0 -3.7,1 -3.7,2.9 0,1.2 0.9,2.4 2.2,2.6 0.2,0.1 0.5,0.1 0.7,0.1 h 1.8 z" style="fill:#454746"/><path id="path3223" d="m 146.4,261.7 c -1.5,0 -2.8,0 -3.9,0.1 v -2.6 l 1.8,-0.1 v 0 c -1.3,-0.9 -2.1,-2.2 -2.1,-4 0,-2.7 2.3,-4.9 6,-4.9 4.2,0 6.3,2.7 6.3,5.3 0,1.5 -0.6,2.7 -1.6,3.3 v 0 h 6 v 3 h -12.5 z m 2.9,-2.9 c 0.3,0 0.6,0 0.8,-0.1 1.2,-0.3 2.1,-1.3 2.1,-2.6 0,-1.9 -1.6,-3 -3.9,-3 -2.1,0 -3.7,1 -3.7,2.9 0,1.2 0.9,2.4 2.2,2.6 0.2,0.1 0.5,0.1 0.7,0.1 h 1.8 z" style="fill:#454746"/><path id="path3225" d="m 142.5,246.1 6.3,-2.1 c 0.7,-0.2 1.6,-0.5 2.3,-0.6 v -0.1 c -0.7,-0.2 -1.5,-0.4 -2.3,-0.6 l -6.2,-1.8 v -3.2 l 8,2.9 c 4.4,1.6 6.3,2.7 7.5,4.1 1,1.2 1.4,2.4 1.5,3.1 l -2.5,0.7 c -0.1,-0.5 -0.4,-1.1 -0.8,-1.7 -0.4,-0.6 -1.1,-1.2 -1.8,-1.6 -0.2,-0.1 -0.4,-0.2 -0.5,-0.2 -0.1,0 -0.3,0 -0.6,0.2 l -10.7,4.3 v -3.4 z" style="fill:#454746"/><path id="path3227" d="m 137.8,227.6 c 2.2,0.6 4.7,1.7 6.1,2.6 l 0.2,1.8 c -1.8,-0.6 -4.2,-1.3 -6.1,-1.6 l -0.2,-2.8 z m 0,4.2 c 2.2,0.7 4.7,1.7 6.1,2.6 l 0.2,1.8 c -1.8,-0.6 -4.2,-1.2 -6.1,-1.6 l -0.2,-2.8 z" style="fill:#454746"/></g><g id="g3229" transform="translate(-107.2,-63.5)"><path id="path3231" d="m 566.9,253.5 0,0 c -0.3,1.3 -1.1,2.5 -2.7,3.1 -2.4,1 -5.4,-0.3 -6.7,-3.7 -1.6,-4 0.2,-6.9 2.5,-7.8 1.5,-0.6 2.8,-0.4 3.8,0.4 l 0.1,0 -0.5,-1.5 2.7,-1.1 c 0.3,1 0.7,2 1.2,3.2 l 4.8,12.1 -2.7,1.1 -2.5,-5.8 z m -2,-4.8 c -0.1,-0.2 -0.2,-0.5 -0.3,-0.6 -0.7,-0.9 -1.9,-1.4 -3.1,-1 -1.8,0.7 -2.2,2.6 -1.3,4.6 0.8,2 2.3,3.1 4.1,2.4 1.1,-0.4 1.7,-1.5 1.6,-2.7 0,-0.3 -0.1,-0.6 -0.2,-0.9 l -0.8,-1.8 z" style="fill:#75b640"/><path id="path3233" d="m 581.6,245.6 c 0.5,1.3 1,2.3 1.4,3.2 l -2.4,1 -0.8,-1.6 0,0 c -0.2,1 -0.8,2.5 -2.7,3.3 -2,0.8 -4.3,0.3 -5.7,-3.2 l -2.5,-6.4 2.7,-1.1 2.4,5.9 c 0.7,1.8 1.8,2.7 3.2,2.2 1.1,-0.4 1.5,-1.5 1.5,-2.3 0,-0.3 -0.1,-0.6 -0.2,-0.9 l -2.6,-6.5 2.7,-1.1 3,7.5 z" style="fill:#75b640"/><path id="path3235" d="m 585.9,242.3 c 0.9,1.9 2.7,2.2 4.5,1.5 1.3,-0.5 2.1,-1.1 2.8,-1.7 l 1.2,1.7 c -0.8,0.8 -2,1.6 -3.5,2.2 -3.5,1.4 -6.5,0.1 -7.8,-3.2 -1.2,-3 -0.5,-6.6 3,-8 3.5,-1.4 5.8,1 6.8,3.4 0.2,0.5 0.3,0.9 0.4,1.2 l -7.4,2.9 z m 4,-3.9 c -0.4,-1 -1.5,-2.5 -3.3,-1.8 -1.7,0.7 -1.8,2.5 -1.5,3.7 l 4.8,-1.9 z" style="fill:#75b640"/><path id="path3237" d="m 594.4,235.7 c -0.6,-1.5 -1,-2.5 -1.5,-3.5 l 2.4,-1 0.9,2 0.1,0 c -0.1,-1.8 0.9,-3 2,-3.5 0.3,-0.1 0.4,-0.1 0.7,-0.2 l 1,2.6 c -0.2,0 -0.5,0.1 -0.8,0.2 -1.3,0.5 -1.9,1.7 -1.6,3.1 0.1,0.3 0.1,0.6 0.2,0.9 l 2.2,5.6 -2.7,1.1 -2.9,-7.3 z" style="fill:#75b640"/><path id="path3239" d="m 603.1,228.2 4.3,5 c 0.5,0.6 1,1.3 1.4,1.9 l 0.1,0 c -0.1,-0.7 -0.2,-1.6 -0.3,-2.4 l -0.6,-6.5 2.9,-1.2 0.2,8.5 c 0.1,4.7 -0.2,6.9 -1,8.5 -0.7,1.4 -1.7,2.2 -2.3,2.6 l -1.6,-2.1 c 0.4,-0.3 0.9,-0.8 1.3,-1.4 0.4,-0.5 0.7,-1.4 0.8,-2.3 0,-0.2 0,-0.4 0,-0.6 0,-0.1 -0.1,-0.3 -0.4,-0.5 l -7.9,-8.4 3.1,-1.1 z" style="fill:#75b640"/><path id="path3241" d="m 622.7,235.8 -7.1,-17.8 4.3,-1.7 0.6,1.6 -2.3,0.9 5.8,14.6 2.3,-0.9 0.6,1.6 -4.2,1.7 z" style="fill:#75b640"/><path id="path3243" d="m 627.7,230.9 -0.7,-1.7 1.1,-2.3 c 2.1,-4.5 3.1,-6.9 2.3,-8.8 -0.5,-1.3 -1.7,-2.2 -3.6,-1.4 -1.3,0.5 -2.1,1.6 -2.6,2.4 l -1.6,-1.6 c 0.7,-1.3 2,-2.5 3.9,-3.3 3.2,-1.3 5.6,0.1 6.5,2.5 1,2.5 0,5.3 -1.6,8.7 l -0.8,1.6 0,0 5.9,-2.4 0.9,2.3 -9.7,4 z" style="fill:#75b640"/><path id="path3245" d="m 640,229.2 c -0.1,-1.9 -0.4,-4.5 -0.9,-6.5 l 2.8,-1.4 c 0.2,2.3 0.2,5.2 -0.1,6.9 l -1.8,1 z" style="fill:#75b640"/><path id="path3247" d="m 649.2,208.2 -5.6,2.2 0.7,3.1 c 0.3,-0.2 0.6,-0.3 1,-0.5 1.3,-0.5 2.7,-0.7 3.9,-0.5 1.4,0.3 2.7,1.2 3.4,2.9 1.1,2.8 -0.3,5.9 -3.9,7.4 -1.7,0.7 -3.2,0.8 -4.2,0.7 l -0.3,-2.3 c 0.8,0.1 2.2,0 3.5,-0.5 1.6,-0.6 2.8,-2.2 2.1,-3.9 -0.7,-1.6 -2.3,-2.3 -5.2,-1.1 -0.8,0.3 -1.4,0.6 -1.9,0.9 l -2,-7.7 7.5,-3 1,2.3 z" style="fill:#75b640"/><path id="path3249" d="m 654.8,202.4 7.1,17.8 -4.3,1.7 -0.6,-1.6 2.3,-0.9 -5.8,-14.6 -2.3,0.9 -0.6,-1.6 4.2,-1.7 z" style="fill:#75b640"/></g><g id="g3251" transform="translate(-107.2,-63.5)"><path id="path3253" d="m 596,283.9 5.1,12.8 c 0.4,1.1 1,2.3 1.3,3 l -2.5,1 -0.8,-1.7 0,0 c -0.2,1.5 -1.2,2.7 -2.8,3.4 -2.6,1 -5.5,-0.4 -6.9,-3.7 -1.5,-3.6 -0.1,-6.7 2.5,-7.7 1.5,-0.6 2.8,-0.4 3.6,0.2 l 0,0 -2.5,-6.1 3,-1.2 z m 1.1,10.6 c -0.1,-0.2 -0.2,-0.5 -0.4,-0.7 -0.7,-1 -1.9,-1.5 -3.1,-1 -1.8,0.7 -2.1,2.7 -1.3,4.7 0.8,2 2.4,3 4.1,2.3 1.1,-0.4 1.8,-1.6 1.6,-2.9 0,-0.3 -0.1,-0.5 -0.2,-0.8 l -0.7,-1.6 z" style="fill:#3288d2"/><path id="path3255" d="m 613.4,288.9 c 1.6,4 -0.5,6.9 -3.3,8 -3.1,1.2 -6.3,0.1 -7.7,-3.4 -1.4,-3.6 0,-6.7 3.3,-8 3.3,-1.3 6.4,0.1 7.7,3.4 z m -8.2,3.4 c 0.8,2.1 2.5,3.3 4.2,2.6 1.6,-0.6 2,-2.6 1.2,-4.8 -0.7,-1.7 -2.2,-3.3 -4.1,-2.6 -1.9,0.8 -2,3 -1.3,4.8 z" style="fill:#3288d2"/><path id="path3257" d="m 625.7,290 c -0.5,0.5 -1.5,1.2 -2.9,1.8 -3.4,1.4 -6.5,0.1 -7.8,-3.3 -1.3,-3.3 -0.1,-6.7 3.7,-8.2 1,-0.4 2.1,-0.6 2.9,-0.5 l 0.3,2.2 c -0.5,0 -1.3,0 -2.2,0.4 -2.1,0.8 -2.7,2.9 -1.9,4.8 0.9,2.2 2.8,2.9 4.7,2.2 1,-0.4 1.5,-0.9 2,-1.3 l 1.2,1.9 z" style="fill:#3288d2"/><path id="path3259" d="m 626.8,286.7 c 0.7,0.1 2.3,0.1 3.7,-0.4 2.1,-0.8 2.5,-2.4 2,-3.5 -0.7,-1.7 -2.6,-1.8 -4.3,-1.1 l -1.3,0.5 -0.8,-2 1.2,-0.5 c 1.3,-0.5 2.6,-1.7 2.1,-3.2 -0.4,-1 -1.5,-1.5 -3,-0.9 -1.2,0.5 -2.2,1.5 -2.6,2.1 l -1.4,-1.7 c 0.6,-0.9 2,-2.1 3.7,-2.8 3,-1.2 5.2,-0.2 5.9,1.7 0.6,1.5 0.2,3.1 -1.3,4.5 l 0,0 c 1.9,-0.4 3.8,0.4 4.6,2.3 1,2.5 -0.3,5.2 -3.9,6.6 -1.8,0.7 -3.5,0.8 -4.5,0.6 l -0.1,-2.2 z" style="fill:#3288d2"/><path id="path3261" d="m 645.6,285.4 -7.1,-17.8 4.3,-1.7 0.6,1.6 -2.3,0.9 5.9,14.6 2.3,-0.9 0.6,1.6 -4.3,1.7 z" style="fill:#3288d2"/><path id="path3263" d="m 650.6,280.5 -0.7,-1.7 1.1,-2.3 c 2.1,-4.5 3.1,-6.9 2.3,-8.8 -0.5,-1.3 -1.7,-2.2 -3.6,-1.4 -1.3,0.5 -2.1,1.6 -2.6,2.4 l -1.6,-1.6 c 0.7,-1.3 2,-2.5 3.9,-3.3 3.2,-1.3 5.6,0.1 6.5,2.5 1,2.5 0,5.3 -1.6,8.7 l -0.8,1.6 0,0 5.9,-2.4 0.9,2.3 -9.7,4 z" style="fill:#3288d2"/><path id="path3265" d="m 662.9,278.7 c -0.1,-1.9 -0.4,-4.5 -0.9,-6.5 l 2.8,-1.4 c 0.2,2.3 0.2,5.2 -0.1,6.9 l -1.8,1 z" style="fill:#3288d2"/><path id="path3267" d="m 672.1,257.7 -5.6,2.2 0.7,3.1 c 0.3,-0.2 0.6,-0.3 1,-0.5 1.3,-0.5 2.7,-0.7 3.9,-0.5 1.4,0.3 2.7,1.2 3.4,2.9 1.1,2.8 -0.3,5.9 -3.9,7.4 -1.7,0.7 -3.2,0.8 -4.2,0.7 l -0.3,-2.3 c 0.8,0.1 2.2,0 3.5,-0.5 1.6,-0.6 2.8,-2.2 2.1,-3.9 -0.7,-1.6 -2.3,-2.3 -5.2,-1.1 -0.8,0.3 -1.4,0.6 -1.9,0.9 l -2,-7.7 7.5,-3 1,2.3 z" style="fill:#3288d2"/><path id="path3269" d="m 677.7,251.9 7.1,17.8 -4.3,1.7 -0.6,-1.6 2.3,-0.9 -5.8,-14.6 -2.3,0.9 -0.6,-1.6 4.2,-1.7 z" style="fill:#3288d2"/></g><line id="line3271" x1="95.3" x2="95.3" y1="157" y2="357" stroke-miterlimit="10" style="fill:none;stroke:#3288d2;stroke-width:4;stroke-linecap:round;stroke-miterlimit:10"/><line id="line3273" x1="595.3" x2="95.3" y1="357" y2="357" stroke-miterlimit="10" style="fill:none;stroke:#3288d2;stroke-width:4;stroke-linecap:round;stroke-miterlimit:10"/><line id="line3275" x1="95.3" x2="595.3" y1="357" y2="157" stroke-miterlimit="10" style="fill:#fff;stroke:#75b640;stroke-width:4;stroke-linecap:round;stroke-miterlimit:10"/><line id="line3277" x1="108.5" x2="595.3" y1="357" y2="162.3" stroke-miterlimit="10" style="fill:none;stroke:#3288d2;stroke-width:4;stroke-linecap:round;stroke-miterlimit:10"/><g id="g3279" transform="translate(-107.2,-63.5)"><g id="g3281"><path id="path3283" stroke-miterlimit="10" d="m 343,415 c 7,-11.7 4.1,-19.3 -3.2,-29.9" style="fill:none;stroke:#454746;stroke-width:1.60000002;stroke-linecap:round;stroke-miterlimit:10"/><g id="g3285"><path id="path3287" d="m 335.4,378.8 c 3.2,2.2 7.7,4.6 11.3,5.5 l -6.2,1.7 -3.7,5.3 c 0.3,-3.7 -0.4,-8.7 -1.4,-12.5 z" style="fill:#454746"/></g></g></g><g id="g3289" transform="translate(-107.2,-63.5)"><g id="g3291"><path id="path3293" stroke-miterlimit="10" d="m 208.5,377.3 c 13.5,-1.3 19.1,4.6 25.6,15.7" style="fill:none;stroke:#454746;stroke-width:1.60000002;stroke-linecap:round;stroke-miterlimit:10"/><g id="g3295"><path id="path3297" d="m 237.9,399.7 c -3,-2.5 -7.2,-5.3 -10.7,-6.5 l 6.4,-1.1 4.2,-4.9 c -0.8,3.6 -0.6,8.7 0.1,12.5 z" style="fill:#454746"/></g></g></g><g id="g3299" transform="translate(-107.2,-63.5)"><path id="path3301" d="m 601.9,390.5 v 13.8 c 0,1.2 0,2.5 0.1,3.3 h -2.6 l -0.1,-1.8 h 0 c -0.7,1.3 -2.1,2.1 -3.8,2.1 -2.8,0 -5,-2.4 -5,-6 0,-3.9 2.4,-6.2 5.2,-6.2 1.6,0 2.8,0.7 3.3,1.5 h 0 v -6.6 h 2.9 z m -3,10.2 c 0,-0.2 0,-0.5 -0.1,-0.8 -0.3,-1.2 -1.2,-2.1 -2.5,-2.1 -1.9,0 -3,1.7 -3,3.9 0,2.1 1.1,3.7 2.9,3.7 1.2,0 2.3,-0.8 2.5,-2.1 0.1,-0.3 0.1,-0.6 0.1,-0.9 v -1.7 z" style="fill:#3288d2"/><path id="path3303" d="m 616.2,401.5 c 0,4.3 -3,6.2 -6,6.2 -3.3,0 -5.9,-2.3 -5.9,-6 0,-3.8 2.5,-6.2 6,-6.2 3.5,0 5.9,2.5 5.9,6 z m -8.8,0.2 c 0,2.3 1.1,4 2.9,4 1.7,0 2.9,-1.7 2.9,-4 0,-1.8 -0.8,-3.9 -2.8,-3.9 -2.2,-0.1 -3,1.9 -3,3.9 z" style="fill:#3288d2"/><path id="path3305" d="m 627.2,407.1 c -0.6,0.3 -1.8,0.6 -3.3,0.6 -3.6,0 -6,-2.3 -6,-6 0,-3.5 2.4,-6.2 6.5,-6.2 1.1,0 2.2,0.2 2.9,0.6 l -0.5,2.2 c -0.5,-0.2 -1.2,-0.5 -2.2,-0.5 -2.3,0 -3.6,1.7 -3.6,3.8 0,2.4 1.6,3.8 3.6,3.8 1,0 1.8,-0.2 2.3,-0.5 l 0.3,2.2 z" style="fill:#3288d2"/><path id="path3307" d="m 628.8,407.5 v -1.8 l 1.8,-1.7 c 3.7,-3.4 5.4,-5.3 5.4,-7.3 0,-1.4 -0.7,-2.6 -2.8,-2.6 -1.4,0 -2.5,0.7 -3.3,1.3 l -0.9,-2.1 c 1.1,-0.9 2.8,-1.6 4.8,-1.6 3.5,0 5.1,2.2 5.1,4.7 0,2.7 -2,4.9 -4.7,7.5 L 633,405 v 0 h 6.4 v 2.4 h -10.6 z" style="fill:#3288d2"/><path id="path3309" d="m 647.4,410.2 v -19.1 h 4.7 v 1.7 h -2.5 v 15.7 h 2.5 v 1.7 h -4.7 z" style="fill:#3288d2"/><path id="path3311" d="m 664.9,399.6 c 0,5 -2,8.2 -5.7,8.2 -3.6,0 -5.5,-3.3 -5.5,-8 0,-4.8 2.1,-8.1 5.7,-8.1 3.7,-0.1 5.5,3.3 5.5,7.9 z m -8.3,0.1 c 0,3.8 1,5.8 2.7,5.8 1.7,0 2.6,-2.1 2.6,-5.9 0,-3.6 -0.9,-5.8 -2.6,-5.8 -1.6,0.1 -2.7,2 -2.7,5.9 z" style="fill:#3288d2"/><path id="path3313" d="m 665.9,410.4 c 0.6,-1.8 1.3,-4.3 1.6,-6.3 l 3.1,-0.2 c -0.7,2.3 -1.8,4.8 -2.7,6.4 l -2,0.1 z" style="fill:#3288d2"/><path id="path3315" d="m 682.3,394.3 h -6 l -0.5,3.1 c 0.4,0 0.7,-0.1 1.1,-0.1 1.4,0 2.7,0.3 3.8,1 1.2,0.7 2,2.1 2,4 0,3 -2.5,5.4 -6.3,5.4 -1.8,0 -3.3,-0.5 -4.1,-0.9 l 0.6,-2.2 c 0.7,0.4 2,0.8 3.4,0.8 1.7,0 3.4,-1 3.4,-2.9 0,-1.8 -1.3,-3 -4.4,-3 -0.9,0 -1.5,0 -2.1,0.1 l 1,-7.9 h 8.1 v 2.6 z" style="fill:#3288d2"/><path id="path3317" d="m 689.7,391 v 19.2 H 685 v -1.7 h 2.5 V 392.8 H 685 V 391 h 4.7 z" style="fill:#3288d2"/></g><g id="g3319" transform="translate(-107.2,-63.5)"><path id="path3321" d="m 217.8,322.1 h 13.8 c 1.2,0 2.5,0 3.3,-0.1 v 2.6 l -1.8,0.1 v 0 c 1.3,0.7 2.1,2.1 2.1,3.8 0,2.8 -2.4,5 -6,5 -3.9,0 -6.2,-2.4 -6.2,-5.2 0,-1.6 0.7,-2.8 1.5,-3.3 v 0 h -6.6 v -2.9 z m 10.3,3 c -0.2,0 -0.5,0 -0.8,0.1 -1.2,0.3 -2.1,1.2 -2.1,2.5 0,1.9 1.7,3 3.9,3 2.1,0 3.7,-1.1 3.7,-2.9 0,-1.2 -0.8,-2.3 -2.1,-2.5 -0.3,-0.1 -0.6,-0.1 -0.9,-0.1 h -1.7 z" style="fill:#3288d2"/><path id="path3323" d="m 228.9,307.9 c 4.3,0 6.2,3 6.2,6 0,3.3 -2.3,5.9 -6,5.9 -3.8,0 -6.2,-2.5 -6.2,-6 0,-3.6 2.5,-5.9 6,-5.9 z m 0.1,8.8 c 2.3,0 4,-1.1 4,-2.9 0,-1.7 -1.7,-2.9 -4,-2.9 -1.8,0 -3.9,0.8 -3.9,2.8 0,2.1 2,3 3.9,3 z" style="fill:#3288d2"/><path id="path3325" d="m 234.5,296.8 c 0.3,0.6 0.6,1.8 0.6,3.3 0,3.6 -2.3,6 -6,6 -3.5,0 -6.2,-2.4 -6.2,-6.5 0,-1.1 0.2,-2.2 0.6,-2.9 l 2.2,0.5 c -0.2,0.5 -0.5,1.2 -0.5,2.2 0,2.3 1.7,3.6 3.8,3.6 2.4,0 3.8,-1.6 3.8,-3.6 0,-1 -0.2,-1.8 -0.5,-2.3 l 2.2,-0.3 z" style="fill:#3288d2"/><path id="path3327" d="m 221.9,290.6 0,0 1.4,2.9 -2.2,0.5 -1.9,-3.8 v -2.5 h 15.6 v 2.9 h -12.9 z" style="fill:#3288d2"/><path id="path3329" d="M 237.6,276.6 H 218.5 V 272 h 1.7 v 2.5 h 15.7 V 272 h 1.7 v 4.6 z" style="fill:#3288d2"/><path id="path3331" d="m 234.9,270.2 h -1.8 l -1.7,-1.8 c -3.4,-3.7 -5.3,-5.4 -7.3,-5.4 -1.4,0 -2.6,0.7 -2.6,2.8 0,1.4 0.7,2.5 1.3,3.3 l -2.1,0.9 c -0.9,-1.1 -1.6,-2.8 -1.6,-4.8 0,-3.5 2.2,-5.1 4.7,-5.1 2.7,0 4.9,2 7.5,4.7 l 1.2,1.4 h 0 v -6.4 h 2.4 v 10.4 z" style="fill:#3288d2"/><path id="path3333" d="m 237.8,258.1 c -1.8,-0.6 -4.3,-1.3 -6.3,-1.6 l -0.2,-3.1 c 2.3,0.7 4.8,1.8 6.4,2.7 l 0.1,2 z" style="fill:#3288d2"/><path id="path3335" d="m 227,240.6 c 5,0 8.2,2 8.2,5.7 0,3.6 -3.3,5.5 -8,5.5 -4.8,0 -8.1,-2.1 -8.1,-5.7 -0.1,-3.7 3.3,-5.5 7.9,-5.5 z m 0.1,8.3 c 3.8,0 5.8,-1 5.8,-2.7 0,-1.7 -2.1,-2.6 -5.9,-2.6 -3.6,0 -5.8,0.9 -5.8,2.6 0.1,1.6 2,2.7 5.9,2.7 z" style="fill:#3288d2"/><path id="path3337" d="m 218.4,234.4 h 19.2 v 4.7 h -1.7 v -2.5 h -15.7 v 2.5 h -1.7 v -4.7 z" style="fill:#3288d2"/></g></svg>