<svg xmlns="http://www.w3.org/2000/svg" xmlns:svg="http://www.w3.org/2000/svg" id="graphs" width="100%" height="100%" x="0" y="0" enable-background="new 0 0 900 600" version="1.1" viewBox="0 0 779 508.7" xml:space="preserve"><metadata id="metadata3666"/><path id="path3346" d="M 726,440.3 H 72 c -1.7,0 -3,-1.4 -3,-3 V 53 c 0,-1.7 1.3,-3 3,-3 h 654 c 1.7,0 3,1.3 3,3 v 384.3 c 0,1.7 -1.3,3 -3,3 z" style="fill:#f8faf6"/><g id="g3348" transform="translate(-57,-54.5)"><path id="path3350" d="m 369,532.8 v -16.2 h 3.4 l 4.2,6.9 c 1.1,1.8 2,3.7 2.8,5.4 h 0 c -0.2,-2.2 -0.3,-4.2 -0.3,-6.7 v -5.6 h 2.7 v 16.2 h -3 l -4.2,-7.1 c -1,-1.8 -2.1,-3.8 -2.9,-5.6 l -0.1,0 c 0.1,2.1 0.1,4.2 0.1,6.9 v 5.8 H 369 z" style="fill:#454746"/><path id="path3352" d="m 395.6,529.3 c 0,1.4 0,2.5 0.1,3.5 h -2.6 L 393,531 h 0 c -0.5,0.8 -1.7,2 -3.7,2 -2.1,0 -4.1,-1.3 -4.1,-5.1 V 521 h 3 v 6.4 c 0,1.9 0.6,3.2 2.2,3.2 1.2,0 1.9,-0.8 2.3,-1.6 0.1,-0.3 0.2,-0.6 0.2,-0.9 V 521 h 3 v 8.3 z" style="fill:#454746"/><path id="path3354" d="m 398.8,524.6 c 0,-1.3 0,-2.5 -0.1,-3.5 h 2.5 l 0.1,1.7 h 0.1 c 0.6,-0.9 1.6,-2 3.6,-2 1.5,0 2.7,0.9 3.2,2.2 h 0 c 0.4,-0.6 0.9,-1.1 1.4,-1.5 0.6,-0.5 1.4,-0.7 2.4,-0.7 1.9,0 3.9,1.3 3.9,5.1 v 6.9 H 413 v -6.5 c 0,-1.9 -0.7,-3.1 -2.1,-3.1 -1,0 -1.8,0.7 -2.1,1.6 -0.1,0.3 -0.1,0.6 -0.1,1 v 7 H 406 V 526 c 0,-1.6 -0.6,-2.8 -2,-2.8 -1.1,0 -1.8,0.9 -2.1,1.7 -0.1,0.3 -0.2,0.6 -0.2,1 v 6.9 h -2.9 v -8.2 z" style="fill:#454746"/><path id="path3356" d="m 419,532.8 c 0,-0.8 0.1,-2.1 0.1,-3.3 v -13.8 h 3 v 7 h 0 c 0.7,-1.1 2,-1.9 3.7,-1.9 2.9,0 4.9,2.4 4.9,5.9 0,4.2 -2.7,6.3 -5.3,6.3 -1.5,0 -2.9,-0.6 -3.7,-2 h 0 l -0.1,1.8 H 419 z m 3.1,-4.8 c 0,0.2 0,0.5 0.1,0.7 0.3,1.2 1.3,2.1 2.6,2.1 1.8,0 3,-1.5 3,-3.8 0,-2.1 -1,-3.7 -3,-3.7 -1.2,0 -2.3,0.9 -2.6,2.2 0,0.2 -0.1,0.5 -0.1,0.8 v 1.7 z" style="fill:#454746"/><path id="path3358" d="m 435.3,527.8 c 0.1,2.1 1.7,3 3.6,3 1.4,0 2.4,-0.2 3.2,-0.5 l 0.4,2 c -1,0.4 -2.4,0.7 -4.1,0.7 -3.8,0 -6,-2.3 -6,-5.9 0,-3.2 2,-6.3 5.7,-6.3 3.8,0 5,3.1 5,5.7 0,0.6 0,1 -0.1,1.2 h -7.7 z m 5.1,-2 c 0,-1.1 -0.5,-2.9 -2.4,-2.9 -1.8,0 -2.6,1.7 -2.7,2.9 h 5.1 z" style="fill:#454746"/><path id="path3360" d="m 445.6,524.9 c 0,-1.6 0,-2.7 -0.1,-3.8 h 2.6 l 0.1,2.2 h 0.1 c 0.6,-1.7 1.9,-2.5 3.2,-2.5 0.3,0 0.5,0 0.7,0.1 v 2.8 c -0.2,0 -0.5,-0.1 -0.9,-0.1 -1.4,0 -2.4,0.9 -2.6,2.2 0,0.3 -0.1,0.6 -0.1,0.9 v 6 h -3 v -7.8 z" style="fill:#454746"/><path id="path3362" d="m 470.2,526.9 c 0,4.3 -3,6.2 -6,6.2 -3.3,0 -5.9,-2.3 -5.9,-6 0,-3.8 2.5,-6.2 6,-6.2 3.6,0 5.9,2.4 5.9,6 z m -8.8,0.1 c 0,2.3 1.1,4 2.9,4 1.7,0 2.9,-1.7 2.9,-4 0,-1.8 -0.8,-3.9 -2.8,-3.9 -2.2,-0.1 -3,2 -3,3.9 z" style="fill:#454746"/><path id="path3364" d="m 472.9,532.8 v -9.5 h -1.6 v -2.2 h 1.6 v -0.5 c 0,-1.5 0.4,-3 1.4,-4 0.9,-0.8 2,-1.1 3,-1.1 0.8,0 1.4,0.1 1.9,0.3 l -0.2,2.3 c -0.3,-0.1 -0.7,-0.2 -1.2,-0.2 -1.5,0 -2,1.2 -2,2.7 v 0.6 h 2.6 v 2.2 h -2.5 v 9.5 h -3 z" style="fill:#454746"/><path id="path3366" d="m 487.1,521.1 1.9,5.9 c 0.3,1 0.6,2 0.8,2.9 h 0.1 c 0.2,-1 0.5,-1.9 0.8,-2.9 l 1.8,-5.9 h 3.1 l -4.5,11.7 h -2.9 l -4.3,-11.7 h 3.2 z" style="fill:#454746"/><path id="path3368" d="m 508.2,526.9 c 0,4.3 -3,6.2 -6,6.2 -3.3,0 -5.9,-2.3 -5.9,-6 0,-3.8 2.5,-6.2 6,-6.2 3.6,0 5.9,2.4 5.9,6 z m -8.8,0.1 c 0,2.3 1.1,4 2.9,4 1.7,0 2.9,-1.7 2.9,-4 0,-1.8 -0.8,-3.9 -2.8,-3.9 -2.1,-0.1 -3,2 -3,3.9 z" style="fill:#454746"/><path id="path3370" d="m 514,517.8 v 3.3 h 2.8 v 2.2 H 514 v 5.2 c 0,1.4 0.4,2.2 1.5,2.2 0.5,0 0.9,-0.1 1.2,-0.1 l 0,2.3 c -0.4,0.2 -1.2,0.3 -2.1,0.3 -1.1,0 -2,-0.4 -2.5,-1 -0.6,-0.7 -0.9,-1.7 -0.9,-3.3 v -5.5 h -1.7 v -2.2 h 1.7 v -2.6 l 2.8,-0.8 z" style="fill:#454746"/><path id="path3372" d="m 521,527.8 c 0.1,2.1 1.7,3 3.6,3 1.4,0 2.4,-0.2 3.2,-0.5 l 0.4,2 c -1,0.4 -2.4,0.7 -4.1,0.7 -3.8,0 -6,-2.3 -6,-5.9 0,-3.2 2,-6.3 5.7,-6.3 3.8,0 5,3.1 5,5.7 0,0.6 0,1 -0.1,1.2 H 521 z m 5.2,-2 c 0,-1.1 -0.5,-2.9 -2.4,-2.9 -1.8,0 -2.6,1.7 -2.7,2.9 h 5.1 z" style="fill:#454746"/><path id="path3374" d="m 531.2,530.1 c 0.7,0.4 1.9,0.8 3,0.8 1.3,0 1.9,-0.5 1.9,-1.3 0,-0.8 -0.5,-1.2 -1.9,-1.7 -2.3,-0.8 -3.2,-2 -3.2,-3.4 0,-2.1 1.7,-3.7 4.4,-3.7 1.3,0 2.4,0.3 3.1,0.7 l -0.6,2.1 c -0.5,-0.3 -1.4,-0.7 -2.5,-0.7 -1.1,0 -1.6,0.5 -1.6,1.2 0,0.7 0.6,1.1 2,1.6 2.1,0.8 3.1,1.8 3.1,3.6 0,2.1 -1.7,3.6 -4.8,3.6 -1.4,0 -2.7,-0.3 -3.6,-0.8 l 0.7,-2 z" style="fill:#454746"/></g><g id="g3376" transform="translate(-57,-54.5)"><path id="path3378" d="M 103.2,350.9 H 87 v -3.4 l 6.9,-4.2 c 1.8,-1.1 3.7,-2 5.4,-2.8 v 0 c -2.2,0.2 -4.2,0.3 -6.7,0.3 H 87 v -2.7 h 16.2 v 3 l -7.1,4.2 c -1.8,1 -3.8,2.1 -5.6,2.9 l 0,0.1 c 2.1,-0.1 4.2,-0.1 6.9,-0.1 h 5.8 v 2.7 z" style="fill:#454746"/><path id="path3380" d="m 98.2,332.8 c 2.1,-0.1 3,-1.7 3,-3.6 0,-1.4 -0.2,-2.4 -0.5,-3.2 l 2,-0.4 c 0.4,1 0.7,2.4 0.7,4.1 0,3.8 -2.3,6 -5.9,6 -3.2,0 -6.3,-2 -6.3,-5.7 0,-3.8 3.1,-5 5.7,-5 0.6,0 1,0 1.2,0.1 v 7.7 z m -2.1,-5.2 c -1.1,0 -2.9,0.5 -2.9,2.4 0,1.8 1.7,2.6 2.9,2.7 v -5.1 z" style="fill:#454746"/><path id="path3382" d="m 91.5,320.8 5.3,-1.2 c 1.2,-0.3 2.5,-0.5 3.8,-0.7 v 0 c -1.3,-0.2 -2.6,-0.6 -3.8,-1 l -5.3,-1.5 V 314 l 5.2,-1.5 c 1.4,-0.4 2.6,-0.7 3.9,-0.9 v 0 c -1.3,-0.2 -2.5,-0.5 -3.9,-0.8 l -5.2,-1.3 v -2.9 l 11.7,3.7 v 2.7 l -4.8,1.4 c -1.2,0.4 -2.3,0.6 -3.7,0.9 v 0 c 1.4,0.2 2.6,0.6 3.7,0.9 l 4.8,1.5 v 2.8 L 91.5,324 v -3.2 z" style="fill:#454746"/><path id="path3384" d="m 100.5,299.7 c 0.4,-0.7 0.8,-1.9 0.8,-3 0,-1.3 -0.5,-1.9 -1.3,-1.9 -0.8,0 -1.2,0.5 -1.7,1.9 -0.8,2.3 -2,3.2 -3.4,3.2 -2.1,0 -3.7,-1.7 -3.7,-4.4 0,-1.3 0.3,-2.4 0.7,-3.1 L 94,293 c -0.3,0.5 -0.7,1.4 -0.7,2.5 0,1.1 0.5,1.6 1.2,1.6 0.7,0 1.1,-0.6 1.6,-2 0.8,-2.1 1.8,-3.1 3.6,-3.1 2.1,0 3.6,1.7 3.6,4.8 0,1.4 -0.3,2.7 -0.8,3.6 l -2,-0.7 z" style="fill:#454746"/><path id="path3386" d="m 102.8,281 c 0.3,0.6 0.6,1.8 0.6,3.3 0,3.6 -2.3,6 -6,6 -3.5,0 -6.2,-2.4 -6.2,-6.5 0,-1.1 0.2,-2.2 0.6,-2.9 l 2.2,0.5 c -0.2,0.5 -0.5,1.2 -0.5,2.2 0,2.3 1.7,3.6 3.8,3.6 2.4,0 3.8,-1.6 3.8,-3.6 0,-1 -0.2,-1.8 -0.5,-2.3 l 2.2,-0.3 z" style="fill:#454746"/><path id="path3388" d="m 97.2,267.9 c 4.3,0 6.2,3 6.2,6 0,3.3 -2.3,5.9 -6,5.9 -3.8,0 -6.2,-2.5 -6.2,-6 0,-3.6 2.5,-5.9 6,-5.9 z m 0.2,8.8 c 2.3,0 4,-1.1 4,-2.9 0,-1.7 -1.7,-2.9 -4,-2.9 -1.8,0 -3.9,0.8 -3.9,2.8 -0.1,2.2 1.9,3 3.9,3 z" style="fill:#454746"/><path id="path3390" d="m 95.3,265.5 c -1.6,0 -2.7,0 -3.8,0.1 V 263 l 2.2,-0.1 v -0.1 c -1.7,-0.6 -2.5,-1.9 -2.5,-3.2 0,-0.3 0,-0.5 0.1,-0.7 h 2.8 c 0,0.2 -0.1,0.5 -0.1,0.9 0,1.4 0.9,2.4 2.2,2.6 0.3,0 0.6,0.1 0.9,0.1 h 6 v 3 h -7.8 z" style="fill:#454746"/><path id="path3392" d="m 98.2,255.1 c 2.1,-0.1 3,-1.7 3,-3.6 0,-1.4 -0.2,-2.4 -0.5,-3.2 l 2,-0.4 c 0.4,1 0.7,2.4 0.7,4.1 0,3.8 -2.3,6 -5.9,6 -3.2,0 -6.3,-2 -6.3,-5.7 0,-3.8 3.1,-5 5.7,-5 0.6,0 1,0 1.2,0.1 v 7.7 z m -2.1,-5.2 c -1.1,0 -2.9,0.5 -2.9,2.4 0,1.8 1.7,2.6 2.9,2.7 v -5.1 z" style="fill:#454746"/></g><g id="g3394" transform="translate(-57,-54.5)"><line id="line3396" x1="131" x2="131" y1="109.5" y2="489.5" stroke-miterlimit="10" style="fill:none;stroke:#d6d6d6;stroke-miterlimit:10"/><line id="line3398" x1="196" x2="196" y1="109.5" y2="489.5" stroke-miterlimit="10" style="fill:none;stroke:#d6d6d6;stroke-miterlimit:10"/><line id="line3400" x1="261" x2="261" y1="109.5" y2="489.5" stroke-miterlimit="10" style="fill:none;stroke:#d6d6d6;stroke-miterlimit:10"/><line id="line3402" x1="326" x2="326" y1="109.5" y2="489.5" stroke-miterlimit="10" style="fill:none;stroke:#d6d6d6;stroke-miterlimit:10"/><line id="line3404" x1="391" x2="391" y1="109.5" y2="489.5" stroke-miterlimit="10" style="fill:none;stroke:#d6d6d6;stroke-miterlimit:10"/><line id="line3406" x1="456" x2="456" y1="109.5" y2="489.5" stroke-miterlimit="10" style="fill:none;stroke:#d6d6d6;stroke-miterlimit:10"/><line id="line3408" x1="521" x2="521" y1="109.5" y2="489.5" stroke-miterlimit="10" style="fill:none;stroke:#d6d6d6;stroke-miterlimit:10"/><line id="line3410" x1="586" x2="586" y1="109.5" y2="489.5" stroke-miterlimit="10" style="fill:none;stroke:#d6d6d6;stroke-miterlimit:10"/><line id="line3412" x1="651" x2="651" y1="109.5" y2="489.5" stroke-miterlimit="10" style="fill:none;stroke:#d6d6d6;stroke-miterlimit:10"/><line id="line3414" x1="716" x2="716" y1="109.5" y2="489.5" stroke-miterlimit="10" style="fill:none;stroke:#d6d6d6;stroke-miterlimit:10"/><line id="line3416" x1="781" x2="781" y1="109.5" y2="489.5" stroke-miterlimit="10" style="fill:none;stroke:#d6d6d6;stroke-miterlimit:10"/><line id="line3418" x1="131" x2="781" y1="109.5" y2="109.5" stroke-miterlimit="10" style="fill:none;stroke:#d6d6d6;stroke-miterlimit:10"/><line id="line3420" x1="131" x2="781" y1="489.5" y2="489.5" stroke-miterlimit="10" style="fill:none;stroke:#d6d6d6;stroke-miterlimit:10"/><line id="line3422" x1="131" x2="781" y1="489.5" y2="489.5" stroke-miterlimit="10" style="fill:none;stroke:#d6d6d6;stroke-miterlimit:10"/><path id="path3424" stroke-miterlimit="10" d="M 781,300" style="fill:none;stroke:#d6d6d6;stroke-miterlimit:10"/><path id="path3426" stroke-miterlimit="10" d="M 131,300" style="fill:none;stroke:#d6d6d6;stroke-miterlimit:10"/><line id="line3428" x1="131" x2="781" y1="442" y2="442" stroke-miterlimit="10" style="fill:none;stroke:#d6d6d6;stroke-miterlimit:10"/><line id="line3430" x1="131" x2="781" y1="394.5" y2="394.5" stroke-miterlimit="10" style="fill:none;stroke:#d6d6d6;stroke-miterlimit:10"/><line id="line3432" x1="131" x2="781" y1="347" y2="347" stroke-miterlimit="10" style="fill:none;stroke:#d6d6d6;stroke-miterlimit:10"/><line id="line3434" x1="131" x2="781" y1="299.5" y2="299.5" stroke-miterlimit="10" style="fill:none;stroke:#d6d6d6;stroke-miterlimit:10"/><line id="line3436" x1="131" x2="781" y1="252" y2="252" stroke-miterlimit="10" style="fill:none;stroke:#d6d6d6;stroke-miterlimit:10"/><line id="line3438" x1="131" x2="781" y1="204.5" y2="204.5" stroke-miterlimit="10" style="fill:none;stroke:#d6d6d6;stroke-miterlimit:10"/><line id="line3440" x1="131" x2="781" y1="157" y2="157" stroke-miterlimit="10" style="fill:none;stroke:#d6d6d6;stroke-miterlimit:10"/></g><g id="g3442" transform="translate(-57,-54.5)"><g id="g3444"><path id="path3446" d="m 208.6,225.2 c 1.6,0 2.9,0.6 3.8,1.7 0.9,1.1 1.4,2.6 1.4,4.4 0,1.8 -0.5,3.3 -1.4,4.5 -0.9,1.2 -2.2,1.7 -3.8,1.7 -1.6,0 -2.9,-0.6 -3.8,-1.7 -0.9,-1.1 -1.4,-2.6 -1.4,-4.5 0,-1.8 0.5,-3.3 1.4,-4.4 0.9,-1.2 2.2,-1.7 3.8,-1.7 z m 0,10.7 c 1.1,0 1.9,-0.4 2.5,-1.3 0.6,-0.9 0.9,-2 0.9,-3.3 0,-1.3 -0.3,-2.5 -0.9,-3.3 -0.6,-0.9 -1.4,-1.3 -2.5,-1.3 -1.1,0 -1.9,0.4 -2.5,1.3 -0.6,0.9 -0.9,2 -0.9,3.3 0,1.3 0.3,2.4 0.9,3.3 0.6,0.9 1.4,1.3 2.5,1.3 z" style="fill:#454746"/><path id="path3448" d="m 226,237.2 h -4.8 v -14.3 h -3.1 v -1.5 h 4.8 v 14.3 h 3 v 1.5 z" style="fill:#454746"/><path id="path3450" d="m 240.7,237.2 h -1.8 v -1.7 c -0.4,0.6 -0.9,1.1 -1.5,1.4 -0.6,0.3 -1.4,0.6 -2.1,0.6 -1.3,0 -2.4,-0.6 -3.2,-1.8 -0.8,-1.2 -1.2,-2.7 -1.2,-4.5 0,-1.7 0.4,-3.1 1.2,-4.3 0.8,-1.1 1.9,-1.7 3.2,-1.7 1.5,0 2.7,0.6 3.6,1.8 v -5.7 h 1.8 v 15.9 z m -1.8,-3.6 v -4.9 c -0.8,-1.3 -1.8,-2 -3,-2 -1,0 -1.7,0.4 -2.3,1.3 -0.6,0.9 -0.8,1.9 -0.8,3.3 0,1.3 0.3,2.5 0.8,3.3 0.5,0.9 1.3,1.3 2.2,1.3 0.4,0 0.9,-0.1 1.3,-0.4 0.4,-0.3 0.9,-0.6 1.3,-1.1 0.3,-0.4 0.5,-0.7 0.5,-0.8 z" style="fill:#454746"/><path id="path3452" d="m 256.9,242.2 h -13.8 v -1.5 h 13.8 v 1.5 z" style="fill:#454746"/><path id="path3454" d="m 267.1,227.1 c -1,-0.3 -1.9,-0.5 -2.8,-0.5 -1,0 -1.7,0.2 -2.3,0.5 -0.6,0.3 -0.8,0.7 -0.8,1.3 0,0.3 0.1,0.6 0.4,0.9 0.3,0.3 0.8,0.5 1.5,0.7 l 1.7,0.5 c 0.8,0.2 1.4,0.5 1.9,0.8 0.5,0.3 0.9,0.7 1.1,1.1 0.2,0.4 0.4,0.9 0.4,1.5 0,1.1 -0.5,2 -1.4,2.6 -0.9,0.6 -2.1,1 -3.6,1 -1.4,0 -2.6,-0.2 -3.6,-0.7 l 0.3,-1.5 c 1,0.5 2,0.7 3.2,0.7 1,0 1.8,-0.2 2.4,-0.5 0.6,-0.4 0.9,-0.8 0.9,-1.4 0,-0.4 -0.2,-0.8 -0.5,-1.1 -0.3,-0.3 -1,-0.6 -2.1,-1 -0.9,-0.3 -1.6,-0.5 -2,-0.6 -0.4,-0.1 -0.8,-0.3 -1.2,-0.6 -0.4,-0.3 -0.6,-0.6 -0.8,-1 -0.2,-0.4 -0.3,-0.8 -0.3,-1.3 0,-1 0.4,-1.8 1.3,-2.4 0.9,-0.6 2.1,-0.9 3.5,-0.9 0.9,0 2,0.2 3.1,0.5 l -0.3,1.4 z" style="fill:#454746"/><path id="path3456" d="m 282.1,236.8 c -1,0.5 -2.1,0.7 -3.4,0.7 -1.8,0 -3.3,-0.6 -4.4,-1.7 -1.1,-1.1 -1.6,-2.6 -1.6,-4.5 0,-1.9 0.6,-3.3 1.7,-4.5 1.1,-1.1 2.6,-1.7 4.4,-1.7 1.2,0 2.3,0.2 3.4,0.6 l -0.5,1.4 c -1.1,-0.4 -2,-0.6 -2.9,-0.6 -1.3,0 -2.3,0.4 -3.1,1.2 -0.8,0.8 -1.1,2 -1.1,3.4 0,1.3 0.4,2.4 1.2,3.3 0.8,0.9 1.8,1.3 3,1.3 1,0 2,-0.2 3.1,-0.6 l 0.2,1.7 z" style="fill:#454746"/><path id="path3458" d="m 291.4,225.2 c 1.6,0 2.9,0.6 3.8,1.7 0.9,1.1 1.4,2.6 1.4,4.4 0,1.8 -0.5,3.3 -1.4,4.5 -0.9,1.2 -2.2,1.7 -3.8,1.7 -1.6,0 -2.9,-0.6 -3.8,-1.7 -0.9,-1.1 -1.4,-2.6 -1.4,-4.5 0,-1.8 0.5,-3.3 1.4,-4.4 0.9,-1.2 2.2,-1.7 3.8,-1.7 z m 0,10.7 c 1.1,0 1.9,-0.4 2.5,-1.3 0.6,-0.9 0.9,-2 0.9,-3.3 0,-1.3 -0.3,-2.5 -0.9,-3.3 -0.6,-0.9 -1.4,-1.3 -2.5,-1.3 -1.1,0 -1.9,0.4 -2.5,1.3 -0.6,0.9 -0.9,2 -0.9,3.3 0,1.3 0.3,2.4 0.9,3.3 0.6,0.9 1.4,1.3 2.5,1.3 z" style="fill:#454746"/><path id="path3460" d="m 309.9,225.8 -0.7,1.7 c -0.8,-0.3 -1.4,-0.5 -2,-0.5 -0.5,0 -1,0.1 -1.5,0.4 -0.5,0.3 -0.9,0.7 -1.4,1.3 -0.4,0.6 -0.6,0.9 -0.6,0.9 v 7.6 H 302 v -11.7 h 1.7 v 2.4 c 0.9,-1.8 2.1,-2.7 3.6,-2.7 0.9,0 1.8,0.2 2.6,0.6 z" style="fill:#454746"/><path id="path3462" d="m 323.9,231.4 h -8 c 0,1.3 0.4,2.4 1.2,3.3 0.8,0.9 1.7,1.3 2.8,1.3 1.1,0 2.2,-0.2 3.3,-0.6 l 0.3,1.4 c -1,0.5 -2.2,0.7 -3.6,0.7 -1.7,0 -3.1,-0.6 -4.2,-1.7 -1.1,-1.1 -1.6,-2.6 -1.6,-4.5 0,-1.9 0.5,-3.3 1.4,-4.4 1,-1.1 2.2,-1.7 3.7,-1.7 1.3,0 2.5,0.5 3.4,1.5 0.9,1 1.4,2.4 1.4,4.1 v 0.6 z m -1.9,-1.5 c 0,-0.9 -0.3,-1.7 -0.9,-2.3 -0.6,-0.6 -1.2,-0.9 -1.9,-0.9 -0.9,0 -1.7,0.3 -2.3,0.9 -0.6,0.6 -0.9,1.4 -1,2.3 h 6.1 z" style="fill:#454746"/><path id="path3466" d="m 375.6,237.2 h -4.8 v -14.3 h -3.1 v -1.5 h 4.8 v 14.3 h 3 v 1.5 z" style="fill:#454746"/><path id="path3468" d="m 385.7,225.2 c 1.6,0 2.9,0.6 3.8,1.7 0.9,1.1 1.4,2.6 1.4,4.4 0,1.8 -0.5,3.3 -1.4,4.5 -0.9,1.2 -2.2,1.7 -3.8,1.7 -1.6,0 -2.9,-0.6 -3.8,-1.7 -0.9,-1.1 -1.4,-2.6 -1.4,-4.5 0,-1.8 0.5,-3.3 1.4,-4.4 0.9,-1.2 2.2,-1.7 3.8,-1.7 z m 0,10.7 c 1.1,0 1.9,-0.4 2.5,-1.3 0.6,-0.9 0.9,-2 0.9,-3.3 0,-1.3 -0.3,-2.5 -0.9,-3.3 -0.6,-0.9 -1.4,-1.3 -2.5,-1.3 -1.1,0 -1.9,0.4 -2.5,1.3 -0.6,0.9 -0.9,2 -0.9,3.3 0,1.3 0.3,2.4 0.9,3.3 0.6,0.9 1.4,1.3 2.5,1.3 z" style="fill:#454746"/><path id="path3470" d="m 398.3,232.8 c -1.1,0.5 -1.6,1 -1.6,1.4 0,0.2 0.1,0.4 0.4,0.6 0.3,0.2 0.6,0.2 1,0.2 l 3.9,-0.1 c 0.9,0 1.7,0.2 2.2,0.7 0.5,0.5 0.8,1.1 0.8,1.9 0,1.3 -0.6,2.4 -1.8,3.2 -1.2,0.8 -2.6,1.2 -4.1,1.2 -1.3,0 -2.4,-0.3 -3.2,-0.8 -0.8,-0.5 -1.2,-1.2 -1.2,-2.1 0,-0.9 0.6,-1.7 1.9,-2.4 -1.1,-0.5 -1.6,-1.1 -1.6,-1.8 0,-0.8 0.7,-1.6 2,-2.3 -0.6,-0.4 -1.1,-0.9 -1.4,-1.5 -0.3,-0.6 -0.5,-1.2 -0.5,-1.9 0,-1.1 0.4,-2 1.1,-2.7 0.7,-0.7 1.7,-1.1 2.8,-1.1 0.8,0 1.5,0.2 2.2,0.5 l 3.5,-0.5 v 1.7 h -2.2 c 0.3,0.6 0.5,1.3 0.5,2.1 0,1.1 -0.4,2 -1.1,2.7 -0.7,0.7 -1.7,1.1 -2.8,1.1 -0.4,-0.1 -0.6,-0.1 -0.8,-0.1 z m 0.7,7.6 c 1.2,0 2.1,-0.3 2.9,-0.8 0.8,-0.5 1.2,-1.1 1.2,-1.9 0,-0.8 -0.6,-1.2 -1.7,-1.2 -0.4,0 -1,0 -2,0.1 -0.6,0 -1.1,0 -1.4,0 -0.2,0 -0.4,0.1 -0.8,0.4 -0.3,0.3 -0.6,0.5 -0.8,0.8 -0.2,0.3 -0.3,0.6 -0.3,0.8 0,0.5 0.3,0.8 0.8,1.2 0.6,0.5 1.3,0.6 2.1,0.6 z m -0.1,-9 c 0.6,0 1.2,-0.2 1.6,-0.7 0.4,-0.4 0.6,-1 0.6,-1.7 0,-0.8 -0.2,-1.3 -0.6,-1.8 -0.4,-0.4 -0.9,-0.6 -1.6,-0.6 -0.6,0 -1.1,0.2 -1.6,0.7 -0.4,0.4 -0.6,1 -0.6,1.7 0,0.7 0.2,1.3 0.6,1.7 0.5,0.5 1,0.7 1.6,0.7 z" style="fill:#454746"/><path id="path3472" d="m 417.2,239.5 -0.7,1 c -1.7,-1.3 -2.9,-2.7 -3.8,-4.4 -0.9,-1.7 -1.3,-3.4 -1.3,-5.3 0,-1.9 0.4,-3.7 1.3,-5.3 0.9,-1.7 2.1,-3.1 3.8,-4.4 l 0.7,1 c -1.4,1.2 -2.4,2.5 -3,3.9 -0.6,1.3 -0.9,3 -0.9,4.9 0,2 0.3,3.6 0.9,5 0.7,1.1 1.6,2.4 3,3.6 z" style="fill:#454746"/><path id="path3474" d="m 431.6,237.2 h -8.3 v -1.6 h 3.4 v -12.3 l -3.2,1.6 V 223 l 3.4,-1.8 h 1.6 v 14.3 h 3.1 v 1.7 z" style="fill:#454746"/><path id="path3476" d="m 458.9,229.8 h -4.5 v 4.6 h -1.5 v -4.6 h -4.6 v -1.5 h 4.6 v -4.6 h 1.5 v 4.6 h 4.5 v 1.5 z" style="fill:#454746"/><path id="path3478" d="m 480,221 c 1.7,0 3,0.7 3.9,2.2 0.9,1.4 1.4,3.5 1.4,6.1 0,2.5 -0.4,4.5 -1.3,6 -0.9,1.5 -2.2,2.2 -3.9,2.2 -1.7,0 -3,-0.7 -3.9,-2.2 -0.9,-1.5 -1.4,-3.5 -1.4,-6.1 0,-2.5 0.4,-4.5 1.3,-6 0.9,-1.4 2.2,-2.2 3.9,-2.2 z m 0,14.9 c 1.1,0 1.9,-0.5 2.5,-1.6 0.5,-1.1 0.8,-2.7 0.8,-5 0,-2.3 -0.3,-4 -0.8,-5 -0.5,-1 -1.4,-1.6 -2.5,-1.6 -1.1,0 -1.9,0.5 -2.4,1.6 -0.5,1.1 -0.8,2.7 -0.8,5 0,2.3 0.3,4 0.8,5 0.5,1 1.3,1.6 2.4,1.6 z m -0.1,-8.3 c 0.5,0 0.9,0.2 1.2,0.5 0.3,0.3 0.5,0.7 0.5,1.2 0,0.5 -0.2,0.9 -0.5,1.3 -0.3,0.3 -0.7,0.5 -1.2,0.5 -0.5,0 -0.8,-0.2 -1.2,-0.5 -0.3,-0.3 -0.5,-0.8 -0.5,-1.3 0,-0.5 0.2,-0.9 0.5,-1.2 0.3,-0.3 0.8,-0.5 1.2,-0.5 z" style="fill:#454746"/><path id="path3480" d="m 493.7,234.6 c 0.4,0 0.7,0.1 1,0.4 0.3,0.3 0.4,0.6 0.4,1 0,0.4 -0.1,0.8 -0.4,1 -0.3,0.3 -0.6,0.4 -1,0.4 -0.4,0 -0.7,-0.1 -1,-0.4 -0.3,-0.3 -0.4,-0.6 -0.4,-1 0,-0.4 0.1,-0.7 0.4,-1 0.3,-0.3 0.7,-0.4 1,-0.4 z" style="fill:#454746"/><path id="path3482" d="m 512.1,237.2 h -8.3 v -1.6 h 3.4 v -12.3 l -3.2,1.6 V 223 l 3.4,-1.8 h 1.6 v 14.3 h 3.1 v 1.7 z" style="fill:#454746"/><path id="path3484" d="m 538,227.5 -0.7,1.1 -2.7,-1.8 v 3.2 h -1.2 v -3.2 l -2.7,1.8 -0.7,-1.1 2.8,-1.8 -2.8,-1.8 0.7,-1.1 2.7,1.8 v -3.2 h 1.2 v 3.2 l 2.7,-1.8 0.7,1.1 -2.8,1.8 2.8,1.8 z" style="fill:#454746"/><path id="path3486" d="m 565.1,237.2 h -1.8 v -7.5 c 0,-1 -0.2,-1.8 -0.5,-2.3 -0.3,-0.5 -0.9,-0.7 -1.6,-0.7 -1.1,0 -2.2,0.7 -3.4,2 v 8.5 H 556 v -11.7 h 1.8 v 1.7 c 1.3,-1.3 2.6,-2 4,-2 2.2,0 3.3,1.3 3.3,4 v 8 z" style="fill:#454746"/><path id="path3488" d="M 578.8,237.2 H 577 v -1.7 c -1.3,1.3 -2.6,2 -4,2 -2.2,0 -3.3,-1.3 -3.3,-4 v -8 h 1.8 v 7.5 c 0,1 0.2,1.7 0.5,2.2 0.3,0.5 0.8,0.7 1.6,0.7 1.1,0 2.2,-0.7 3.4,-2 v -8.5 h 1.8 v 11.8 z" style="fill:#454746"/><path id="path3490" d="m 593.6,237.2 h -1.8 v -7.7 c 0,-1.9 -0.3,-2.8 -1,-2.8 -0.4,0 -0.7,0.3 -1.2,1 -0.4,0.6 -0.6,1 -0.6,1.1 v 8.4 h -1.7 v -7.7 c 0,-1.9 -0.3,-2.8 -1,-2.8 -0.3,0 -0.7,0.3 -1.2,1 -0.4,0.6 -0.6,1 -0.6,1.1 v 8.4 h -1.8 v -11.7 h 1.7 v 1.8 c 0.3,-0.6 0.7,-1.1 1.2,-1.5 0.5,-0.4 0.9,-0.6 1.4,-0.6 0.5,0 0.9,0.2 1.3,0.6 0.4,0.4 0.6,0.9 0.8,1.5 0.3,-0.6 0.7,-1.1 1.2,-1.5 0.5,-0.4 0.9,-0.6 1.3,-0.6 1.4,0 2.1,1.3 2.1,3.8 v 8.2 z" style="fill:#454746"/><path id="path3492" d="m 599.2,227 c 0.4,-0.5 0.9,-1 1.6,-1.3 0.7,-0.3 1.4,-0.5 2.1,-0.5 1.4,0 2.4,0.5 3.2,1.6 0.8,1.1 1.1,2.5 1.1,4.3 0,1.8 -0.4,3.3 -1.2,4.5 -0.8,1.2 -1.9,1.8 -3.2,1.8 -0.7,0 -1.4,-0.2 -2,-0.5 -0.6,-0.4 -1.1,-0.8 -1.5,-1.4 v 1.7 h -1.8 v -15.8 h 1.8 v 5.6 z m 0,1.7 v 4.9 c 0.3,0.7 0.8,1.2 1.3,1.7 0.5,0.5 1.1,0.7 1.7,0.7 0.9,0 1.7,-0.4 2.3,-1.3 0.6,-0.9 0.8,-2 0.8,-3.3 0,-1.3 -0.3,-2.4 -0.8,-3.3 -0.5,-0.8 -1.3,-1.3 -2.2,-1.3 -1.2,-0.1 -2.2,0.6 -3.1,1.9 z" style="fill:#454746"/><path id="path3494" d="m 620.6,231.4 h -8 c 0,1.3 0.4,2.4 1.2,3.3 0.8,0.9 1.7,1.3 2.8,1.3 1.1,0 2.2,-0.2 3.3,-0.6 l 0.3,1.4 c -1,0.5 -2.2,0.7 -3.6,0.7 -1.7,0 -3.1,-0.6 -4.2,-1.7 -1.1,-1.1 -1.6,-2.6 -1.6,-4.5 0,-1.9 0.5,-3.3 1.4,-4.4 1,-1.1 2.2,-1.7 3.7,-1.7 1.3,0 2.5,0.5 3.4,1.5 0.9,1 1.4,2.4 1.4,4.1 v 0.6 z m -1.9,-1.5 c 0,-0.9 -0.3,-1.7 -0.9,-2.3 -0.6,-0.6 -1.2,-0.9 -1.9,-0.9 -0.9,0 -1.7,0.3 -2.3,0.9 -0.6,0.6 -0.9,1.4 -1,2.3 h 6.1 z" style="fill:#454746"/><path id="path3496" d="m 634.2,225.8 -0.7,1.7 c -0.8,-0.3 -1.4,-0.5 -2,-0.5 -0.5,0 -1,0.1 -1.5,0.4 -0.5,0.3 -0.9,0.7 -1.4,1.3 -0.4,0.6 -0.6,0.9 -0.6,0.9 v 7.6 h -1.7 v -11.7 h 1.7 v 2.4 c 0.9,-1.8 2.1,-2.7 3.6,-2.7 1,0 1.8,0.2 2.6,0.6 z" style="fill:#454746"/><path id="path3498" d="m 650.2,242.2 h -13.8 v -1.5 h 13.8 v 1.5 z" style="fill:#454746"/><path id="path3500" d="m 657.1,225.2 c 1.6,0 2.9,0.6 3.8,1.7 0.9,1.1 1.4,2.6 1.4,4.4 0,1.8 -0.5,3.3 -1.4,4.5 -0.9,1.2 -2.2,1.7 -3.8,1.7 -1.6,0 -2.9,-0.6 -3.8,-1.7 -0.9,-1.1 -1.4,-2.6 -1.4,-4.5 0,-1.8 0.5,-3.3 1.4,-4.4 0.9,-1.2 2.2,-1.7 3.8,-1.7 z m 0,10.7 c 1.1,0 1.9,-0.4 2.5,-1.3 0.6,-0.9 0.9,-2 0.9,-3.3 0,-1.3 -0.3,-2.5 -0.9,-3.3 -0.6,-0.9 -1.4,-1.3 -2.5,-1.3 -1.1,0 -1.9,0.4 -2.5,1.3 -0.6,0.9 -0.9,2 -0.9,3.3 0,1.3 0.3,2.4 0.9,3.3 0.6,0.9 1.5,1.3 2.5,1.3 z" style="fill:#454746"/><path id="path3502" d="m 675.6,221.5 -0.5,1.4 c -0.8,-0.2 -1.6,-0.4 -2.2,-0.4 -0.6,0 -1.1,0.2 -1.3,0.5 -0.2,0.4 -0.4,1.1 -0.4,2.2 v 0.2 h 3.9 v 1.5 h -3.9 v 10.2 h -1.8 V 227 h -2.9 v -1.5 h 2.9 v -0.4 c 0,-1.5 0.3,-2.5 0.8,-3.1 0.5,-0.6 1.4,-0.9 2.6,-0.9 0.9,-0.1 1.8,0.1 2.8,0.4 z" style="fill:#454746"/><path id="path3504" d="m 691.6,242.2 h -13.8 v -1.5 h 13.8 v 1.5 z" style="fill:#454746"/><path id="path3506" d="m 703.6,225.5 -4.4,11.7 h -1.6 l -4.4,-11.7 h 1.9 l 3.3,9.3 3.3,-9.3 h 1.9 z" style="fill:#454746"/><path id="path3508" d="m 712.3,225.2 c 1.6,0 2.9,0.6 3.8,1.7 0.9,1.1 1.4,2.6 1.4,4.4 0,1.8 -0.5,3.3 -1.4,4.5 -0.9,1.2 -2.2,1.7 -3.8,1.7 -1.6,0 -2.9,-0.6 -3.8,-1.7 -0.9,-1.1 -1.4,-2.6 -1.4,-4.5 0,-1.8 0.5,-3.3 1.4,-4.4 1,-1.2 2.2,-1.7 3.8,-1.7 z m 0,10.7 c 1.1,0 1.9,-0.4 2.5,-1.3 0.6,-0.9 0.9,-2 0.9,-3.3 0,-1.3 -0.3,-2.5 -0.9,-3.3 -0.6,-0.9 -1.4,-1.3 -2.5,-1.3 -1.1,0 -1.9,0.4 -2.5,1.3 -0.6,0.9 -0.9,2 -0.9,3.3 0,1.3 0.3,2.4 0.9,3.3 0.6,0.9 1.5,1.3 2.5,1.3 z" style="fill:#454746"/><path id="path3510" d="m 730.8,236.6 c -1.2,0.5 -2.3,0.8 -3.5,0.8 -2.1,0 -3.1,-1.1 -3.1,-3.3 V 227 H 722 v -1.5 h 2.2 v -3.2 h 1.7 v 3.2 h 4 v 1.5 h -4 v 6.7 c 0,0.7 0.2,1.3 0.5,1.7 0.3,0.4 0.7,0.6 1.3,0.6 1,0 1.9,-0.2 2.8,-0.6 l 0.3,1.2 z" style="fill:#454746"/><path id="path3512" d="m 744.8,231.4 h -8 c 0,1.3 0.4,2.4 1.2,3.3 0.8,0.9 1.7,1.3 2.8,1.3 1.1,0 2.2,-0.2 3.3,-0.6 l 0.3,1.4 c -1,0.5 -2.2,0.7 -3.6,0.7 -1.7,0 -3.1,-0.6 -4.2,-1.7 -1.1,-1.1 -1.6,-2.6 -1.6,-4.5 0,-1.9 0.5,-3.3 1.4,-4.4 1,-1.1 2.2,-1.7 3.7,-1.7 1.3,0 2.5,0.5 3.4,1.5 0.9,1 1.4,2.4 1.4,4.1 v 0.6 z m -1.9,-1.5 c 0,-0.9 -0.3,-1.7 -0.9,-2.3 -0.6,-0.6 -1.2,-0.9 -1.9,-0.9 -0.9,0 -1.7,0.3 -2.3,0.9 -0.6,0.6 -0.9,1.4 -1,2.3 h 6.1 z" style="fill:#454746"/><path id="path3514" d="m 757.1,227.1 c -1,-0.3 -1.9,-0.5 -2.8,-0.5 -1,0 -1.7,0.2 -2.3,0.5 -0.6,0.3 -0.8,0.7 -0.8,1.3 0,0.3 0.1,0.6 0.4,0.9 0.3,0.3 0.8,0.5 1.5,0.7 l 1.7,0.5 c 0.8,0.2 1.4,0.5 1.9,0.8 0.5,0.3 0.9,0.7 1.1,1.1 0.2,0.4 0.4,0.9 0.4,1.5 0,1.1 -0.5,2 -1.4,2.6 -0.9,0.6 -2.1,1 -3.6,1 -1.4,0 -2.6,-0.2 -3.6,-0.7 l 0.3,-1.5 c 1,0.5 2,0.7 3.2,0.7 1,0 1.8,-0.2 2.4,-0.5 0.6,-0.4 0.9,-0.8 0.9,-1.4 0,-0.4 -0.2,-0.8 -0.5,-1.1 -0.3,-0.3 -1,-0.6 -2.1,-1 -0.9,-0.3 -1.6,-0.5 -2,-0.6 -0.4,-0.1 -0.8,-0.3 -1.2,-0.6 -0.4,-0.3 -0.6,-0.6 -0.8,-1 -0.2,-0.4 -0.3,-0.8 -0.3,-1.3 0,-1 0.4,-1.8 1.3,-2.4 0.9,-0.6 2.1,-0.9 3.5,-0.9 0.9,0 2,0.2 3.1,0.5 l -0.3,1.4 z" style="fill:#454746"/><path id="path3516" d="m 764.4,221 c 1.7,1.3 3,2.7 3.8,4.4 0.9,1.7 1.3,3.4 1.3,5.3 0,1.9 -0.4,3.6 -1.3,5.3 -0.9,1.7 -2.1,3.1 -3.8,4.4 l -0.7,-1 c 1.4,-1.2 2.4,-2.5 3,-3.9 0.6,-1.4 0.9,-3 0.9,-4.9 0,-2 -0.3,-3.6 -0.9,-4.9 -0.6,-1.3 -1.6,-2.6 -2.9,-3.8 l 0.6,-0.9 z" style="fill:#454746"/><path style="fill:#454746" id="path3385" d="m 350.9,229.8 h -4.5 v 4.6 h -1.5 v -4.6 h -4.6 v -1.5 h 4.6 v -4.6 h 1.5 v 4.6 h 4.5 v 1.5 z"/></g></g><line id="line3518" x1="74" x2="74" y1="55" y2="435" stroke-miterlimit="10" style="fill:none;stroke:#454746;stroke-miterlimit:10"/><line id="line3520" x1="74" x2="724" y1="435" y2="435" stroke-miterlimit="10" style="fill:none;stroke:#454746;stroke-miterlimit:10"/><g id="g3522" transform="translate(-57,-54.5)"><line id="line3524" x1="137.5" x2="131" y1="109.5" y2="109.5" stroke-miterlimit="10" style="fill:none;stroke:#454746;stroke-miterlimit:10"/><line id="line3526" x1="137.5" x2="131" y1="157" y2="157" stroke-miterlimit="10" style="fill:none;stroke:#454746;stroke-miterlimit:10"/><line id="line3528" x1="137.5" x2="131" y1="204.5" y2="204.5" stroke-miterlimit="10" style="fill:none;stroke:#454746;stroke-miterlimit:10"/><line id="line3530" x1="137.5" x2="131" y1="252" y2="252" stroke-miterlimit="10" style="fill:none;stroke:#454746;stroke-miterlimit:10"/><line id="line3532" x1="137.5" x2="131" y1="299.5" y2="299.5" stroke-miterlimit="10" style="fill:none;stroke:#454746;stroke-miterlimit:10"/><line id="line3534" x1="137.5" x2="131" y1="347" y2="347" stroke-miterlimit="10" style="fill:none;stroke:#454746;stroke-miterlimit:10"/><line id="line3536" x1="137.5" x2="131" y1="394.5" y2="394.5" stroke-miterlimit="10" style="fill:none;stroke:#454746;stroke-miterlimit:10"/><line id="line3538" x1="137.5" x2="131" y1="442" y2="442" stroke-miterlimit="10" style="fill:none;stroke:#454746;stroke-miterlimit:10"/></g><g id="g3540" transform="translate(-57,-54.5)"><line id="line3542" x1="196" x2="196" y1="483" y2="489.5" stroke-miterlimit="10" style="fill:none;stroke:#454746;stroke-miterlimit:10"/><line id="line3544" x1="261" x2="261" y1="483" y2="489.5" stroke-miterlimit="10" style="fill:none;stroke:#454746;stroke-miterlimit:10"/><line id="line3546" x1="326" x2="326" y1="483" y2="489.5" stroke-miterlimit="10" style="fill:none;stroke:#454746;stroke-miterlimit:10"/><line id="line3548" x1="391" x2="391" y1="483" y2="489.5" stroke-miterlimit="10" style="fill:none;stroke:#454746;stroke-miterlimit:10"/><line id="line3550" x1="456" x2="456" y1="483" y2="489.5" stroke-miterlimit="10" style="fill:none;stroke:#454746;stroke-miterlimit:10"/><line id="line3552" x1="521" x2="521" y1="483" y2="489.5" stroke-miterlimit="10" style="fill:none;stroke:#454746;stroke-miterlimit:10"/><line id="line3554" x1="586" x2="586" y1="483" y2="489.5" stroke-miterlimit="10" style="fill:none;stroke:#454746;stroke-miterlimit:10"/><line id="line3556" x1="651" x2="651" y1="483" y2="489.5" stroke-miterlimit="10" style="fill:none;stroke:#454746;stroke-miterlimit:10"/><line id="line3558" x1="716" x2="716" y1="483" y2="489.5" stroke-miterlimit="10" style="fill:none;stroke:#454746;stroke-miterlimit:10"/><line id="line3560" x1="781" x2="781" y1="483" y2="489.5" stroke-miterlimit="10" style="fill:none;stroke:#454746;stroke-miterlimit:10"/></g><g id="g3562" transform="translate(-57,-54.5)"><g id="g3564"><path id="path3566" d="m 195.5,470.9 0,0 -1.9,1 -0.3,-1.5 2.5,-1.2 h 1.6 v 10.4 h -1.9 v -8.7 z" style="fill:#454746"/></g><g id="g3568"><path id="path3570" d="m 257.4,479.5 v -1.2 l 1.2,-1.1 c 2.4,-2.3 3.6,-3.5 3.6,-4.9 0,-0.9 -0.5,-1.7 -1.9,-1.7 -0.9,0 -1.7,0.5 -2.2,0.9 l -0.6,-1.4 c 0.8,-0.6 1.9,-1.1 3.2,-1.1 2.3,0 3.4,1.5 3.4,3.2 0,1.8 -1.3,3.3 -3.1,5 l -0.9,0.8 v 0 h 4.3 v 1.6 h -7 z" style="fill:#454746"/></g><g id="g3572"><path id="path3574" d="m 322.8,477.5 c 0.4,0.2 1.4,0.6 2.4,0.6 1.5,0 2.1,-0.8 2.1,-1.7 0,-1.2 -1.2,-1.8 -2.4,-1.8 H 324 v -1.4 h 0.9 c 0.9,0 2.1,-0.4 2.1,-1.5 0,-0.7 -0.5,-1.3 -1.7,-1.3 -0.8,0 -1.7,0.4 -2.1,0.7 l -0.4,-1.4 c 0.6,-0.4 1.7,-0.8 3,-0.8 2.1,0 3.2,1.2 3.2,2.5 0,1.1 -0.6,2 -1.9,2.4 v 0 c 1.3,0.2 2.3,1.2 2.3,2.6 0,1.8 -1.5,3.2 -4,3.2 -1.3,0 -2.4,-0.4 -2.9,-0.7 l 0.3,-1.4 z" style="fill:#454746"/></g><g id="g3576"><path id="path3578" d="m 391.7,479.5 v -2.6 H 387 v -1.3 l 4.2,-6.5 h 2.3 v 6.3 h 1.3 v 1.5 h -1.3 v 2.6 h -1.8 z m 0,-4.1 v -2.8 c 0,-0.6 0,-1.2 0.1,-1.8 h -0.1 c -0.3,0.7 -0.6,1.2 -0.9,1.8 l -1.9,2.8 0,0 h 2.8 z" style="fill:#454746"/></g><g id="g3580"><path id="path3582" d="m 459,470.7 h -4 l -0.3,2.1 c 0.2,0 0.4,0 0.8,0 0.9,0 1.8,0.2 2.5,0.7 0.8,0.5 1.4,1.4 1.4,2.6 0,2 -1.6,3.6 -4.2,3.6 -1.2,0 -2.2,-0.3 -2.8,-0.6 l 0.4,-1.5 c 0.4,0.2 1.3,0.5 2.3,0.5 1.2,0 2.3,-0.7 2.3,-1.9 0,-1.2 -0.9,-2 -3,-2 -0.6,0 -1,0 -1.4,0.1 l 0.7,-5.2 h 5.4 v 1.6 z" style="fill:#454746"/></g><g id="g3584"><path id="path3586" d="m 523.7,470.5 c -0.3,0 -0.6,0 -1,0 -2.2,0.3 -3.2,1.6 -3.5,3 h 0 c 0.5,-0.6 1.3,-1 2.3,-1 1.8,0 3.2,1.3 3.2,3.4 0,2 -1.5,3.7 -3.7,3.7 -2.5,0 -3.9,-1.9 -3.9,-4.5 0,-2 0.7,-3.6 1.8,-4.7 1,-0.9 2.2,-1.4 3.7,-1.5 0.4,0 0.8,0 1,0 l 0.1,1.6 z m -0.9,5.6 c 0,-1.2 -0.7,-2.1 -1.8,-2.1 -0.7,0 -1.4,0.4 -1.7,1.1 -0.1,0.2 -0.1,0.4 -0.1,0.6 0,1.4 0.7,2.5 2,2.5 1,0 1.6,-0.9 1.6,-2.1 z" style="fill:#454746"/></g><g id="g3588"><path id="path3590" d="m 589.6,469.1 v 1.3 l -4.4,9.1 h -2.1 l 4.4,-8.7 v 0 h -4.9 v -1.6 h 7 z" style="fill:#454746"/></g><g id="g3592"><path id="path3594" d="m 647.3,476.8 c 0,-1.3 0.8,-2.2 2,-2.7 v 0 c -1.1,-0.5 -1.6,-1.4 -1.6,-2.3 0,-1.7 1.5,-2.8 3.5,-2.8 2.2,0 3.3,1.3 3.3,2.6 0,0.9 -0.5,1.8 -1.6,2.4 v 0 c 1.1,0.4 2,1.3 2,2.6 0,1.9 -1.6,3.1 -3.8,3.1 -2.6,0 -3.8,-1.4 -3.8,-2.9 z m 5.4,-0.1 c 0,-1.1 -0.8,-1.6 -1.9,-2 -1,0.3 -1.5,1 -1.5,1.8 0,0.9 0.6,1.7 1.7,1.7 1.1,0.1 1.7,-0.6 1.7,-1.5 z m -3.2,-5 c 0,0.8 0.7,1.4 1.7,1.6 0.7,-0.2 1.3,-0.8 1.3,-1.6 0,-0.7 -0.4,-1.5 -1.5,-1.5 -1,0.1 -1.5,0.7 -1.5,1.5 z" style="fill:#454746"/></g><g id="g3596"><path id="path3598" d="m 713.2,478.1 c 0.3,0 0.6,0 1.1,0 0.8,-0.1 1.5,-0.3 2.1,-0.8 0.7,-0.5 1.1,-1.3 1.3,-2.3 l 0,0 c -0.5,0.6 -1.3,0.9 -2.3,0.9 -1.8,0 -3.2,-1.3 -3.2,-3.2 0,-2 1.5,-3.7 3.8,-3.7 2.4,0 3.7,1.9 3.7,4.4 0,2.2 -0.7,3.8 -1.8,4.8 -0.9,0.8 -2.2,1.3 -3.6,1.4 -0.4,0 -0.9,0 -1.2,0 v -1.5 z m 1,-5.6 c 0,1.1 0.6,1.9 1.7,1.9 0.8,0 1.4,-0.4 1.7,-0.9 0.1,-0.1 0.1,-0.3 0.1,-0.6 0,-1.4 -0.5,-2.6 -1.8,-2.6 -1,0.1 -1.7,1 -1.7,2.2 z" style="fill:#454746"/></g></g><g id="g3600" transform="translate(-57,-54.5)"><g id="g3602"><g id="g3604"><path id="path3606" d="m 150.4,441.7 c 0,3.3 -1.3,5.4 -3.8,5.4 -2.4,0 -3.7,-2.2 -3.7,-5.3 0,-3.2 1.4,-5.4 3.8,-5.4 2.5,0 3.7,2.3 3.7,5.3 z m -5.5,0.1 c 0,2.5 0.7,3.8 1.8,3.8 1.2,0 1.8,-1.4 1.8,-3.9 0,-2.4 -0.6,-3.8 -1.8,-3.8 -1.1,0 -1.9,1.3 -1.8,3.9 z" style="fill:#454746"/><path id="path3608" d="m 151,448.9 c 0.4,-1.2 0.9,-2.9 1.1,-4.2 l 2.1,-0.2 c -0.4,1.5 -1.2,3.2 -1.8,4.3 l -1.4,0.1 z" style="fill:#454746"/><path id="path3610" d="m 162,438.2 h -4 l -0.3,2.1 c 0.2,0 0.4,0 0.8,0 0.9,0 1.8,0.2 2.5,0.7 0.8,0.5 1.4,1.4 1.4,2.6 0,2 -1.6,3.6 -4.2,3.6 -1.2,0 -2.2,-0.3 -2.8,-0.6 l 0.4,-1.5 c 0.4,0.2 1.3,0.5 2.3,0.5 1.2,0 2.3,-0.7 2.3,-1.9 0,-1.2 -0.9,-2 -3,-2 -0.6,0 -1,0 -1.4,0.1 l 0.7,-5.2 h 5.4 v 1.6 z" style="fill:#454746"/></g></g><g id="g3612"><g id="g3614"><path id="path3616" d="m 146.1,390.9 0,0 -1.9,1 -0.3,-1.5 2.5,-1.2 h 1.6 v 10.4 h -1.9 v -8.7 z" style="fill:#454746"/></g></g><g id="g3618"><g id="g3620"><path id="path3622" d="m 146.1,343.4 0,0 -1.9,1 -0.3,-1.5 2.5,-1.2 H 148 V 352 h -1.9 v -8.6 z" style="fill:#454746"/><path id="path3624" d="m 151,353.9 c 0.4,-1.2 0.9,-2.9 1.1,-4.2 l 2.1,-0.2 c -0.4,1.5 -1.2,3.2 -1.8,4.3 l -1.4,0.1 z" style="fill:#454746"/><path id="path3626" d="m 162,343.2 h -4 l -0.3,2.1 c 0.2,0 0.4,0 0.8,0 0.9,0 1.8,0.2 2.5,0.7 0.8,0.5 1.4,1.4 1.4,2.6 0,2 -1.6,3.6 -4.2,3.6 -1.2,0 -2.2,-0.3 -2.8,-0.6 l 0.4,-1.5 c 0.4,0.2 1.3,0.5 2.3,0.5 1.2,0 2.3,-0.7 2.3,-1.9 0,-1.2 -0.9,-2 -3,-2 -0.6,0 -1,0 -1.4,0.1 l 0.7,-5.2 h 5.4 v 1.6 z" style="fill:#454746"/></g></g><g id="g3628"><g id="g3630"><path id="path3632" d="m 143,304.5 v -1.2 l 1.2,-1.1 c 2.4,-2.3 3.6,-3.5 3.6,-4.9 0,-0.9 -0.5,-1.7 -1.9,-1.7 -0.9,0 -1.7,0.5 -2.2,0.9 l -0.6,-1.4 c 0.8,-0.6 1.9,-1.1 3.2,-1.1 2.3,0 3.4,1.5 3.4,3.2 0,1.8 -1.3,3.3 -3.1,5 l -0.9,0.8 v 0 h 4.3 v 1.6 h -7 z" style="fill:#454746"/></g></g><g id="g3634"><g id="g3636"><path id="path3638" d="m 143,257 v -1.2 l 1.2,-1.1 c 2.4,-2.3 3.6,-3.5 3.6,-4.9 0,-0.9 -0.5,-1.7 -1.9,-1.7 -0.9,0 -1.7,0.5 -2.2,0.9 l -0.6,-1.4 c 0.8,-0.6 1.9,-1.1 3.2,-1.1 2.3,0 3.4,1.5 3.4,3.2 0,1.8 -1.3,3.3 -3.1,5 l -0.9,0.8 v 0 h 4.3 v 1.6 h -7 z" style="fill:#454746"/><path id="path3640" d="m 151,258.9 c 0.4,-1.2 0.9,-2.9 1.1,-4.2 l 2.1,-0.2 c -0.4,1.5 -1.2,3.2 -1.8,4.3 l -1.4,0.1 z" style="fill:#454746"/><path id="path3642" d="m 162,248.2 h -4 l -0.3,2.1 c 0.2,0 0.4,0 0.8,0 0.9,0 1.8,0.2 2.5,0.7 0.8,0.5 1.4,1.4 1.4,2.6 0,2 -1.6,3.6 -4.2,3.6 -1.2,0 -2.2,-0.3 -2.8,-0.6 l 0.4,-1.5 c 0.4,0.2 1.3,0.5 2.3,0.5 1.2,0 2.3,-0.7 2.3,-1.9 0,-1.2 -0.9,-2 -3,-2 -0.6,0 -1,0 -1.4,0.1 l 0.7,-5.2 h 5.4 v 1.6 z" style="fill:#454746"/></g></g><g id="g3644"><g id="g3646"><path id="path3648" d="m 143.4,207.5 c 0.4,0.2 1.4,0.6 2.4,0.6 1.5,0 2.1,-0.8 2.1,-1.7 0,-1.2 -1.2,-1.8 -2.4,-1.8 h -0.9 v -1.4 h 0.9 c 0.9,0 2.1,-0.4 2.1,-1.5 0,-0.7 -0.5,-1.3 -1.7,-1.3 -0.8,0 -1.7,0.4 -2.1,0.7 l -0.4,-1.4 c 0.6,-0.4 1.7,-0.8 3,-0.8 2.1,0 3.2,1.2 3.2,2.5 0,1.1 -0.6,2 -1.9,2.4 v 0 c 1.3,0.2 2.3,1.2 2.3,2.6 0,1.8 -1.5,3.2 -4,3.2 -1.3,0 -2.4,-0.4 -2.9,-0.7 l 0.3,-1.4 z" style="fill:#454746"/></g></g><g id="g3650"><g id="g3652"><path id="path3654" d="m 143.4,160 c 0.4,0.2 1.4,0.6 2.4,0.6 1.5,0 2.1,-0.8 2.1,-1.7 0,-1.2 -1.2,-1.8 -2.4,-1.8 h -0.9 v -1.4 h 0.9 c 0.9,0 2.1,-0.4 2.1,-1.5 0,-0.7 -0.5,-1.3 -1.7,-1.3 -0.8,0 -1.7,0.4 -2.1,0.7 l -0.4,-1.4 c 0.6,-0.4 1.7,-0.8 3,-0.8 2.1,0 3.2,1.2 3.2,2.5 0,1.1 -0.6,2 -1.9,2.4 v 0 c 1.3,0.2 2.3,1.2 2.3,2.6 0,1.8 -1.5,3.2 -4,3.2 -1.3,0 -2.4,-0.4 -2.9,-0.7 l 0.3,-1.4 z" style="fill:#454746"/><path id="path3656" d="m 151,163.9 c 0.4,-1.2 0.9,-2.9 1.1,-4.2 l 2.1,-0.2 c -0.4,1.5 -1.2,3.2 -1.8,4.3 l -1.4,0.1 z" style="fill:#454746"/><path id="path3658" d="m 162,153.2 h -4 l -0.3,2.1 c 0.2,0 0.4,0 0.8,0 0.9,0 1.8,0.2 2.5,0.7 0.8,0.5 1.4,1.4 1.4,2.6 0,2 -1.6,3.6 -4.2,3.6 -1.2,0 -2.2,-0.3 -2.8,-0.6 l 0.4,-1.5 c 0.4,0.2 1.3,0.5 2.3,0.5 1.2,0 2.3,-0.7 2.3,-1.9 0,-1.2 -0.9,-2 -3,-2 -0.6,0 -1,0 -1.4,0.1 l 0.7,-5.2 h 5.4 v 1.6 z" style="fill:#454746"/></g></g></g><line id="line3660" x1="74" x2="724" y1="245.5" y2="212" stroke-miterlimit="10" style="fill:none;stroke:#75b640;stroke-width:4;stroke-linecap:round;stroke-miterlimit:10"/></svg>