<svg xmlns="http://www.w3.org/2000/svg" xmlns:svg="http://www.w3.org/2000/svg" id="graphs" width="100%" height="100%" x="0" y="0" enable-background="new 0 0 900 600" version="1.1" viewBox="0 0 778 509.7" xml:space="preserve"><metadata id="metadata233"/><path id="path3" d="M 725,440.3 H 71 c -1.6,0 -3,-1.4 -3,-3 V 53 c 0,-1.7 1.4,-3 3,-3 h 654 c 1.7,0 3,1.3 3,3 v 384.3 c 0,1.7 -1.3,3 -3,3 z" style="fill:#f8faf6"/><g id="g5" transform="translate(-64,-54.5)"><path id="path7" d="m 375,533.8 v -16.2 h 3.4 l 4.2,6.9 c 1.1,1.8 2,3.7 2.8,5.4 h 0 c -0.2,-2.2 -0.3,-4.2 -0.3,-6.7 v -5.6 h 2.7 v 16.2 h -3 l -4.2,-7.1 c -1,-1.8 -2.1,-3.8 -2.9,-5.6 l -0.1,0 c 0.1,2.1 0.1,4.2 0.1,6.9 v 5.8 H 375 z" style="fill:#454746"/><path id="path9" d="m 401.6,530.3 c 0,1.4 0,2.5 0.1,3.5 h -2.6 L 399,532 h 0 c -0.5,0.8 -1.7,2 -3.7,2 -2.1,0 -4.1,-1.3 -4.1,-5.1 V 522 h 3 v 6.4 c 0,1.9 0.6,3.2 2.2,3.2 1.2,0 1.9,-0.8 2.3,-1.6 0.1,-0.3 0.2,-0.6 0.2,-0.9 V 522 h 3 v 8.3 z" style="fill:#454746"/><path id="path11" d="m 404.8,525.6 c 0,-1.3 0,-2.5 -0.1,-3.5 h 2.5 l 0.1,1.7 h 0.1 c 0.6,-0.9 1.6,-2 3.6,-2 1.5,0 2.7,0.9 3.2,2.2 h 0 c 0.4,-0.6 0.9,-1.1 1.4,-1.5 0.6,-0.5 1.4,-0.7 2.4,-0.7 1.9,0 3.9,1.3 3.9,5.1 v 6.9 H 419 v -6.5 c 0,-1.9 -0.7,-3.1 -2.1,-3.1 -1,0 -1.8,0.7 -2.1,1.6 -0.1,0.3 -0.1,0.6 -0.1,1 v 7 H 412 V 527 c 0,-1.6 -0.6,-2.8 -2,-2.8 -1.1,0 -1.8,0.9 -2.1,1.7 -0.1,0.3 -0.2,0.6 -0.2,1 v 6.9 h -2.9 v -8.2 z" style="fill:#454746"/><path id="path13" d="m 425,533.8 c 0,-0.8 0.1,-2.1 0.1,-3.3 v -13.8 h 3 v 7 h 0 c 0.7,-1.1 2,-1.9 3.7,-1.9 2.9,0 4.9,2.4 4.9,5.9 0,4.2 -2.7,6.3 -5.3,6.3 -1.5,0 -2.9,-0.6 -3.7,-2 h 0 l -0.1,1.8 H 425 z m 3.1,-4.8 c 0,0.2 0,0.5 0.1,0.7 0.3,1.2 1.3,2.1 2.6,2.1 1.8,0 3,-1.5 3,-3.8 0,-2.1 -1,-3.7 -3,-3.7 -1.2,0 -2.3,0.9 -2.6,2.2 0,0.2 -0.1,0.5 -0.1,0.8 v 1.7 z" style="fill:#454746"/><path id="path15" d="m 441.3,528.8 c 0.1,2.1 1.7,3 3.6,3 1.4,0 2.4,-0.2 3.2,-0.5 l 0.4,2 c -1,0.4 -2.4,0.7 -4.1,0.7 -3.8,0 -6,-2.3 -6,-5.9 0,-3.2 2,-6.3 5.7,-6.3 3.8,0 5,3.1 5,5.7 0,0.6 0,1 -0.1,1.2 h -7.7 z m 5.1,-2 c 0,-1.1 -0.5,-2.9 -2.4,-2.9 -1.8,0 -2.6,1.7 -2.7,2.9 h 5.1 z" style="fill:#454746"/><path id="path17" d="m 451.6,525.9 c 0,-1.6 0,-2.7 -0.1,-3.8 h 2.6 l 0.1,2.2 h 0.1 c 0.6,-1.7 1.9,-2.5 3.2,-2.5 0.3,0 0.5,0 0.7,0.1 v 2.8 c -0.2,0 -0.5,-0.1 -0.9,-0.1 -1.4,0 -2.4,0.9 -2.6,2.2 0,0.3 -0.1,0.6 -0.1,0.9 v 6 h -3 v -7.8 z" style="fill:#454746"/><path id="path19" d="m 476.2,527.9 c 0,4.3 -3,6.2 -6,6.2 -3.3,0 -5.9,-2.3 -5.9,-6 0,-3.8 2.5,-6.2 6,-6.2 3.6,0 5.9,2.4 5.9,6 z m -8.8,0.1 c 0,2.3 1.1,4 2.9,4 1.7,0 2.9,-1.7 2.9,-4 0,-1.8 -0.8,-3.9 -2.8,-3.9 -2.2,-0.1 -3,2 -3,3.9 z" style="fill:#454746"/><path id="path21" d="m 478.9,533.8 v -9.5 h -1.6 v -2.2 h 1.6 v -0.5 c 0,-1.5 0.4,-3 1.4,-4 0.9,-0.8 2,-1.1 3,-1.1 0.8,0 1.4,0.1 1.9,0.3 l -0.2,2.3 c -0.3,-0.1 -0.7,-0.2 -1.2,-0.2 -1.5,0 -2,1.2 -2,2.7 v 0.6 h 2.6 v 2.2 h -2.5 v 9.5 h -3 z" style="fill:#454746"/><path id="path23" d="m 493.1,522.1 1.9,5.9 c 0.3,1 0.6,2 0.8,2.9 h 0.1 c 0.2,-1 0.5,-1.9 0.8,-2.9 l 1.8,-5.9 h 3.1 l -4.5,11.7 h -2.9 l -4.3,-11.7 h 3.2 z" style="fill:#454746"/><path id="path25" d="m 514.2,527.9 c 0,4.3 -3,6.2 -6,6.2 -3.3,0 -5.9,-2.3 -5.9,-6 0,-3.8 2.5,-6.2 6,-6.2 3.6,0 5.9,2.4 5.9,6 z m -8.8,0.1 c 0,2.3 1.1,4 2.9,4 1.7,0 2.9,-1.7 2.9,-4 0,-1.8 -0.8,-3.9 -2.8,-3.9 -2.1,-0.1 -3,2 -3,3.9 z" style="fill:#454746"/><path id="path27" d="m 520,518.8 v 3.3 h 2.8 v 2.2 H 520 v 5.2 c 0,1.4 0.4,2.2 1.5,2.2 0.5,0 0.9,-0.1 1.2,-0.1 l 0,2.3 c -0.4,0.2 -1.2,0.3 -2.1,0.3 -1.1,0 -2,-0.4 -2.5,-1 -0.6,-0.7 -0.9,-1.7 -0.9,-3.3 v -5.5 h -1.7 v -2.2 h 1.7 v -2.6 l 2.8,-0.8 z" style="fill:#454746"/><path id="path29" d="m 527,528.8 c 0.1,2.1 1.7,3 3.6,3 1.4,0 2.4,-0.2 3.2,-0.5 l 0.4,2 c -1,0.4 -2.4,0.7 -4.1,0.7 -3.8,0 -6,-2.3 -6,-5.9 0,-3.2 2,-6.3 5.7,-6.3 3.8,0 5,3.1 5,5.7 0,0.6 0,1 -0.1,1.2 H 527 z m 5.2,-2 c 0,-1.1 -0.5,-2.9 -2.4,-2.9 -1.8,0 -2.6,1.7 -2.7,2.9 h 5.1 z" style="fill:#454746"/><path id="path31" d="m 537.2,531.1 c 0.7,0.4 1.9,0.8 3,0.8 1.3,0 1.9,-0.5 1.9,-1.3 0,-0.8 -0.5,-1.2 -1.9,-1.7 -2.3,-0.8 -3.2,-2 -3.2,-3.4 0,-2.1 1.7,-3.7 4.4,-3.7 1.3,0 2.4,0.3 3.1,0.7 l -0.6,2.1 c -0.5,-0.3 -1.4,-0.7 -2.5,-0.7 -1.1,0 -1.6,0.5 -1.6,1.2 0,0.7 0.6,1.1 2,1.6 2.1,0.8 3.1,1.8 3.1,3.6 0,2.1 -1.7,3.6 -4.8,3.6 -1.4,0 -2.7,-0.3 -3.6,-0.8 l 0.7,-2 z" style="fill:#454746"/></g><g id="g33" transform="translate(-64,-54.5)"><path id="path35" d="M 110.2,350.9 H 94 v -3.4 l 6.9,-4.2 c 1.8,-1.1 3.7,-2 5.4,-2.8 v 0 c -2.2,0.2 -4.2,0.3 -6.7,0.3 H 94 v -2.7 h 16.2 v 3 l -7.1,4.2 c -1.8,1 -3.8,2.1 -5.6,2.9 l 0,0.1 c 2.1,-0.1 4.2,-0.1 6.9,-0.1 h 5.8 v 2.7 z" style="fill:#454746"/><path id="path37" d="m 105.2,332.8 c 2.1,-0.1 3,-1.7 3,-3.6 0,-1.4 -0.2,-2.4 -0.5,-3.2 l 2,-0.4 c 0.4,1 0.7,2.4 0.7,4.1 0,3.8 -2.3,6 -5.9,6 -3.2,0 -6.3,-2 -6.3,-5.7 0,-3.8 3.1,-5 5.7,-5 0.6,0 1,0 1.2,0.1 v 7.7 z m -2.1,-5.2 c -1.1,0 -2.9,0.5 -2.9,2.4 0,1.8 1.7,2.6 2.9,2.7 v -5.1 z" style="fill:#454746"/><path id="path39" d="m 98.5,320.8 5.3,-1.2 c 1.2,-0.3 2.5,-0.5 3.8,-0.7 v 0 c -1.3,-0.2 -2.6,-0.6 -3.8,-1 l -5.3,-1.5 V 314 l 5.2,-1.5 c 1.4,-0.4 2.6,-0.7 3.9,-0.9 v 0 c -1.3,-0.2 -2.5,-0.5 -3.9,-0.8 l -5.2,-1.3 v -2.9 l 11.7,3.7 v 2.7 l -4.8,1.4 c -1.2,0.4 -2.3,0.6 -3.7,0.9 v 0 c 1.4,0.2 2.6,0.6 3.7,0.9 l 4.8,1.5 v 2.8 L 98.5,324 v -3.2 z" style="fill:#454746"/><path id="path41" d="m 107.5,299.7 c 0.4,-0.7 0.8,-1.9 0.8,-3 0,-1.3 -0.5,-1.9 -1.3,-1.9 -0.8,0 -1.2,0.5 -1.7,1.9 -0.8,2.3 -2,3.2 -3.4,3.2 -2.1,0 -3.7,-1.7 -3.7,-4.4 0,-1.3 0.3,-2.4 0.7,-3.1 l 2.1,0.6 c -0.3,0.5 -0.7,1.4 -0.7,2.5 0,1.1 0.5,1.6 1.2,1.6 0.7,0 1.1,-0.6 1.6,-2 0.8,-2.1 1.8,-3.1 3.6,-3.1 2.1,0 3.6,1.7 3.6,4.8 0,1.4 -0.3,2.7 -0.8,3.6 l -2,-0.7 z" style="fill:#454746"/><path id="path43" d="m 109.8,281 c 0.3,0.6 0.6,1.8 0.6,3.3 0,3.6 -2.3,6 -6,6 -3.5,0 -6.2,-2.4 -6.2,-6.5 0,-1.1 0.2,-2.2 0.6,-2.9 l 2.2,0.5 c -0.2,0.5 -0.5,1.2 -0.5,2.2 0,2.3 1.7,3.6 3.8,3.6 2.4,0 3.8,-1.6 3.8,-3.6 0,-1 -0.2,-1.8 -0.5,-2.3 l 2.2,-0.3 z" style="fill:#454746"/><path id="path45" d="m 104.2,267.9 c 4.3,0 6.2,3 6.2,6 0,3.3 -2.3,5.9 -6,5.9 -3.8,0 -6.2,-2.5 -6.2,-6 0,-3.6 2.5,-5.9 6,-5.9 z m 0.2,8.8 c 2.3,0 4,-1.1 4,-2.9 0,-1.7 -1.7,-2.9 -4,-2.9 -1.8,0 -3.9,0.8 -3.9,2.8 -0.1,2.2 1.9,3 3.9,3 z" style="fill:#454746"/><path id="path47" d="m 102.3,265.5 c -1.6,0 -2.7,0 -3.8,0.1 V 263 l 2.2,-0.1 v -0.1 c -1.7,-0.6 -2.5,-1.9 -2.5,-3.2 0,-0.3 0,-0.5 0.1,-0.7 h 2.8 c 0,0.2 -0.1,0.5 -0.1,0.9 0,1.4 0.9,2.4 2.2,2.6 0.3,0 0.6,0.1 0.9,0.1 h 6 v 3 h -7.8 z" style="fill:#454746"/><path id="path49" d="m 105.2,255.1 c 2.1,-0.1 3,-1.7 3,-3.6 0,-1.4 -0.2,-2.4 -0.5,-3.2 l 2,-0.4 c 0.4,1 0.7,2.4 0.7,4.1 0,3.8 -2.3,6 -5.9,6 -3.2,0 -6.3,-2 -6.3,-5.7 0,-3.8 3.1,-5 5.7,-5 0.6,0 1,0 1.2,0.1 v 7.7 z m -2.1,-5.2 c -1.1,0 -2.9,0.5 -2.9,2.4 0,1.8 1.7,2.6 2.9,2.7 v -5.1 z" style="fill:#454746"/></g><g id="g51" transform="translate(-64,-54.5)"><line id="line53" x1="137" x2="137" y1="109.5" y2="489.5" stroke-miterlimit="10" style="fill:none;stroke:#454746;stroke-miterlimit:10"/><line id="line55" x1="202" x2="202" y1="109.5" y2="489.5" stroke-miterlimit="10" style="fill:none;stroke:#d6d6d6;stroke-miterlimit:10"/><line id="line57" x1="267" x2="267" y1="109.5" y2="489.5" stroke-miterlimit="10" style="fill:none;stroke:#d6d6d6;stroke-miterlimit:10"/><line id="line59" x1="332" x2="332" y1="109.5" y2="489.5" stroke-miterlimit="10" style="fill:none;stroke:#d6d6d6;stroke-miterlimit:10"/><line id="line61" x1="397" x2="397" y1="109.5" y2="489.5" stroke-miterlimit="10" style="fill:none;stroke:#d6d6d6;stroke-miterlimit:10"/><line id="line63" x1="462" x2="462" y1="109.5" y2="489.5" stroke-miterlimit="10" style="fill:none;stroke:#d6d6d6;stroke-miterlimit:10"/><line id="line65" x1="527" x2="527" y1="109.5" y2="489.5" stroke-miterlimit="10" style="fill:none;stroke:#d6d6d6;stroke-miterlimit:10"/><line id="line67" x1="592" x2="592" y1="109.5" y2="489.5" stroke-miterlimit="10" style="fill:none;stroke:#d6d6d6;stroke-miterlimit:10"/><line id="line69" x1="657" x2="657" y1="109.5" y2="489.5" stroke-miterlimit="10" style="fill:none;stroke:#d6d6d6;stroke-miterlimit:10"/><line id="line71" x1="722" x2="722" y1="109.5" y2="489.5" stroke-miterlimit="10" style="fill:none;stroke:#d6d6d6;stroke-miterlimit:10"/><line id="line73" x1="787" x2="787" y1="109.5" y2="489.5" stroke-miterlimit="10" style="fill:none;stroke:#d6d6d6;stroke-miterlimit:10"/><line id="line75" x1="137" x2="787" y1="109.5" y2="109.5" stroke-miterlimit="10" style="fill:none;stroke:#d6d6d6;stroke-miterlimit:10"/><line id="line77" x1="137" x2="787" y1="185.5" y2="185.5" stroke-miterlimit="10" style="fill:none;stroke:#d6d6d6;stroke-miterlimit:10"/><line id="line79" x1="137" x2="787" y1="261.5" y2="261.5" stroke-miterlimit="10" style="fill:none;stroke:#d6d6d6;stroke-miterlimit:10"/><line id="line81" x1="137" x2="787" y1="337.5" y2="337.5" stroke-miterlimit="10" style="fill:none;stroke:#d6d6d6;stroke-miterlimit:10"/><line id="line83" x1="137" x2="787" y1="413.5" y2="413.5" stroke-miterlimit="10" style="fill:none;stroke:#d6d6d6;stroke-miterlimit:10"/><line id="line85" x1="137" x2="787" y1="489.5" y2="489.5" stroke-miterlimit="10" style="fill:none;stroke:#454746;stroke-miterlimit:10"/></g><g id="g87" transform="translate(-64,-54.5)"><g id="g89"><path id="path91" d="m 149.9,418.5 v -1.2 l 1.2,-1.1 c 2.4,-2.3 3.6,-3.5 3.6,-4.9 0,-0.9 -0.5,-1.7 -1.9,-1.7 -0.9,0 -1.7,0.5 -2.2,0.9 l -0.6,-1.4 c 0.8,-0.6 1.9,-1.1 3.2,-1.1 2.3,0 3.4,1.5 3.4,3.2 0,1.8 -1.3,3.3 -3.1,5 l -0.9,0.8 v 0 h 4.3 v 1.6 h -7 z" style="fill:#454746"/></g><g id="g93"><path id="path95" d="m 154.2,342.5 v -2.6 h -4.7 v -1.3 l 4.2,-6.5 h 2.3 v 6.3 h 1.3 v 1.5 H 156 v 2.6 h -1.8 z m 0,-4.1 v -2.8 c 0,-0.6 0,-1.2 0.1,-1.8 h -0.1 c -0.3,0.7 -0.6,1.2 -0.9,1.8 l -1.9,2.8 0,0 h 2.8 z" style="fill:#454746"/></g><g id="g97"><path id="path99" d="m 156.2,257.5 c -0.3,0 -0.6,0 -1,0 -2.2,0.3 -3.2,1.6 -3.5,3 h 0 c 0.5,-0.6 1.3,-1 2.3,-1 1.8,0 3.2,1.3 3.2,3.4 0,2 -1.5,3.7 -3.7,3.7 -2.5,0 -3.9,-1.9 -3.9,-4.5 0,-2 0.7,-3.6 1.8,-4.7 1,-0.9 2.2,-1.4 3.7,-1.5 0.4,0 0.8,0 1,0 l 0.1,1.6 z m -0.9,5.6 c 0,-1.2 -0.7,-2.1 -1.8,-2.1 -0.7,0 -1.4,0.4 -1.7,1.1 -0.1,0.2 -0.1,0.4 -0.1,0.6 0,1.4 0.7,2.5 2,2.5 1,0 1.6,-0.9 1.6,-2.1 z" style="fill:#454746"/></g><g id="g101"><path id="path103" d="m 149.8,187.8 c 0,-1.3 0.8,-2.2 2,-2.7 v 0 c -1.1,-0.5 -1.6,-1.4 -1.6,-2.3 0,-1.7 1.5,-2.8 3.5,-2.8 2.2,0 3.3,1.3 3.3,2.6 0,0.9 -0.5,1.8 -1.6,2.4 v 0 c 1.1,0.4 2,1.3 2,2.6 0,1.9 -1.6,3.1 -3.8,3.1 -2.6,0 -3.8,-1.4 -3.8,-2.9 z m 5.4,-0.1 c 0,-1.1 -0.8,-1.6 -1.9,-2 -1,0.3 -1.5,1 -1.5,1.8 0,0.9 0.6,1.7 1.7,1.7 1.1,0.1 1.7,-0.6 1.7,-1.5 z m -3.2,-5 c 0,0.8 0.7,1.4 1.7,1.6 0.7,-0.2 1.3,-0.8 1.3,-1.6 0,-0.7 -0.4,-1.5 -1.5,-1.5 -1,0.1 -1.5,0.7 -1.5,1.5 z" style="fill:#454746"/></g></g><g id="g105" transform="translate(-64,-54.5)"><g id="g107"><path id="path109" d="m 201.5,469.9 0,0 -1.9,1 -0.3,-1.5 2.5,-1.2 h 1.6 v 10.4 h -1.9 v -8.7 z" style="fill:#454746"/></g><g id="g111"><path id="path113" d="m 263.4,478.5 v -1.2 l 1.2,-1.1 c 2.4,-2.3 3.6,-3.5 3.6,-4.9 0,-0.9 -0.5,-1.7 -1.9,-1.7 -0.9,0 -1.7,0.5 -2.2,0.9 l -0.6,-1.4 c 0.8,-0.6 1.9,-1.1 3.2,-1.1 2.3,0 3.4,1.5 3.4,3.2 0,1.8 -1.3,3.3 -3.1,5 l -0.9,0.8 v 0 h 4.3 v 1.6 h -7 z" style="fill:#454746"/></g><g id="g115"><path id="path117" d="m 328.8,476.5 c 0.4,0.2 1.4,0.6 2.4,0.6 1.5,0 2.1,-0.8 2.1,-1.7 0,-1.2 -1.2,-1.8 -2.4,-1.8 H 330 v -1.4 h 0.9 c 0.9,0 2.1,-0.4 2.1,-1.5 0,-0.7 -0.5,-1.3 -1.7,-1.3 -0.8,0 -1.7,0.4 -2.1,0.7 l -0.4,-1.4 c 0.6,-0.4 1.7,-0.8 3,-0.8 2.1,0 3.2,1.2 3.2,2.5 0,1.1 -0.6,2 -1.9,2.4 v 0 c 1.3,0.2 2.3,1.2 2.3,2.6 0,1.8 -1.5,3.2 -4,3.2 -1.3,0 -2.4,-0.4 -2.9,-0.7 l 0.3,-1.4 z" style="fill:#454746"/></g><g id="g119"><path id="path121" d="m 397.7,478.5 v -2.6 H 393 v -1.3 l 4.2,-6.5 h 2.3 v 6.3 h 1.3 v 1.5 h -1.3 v 2.6 h -1.8 z m 0,-4.1 v -2.8 c 0,-0.6 0,-1.2 0.1,-1.8 h -0.1 c -0.3,0.7 -0.6,1.2 -0.9,1.8 l -1.9,2.8 0,0 h 2.8 z" style="fill:#454746"/></g><g id="g123"><path id="path125" d="m 465,469.7 h -4 l -0.3,2.1 c 0.2,0 0.4,0 0.8,0 0.9,0 1.8,0.2 2.5,0.7 0.8,0.5 1.4,1.4 1.4,2.6 0,2 -1.6,3.6 -4.2,3.6 -1.2,0 -2.2,-0.3 -2.8,-0.6 l 0.4,-1.5 c 0.4,0.2 1.3,0.5 2.3,0.5 1.2,0 2.3,-0.7 2.3,-1.9 0,-1.2 -0.9,-2 -3,-2 -0.6,0 -1,0 -1.4,0.1 l 0.7,-5.2 h 5.4 v 1.6 z" style="fill:#454746"/></g><g id="g127"><path id="path129" d="m 529.7,469.5 c -0.3,0 -0.6,0 -1,0 -2.2,0.3 -3.2,1.6 -3.5,3 h 0 c 0.5,-0.6 1.3,-1 2.3,-1 1.8,0 3.2,1.3 3.2,3.4 0,2 -1.5,3.7 -3.7,3.7 -2.5,0 -3.9,-1.9 -3.9,-4.5 0,-2 0.7,-3.6 1.8,-4.7 1,-0.9 2.2,-1.4 3.7,-1.5 0.4,0 0.8,0 1,0 l 0.1,1.6 z m -0.9,5.6 c 0,-1.2 -0.7,-2.1 -1.8,-2.1 -0.7,0 -1.4,0.4 -1.7,1.1 -0.1,0.2 -0.1,0.4 -0.1,0.6 0,1.4 0.7,2.5 2,2.5 1,0 1.6,-0.9 1.6,-2.1 z" style="fill:#454746"/></g><g id="g131"><path id="path133" d="m 595.6,468.1 v 1.3 l -4.4,9.1 h -2.1 l 4.4,-8.7 v 0 h -4.9 v -1.6 h 7 z" style="fill:#454746"/></g><g id="g135"><path id="path137" d="m 653.3,475.8 c 0,-1.3 0.8,-2.2 2,-2.7 v 0 c -1.1,-0.5 -1.6,-1.4 -1.6,-2.3 0,-1.7 1.5,-2.8 3.5,-2.8 2.2,0 3.3,1.3 3.3,2.6 0,0.9 -0.5,1.8 -1.6,2.4 v 0 c 1.1,0.4 2,1.3 2,2.6 0,1.9 -1.6,3.1 -3.8,3.1 -2.6,0 -3.8,-1.4 -3.8,-2.9 z m 5.4,-0.1 c 0,-1.1 -0.8,-1.6 -1.9,-2 -1,0.3 -1.5,1 -1.5,1.8 0,0.9 0.6,1.7 1.7,1.7 1.1,0.1 1.7,-0.6 1.7,-1.5 z m -3.2,-5 c 0,0.8 0.7,1.4 1.7,1.6 0.7,-0.2 1.3,-0.8 1.3,-1.6 0,-0.7 -0.4,-1.5 -1.5,-1.5 -1,0.1 -1.5,0.7 -1.5,1.5 z" style="fill:#454746"/></g><g id="g139"><path id="path141" d="m 719.2,477.1 c 0.3,0 0.6,0 1.1,0 0.8,-0.1 1.5,-0.3 2.1,-0.8 0.7,-0.5 1.1,-1.3 1.3,-2.3 l 0,0 c -0.5,0.6 -1.3,0.9 -2.3,0.9 -1.8,0 -3.2,-1.3 -3.2,-3.2 0,-2 1.5,-3.7 3.8,-3.7 2.4,0 3.7,1.9 3.7,4.4 0,2.2 -0.7,3.8 -1.8,4.8 -0.9,0.8 -2.2,1.3 -3.6,1.4 -0.4,0 -0.9,0 -1.2,0 v -1.5 z m 1,-5.6 c 0,1.1 0.6,1.9 1.7,1.9 0.8,0 1.4,-0.4 1.7,-0.9 0.1,-0.1 0.1,-0.3 0.1,-0.6 0,-1.4 -0.5,-2.6 -1.8,-2.6 -1,0.1 -1.7,1 -1.7,2.2 z" style="fill:#454746"/></g></g><line id="line143" x1="73" x2="398" y1="435" y2="55" stroke-miterlimit="10" style="fill:#fff;stroke:#75b640;stroke-width:4;stroke-linecap:round;stroke-miterlimit:10"/><g id="g145" transform="translate(-64,-54.5)"><g id="g147"><path id="path149" d="m 354.6,286.2 c 1.6,0 2.9,0.6 3.8,1.7 0.9,1.1 1.4,2.6 1.4,4.4 0,1.8 -0.5,3.3 -1.4,4.5 -0.9,1.2 -2.2,1.7 -3.8,1.7 -1.6,0 -2.9,-0.6 -3.8,-1.7 -0.9,-1.1 -1.4,-2.6 -1.4,-4.5 0,-1.8 0.5,-3.3 1.4,-4.4 0.9,-1.2 2.2,-1.7 3.8,-1.7 z m 0,10.7 c 1.1,0 1.9,-0.4 2.5,-1.3 0.6,-0.9 0.9,-2 0.9,-3.3 0,-1.3 -0.3,-2.5 -0.9,-3.3 -0.6,-0.9 -1.4,-1.3 -2.5,-1.3 -1.1,0 -1.9,0.4 -2.5,1.3 -0.6,0.9 -0.9,2 -0.9,3.3 0,1.3 0.3,2.4 0.9,3.3 0.6,0.9 1.4,1.3 2.5,1.3 z" style="fill:#454746"/><path id="path151" d="m 372,298.2 h -4.8 v -14.3 h -3.1 v -1.5 h 4.8 v 14.3 h 3 v 1.5 z" style="fill:#454746"/><path id="path153" d="m 386.7,298.2 h -1.8 v -1.7 c -0.4,0.6 -0.9,1.1 -1.5,1.4 -0.6,0.3 -1.4,0.6 -2.1,0.6 -1.3,0 -2.4,-0.6 -3.2,-1.8 -0.8,-1.2 -1.2,-2.7 -1.2,-4.5 0,-1.7 0.4,-3.1 1.2,-4.3 0.8,-1.1 1.9,-1.7 3.2,-1.7 1.5,0 2.7,0.6 3.6,1.8 v -5.7 h 1.8 v 15.9 z m -1.8,-3.6 v -4.9 c -0.8,-1.3 -1.8,-2 -3,-2 -1,0 -1.7,0.4 -2.3,1.3 -0.6,0.9 -0.8,1.9 -0.8,3.3 0,1.3 0.3,2.5 0.8,3.3 0.5,0.9 1.3,1.3 2.2,1.3 0.4,0 0.9,-0.1 1.3,-0.4 0.4,-0.3 0.9,-0.6 1.3,-1.1 0.3,-0.4 0.5,-0.7 0.5,-0.8 z" style="fill:#454746"/><path id="path155" d="m 402.9,303.2 h -13.8 v -1.5 h 13.8 v 1.5 z" style="fill:#454746"/><path id="path157" d="m 413.1,288.1 c -1,-0.3 -1.9,-0.5 -2.8,-0.5 -1,0 -1.7,0.2 -2.3,0.5 -0.6,0.3 -0.8,0.7 -0.8,1.3 0,0.3 0.1,0.6 0.4,0.9 0.3,0.3 0.8,0.5 1.5,0.7 l 1.7,0.5 c 0.8,0.2 1.4,0.5 1.9,0.8 0.5,0.3 0.9,0.7 1.1,1.1 0.2,0.4 0.4,0.9 0.4,1.5 0,1.1 -0.5,2 -1.4,2.6 -0.9,0.6 -2.1,1 -3.6,1 -1.4,0 -2.6,-0.2 -3.6,-0.7 l 0.3,-1.5 c 1,0.5 2,0.7 3.2,0.7 1,0 1.8,-0.2 2.4,-0.5 0.6,-0.4 0.9,-0.8 0.9,-1.4 0,-0.4 -0.2,-0.8 -0.5,-1.1 -0.3,-0.3 -1,-0.6 -2.1,-1 -0.9,-0.3 -1.6,-0.5 -2,-0.6 -0.4,-0.1 -0.8,-0.3 -1.2,-0.6 -0.4,-0.3 -0.6,-0.6 -0.8,-1 -0.2,-0.4 -0.3,-0.8 -0.3,-1.3 0,-1 0.4,-1.8 1.3,-2.4 0.9,-0.6 2.1,-0.9 3.5,-0.9 0.9,0 2,0.2 3.1,0.5 l -0.3,1.4 z" style="fill:#454746"/><path id="path159" d="m 428.1,297.8 c -1,0.5 -2.1,0.7 -3.4,0.7 -1.8,0 -3.3,-0.6 -4.4,-1.7 -1.1,-1.1 -1.6,-2.6 -1.6,-4.5 0,-1.9 0.6,-3.3 1.7,-4.5 1.1,-1.1 2.6,-1.7 4.4,-1.7 1.2,0 2.3,0.2 3.4,0.6 l -0.5,1.4 c -1.1,-0.4 -2,-0.6 -2.9,-0.6 -1.3,0 -2.3,0.4 -3.1,1.2 -0.8,0.8 -1.1,2 -1.1,3.4 0,1.3 0.4,2.4 1.2,3.3 0.8,0.9 1.8,1.3 3,1.3 1,0 2,-0.2 3.1,-0.6 l 0.2,1.7 z" style="fill:#454746"/><path id="path161" d="m 437.4,286.2 c 1.6,0 2.9,0.6 3.8,1.7 0.9,1.1 1.4,2.6 1.4,4.4 0,1.8 -0.5,3.3 -1.4,4.5 -0.9,1.2 -2.2,1.7 -3.8,1.7 -1.6,0 -2.9,-0.6 -3.8,-1.7 -0.9,-1.1 -1.4,-2.6 -1.4,-4.5 0,-1.8 0.5,-3.3 1.4,-4.4 0.9,-1.2 2.2,-1.7 3.8,-1.7 z m 0,10.7 c 1.1,0 1.9,-0.4 2.5,-1.3 0.6,-0.9 0.9,-2 0.9,-3.3 0,-1.3 -0.3,-2.5 -0.9,-3.3 -0.6,-0.9 -1.4,-1.3 -2.5,-1.3 -1.1,0 -1.9,0.4 -2.5,1.3 -0.6,0.9 -0.9,2 -0.9,3.3 0,1.3 0.3,2.4 0.9,3.3 0.6,0.9 1.4,1.3 2.5,1.3 z" style="fill:#454746"/><path id="path163" d="m 455.9,286.8 -0.7,1.7 c -0.8,-0.3 -1.4,-0.5 -2,-0.5 -0.5,0 -1,0.1 -1.5,0.4 -0.5,0.3 -0.9,0.7 -1.4,1.3 -0.4,0.6 -0.6,0.9 -0.6,0.9 v 7.6 H 448 v -11.7 h 1.7 v 2.4 c 0.9,-1.8 2.1,-2.7 3.6,-2.7 0.9,0 1.8,0.2 2.6,0.6 z" style="fill:#454746"/><path id="path165" d="m 469.9,292.4 h -8 c 0,1.3 0.4,2.4 1.2,3.3 0.8,0.9 1.7,1.3 2.8,1.3 1.1,0 2.2,-0.2 3.3,-0.6 l 0.3,1.4 c -1,0.5 -2.2,0.7 -3.6,0.7 -1.7,0 -3.1,-0.6 -4.2,-1.7 -1.1,-1.1 -1.6,-2.6 -1.6,-4.5 0,-1.9 0.5,-3.3 1.4,-4.4 1,-1.1 2.2,-1.7 3.7,-1.7 1.3,0 2.5,0.5 3.4,1.5 0.9,1 1.4,2.4 1.4,4.1 v 0.6 z m -1.9,-1.5 c 0,-0.9 -0.3,-1.7 -0.9,-2.3 -0.6,-0.6 -1.2,-0.9 -1.9,-0.9 -0.9,0 -1.7,0.3 -2.3,0.9 -0.6,0.6 -0.9,1.4 -1,2.3 h 6.1 z" style="fill:#454746"/><path id="path167" d="m 496.5,288.5 -0.7,1.1 -2.7,-1.8 V 291 H 492 v -3.2 l -2.7,1.8 -0.7,-1.1 2.8,-1.8 -2.8,-1.8 0.7,-1.1 2.7,1.8 v -3.2 h 1.2 v 3.2 l 2.7,-1.8 0.7,1.1 -2.8,1.8 2.7,1.8 z" style="fill:#454746"/><path id="path169" d="M 524.7,298.2 H 523 v -7.5 c 0,-1 -0.2,-1.8 -0.5,-2.3 -0.3,-0.5 -0.9,-0.7 -1.6,-0.7 -1.1,0 -2.2,0.7 -3.4,2 v 8.5 h -1.8 v -11.7 h 1.8 v 1.7 c 1.3,-1.3 2.6,-2 4,-2 2.2,0 3.3,1.3 3.3,4 v 8 z" style="fill:#454746"/><path id="path171" d="m 538.5,298.2 h -1.8 v -1.7 c -1.3,1.3 -2.6,2 -4,2 -2.2,0 -3.3,-1.3 -3.3,-4 v -8 h 1.8 v 7.5 c 0,1 0.2,1.7 0.5,2.2 0.3,0.5 0.8,0.7 1.6,0.7 1.1,0 2.2,-0.7 3.4,-2 v -8.5 h 1.8 v 11.8 z" style="fill:#454746"/><path id="path173" d="m 553.3,298.2 h -1.8 v -7.7 c 0,-1.9 -0.3,-2.8 -1,-2.8 -0.4,0 -0.7,0.3 -1.2,1 -0.4,0.6 -0.6,1 -0.6,1.1 v 8.4 H 547 v -7.7 c 0,-1.9 -0.3,-2.8 -1,-2.8 -0.3,0 -0.7,0.3 -1.2,1 -0.4,0.6 -0.6,1 -0.6,1.1 v 8.4 h -1.8 v -11.7 h 1.7 v 1.8 c 0.3,-0.6 0.7,-1.1 1.2,-1.5 0.5,-0.4 0.9,-0.6 1.4,-0.6 0.5,0 0.9,0.2 1.3,0.6 0.4,0.4 0.6,0.9 0.8,1.5 0.3,-0.6 0.7,-1.1 1.2,-1.5 0.5,-0.4 0.9,-0.6 1.3,-0.6 1.4,0 2.1,1.3 2.1,3.8 v 8.2 z" style="fill:#454746"/><path id="path175" d="m 558.9,288 c 0.4,-0.5 0.9,-1 1.6,-1.3 0.7,-0.3 1.4,-0.5 2.1,-0.5 1.4,0 2.4,0.5 3.2,1.6 0.8,1.1 1.1,2.5 1.1,4.3 0,1.8 -0.4,3.3 -1.2,4.5 -0.8,1.2 -1.9,1.8 -3.2,1.8 -0.7,0 -1.4,-0.2 -2,-0.5 -0.6,-0.4 -1.1,-0.8 -1.5,-1.4 v 1.7 h -1.8 v -15.8 h 1.8 v 5.6 z m 0,1.7 v 4.9 c 0.3,0.7 0.8,1.2 1.3,1.7 0.5,0.5 1.1,0.7 1.7,0.7 0.9,0 1.7,-0.4 2.3,-1.3 0.6,-0.9 0.8,-2 0.8,-3.3 0,-1.3 -0.3,-2.4 -0.8,-3.3 -0.5,-0.8 -1.3,-1.3 -2.2,-1.3 -1.2,-0.1 -2.3,0.6 -3.1,1.9 z" style="fill:#454746"/><path id="path177" d="m 580.3,292.4 h -8 c 0,1.3 0.4,2.4 1.2,3.3 0.8,0.9 1.7,1.3 2.8,1.3 1.1,0 2.2,-0.2 3.3,-0.6 l 0.3,1.4 c -1,0.5 -2.2,0.7 -3.6,0.7 -1.7,0 -3.1,-0.6 -4.2,-1.7 -1.1,-1.1 -1.6,-2.6 -1.6,-4.5 0,-1.9 0.5,-3.3 1.4,-4.4 1,-1.1 2.2,-1.7 3.7,-1.7 1.3,0 2.5,0.5 3.4,1.5 0.9,1 1.4,2.4 1.4,4.1 v 0.6 z m -1.9,-1.5 c 0,-0.9 -0.3,-1.7 -0.9,-2.3 -0.6,-0.6 -1.2,-0.9 -1.9,-0.9 -0.9,0 -1.7,0.3 -2.3,0.9 -0.6,0.6 -0.9,1.4 -1,2.3 h 6.1 z" style="fill:#454746"/><path id="path179" d="m 593.9,286.8 -0.7,1.7 c -0.8,-0.3 -1.4,-0.5 -2,-0.5 -0.5,0 -1,0.1 -1.5,0.4 -0.5,0.3 -0.9,0.7 -1.4,1.3 -0.4,0.6 -0.6,0.9 -0.6,0.9 v 7.6 H 586 v -11.7 h 1.7 v 2.4 c 0.9,-1.8 2.1,-2.7 3.6,-2.7 0.9,0 1.8,0.2 2.6,0.6 z" style="fill:#454746"/><path id="path181" d="m 609.9,303.2 h -13.8 v -1.5 h 13.8 v 1.5 z" style="fill:#454746"/><path id="path183" d="m 616.8,286.2 c 1.6,0 2.9,0.6 3.8,1.7 0.9,1.1 1.4,2.6 1.4,4.4 0,1.8 -0.5,3.3 -1.4,4.5 -0.9,1.2 -2.2,1.7 -3.8,1.7 -1.6,0 -2.9,-0.6 -3.8,-1.7 -0.9,-1.1 -1.4,-2.6 -1.4,-4.5 0,-1.8 0.5,-3.3 1.4,-4.4 0.9,-1.2 2.2,-1.7 3.8,-1.7 z m 0,10.7 c 1.1,0 1.9,-0.4 2.5,-1.3 0.6,-0.9 0.9,-2 0.9,-3.3 0,-1.3 -0.3,-2.5 -0.9,-3.3 -0.6,-0.9 -1.4,-1.3 -2.5,-1.3 -1.1,0 -1.9,0.4 -2.5,1.3 -0.6,0.9 -0.9,2 -0.9,3.3 0,1.3 0.3,2.4 0.9,3.3 0.6,0.9 1.4,1.3 2.5,1.3 z" style="fill:#454746"/><path id="path185" d="m 635.3,282.5 -0.5,1.4 c -0.8,-0.2 -1.6,-0.4 -2.2,-0.4 -0.6,0 -1.1,0.2 -1.3,0.5 -0.2,0.4 -0.4,1.1 -0.4,2.2 v 0.2 h 3.9 v 1.5 h -3.9 v 10.2 h -1.8 V 288 h -2.9 v -1.5 h 2.9 v -0.4 c 0,-1.5 0.3,-2.5 0.8,-3.1 0.5,-0.6 1.4,-0.9 2.6,-0.9 0.9,-0.1 1.8,0.1 2.8,0.4 z" style="fill:#454746"/><path id="path187" d="m 651.3,303.2 h -13.8 v -1.5 h 13.8 v 1.5 z" style="fill:#454746"/><path id="path189" d="m 663.3,286.5 -4.4,11.7 h -1.6 l -4.4,-11.7 h 1.9 l 3.3,9.3 3.3,-9.3 h 1.9 z" style="fill:#454746"/><path id="path191" d="m 672,286.2 c 1.6,0 2.9,0.6 3.8,1.7 0.9,1.1 1.4,2.6 1.4,4.4 0,1.8 -0.5,3.3 -1.4,4.5 -0.9,1.2 -2.2,1.7 -3.8,1.7 -1.6,0 -2.9,-0.6 -3.8,-1.7 -0.9,-1.1 -1.4,-2.6 -1.4,-4.5 0,-1.8 0.5,-3.3 1.4,-4.4 0.9,-1.2 2.2,-1.7 3.8,-1.7 z m 0,10.7 c 1.1,0 1.9,-0.4 2.5,-1.3 0.6,-0.9 0.9,-2 0.9,-3.3 0,-1.3 -0.3,-2.5 -0.9,-3.3 -0.6,-0.9 -1.4,-1.3 -2.5,-1.3 -1.1,0 -1.9,0.4 -2.5,1.3 -0.6,0.9 -0.9,2 -0.9,3.3 0,1.3 0.3,2.4 0.9,3.3 0.6,0.9 1.4,1.3 2.5,1.3 z" style="fill:#454746"/><path id="path193" d="m 690.5,297.6 c -1.2,0.5 -2.3,0.8 -3.5,0.8 -2.1,0 -3.1,-1.1 -3.1,-3.3 V 288 h -2.2 v -1.5 h 2.2 v -3.2 h 1.7 v 3.2 h 4 v 1.5 h -4 v 6.7 c 0,0.7 0.2,1.3 0.5,1.7 0.3,0.4 0.7,0.6 1.3,0.6 1,0 1.9,-0.2 2.8,-0.6 l 0.3,1.2 z" style="fill:#454746"/><path id="path195" d="m 704.5,292.4 h -8 c 0,1.3 0.4,2.4 1.2,3.3 0.8,0.9 1.7,1.3 2.8,1.3 1.1,0 2.2,-0.2 3.3,-0.6 l 0.3,1.4 c -1,0.5 -2.2,0.7 -3.6,0.7 -1.7,0 -3.1,-0.6 -4.2,-1.7 -1.1,-1.1 -1.6,-2.6 -1.6,-4.5 0,-1.9 0.5,-3.3 1.4,-4.4 1,-1.1 2.2,-1.7 3.7,-1.7 1.3,0 2.5,0.5 3.4,1.5 0.9,1 1.4,2.4 1.4,4.1 v 0.6 z m -1.9,-1.5 c 0,-0.9 -0.3,-1.7 -0.9,-2.3 -0.6,-0.6 -1.2,-0.9 -1.9,-0.9 -0.9,0 -1.7,0.3 -2.3,0.9 -0.6,0.6 -0.9,1.4 -1,2.3 h 6.1 z" style="fill:#454746"/><path id="path197" d="m 716.7,288.1 c -1,-0.3 -1.9,-0.5 -2.8,-0.5 -1,0 -1.7,0.2 -2.3,0.5 -0.6,0.3 -0.8,0.7 -0.8,1.3 0,0.3 0.1,0.6 0.4,0.9 0.3,0.3 0.8,0.5 1.5,0.7 l 1.7,0.5 c 0.8,0.2 1.4,0.5 1.9,0.8 0.5,0.3 0.9,0.7 1.1,1.1 0.2,0.4 0.4,0.9 0.4,1.5 0,1.1 -0.5,2 -1.4,2.6 -0.9,0.6 -2.1,1 -3.6,1 -1.4,0 -2.6,-0.2 -3.6,-0.7 l 0.3,-1.5 c 1,0.5 2,0.7 3.2,0.7 1,0 1.8,-0.2 2.4,-0.5 0.6,-0.4 0.9,-0.8 0.9,-1.4 0,-0.4 -0.2,-0.8 -0.5,-1.1 -0.3,-0.3 -1,-0.6 -2.1,-1 -0.9,-0.3 -1.6,-0.5 -2,-0.6 -0.4,-0.1 -0.8,-0.3 -1.2,-0.6 -0.4,-0.3 -0.6,-0.6 -0.8,-1 -0.2,-0.4 -0.3,-0.8 -0.3,-1.3 0,-1 0.4,-1.8 1.3,-2.4 0.9,-0.6 2.1,-0.9 3.5,-0.9 0.9,0 2,0.2 3.1,0.5 l -0.3,1.4 z" style="fill:#454746"/></g></g><line id="line199" x1="79.5" x2="73" y1="131" y2="131" stroke-miterlimit="10" style="fill:none;stroke:#454746;stroke-miterlimit:10"/><line id="line201" x1="79.5" x2="73" y1="55.3" y2="55.3" stroke-miterlimit="10" style="fill:none;stroke:#454746;stroke-miterlimit:10"/><line id="line203" x1="79.5" x2="73" y1="207" y2="207" stroke-miterlimit="10" style="fill:none;stroke:#454746;stroke-miterlimit:10"/><line id="line205" x1="79.5" x2="73" y1="283" y2="283" stroke-miterlimit="10" style="fill:none;stroke:#454746;stroke-miterlimit:10"/><line id="line207" x1="79.5" x2="73" y1="359" y2="359" stroke-miterlimit="10" style="fill:none;stroke:#454746;stroke-miterlimit:10"/><line id="line209" x1="138" x2="138" y1="428.5" y2="435" stroke-miterlimit="10" style="fill:none;stroke:#454746;stroke-miterlimit:10"/><line id="line211" x1="203" x2="203" y1="428.5" y2="435" stroke-miterlimit="10" style="fill:none;stroke:#454746;stroke-miterlimit:10"/><line id="line213" x1="268" x2="268" y1="428.5" y2="435" stroke-miterlimit="10" style="fill:none;stroke:#454746;stroke-miterlimit:10"/><line id="line215" x1="333" x2="333" y1="428.5" y2="435" stroke-miterlimit="10" style="fill:none;stroke:#454746;stroke-miterlimit:10"/><line id="line217" x1="398" x2="398" y1="428.5" y2="435" stroke-miterlimit="10" style="fill:none;stroke:#454746;stroke-miterlimit:10"/><line id="line219" x1="463" x2="463" y1="428.5" y2="435" stroke-miterlimit="10" style="fill:none;stroke:#454746;stroke-miterlimit:10"/><line id="line221" x1="528" x2="528" y1="428.5" y2="435" stroke-miterlimit="10" style="fill:none;stroke:#454746;stroke-miterlimit:10"/><line id="line223" x1="593" x2="593" y1="428.5" y2="435" stroke-miterlimit="10" style="fill:none;stroke:#454746;stroke-miterlimit:10"/><line id="line225" x1="658" x2="658" y1="428.5" y2="435" stroke-miterlimit="10" style="fill:none;stroke:#454746;stroke-miterlimit:10"/><line id="line227" x1="723" x2="723" y1="428.5" y2="435" stroke-miterlimit="10" style="fill:none;stroke:#454746;stroke-miterlimit:10"/></svg>