<svg xmlns="http://www.w3.org/2000/svg" xmlns:svg="http://www.w3.org/2000/svg" id="graphs" width="100%" height="100%" x="0" y="0" enable-background="new 0 0 900 600" version="1.1" viewBox="0 0 778.3 514.7" xml:space="preserve"><metadata id="metadata4099"/><path id="path3861" d="m 725.3,440.29999 h -654 c -1.6,0 -3,-1.4 -3,-3 V 52.999988 c 0,-1.7 1.4,-3 3,-3 h 654 c 1.7,0 3,1.3 3,3 V 437.29999 c 0,1.7 -1.3,3 -3,3 z" style="fill:#f8faf6"/><g id="g3863" transform="translate(-60.7,-54.500012)"><line id="line3865" x1="134" x2="134" y1="109.5" y2="489.5" stroke-miterlimit="10" style="fill:none;stroke:#d6d6d6;stroke-miterlimit:10"/><line id="line3867" x1="199" x2="199" y1="109.5" y2="489.5" stroke-miterlimit="10" style="fill:none;stroke:#d6d6d6;stroke-miterlimit:10"/><line id="line3869" x1="264" x2="264" y1="109.5" y2="489.5" stroke-miterlimit="10" style="fill:none;stroke:#d6d6d6;stroke-miterlimit:10"/><line id="line3871" x1="329" x2="329" y1="109.5" y2="489.5" stroke-miterlimit="10" style="fill:none;stroke:#d6d6d6;stroke-miterlimit:10"/><line id="line3873" x1="394" x2="394" y1="109.5" y2="489.5" stroke-miterlimit="10" style="fill:none;stroke:#d6d6d6;stroke-miterlimit:10"/><line id="line3875" x1="459" x2="459" y1="109.5" y2="489.5" stroke-miterlimit="10" style="fill:none;stroke:#d6d6d6;stroke-miterlimit:10"/><line id="line3877" x1="524" x2="524" y1="109.5" y2="489.5" stroke-miterlimit="10" style="fill:none;stroke:#d6d6d6;stroke-miterlimit:10"/><line id="line3879" x1="589" x2="589" y1="109.5" y2="489.5" stroke-miterlimit="10" style="fill:none;stroke:#d6d6d6;stroke-miterlimit:10"/><line id="line3881" x1="654" x2="654" y1="109.5" y2="489.5" stroke-miterlimit="10" style="fill:none;stroke:#d6d6d6;stroke-miterlimit:10"/><line id="line3883" x1="719" x2="719" y1="109.5" y2="489.5" stroke-miterlimit="10" style="fill:none;stroke:#d6d6d6;stroke-miterlimit:10"/><line id="line3885" x1="784" x2="784" y1="109.5" y2="489.5" stroke-miterlimit="10" style="fill:none;stroke:#d6d6d6;stroke-miterlimit:10"/><line id="line3887" x1="134" x2="784" y1="109.5" y2="109.5" stroke-miterlimit="10" style="fill:none;stroke:#d6d6d6;stroke-miterlimit:10"/><line id="line3889" x1="134" x2="784" y1="185.5" y2="185.5" stroke-miterlimit="10" style="fill:none;stroke:#d6d6d6;stroke-miterlimit:10"/><line id="line3891" x1="134" x2="784" y1="261.5" y2="261.5" stroke-miterlimit="10" style="fill:none;stroke:#d6d6d6;stroke-miterlimit:10"/><line id="line3893" x1="134" x2="784" y1="337.5" y2="337.5" stroke-miterlimit="10" style="fill:none;stroke:#d6d6d6;stroke-miterlimit:10"/><line id="line3895" x1="134" x2="784" y1="413.5" y2="413.5" stroke-miterlimit="10" style="fill:none;stroke:#d6d6d6;stroke-miterlimit:10"/><line id="line3897" x1="134" x2="784" y1="489.5" y2="489.5" stroke-miterlimit="10" style="fill:none;stroke:#d6d6d6;stroke-miterlimit:10"/></g><g id="g3899" transform="translate(-60.7,-54.500012)"><g id="g3901"><path id="path3903" d="m 478.1,438.5 c -1.2,0.5 -2.3,0.8 -3.5,0.8 -2.1,0 -3.1,-1.1 -3.1,-3.3 v -7.2 h -2.2 v -1.5 h 2.2 v -3.2 h 1.7 v 3.2 h 4 v 1.5 h -4 v 6.7 c 0,0.7 0.2,1.3 0.5,1.7 0.3,0.4 0.7,0.6 1.3,0.6 1,0 1.9,-0.2 2.8,-0.6 l 0.3,1.3 z" style="fill:#454746"/><path id="path3905" d="m 491.9,423.4 -0.5,1.4 c -0.8,-0.2 -1.6,-0.4 -2.2,-0.4 -0.6,0 -1.1,0.2 -1.3,0.5 -0.2,0.4 -0.4,1.1 -0.4,2.2 v 0.2 h 3.9 v 1.5 h -3.9 V 439 h -1.8 v -10.2 h -2.9 v -1.5 h 2.9 V 427 c 0,-1.5 0.3,-2.5 0.8,-3.1 0.5,-0.6 1.4,-0.9 2.6,-0.9 0.9,-0.1 1.8,0.1 2.8,0.4 z" style="fill:#454746"/><path id="path3907" d="m 504.9,441.4 -0.7,1 c -1.7,-1.3 -2.9,-2.7 -3.8,-4.4 -0.9,-1.7 -1.3,-3.4 -1.3,-5.3 0,-1.9 0.4,-3.7 1.3,-5.3 0.9,-1.7 2.1,-3.1 3.8,-4.4 l 0.7,1 c -1.4,1.2 -2.4,2.5 -3,3.9 -0.6,1.3 -0.9,3 -0.9,4.9 0,2 0.3,3.6 0.9,5 0.7,1.1 1.7,2.4 3,3.6 z" style="fill:#454746"/><path id="path3909" d="m 511.7,422.9 c 1.7,1.3 3,2.7 3.8,4.4 0.9,1.7 1.3,3.4 1.3,5.3 0,1.9 -0.4,3.6 -1.3,5.3 -0.9,1.7 -2.1,3.1 -3.8,4.4 l -0.7,-1 c 1.4,-1.2 2.4,-2.5 3,-3.9 0.6,-1.4 0.9,-3 0.9,-4.9 0,-2 -0.3,-3.6 -0.9,-4.9 -0.6,-1.3 -1.6,-2.6 -2.9,-3.8 l 0.6,-0.9 z" style="fill:#454746"/><path id="path3911" d="m 540.1,427.1 c 1.6,0 2.9,0.6 3.8,1.7 0.9,1.1 1.4,2.6 1.4,4.4 0,1.8 -0.5,3.3 -1.4,4.5 -1,1.1 -2.2,1.7 -3.8,1.7 -1.6,0 -2.9,-0.6 -3.8,-1.7 -0.9,-1.1 -1.4,-2.6 -1.4,-4.5 0,-1.8 0.5,-3.3 1.4,-4.4 0.9,-1.1 2.2,-1.7 3.8,-1.7 z m 0,10.7 c 1.1,0 1.9,-0.4 2.5,-1.3 0.6,-0.9 0.9,-2 0.9,-3.3 0,-1.3 -0.3,-2.5 -0.9,-3.3 -0.6,-0.9 -1.4,-1.3 -2.5,-1.3 -1.1,0 -1.9,0.4 -2.5,1.3 -0.6,0.9 -0.9,2 -0.9,3.3 0,1.3 0.3,2.4 0.9,3.3 0.6,0.9 1.5,1.3 2.5,1.3 z" style="fill:#454746"/><path id="path3913" d="m 558.6,423.4 -0.5,1.4 c -0.8,-0.2 -1.6,-0.4 -2.2,-0.4 -0.6,0 -1.1,0.2 -1.3,0.5 -0.2,0.4 -0.4,1.1 -0.4,2.2 v 0.2 h 3.9 v 1.5 h -3.9 V 439 h -1.8 v -10.2 h -2.9 v -1.5 h 2.9 V 427 c 0,-1.5 0.3,-2.5 0.8,-3.1 0.5,-0.6 1.4,-0.9 2.6,-0.9 0.9,-0.1 1.8,0.1 2.8,0.4 z" style="fill:#454746"/><path id="path3915" d="m 581.2,430.4 c 1.1,0.2 1.9,0.7 2.5,1.4 0.6,0.7 0.9,1.6 0.9,2.5 0,1.4 -0.5,2.6 -1.6,3.4 -1,0.9 -2.3,1.3 -3.8,1.3 h -4.5 v -15.8 h 4.4 c 1.5,0 2.7,0.3 3.6,1 0.9,0.7 1.3,1.6 1.3,2.8 0,0.7 -0.2,1.4 -0.7,2 -0.5,0.6 -1.3,1.1 -2.1,1.4 l 0,0 z m -4.7,-0.9 h 2.2 c 2.3,0 3.4,-0.8 3.4,-2.4 0,-0.7 -0.3,-1.3 -0.8,-1.7 -0.6,-0.4 -1.4,-0.6 -2.4,-0.6 h -2.3 v 4.7 z m 0,8 h 2.1 c 1.2,0 2.2,-0.3 2.9,-0.8 0.7,-0.6 1.1,-1.3 1.1,-2.3 0,-1 -0.4,-1.8 -1.1,-2.4 -0.7,-0.6 -1.7,-0.8 -3.1,-0.8 h -2 v 6.3 z" style="fill:#454746"/><path id="path3917" d="m 598.2,439.1 h -1.8 V 425.5 L 594,432 h -1.7 l -2.4,-6.5 v 13.6 h -1.8 v -15.8 h 2.4 l 2.7,7.2 2.6,-7.2 h 2.4 v 15.8 z" style="fill:#454746"/><path id="path3919" d="m 611,439.1 h -8.7 v -1.3 c 2.2,-2.5 3.6,-4.1 4.3,-5 0.7,-0.8 1.2,-1.7 1.6,-2.6 0.4,-0.9 0.6,-1.8 0.6,-2.8 0,-0.9 -0.3,-1.6 -0.8,-2.1 -0.5,-0.5 -1.3,-0.8 -2.3,-0.8 -0.7,0 -1.7,0.2 -3,0.7 l -0.3,-1.6 c 1.1,-0.5 2.3,-0.7 3.5,-0.7 1.4,0 2.6,0.4 3.4,1.2 0.9,0.8 1.3,1.9 1.3,3.2 0,1 -0.2,1.9 -0.7,2.8 -0.4,0.9 -1,1.8 -1.7,2.7 -0.7,0.9 -2.1,2.4 -4.1,4.6 h 6.7 v 1.7 z" style="fill:#454746"/><path id="path3921" d="m 618.6,429.6 c 0.5,-0.1 1,-0.2 1.5,-0.2 1.5,0 2.7,0.5 3.5,1.4 0.9,0.9 1.3,2.1 1.3,3.4 0,1.4 -0.5,2.7 -1.5,3.7 -1,1 -2.2,1.5 -3.7,1.5 -1.4,0 -2.5,-0.2 -3.5,-0.7 l 0.4,-1.6 c 1,0.4 2.1,0.6 3.2,0.6 1,0 1.7,-0.3 2.3,-0.9 0.6,-0.6 0.9,-1.5 0.9,-2.6 0,-1.1 -0.3,-1.9 -0.8,-2.4 -0.6,-0.6 -1.3,-0.9 -2.2,-0.9 -0.6,0 -1.3,0.1 -1.9,0.4 l -1.1,-0.5 v -7.6 h 7.2 v 1.6 h -5.6 v 4.8 z" style="fill:#454746"/></g></g><g id="g3923" transform="translate(-60.7,-54.500012)"><g id="g3925"><path id="path3927" d="m 343.4,173 c -1.2,0.5 -2.3,0.8 -3.5,0.8 -2.1,0 -3.1,-1.1 -3.1,-3.3 v -7.2 h -2.2 v -1.5 h 2.2 v -3.2 h 1.7 v 3.2 h 4 v 1.5 h -4 v 6.7 c 0,0.7 0.2,1.3 0.5,1.7 0.3,0.4 0.7,0.6 1.3,0.6 1,0 1.9,-0.2 2.8,-0.6 l 0.3,1.3 z" style="fill:#454746"/><path id="path3929" d="m 357.2,157.8 -0.5,1.4 c -0.8,-0.2 -1.6,-0.4 -2.2,-0.4 -0.6,0 -1.1,0.2 -1.3,0.5 -0.2,0.4 -0.4,1.1 -0.4,2.2 v 0.2 h 3.9 v 1.5 h -3.9 v 10.2 H 351 v -10.2 h -2.9 v -1.5 h 2.9 v -0.4 c 0,-1.5 0.3,-2.5 0.8,-3.1 0.5,-0.6 1.4,-0.9 2.6,-0.9 0.9,0.1 1.8,0.2 2.8,0.5 z" style="fill:#454746"/><path id="path3931" d="m 370.2,175.8 -0.7,1 c -1.7,-1.3 -2.9,-2.7 -3.8,-4.4 -0.9,-1.7 -1.3,-3.4 -1.3,-5.3 0,-1.9 0.4,-3.7 1.3,-5.3 0.9,-1.7 2.1,-3.1 3.8,-4.4 l 0.7,1 c -1.4,1.2 -2.4,2.5 -3,3.9 -0.6,1.3 -0.9,3 -0.9,4.9 0,2 0.3,3.6 0.9,5 0.7,1.2 1.7,2.4 3,3.6 z" style="fill:#454746"/><path id="path3933" d="m 377,157.4 c 1.7,1.3 2.9,2.7 3.8,4.4 0.9,1.7 1.3,3.4 1.3,5.3 0,1.9 -0.4,3.6 -1.3,5.3 -0.9,1.7 -2.1,3.1 -3.8,4.4 l -0.7,-1 c 1.4,-1.2 2.4,-2.5 3,-3.9 0.6,-1.4 0.9,-3 0.9,-4.9 0,-2 -0.3,-3.6 -0.9,-4.9 -0.6,-1.3 -1.6,-2.6 -2.9,-3.8 l 0.6,-0.9 z" style="fill:#454746"/><path id="path3935" d="m 405.5,161.5 c 1.6,0 2.9,0.6 3.8,1.7 0.9,1.1 1.4,2.6 1.4,4.4 0,1.8 -0.5,3.3 -1.4,4.5 -0.9,1.2 -2.2,1.7 -3.8,1.7 -1.6,0 -2.9,-0.6 -3.8,-1.7 -0.9,-1.1 -1.4,-2.6 -1.4,-4.5 0,-1.8 0.5,-3.3 1.4,-4.4 0.9,-1.1 2.2,-1.7 3.8,-1.7 z m 0,10.8 c 1.1,0 1.9,-0.4 2.5,-1.3 0.6,-0.9 0.9,-2 0.9,-3.3 0,-1.3 -0.3,-2.5 -0.9,-3.3 -0.6,-0.9 -1.4,-1.3 -2.5,-1.3 -1.1,0 -1.9,0.4 -2.5,1.3 -0.6,0.9 -0.9,2 -0.9,3.3 0,1.3 0.3,2.4 0.9,3.3 0.6,0.8 1.4,1.3 2.5,1.3 z" style="fill:#454746"/><path id="path3937" d="m 423.9,157.8 -0.5,1.4 c -0.8,-0.2 -1.6,-0.4 -2.2,-0.4 -0.6,0 -1.1,0.2 -1.3,0.5 -0.2,0.4 -0.4,1.1 -0.4,2.2 v 0.2 h 3.9 v 1.5 h -3.9 v 10.2 h -1.8 v -10.2 h -2.9 v -1.5 h 2.9 v -0.4 c 0,-1.5 0.3,-2.5 0.8,-3.1 0.5,-0.6 1.4,-0.9 2.6,-0.9 1,0.1 1.9,0.2 2.8,0.5 z" style="fill:#454746"/><path id="path3939" d="m 450.4,159.1 h -4.9 v 14.4 h -1.8 v -14.4 h -4.9 v -1.5 h 11.6 v 1.5 z" style="fill:#454746"/><path id="path3941" d="m 462.8,159.3 h -6.6 v 5.2 h 6 v 1.6 h -6 v 7.5 h -1.8 v -15.8 h 8.4 v 1.5 z" style="fill:#454746"/><path id="path3943" d="m 476.3,157.4 -6.9,16.5 h -1.7 l 6.9,-16.5 h 1.7 z" style="fill:#454746"/><path id="path3945" d="m 489.5,173.5 h -7.2 v -1.6 h 2.7 v -12.6 h -2.7 v -1.6 h 7.2 v 1.6 h -2.6 v 12.6 h 2.6 v 1.6 z" style="fill:#454746"/><path id="path3947" d="m 495.3,157.7 h 3.1 c 2.1,0 3.7,0.7 5,2.1 1.2,1.4 1.9,3.3 1.9,5.8 0,2.5 -0.6,4.5 -1.9,5.8 -1.3,1.4 -2.9,2.1 -4.9,2.1 h -3.2 v -15.8 z m 1.8,14.2 h 1.3 c 1.5,0 2.7,-0.6 3.6,-1.7 0.9,-1.1 1.3,-2.7 1.3,-4.6 0,-2 -0.4,-3.5 -1.3,-4.6 -0.9,-1.1 -2.1,-1.7 -3.6,-1.7 h -1.3 v 12.6 z" style="fill:#454746"/><path id="path3949" d="m 518,159.3 h -6.6 v 5.2 h 6 v 1.6 h -6 v 7.5 h -1.8 v -15.8 h 8.4 v 1.5 z" style="fill:#454746"/></g></g><g id="g3951" transform="translate(-60.7,-54.500012)"><path id="path3953" d="m 403.6,517.7 h 9.3 v 2.4 h -6.4 v 4.5 h 6 v 2.4 h -6 v 6.9 h -3 v -16.2 z" style="fill:#454746"/><path id="path3955" d="m 415.2,525.9 c 0,-1.6 0,-2.7 -0.1,-3.8 h 2.6 l 0.1,2.2 h 0.1 c 0.6,-1.7 1.9,-2.5 3.2,-2.5 0.3,0 0.5,0 0.7,0.1 v 2.8 c -0.2,0 -0.5,-0.1 -0.9,-0.1 -1.4,0 -2.4,0.9 -2.6,2.2 0,0.3 -0.1,0.6 -0.1,0.9 v 6 h -3 v -7.8 z" style="fill:#454746"/><path id="path3957" d="m 425.6,528.8 c 0.1,2.1 1.7,3 3.6,3 1.4,0 2.4,-0.2 3.2,-0.5 l 0.4,2 c -1,0.4 -2.4,0.7 -4.1,0.7 -3.8,0 -6,-2.3 -6,-5.9 0,-3.2 2,-6.3 5.7,-6.3 3.8,0 5,3.1 5,5.7 0,0.6 0,1 -0.1,1.2 h -7.7 z m 5.1,-2 c 0,-1.1 -0.5,-2.9 -2.4,-2.9 -1.8,0 -2.6,1.7 -2.7,2.9 h 5.1 z" style="fill:#454746"/><path id="path3959" d="m 443.7,532.2 0,0 c -0.7,1.1 -2,1.9 -3.7,1.9 -2.6,0 -4.9,-2.3 -4.9,-5.9 0,-4.3 2.7,-6.3 5.2,-6.3 1.6,0 2.8,0.7 3.4,1.8 l 0,0 0.1,-1.6 h 2.9 c 0,1.1 -0.1,2.2 -0.1,3.4 v 13.1 h -3 v -6.4 z m 0,-5.2 c 0,-0.2 0,-0.5 -0.1,-0.7 -0.3,-1.1 -1.2,-2 -2.5,-2 -1.9,0 -3,1.6 -3,3.8 0,2.1 1,3.7 2.9,3.7 1.2,0 2.2,-0.8 2.5,-1.9 0.1,-0.3 0.1,-0.6 0.1,-0.9 v -2 z" style="fill:#454746"/><path id="path3961" d="m 460.3,530.3 c 0,1.4 0,2.5 0.1,3.5 h -2.6 l -0.1,-1.8 h 0 c -0.5,0.8 -1.7,2 -3.7,2 -2.1,0 -4.1,-1.3 -4.1,-5.1 V 522 h 3 v 6.4 c 0,1.9 0.6,3.2 2.2,3.2 1.2,0 1.9,-0.8 2.3,-1.6 0.1,-0.3 0.2,-0.6 0.2,-0.9 V 522 h 3 v 8.3 z" style="fill:#454746"/><path id="path3963" d="m 465.6,528.8 c 0.1,2.1 1.7,3 3.6,3 1.4,0 2.4,-0.2 3.2,-0.5 l 0.4,2 c -1,0.4 -2.4,0.7 -4.1,0.7 -3.8,0 -6,-2.3 -6,-5.9 0,-3.2 2,-6.3 5.7,-6.3 3.8,0 5,3.1 5,5.7 0,0.6 0,1 -0.1,1.2 h -7.7 z m 5.1,-2 c 0,-1.1 -0.5,-2.9 -2.4,-2.9 -1.8,0 -2.6,1.7 -2.7,2.9 h 5.1 z" style="fill:#454746"/><path id="path3965" d="m 475.9,525.6 c 0,-1.3 0,-2.5 -0.1,-3.5 h 2.6 l 0.1,1.8 h 0.1 c 0.5,-0.9 1.8,-2 3.7,-2 2,0 4.2,1.3 4.2,5 v 6.9 h -3 v -6.6 c 0,-1.7 -0.6,-3 -2.2,-3 -1.2,0 -2,0.8 -2.3,1.7 -0.1,0.3 -0.1,0.6 -0.1,1 v 6.9 h -3 v -8.2 z" style="fill:#454746"/><path id="path3967" d="m 498.2,533.5 c -0.6,0.3 -1.8,0.6 -3.3,0.6 -3.6,0 -6,-2.3 -6,-6 0,-3.5 2.4,-6.2 6.5,-6.2 1.1,0 2.2,0.2 2.9,0.6 l -0.5,2.2 c -0.5,-0.2 -1.2,-0.5 -2.2,-0.5 -2.3,0 -3.6,1.7 -3.6,3.8 0,2.4 1.6,3.8 3.6,3.8 1,0 1.8,-0.2 2.3,-0.5 l 0.3,2.2 z" style="fill:#454746"/><path id="path3969" d="m 502.6,522.1 2.1,6.3 c 0.2,0.7 0.5,1.6 0.6,2.3 h 0.1 c 0.2,-0.7 0.4,-1.5 0.6,-2.3 l 1.8,-6.2 h 3.2 l -2.9,8 c -1.6,4.4 -2.7,6.3 -4.1,7.5 -1.2,1 -2.4,1.4 -3.1,1.5 l -0.7,-2.5 c 0.5,-0.1 1.1,-0.4 1.7,-0.8 0.6,-0.4 1.2,-1.1 1.6,-1.8 0.1,-0.2 0.2,-0.4 0.2,-0.5 0,-0.1 0,-0.3 -0.2,-0.6 l -4.3,-10.7 h 3.4 z" style="fill:#454746"/></g><g id="g3971" transform="translate(-60.7,-54.500012)"><path id="path3973" d="m 104,326.6 c 0.6,-1 1,-2.4 1,-3.9 0,-1.9 -0.9,-3 -2.2,-3 -1.2,0 -1.9,0.8 -2.7,2.9 -1,2.7 -2.4,4.4 -4.7,4.4 -2.6,0 -4.7,-2.2 -4.7,-5.7 0,-1.8 0.4,-3 0.8,-3.9 l 2.4,0.7 c -0.3,0.6 -0.8,1.7 -0.8,3.2 0,1.9 1,2.7 1.9,2.7 1.2,0 1.8,-0.9 2.7,-3.1 1.1,-2.8 2.5,-4.2 4.8,-4.2 2.6,0 4.8,2 4.8,6.1 0,1.7 -0.5,3.5 -1,4.4 l -2.3,-0.6 z" style="fill:#454746"/><path id="path3975" d="m 106.8,305.4 c 0.3,0.6 0.6,1.8 0.6,3.3 0,3.6 -2.3,6 -6,6 -3.5,0 -6.2,-2.4 -6.2,-6.5 0,-1.1 0.2,-2.2 0.6,-2.9 l 2.2,0.5 c -0.2,0.5 -0.5,1.2 -0.5,2.2 0,2.3 1.7,3.6 3.8,3.6 2.4,0 3.8,-1.6 3.8,-3.6 0,-1 -0.2,-1.8 -0.5,-2.3 l 2.2,-0.3 z" style="fill:#454746"/><path id="path3977" d="m 101.2,292.3 c 4.3,0 6.2,3 6.2,6 0,3.3 -2.3,5.9 -6,5.9 -3.8,0 -6.2,-2.5 -6.2,-6 0,-3.5 2.5,-5.9 6,-5.9 z m 0.2,8.9 c 2.3,0 4,-1.1 4,-2.9 0,-1.7 -1.7,-2.9 -4,-2.9 -1.8,0 -3.9,0.8 -3.9,2.8 -0.1,2.1 1.9,3 3.9,3 z" style="fill:#454746"/><path id="path3979" d="m 99.3,289.9 c -1.6,0 -2.7,0 -3.8,0.1 v -2.6 l 2.2,-0.1 v -0.1 c -1.7,-0.6 -2.5,-1.9 -2.5,-3.2 0,-0.3 0,-0.5 0.1,-0.7 h 2.8 c 0,0.2 -0.1,0.5 -0.1,0.9 0,1.4 0.9,2.4 2.2,2.6 0.3,0 0.6,0.1 0.9,0.1 h 6 v 3 h -7.8 z" style="fill:#454746"/><path id="path3981" d="m 102.2,279.5 c 2.1,-0.1 3,-1.7 3,-3.6 0,-1.4 -0.2,-2.4 -0.5,-3.2 l 2,-0.4 c 0.4,1 0.7,2.4 0.7,4.1 0,3.8 -2.3,6 -5.9,6 -3.2,0 -6.3,-2 -6.3,-5.7 0,-3.8 3.1,-5 5.7,-5 0.6,0 1,0 1.2,0.1 v 7.7 z m -2.1,-5.1 c -1.1,0 -2.9,0.5 -2.9,2.4 0,1.8 1.7,2.6 2.9,2.7 v -5.1 z" style="fill:#454746"/></g><line id="line3983" x1="73.3" x2="73.3" y1="55" y2="435" stroke-miterlimit="10" style="fill:none;stroke:#454746;stroke-width:1;stroke-miterlimit:10"/><line id="line3985" x1="73.3" x2="723.3" y1="435" y2="435" stroke-miterlimit="10" style="fill:none;stroke:#454746;stroke-width:1;stroke-miterlimit:10"/><g id="g3987" transform="translate(-60.7,-54.500012)"><g id="g3989"><path id="path3991" d="m 145.9,418.5 v -1.2 l 1.2,-1.1 c 2.4,-2.3 3.6,-3.5 3.6,-4.9 0,-0.9 -0.5,-1.7 -1.9,-1.7 -0.9,0 -1.7,0.5 -2.2,0.9 l -0.6,-1.4 c 0.8,-0.6 1.9,-1.1 3.2,-1.1 2.3,0 3.4,1.5 3.4,3.2 0,1.8 -1.3,3.3 -3.1,5 l -0.9,0.8 v 0 h 4.3 v 1.6 h -7 z" style="fill:#454746"/></g><g id="g3993"><path id="path3995" d="m 150.2,342.5 v -2.6 h -4.7 v -1.3 l 4.2,-6.5 h 2.3 v 6.3 h 1.3 v 1.5 H 152 v 2.6 h -1.8 z m 0,-4.1 v -2.8 c 0,-0.6 0,-1.2 0.1,-1.8 h -0.1 c -0.3,0.7 -0.6,1.2 -0.9,1.8 l -1.9,2.8 0,0 h 2.8 z" style="fill:#454746"/></g><g id="g3997"><path id="path3999" d="m 152.2,257.5 c -0.3,0 -0.6,0 -1,0 -2.2,0.3 -3.2,1.6 -3.5,3 h 0 c 0.5,-0.6 1.3,-1 2.3,-1 1.8,0 3.2,1.3 3.2,3.4 0,2 -1.5,3.7 -3.7,3.7 -2.5,0 -3.9,-1.9 -3.9,-4.5 0,-2 0.7,-3.6 1.8,-4.7 1,-0.9 2.2,-1.4 3.7,-1.5 0.4,0 0.8,0 1,0 l 0.1,1.6 z m -0.9,5.6 c 0,-1.2 -0.7,-2.1 -1.8,-2.1 -0.7,0 -1.4,0.4 -1.7,1.1 -0.1,0.2 -0.1,0.4 -0.1,0.6 0,1.4 0.7,2.5 2,2.5 1,0 1.6,-0.9 1.6,-2.1 z" style="fill:#454746"/></g><g id="g4001"><path id="path4003" d="m 145.8,187.8 c 0,-1.3 0.8,-2.2 2,-2.7 v 0 c -1.1,-0.5 -1.6,-1.4 -1.6,-2.3 0,-1.7 1.5,-2.8 3.5,-2.8 2.2,0 3.3,1.3 3.3,2.6 0,0.9 -0.5,1.8 -1.6,2.4 v 0 c 1.1,0.4 2,1.3 2,2.6 0,1.9 -1.6,3.1 -3.8,3.1 -2.6,0 -3.8,-1.4 -3.8,-2.9 z m 5.4,-0.1 c 0,-1.1 -0.8,-1.6 -1.9,-2 -1,0.3 -1.5,1 -1.5,1.8 0,0.9 0.6,1.7 1.7,1.7 1.1,0.1 1.7,-0.6 1.7,-1.5 z m -3.2,-5 c 0,0.8 0.7,1.4 1.7,1.6 0.7,-0.2 1.3,-0.8 1.3,-1.6 0,-0.7 -0.4,-1.5 -1.5,-1.5 -1,0.1 -1.5,0.7 -1.5,1.5 z" style="fill:#454746"/></g></g><g id="g4005" transform="translate(-60.7,-54.500012)"><g id="g4007"><path id="path4009" d="m 194.2,470.9 0,0 -1.9,1 -0.3,-1.5 2.5,-1.2 h 1.6 v 10.4 h -1.9 v -8.7 z" style="fill:#454746"/><path id="path4011" d="m 207,474.2 c 0,3.3 -1.3,5.4 -3.8,5.4 -2.4,0 -3.7,-2.2 -3.7,-5.3 0,-3.2 1.4,-5.4 3.8,-5.4 2.6,0 3.7,2.3 3.7,5.3 z m -5.5,0.1 c 0,2.5 0.7,3.8 1.8,3.8 1.2,0 1.8,-1.4 1.8,-3.9 0,-2.4 -0.6,-3.8 -1.8,-3.8 -1.1,0 -1.8,1.3 -1.8,3.9 z" style="fill:#454746"/></g><g id="g4013"><path id="path4015" d="m 256.1,479.5 v -1.2 l 1.2,-1.1 c 2.4,-2.3 3.6,-3.5 3.6,-4.9 0,-0.9 -0.5,-1.7 -1.9,-1.7 -0.9,0 -1.7,0.5 -2.2,0.9 l -0.6,-1.4 c 0.8,-0.6 1.9,-1.1 3.2,-1.1 2.3,0 3.4,1.5 3.4,3.2 0,1.8 -1.3,3.3 -3.1,5 l -0.9,0.8 v 0 h 4.3 v 1.6 h -7 z" style="fill:#454746"/><path id="path4017" d="m 272,474.2 c 0,3.3 -1.3,5.4 -3.8,5.4 -2.4,0 -3.7,-2.2 -3.7,-5.3 0,-3.2 1.4,-5.4 3.8,-5.4 2.6,0 3.7,2.3 3.7,5.3 z m -5.5,0.1 c 0,2.5 0.7,3.8 1.8,3.8 1.2,0 1.8,-1.4 1.8,-3.9 0,-2.4 -0.6,-3.8 -1.8,-3.8 -1.1,0 -1.8,1.3 -1.8,3.9 z" style="fill:#454746"/></g><g id="g4019"><path id="path4021" d="m 321.5,477.5 c 0.4,0.2 1.4,0.6 2.4,0.6 1.5,0 2.1,-0.8 2.1,-1.7 0,-1.2 -1.2,-1.8 -2.4,-1.8 h -0.9 v -1.4 h 0.9 c 0.9,0 2.1,-0.4 2.1,-1.5 0,-0.7 -0.5,-1.3 -1.7,-1.3 -0.8,0 -1.7,0.4 -2.1,0.7 l -0.4,-1.4 c 0.6,-0.4 1.7,-0.8 3,-0.8 2.1,0 3.2,1.2 3.2,2.5 0,1.1 -0.6,2 -1.9,2.4 v 0 c 1.3,0.2 2.3,1.2 2.3,2.6 0,1.8 -1.5,3.2 -4,3.2 -1.3,0 -2.4,-0.4 -2.9,-0.7 l 0.3,-1.4 z" style="fill:#454746"/><path id="path4023" d="m 337,474.2 c 0,3.3 -1.3,5.4 -3.8,5.4 -2.4,0 -3.7,-2.2 -3.7,-5.3 0,-3.2 1.4,-5.4 3.8,-5.4 2.6,0 3.7,2.3 3.7,5.3 z m -5.5,0.1 c 0,2.5 0.7,3.8 1.8,3.8 1.2,0 1.8,-1.4 1.8,-3.9 0,-2.4 -0.6,-3.8 -1.8,-3.8 -1.1,0 -1.8,1.3 -1.8,3.9 z" style="fill:#454746"/></g><g id="g4025"><path id="path4027" d="m 390.5,479.5 v -2.6 h -4.7 v -1.3 l 4.2,-6.5 h 2.3 v 6.3 h 1.3 v 1.5 h -1.3 v 2.6 h -1.8 z m 0,-4.1 v -2.8 c 0,-0.6 0,-1.2 0.1,-1.8 h -0.1 c -0.3,0.7 -0.6,1.2 -0.9,1.8 l -1.9,2.8 0,0 h 2.8 z" style="fill:#454746"/><path id="path4029" d="m 402,474.2 c 0,3.3 -1.3,5.4 -3.8,5.4 -2.4,0 -3.7,-2.2 -3.7,-5.3 0,-3.2 1.4,-5.4 3.8,-5.4 2.6,0 3.7,2.3 3.7,5.3 z m -5.5,0.1 c 0,2.5 0.7,3.8 1.8,3.8 1.2,0 1.8,-1.4 1.8,-3.9 0,-2.4 -0.6,-3.8 -1.8,-3.8 -1.1,0 -1.8,1.3 -1.8,3.9 z" style="fill:#454746"/></g><g id="g4031"><path id="path4033" d="m 457.7,470.7 h -4 l -0.3,2.1 c 0.2,0 0.4,0 0.8,0 0.9,0 1.8,0.2 2.5,0.7 0.8,0.5 1.4,1.4 1.4,2.6 0,2 -1.6,3.6 -4.2,3.6 -1.2,0 -2.2,-0.3 -2.8,-0.6 l 0.4,-1.5 c 0.4,0.2 1.3,0.5 2.3,0.5 1.2,0 2.3,-0.7 2.3,-1.9 0,-1.2 -0.9,-2 -3,-2 -0.6,0 -1,0 -1.4,0.1 l 0.7,-5.2 h 5.4 v 1.6 z" style="fill:#454746"/><path id="path4035" d="m 467,474.2 c 0,3.3 -1.3,5.4 -3.8,5.4 -2.4,0 -3.7,-2.2 -3.7,-5.3 0,-3.2 1.4,-5.4 3.8,-5.4 2.6,0 3.7,2.3 3.7,5.3 z m -5.5,0.1 c 0,2.5 0.7,3.8 1.8,3.8 1.2,0 1.8,-1.4 1.8,-3.9 0,-2.4 -0.6,-3.8 -1.8,-3.8 -1.1,0 -1.8,1.3 -1.8,3.9 z" style="fill:#454746"/></g><g id="g4037"><path id="path4039" d="m 522.5,470.5 c -0.3,0 -0.6,0 -1,0 -2.2,0.3 -3.2,1.6 -3.5,3 h 0 c 0.5,-0.6 1.3,-1 2.3,-1 1.8,0 3.2,1.3 3.2,3.4 0,2 -1.5,3.7 -3.7,3.7 -2.5,0 -3.9,-1.9 -3.9,-4.5 0,-2 0.7,-3.6 1.8,-4.7 1,-0.9 2.2,-1.4 3.7,-1.5 0.4,0 0.8,0 1,0 l 0.1,1.6 z m -1,5.6 c 0,-1.2 -0.7,-2.1 -1.8,-2.1 -0.7,0 -1.4,0.4 -1.7,1.1 -0.1,0.2 -0.1,0.4 -0.1,0.6 0,1.4 0.7,2.5 2,2.5 1,0 1.6,-0.9 1.6,-2.1 z" style="fill:#454746"/><path id="path4041" d="m 532,474.2 c 0,3.3 -1.3,5.4 -3.8,5.4 -2.4,0 -3.7,-2.2 -3.7,-5.3 0,-3.2 1.4,-5.4 3.8,-5.4 2.6,0 3.7,2.3 3.7,5.3 z m -5.5,0.1 c 0,2.5 0.7,3.8 1.8,3.8 1.2,0 1.8,-1.4 1.8,-3.9 0,-2.4 -0.6,-3.8 -1.8,-3.8 -1.1,0 -1.8,1.3 -1.8,3.9 z" style="fill:#454746"/></g><g id="g4043"><path id="path4045" d="m 588.3,469.1 v 1.3 l -4.4,9.1 h -2.1 l 4.4,-8.7 v 0 h -4.9 v -1.6 h 7 z" style="fill:#454746"/><path id="path4047" d="m 597,474.2 c 0,3.3 -1.3,5.4 -3.8,5.4 -2.4,0 -3.7,-2.2 -3.7,-5.3 0,-3.2 1.4,-5.4 3.8,-5.4 2.6,0 3.7,2.3 3.7,5.3 z m -5.5,0.1 c 0,2.5 0.7,3.8 1.8,3.8 1.2,0 1.8,-1.4 1.8,-3.9 0,-2.4 -0.6,-3.8 -1.8,-3.8 -1.1,0 -1.8,1.3 -1.8,3.9 z" style="fill:#454746"/></g><g id="g4049"><path id="path4051" d="m 646,476.8 c 0,-1.3 0.8,-2.2 2,-2.7 v 0 c -1.1,-0.5 -1.6,-1.4 -1.6,-2.3 0,-1.7 1.5,-2.8 3.5,-2.8 2.2,0 3.3,1.3 3.3,2.6 0,0.9 -0.5,1.8 -1.6,2.4 v 0 c 1.1,0.4 2,1.3 2,2.6 0,1.9 -1.6,3.1 -3.8,3.1 -2.6,0 -3.8,-1.4 -3.8,-2.9 z m 5.5,-0.1 c 0,-1.1 -0.8,-1.6 -1.9,-2 -1,0.3 -1.5,1 -1.5,1.8 0,0.9 0.6,1.7 1.7,1.7 1,0.1 1.7,-0.6 1.7,-1.5 z m -3.3,-5 c 0,0.8 0.7,1.4 1.7,1.6 0.7,-0.2 1.3,-0.8 1.3,-1.6 0,-0.7 -0.4,-1.5 -1.5,-1.5 -1,0.1 -1.5,0.7 -1.5,1.5 z" style="fill:#454746"/><path id="path4053" d="m 662,474.2 c 0,3.3 -1.3,5.4 -3.8,5.4 -2.4,0 -3.7,-2.2 -3.7,-5.3 0,-3.2 1.4,-5.4 3.8,-5.4 2.6,0 3.7,2.3 3.7,5.3 z m -5.5,0.1 c 0,2.5 0.7,3.8 1.8,3.8 1.2,0 1.8,-1.4 1.8,-3.9 0,-2.4 -0.6,-3.8 -1.8,-3.8 -1.1,0 -1.8,1.3 -1.8,3.9 z" style="fill:#454746"/></g><g id="g4055"><path id="path4057" d="m 711.9,478.1 c 0.3,0 0.6,0 1.1,0 0.8,-0.1 1.5,-0.3 2.1,-0.8 0.7,-0.5 1.1,-1.3 1.3,-2.3 l 0,0 c -0.5,0.6 -1.3,0.9 -2.3,0.9 -1.8,0 -3.2,-1.3 -3.2,-3.2 0,-2 1.5,-3.7 3.8,-3.7 2.4,0 3.7,1.9 3.7,4.4 0,2.2 -0.7,3.8 -1.8,4.8 -0.9,0.8 -2.2,1.3 -3.6,1.4 -0.4,0 -0.9,0 -1.2,0 v -1.5 z m 1,-5.6 c 0,1.1 0.6,1.9 1.7,1.9 0.8,0 1.4,-0.4 1.7,-0.9 0.1,-0.1 0.1,-0.3 0.1,-0.6 0,-1.4 -0.5,-2.6 -1.8,-2.6 -0.9,0.1 -1.7,1 -1.7,2.2 z" style="fill:#454746"/><path id="path4059" d="m 727,474.2 c 0,3.3 -1.3,5.4 -3.8,5.4 -2.4,0 -3.7,-2.2 -3.7,-5.3 0,-3.2 1.4,-5.4 3.8,-5.4 2.6,0 3.7,2.3 3.7,5.3 z m -5.5,0.1 c 0,2.5 0.7,3.8 1.8,3.8 1.2,0 1.8,-1.4 1.8,-3.9 0,-2.4 -0.6,-3.8 -1.8,-3.8 -1.1,0 -1.8,1.3 -1.8,3.9 z" style="fill:#454746"/></g></g><line id="line4061" x1="79.8" x2="73.3" y1="131" y2="131" stroke-miterlimit="10" style="fill:none;stroke:#454746;stroke-width:1;stroke-miterlimit:10"/><line id="line4063" x1="79.8" x2="73.3" y1="55.3" y2="55.3" stroke-miterlimit="10" style="fill:none;stroke:#454746;stroke-width:1;stroke-miterlimit:10"/><line id="line4065" x1="79.8" x2="73.3" y1="207" y2="207" stroke-miterlimit="10" style="fill:none;stroke:#454746;stroke-width:1;stroke-miterlimit:10"/><line id="line4067" x1="79.8" x2="73.3" y1="283" y2="283" stroke-miterlimit="10" style="fill:none;stroke:#454746;stroke-width:1;stroke-miterlimit:10"/><line id="line4069" x1="79.8" x2="73.3" y1="359" y2="359" stroke-miterlimit="10" style="fill:none;stroke:#454746;stroke-width:1;stroke-miterlimit:10"/><line id="line4071" x1="138.3" x2="138.3" y1="428.5" y2="435" stroke-miterlimit="10" style="fill:none;stroke:#454746;stroke-width:1;stroke-miterlimit:10"/><line id="line4073" x1="203.3" x2="203.3" y1="428.5" y2="435" stroke-miterlimit="10" style="fill:none;stroke:#454746;stroke-width:1;stroke-miterlimit:10"/><line id="line4075" x1="268.3" x2="268.3" y1="428.5" y2="435" stroke-miterlimit="10" style="fill:none;stroke:#454746;stroke-width:1;stroke-miterlimit:10"/><line id="line4077" x1="333.3" x2="333.3" y1="428.5" y2="435" stroke-miterlimit="10" style="fill:none;stroke:#454746;stroke-width:1;stroke-miterlimit:10"/><line id="line4079" x1="398.3" x2="398.3" y1="428.5" y2="435" stroke-miterlimit="10" style="fill:none;stroke:#454746;stroke-width:1;stroke-miterlimit:10"/><line id="line4081" x1="463.3" x2="463.3" y1="428.5" y2="435" stroke-miterlimit="10" style="fill:none;stroke:#454746;stroke-width:1;stroke-miterlimit:10"/><line id="line4083" x1="528.3" x2="528.3" y1="428.5" y2="435" stroke-miterlimit="10" style="fill:none;stroke:#454746;stroke-width:1;stroke-miterlimit:10"/><line id="line4085" x1="593.3" x2="593.3" y1="428.5" y2="435" stroke-miterlimit="10" style="fill:none;stroke:#454746;stroke-width:1;stroke-miterlimit:10"/><line id="line4087" x1="658.3" x2="658.3" y1="428.5" y2="435" stroke-miterlimit="10" style="fill:none;stroke:#454746;stroke-width:1;stroke-miterlimit:10"/><line id="line4089" x1="723.3" x2="723.3" y1="428.5" y2="435" stroke-miterlimit="10" style="fill:none;stroke:#454746;stroke-width:1;stroke-miterlimit:10"/><path id="path4091" stroke-miterlimit="10" d="m 73.3,434.99999 c 0,-34.5 95.3,-39.3 152.7,-39.1 h 497.3" style="fill:none;stroke:#75b640;stroke-width:4;stroke-linecap:round;stroke-miterlimit:10"/><path id="path4093" stroke-miterlimit="10" d="M 73.3,400.39999 C 73.3,274.99999 649.6,54.799988 707,54.999988" style="fill:none;stroke:#75b640;stroke-width:4;stroke-linecap:round;stroke-miterlimit:10"/></svg>