<svg xmlns="http://www.w3.org/2000/svg" xmlns:svg="http://www.w3.org/2000/svg" id="graphs" width="100%" height="100%" x="0" y="0" enable-background="new 0 0 900 600" version="1.1" viewBox="0 0 650.3 457" xml:space="preserve"><metadata id="metadata141"/><path id="path3" d="m 597.3,362.5 h -504 c -1.6,0 -3,-1.4 -3,-3 v -304 c 0,-1.7 1.4,-3 3,-3 h 504 c 1.7,0 3,1.3 3,3 v 304 c 0,1.7 -1.3,3 -3,3 z" style="fill:#f8faf6"/><g id="g5" transform="translate(-117.8,-63.5)"><line id="line7" x1="213.1" x2="213.1" y1="120.5" y2="420.5" stroke-miterlimit="10" style="fill:none;stroke:#d6d6d6;stroke-miterlimit:10"/><line id="line9" x1="313.1" x2="313.1" y1="120.5" y2="420.5" stroke-miterlimit="10" style="fill:none;stroke:#d6d6d6;stroke-miterlimit:10"/><line id="line11" x1="413.1" x2="413.1" y1="120.5" y2="420.5" stroke-miterlimit="10" style="fill:none;stroke:#d6d6d6;stroke-miterlimit:10"/><line id="line13" x1="513.1" x2="513.1" y1="120.5" y2="420.5" stroke-miterlimit="10" style="fill:none;stroke:#d6d6d6;stroke-miterlimit:10"/><line id="line15" x1="613.1" x2="613.1" y1="120.5" y2="420.5" stroke-miterlimit="10" style="fill:none;stroke:#d6d6d6;stroke-miterlimit:10"/><line id="line17" x1="713.1" x2="713.1" y1="120.5" y2="420.5" stroke-miterlimit="10" style="fill:none;stroke:#d6d6d6;stroke-miterlimit:10"/><line id="line19" x1="213.1" x2="713.1" y1="120.5" y2="120.5" stroke-miterlimit="10" style="fill:none;stroke:#d6d6d6;stroke-miterlimit:10"/><line id="line21" x1="213.1" x2="713.1" y1="220.5" y2="220.5" stroke-miterlimit="10" style="fill:none;stroke:#d6d6d6;stroke-miterlimit:10"/><line id="line23" x1="213.1" x2="713.1" y1="320.5" y2="320.5" stroke-miterlimit="10" style="fill:none;stroke:#d6d6d6;stroke-miterlimit:10"/><line id="line25" x1="213.1" x2="713.1" y1="420.5" y2="420.5" stroke-miterlimit="10" style="fill:none;stroke:#d6d6d6;stroke-miterlimit:10"/></g><g id="g27" transform="translate(-117.8,-63.5)"><path id="path29" d="m 217.3,438.6 c 0,3.8 -1.5,6.1 -4.3,6.1 -2.7,0 -4.1,-2.4 -4.2,-6 0,-3.6 1.5,-6.1 4.3,-6.1 2.9,0 4.2,2.5 4.2,6 z m -6.1,0.1 c 0,2.8 0.8,4.3 2,4.3 1.3,0 2,-1.6 2,-4.4 0,-2.7 -0.6,-4.3 -2,-4.3 -1.2,0 -2.1,1.5 -2,4.4 z" style="fill:#454746"/></g><g id="g31" transform="translate(-117.8,-63.5)"><path id="path33" d="m 312.6,434.8 0,0 -2.2,1.1 -0.4,-1.7 2.8,-1.4 h 1.9 v 11.7 h -2.1 v -9.7 z" style="fill:#454746"/></g><g id="g35" transform="translate(-117.8,-63.5)"><path id="path37" d="m 409.1,444.5 v -1.4 l 1.4,-1.3 c 2.8,-2.6 4.1,-4 4.1,-5.5 0,-1 -0.6,-2 -2.1,-2 -1,0 -1.9,0.5 -2.5,1 l -0.6,-1.6 c 0.8,-0.7 2.1,-1.2 3.6,-1.2 2.6,0 3.9,1.6 3.9,3.5 0,2.1 -1.5,3.7 -3.5,5.6 l -1,0.9 v 0 h 4.8 v 1.8 h -8.1 z" style="fill:#454746"/></g><g id="g39" transform="translate(-117.8,-63.5)"><path id="path41" d="m 509.5,442.2 c 0.5,0.3 1.5,0.7 2.7,0.7 1.7,0 2.4,-1 2.4,-1.9 0,-1.4 -1.3,-2 -2.6,-2 h -1 v -1.6 h 1 c 1,0 2.3,-0.5 2.3,-1.6 0,-0.8 -0.6,-1.5 -1.9,-1.5 -1,0 -1.9,0.4 -2.4,0.7 l -0.5,-1.6 c 0.7,-0.5 2,-0.9 3.4,-0.9 2.4,0 3.7,1.3 3.7,2.9 0,1.2 -0.7,2.2 -2.2,2.7 v 0 c 1.4,0.3 2.6,1.3 2.6,2.9 0,2 -1.7,3.5 -4.6,3.5 -1.4,0 -2.6,-0.4 -3.3,-0.8 l 0.4,-1.5 z" style="fill:#454746"/></g><g id="g43" transform="translate(-117.8,-63.5)"><path id="path45" d="m 614,444.5 v -3 h -5.3 v -1.4 l 4.8,-7.3 h 2.6 v 7.1 h 1.5 v 1.7 h -1.5 v 3 H 614 z m 0,-4.6 v -3.2 c 0,-0.7 0,-1.4 0.1,-2 H 614 c -0.4,0.7 -0.7,1.3 -1,2 l -2.1,3.2 0,0 h 3.1 z" style="fill:#454746"/></g><g id="g47" transform="translate(-117.8,-63.5)"><path id="path49" d="M 716.5,434.6 H 712 l -0.3,2.3 c 0.3,0 0.5,-0.1 0.8,-0.1 1,0 2.1,0.2 2.8,0.8 0.9,0.6 1.5,1.5 1.5,3 0,2.2 -1.9,4.1 -4.7,4.1 -1.4,0 -2.5,-0.3 -3.1,-0.7 l 0.5,-1.7 c 0.5,0.3 1.5,0.6 2.6,0.6 1.3,0 2.5,-0.7 2.5,-2.1 0,-1.3 -1,-2.2 -3.3,-2.2 -0.6,0 -1.1,0 -1.6,0.1 l 0.8,-5.9 h 6 v 1.8 z" style="fill:#454746"/></g><g id="g51" transform="translate(-117.8,-63.5)"><path id="path53" d="m 192.5,123.2 c 0.5,0.3 1.5,0.7 2.7,0.7 1.7,0 2.4,-1 2.4,-1.9 0,-1.4 -1.3,-2 -2.6,-2 h -1 v -1.6 h 1 c 1,0 2.3,-0.5 2.3,-1.6 0,-0.8 -0.6,-1.5 -1.9,-1.5 -1,0 -1.9,0.4 -2.4,0.7 l -0.5,-1.6 c 0.7,-0.5 2,-0.9 3.4,-0.9 2.4,0 3.7,1.3 3.7,2.9 0,1.2 -0.7,2.2 -2.2,2.7 v 0 c 1.4,0.3 2.6,1.3 2.6,2.9 0,2 -1.7,3.5 -4.6,3.5 -1.4,0 -2.6,-0.4 -3.3,-0.8 l 0.4,-1.5 z" style="fill:#454746"/></g><g id="g55" transform="translate(-117.8,-63.5)"><path id="path57" d="m 192.1,225.5 v -1.4 l 1.4,-1.3 c 2.8,-2.6 4.1,-4 4.1,-5.5 0,-1 -0.6,-2 -2.1,-2 -1,0 -1.9,0.5 -2.5,1 l -0.6,-1.6 c 0.8,-0.7 2.1,-1.2 3.6,-1.2 2.6,0 3.9,1.6 3.9,3.5 0,2.1 -1.5,3.7 -3.5,5.6 l -1,0.9 v 0 h 4.8 v 1.8 h -8.1 z" style="fill:#454746"/></g><g id="g59" transform="translate(-117.8,-63.5)"><path id="path61" d="m 195.6,315.8 0,0 -2.2,1.1 -0.4,-1.7 2.8,-1.4 h 1.9 v 11.7 h -2.1 v -9.7 z" style="fill:#454746"/></g><g id="g63" transform="translate(-117.8,-63.5)"><path id="path65" d="m 200.3,419.6 c 0,3.8 -1.5,6.1 -4.3,6.1 -2.7,0 -4.1,-2.4 -4.2,-6 0,-3.6 1.5,-6.1 4.3,-6.1 2.9,0 4.2,2.5 4.2,6 z m -6.1,0.1 c 0,2.8 0.8,4.3 2,4.3 1.3,0 2,-1.6 2,-4.4 0,-2.7 -0.6,-4.3 -2,-4.3 -1.2,0 -2.1,1.5 -2,4.4 z" style="fill:#454746"/></g><g id="g67" transform="translate(-117.8,-63.5)"><path id="path69" d="m 378.2,475.7 c 0.6,-2.2 1.7,-4.7 2.6,-6.1 l 1.8,-0.2 c -0.6,1.8 -1.2,4.2 -1.6,6.1 l -2.8,0.2 z m 4.2,0 c 0.6,-2.2 1.7,-4.7 2.6,-6.1 l 1.8,-0.2 c -0.6,1.8 -1.3,4.2 -1.6,6.1 l -2.8,0.2 z" style="fill:#454746"/><path id="path71" d="m 389,468.8 h 3 v 7 h 0 c 0.4,-0.6 0.8,-1 1.5,-1.3 0.6,-0.3 1.3,-0.5 2,-0.5 2,0 4.1,1.3 4.1,5.1 v 6.9 h -3 v -6.6 c 0,-1.7 -0.6,-3 -2.3,-3 -1.2,0 -2,0.8 -2.3,1.7 -0.1,0.2 -0.1,0.6 -0.1,0.9 v 7 h -3 v -17.2 z" style="fill:#454746"/><path id="path73" d="m 405.9,470.9 c 0,0.9 -0.6,1.6 -1.7,1.6 -1,0 -1.6,-0.7 -1.6,-1.6 0,-0.9 0.7,-1.6 1.7,-1.6 0.9,0 1.6,0.7 1.6,1.6 z m -3.2,14.9 v -11.7 h 3 v 11.7 h -3 z" style="fill:#454746"/><path id="path75" d="m 408.9,478 c 0,-1.5 0,-2.8 -0.1,-3.9 h 2.6 l 0.1,1.8 h 0 c 0.9,-1.3 2.2,-2.1 4,-2.1 2.7,0 4.9,2.3 4.9,6 0,4.2 -2.7,6.3 -5.3,6.3 -1.5,0 -2.7,-0.6 -3.3,-1.6 h 0 v 6 h -3 V 478 z m 2.9,2.9 c 0,0.3 0,0.6 0.1,0.8 0.3,1.2 1.3,2.1 2.6,2.1 1.9,0 3,-1.6 3,-3.9 0,-2.1 -1,-3.7 -2.9,-3.7 -1.2,0 -2.4,0.9 -2.6,2.2 -0.1,0.2 -0.1,0.5 -0.1,0.7 v 1.8 z" style="fill:#454746"/><path id="path77" d="m 422.9,478 c 0,-1.5 0,-2.8 -0.1,-3.9 h 2.6 l 0.1,1.8 h 0 c 0.9,-1.3 2.2,-2.1 4,-2.1 2.7,0 4.9,2.3 4.9,6 0,4.2 -2.7,6.3 -5.3,6.3 -1.5,0 -2.7,-0.6 -3.3,-1.6 h 0 v 6 h -3 V 478 z m 3,2.9 c 0,0.3 0,0.6 0.1,0.8 0.3,1.2 1.3,2.1 2.6,2.1 1.9,0 3,-1.6 3,-3.9 0,-2.1 -1,-3.7 -2.9,-3.7 -1.2,0 -2.4,0.9 -2.6,2.2 -0.1,0.2 -0.1,0.5 -0.1,0.7 v 1.8 z" style="fill:#454746"/><path id="path79" d="m 448.1,479.9 c 0,4.3 -3,6.2 -6,6.2 -3.3,0 -5.9,-2.3 -5.9,-6 0,-3.8 2.5,-6.2 6,-6.2 3.5,0 5.9,2.4 5.9,6 z m -8.8,0.1 c 0,2.3 1.1,4 2.9,4 1.7,0 2.9,-1.7 2.9,-4 0,-1.8 -0.8,-3.9 -2.8,-3.9 -2.2,-0.1 -3,2 -3,3.9 z" style="fill:#454746"/><path id="path81" d="m 450.5,478 c 0,-1.5 0,-2.8 -0.1,-3.9 h 2.6 l 0.1,1.8 h 0 c 0.9,-1.3 2.2,-2.1 4,-2.1 2.7,0 4.9,2.3 4.9,6 0,4.2 -2.7,6.3 -5.3,6.3 -1.5,0 -2.7,-0.6 -3.3,-1.6 h 0 v 6 h -3 V 478 z m 3,2.9 c 0,0.3 0,0.6 0.1,0.8 0.3,1.2 1.3,2.1 2.6,2.1 1.9,0 3,-1.6 3,-3.9 0,-2.1 -1,-3.7 -2.9,-3.7 -1.2,0 -2.4,0.9 -2.6,2.2 -0.1,0.2 -0.1,0.5 -0.1,0.7 v 1.8 z" style="fill:#454746"/><path id="path83" d="m 475.7,479.9 c 0,4.3 -3,6.2 -6,6.2 -3.3,0 -5.9,-2.3 -5.9,-6 0,-3.8 2.5,-6.2 6,-6.2 3.5,0 5.9,2.4 5.9,6 z m -8.9,0.1 c 0,2.3 1.1,4 2.9,4 1.7,0 2.9,-1.7 2.9,-4 0,-1.8 -0.8,-3.9 -2.8,-3.9 -2.1,-0.1 -3,2 -3,3.9 z" style="fill:#454746"/><path id="path85" d="m 481.5,470.8 v 3.3 h 2.8 v 2.2 h -2.8 v 5.2 c 0,1.4 0.4,2.2 1.5,2.2 0.5,0 0.9,-0.1 1.2,-0.1 l 0,2.3 c -0.4,0.2 -1.2,0.3 -2.1,0.3 -1.1,0 -2,-0.4 -2.5,-1 -0.6,-0.7 -0.9,-1.7 -0.9,-3.3 v -5.5 H 477 v -2.2 h 1.7 v -2.6 l 2.8,-0.8 z" style="fill:#454746"/><path id="path87" d="m 493.1,485.8 -0.2,-1.3 h -0.1 c -0.7,0.9 -1.9,1.6 -3.5,1.6 -2.4,0 -3.7,-1.7 -3.7,-3.5 0,-3 2.6,-4.4 6.9,-4.4 V 478 c 0,-0.8 -0.3,-2 -2.4,-2 -1.2,0 -2.4,0.4 -3.1,0.9 l -0.6,-1.9 c 0.9,-0.5 2.4,-1 4.2,-1 3.7,0 4.8,2.4 4.8,4.9 v 4.2 c 0,1.1 0,2.1 0.2,2.8 h -2.5 z m -0.4,-5.7 c -2.1,0 -4.1,0.4 -4.1,2.2 0,1.2 0.7,1.7 1.7,1.7 1.2,0 2,-0.8 2.3,-1.6 0.1,-0.2 0.1,-0.5 0.1,-0.6 v -1.7 z" style="fill:#454746"/><path id="path89" d="m 498.7,477.6 c 0,-1.3 0,-2.5 -0.1,-3.5 h 2.5 l 0.1,1.7 h 0.1 c 0.6,-0.9 1.6,-2 3.6,-2 1.5,0 2.7,0.9 3.2,2.2 h 0 c 0.4,-0.6 0.9,-1.1 1.4,-1.5 0.6,-0.5 1.4,-0.7 2.4,-0.7 1.9,0 3.9,1.3 3.9,5.1 v 6.9 H 513 v -6.5 c 0,-1.9 -0.7,-3.1 -2.1,-3.1 -1,0 -1.8,0.7 -2.1,1.6 -0.1,0.3 -0.1,0.6 -0.1,1 v 7 h -2.9 V 479 c 0,-1.6 -0.6,-2.8 -2,-2.8 -1.1,0 -1.8,0.9 -2.1,1.7 -0.1,0.3 -0.2,0.6 -0.2,1 v 6.9 h -2.9 v -8.2 z" style="fill:#454746"/><path id="path91" d="m 529.5,482.3 c 0,1.4 0,2.5 0.1,3.5 H 527 l -0.1,-1.8 h 0 c -0.5,0.8 -1.7,2 -3.7,2 -2.1,0 -4.1,-1.3 -4.1,-5.1 V 474 h 3 v 6.4 c 0,1.9 0.6,3.2 2.2,3.2 1.2,0 1.9,-0.8 2.3,-1.6 0.1,-0.3 0.2,-0.6 0.2,-0.9 V 474 h 3 v 8.3 z" style="fill:#454746"/><path id="path93" d="m 532.6,483.1 c 0.7,0.4 1.9,0.8 3,0.8 1.3,0 1.9,-0.5 1.9,-1.3 0,-0.8 -0.5,-1.2 -1.9,-1.7 -2.3,-0.8 -3.2,-2 -3.2,-3.4 0,-2.1 1.7,-3.7 4.4,-3.7 1.3,0 2.4,0.3 3.1,0.7 l -0.6,2.1 c -0.5,-0.3 -1.4,-0.7 -2.5,-0.7 -1.1,0 -1.6,0.5 -1.6,1.2 0,0.7 0.6,1.1 2,1.6 2.1,0.8 3.1,1.8 3.1,3.6 0,2.1 -1.7,3.6 -4.8,3.6 -1.4,0 -2.7,-0.3 -3.6,-0.8 l 0.7,-2 z" style="fill:#454746"/><path id="path95" d="m 545.9,469.4 c -0.7,2.2 -1.7,4.7 -2.6,6.1 l -1.8,0.2 c 0.6,-1.8 1.2,-4.2 1.6,-6.1 l 2.8,-0.2 z m 4.2,0 c -0.6,2.2 -1.7,4.7 -2.6,6.1 l -1.8,0.2 c 0.6,-1.8 1.3,-4.2 1.6,-6.1 l 2.8,-0.2 z" style="fill:#454746"/></g><g id="g97" transform="translate(-117.8,-63.5)"><path id="path99" d="m 155.7,308.2 c -2.2,-0.6 -4.7,-1.7 -6.1,-2.6 l -0.2,-1.8 c 1.8,0.6 4.2,1.3 6.1,1.6 l 0.2,2.8 z m 0,4.2 c -2.2,-0.6 -4.7,-1.7 -6.1,-2.6 l -0.2,-1.8 c 1.8,0.6 4.2,1.2 6.1,1.6 l 0.2,2.8 z" style="fill:#454746"/><path id="path101" d="m 147.8,301.7 v -3 h 7 v 0 c -0.6,-0.4 -1,-0.8 -1.3,-1.5 -0.3,-0.6 -0.5,-1.3 -0.5,-2 0,-2 1.3,-4.1 5.1,-4.1 h 6.9 v 3 h -6.6 c -1.7,0 -3,0.6 -3,2.3 0,1.2 0.8,2 1.7,2.3 0.2,0.1 0.6,0.1 0.9,0.1 h 7 v 3 h -17.2 z" style="fill:#454746"/><path id="path103" d="m 164.8,281.4 -1.3,0.2 v 0.1 c 0.9,0.7 1.6,1.9 1.6,3.5 0,2.4 -1.7,3.7 -3.5,3.7 -3,0 -4.4,-2.6 -4.4,-6.9 H 157 c -0.8,0 -2,0.3 -2,2.4 0,1.2 0.4,2.4 0.9,3.1 l -1.9,0.6 c -0.5,-0.9 -1,-2.4 -1,-4.2 0,-3.7 2.4,-4.8 4.9,-4.8 h 4.2 c 1.1,0 2.1,0 2.8,-0.2 v 2.5 z m -5.7,0.4 c 0,2.1 0.4,4.1 2.2,4.1 1.2,0 1.7,-0.7 1.7,-1.7 0,-1.2 -0.8,-2 -1.6,-2.3 -0.2,-0.1 -0.5,-0.1 -0.6,-0.1 h -1.7 z" style="fill:#454746"/><path id="path105" d="m 157,275.8 c -1.5,0 -2.8,0 -3.9,0.1 v -2.6 l 1.8,-0.1 v 0 c -1.3,-0.9 -2.1,-2.2 -2.1,-4 0,-2.7 2.3,-4.9 6,-4.9 4.2,0 6.3,2.7 6.3,5.3 0,1.5 -0.6,2.7 -1.6,3.3 v 0 h 6 v 3 H 157 z m 2.9,-3 c 0.3,0 0.6,0 0.8,-0.1 1.2,-0.3 2.1,-1.3 2.1,-2.6 0,-1.9 -1.6,-3 -3.9,-3 -2.1,0 -3.7,1 -3.7,2.9 0,1.2 0.9,2.4 2.2,2.6 0.2,0.1 0.5,0.1 0.7,0.1 h 1.8 z" style="fill:#454746"/><path id="path107" d="m 157,261.7 c -1.5,0 -2.8,0 -3.9,0.1 v -2.6 l 1.8,-0.1 v 0 c -1.3,-0.9 -2.1,-2.2 -2.1,-4 0,-2.7 2.3,-4.9 6,-4.9 4.2,0 6.3,2.7 6.3,5.3 0,1.5 -0.6,2.7 -1.6,3.3 v 0 h 6 v 3 H 157 z m 2.9,-2.9 c 0.3,0 0.6,0 0.8,-0.1 1.2,-0.3 2.1,-1.3 2.1,-2.6 0,-1.9 -1.6,-3 -3.9,-3 -2.1,0 -3.7,1 -3.7,2.9 0,1.2 0.9,2.4 2.2,2.6 0.2,0.1 0.5,0.1 0.7,0.1 h 1.8 z" style="fill:#454746"/><path id="path109" d="m 153.1,246.1 6.3,-2.1 c 0.7,-0.2 1.6,-0.5 2.3,-0.6 v -0.1 c -0.7,-0.2 -1.5,-0.4 -2.3,-0.6 l -6.2,-1.8 v -3.2 l 8,2.9 c 4.4,1.6 6.3,2.7 7.5,4.1 1,1.2 1.4,2.4 1.5,3.1 l -2.5,0.7 c -0.1,-0.5 -0.4,-1.1 -0.8,-1.7 -0.4,-0.6 -1.1,-1.2 -1.8,-1.6 -0.2,-0.1 -0.4,-0.2 -0.5,-0.2 -0.1,0 -0.3,0 -0.6,0.2 l -10.7,4.3 v -3.4 z" style="fill:#454746"/><path id="path111" d="m 148.4,227.6 c 2.2,0.6 4.7,1.7 6.1,2.6 l 0.2,1.8 c -1.8,-0.6 -4.2,-1.3 -6.1,-1.6 l -0.2,-2.8 z m 0,4.2 c 2.2,0.7 4.7,1.7 6.1,2.6 l 0.2,1.8 c -1.8,-0.6 -4.2,-1.2 -6.1,-1.6 l -0.2,-2.8 z" style="fill:#454746"/></g><line id="line113" x1="95.3" x2="595.3" y1="357" y2="157" stroke-miterlimit="10" style="fill:#fff;stroke:#75b640;stroke-width:4;stroke-linecap:round;stroke-miterlimit:10"/><g id="g115" transform="translate(-117.8,-63.5)"><path id="path117" d="m 577.5,253.5 0,0 c -0.3,1.3 -1.1,2.5 -2.7,3.1 -2.4,1 -5.4,-0.3 -6.7,-3.7 -1.6,-4 0.2,-6.9 2.5,-7.8 1.5,-0.6 2.8,-0.4 3.8,0.4 l 0.1,0 -0.5,-1.5 2.7,-1.1 c 0.3,1 0.7,2 1.2,3.2 l 4.8,12.1 -2.7,1.1 -2.5,-5.8 z m -2,-4.8 c -0.1,-0.2 -0.2,-0.5 -0.3,-0.6 -0.7,-0.9 -1.9,-1.4 -3.1,-1 -1.8,0.7 -2.2,2.6 -1.3,4.6 0.8,2 2.3,3.1 4.1,2.4 1.1,-0.4 1.7,-1.5 1.6,-2.7 0,-0.3 -0.1,-0.6 -0.2,-0.9 l -0.8,-1.8 z" style="fill:#75b640"/><path id="path119" d="m 592.2,245.6 c 0.5,1.3 1,2.3 1.4,3.2 l -2.4,1 -0.8,-1.6 0,0 c -0.2,1 -0.8,2.5 -2.7,3.3 -2,0.8 -4.3,0.3 -5.7,-3.2 l -2.5,-6.4 2.7,-1.1 2.4,5.9 c 0.7,1.8 1.8,2.7 3.2,2.2 1.1,-0.4 1.5,-1.5 1.5,-2.3 0,-0.3 -0.1,-0.6 -0.2,-0.9 l -2.6,-6.5 2.7,-1.1 3,7.5 z" style="fill:#75b640"/><path id="path121" d="m 596.5,242.3 c 0.9,1.9 2.7,2.2 4.5,1.5 1.3,-0.5 2.1,-1.1 2.8,-1.7 l 1.2,1.7 c -0.8,0.8 -2,1.6 -3.5,2.2 -3.5,1.4 -6.5,0.1 -7.8,-3.2 -1.2,-3 -0.5,-6.6 3,-8 3.5,-1.4 5.8,1 6.8,3.4 0.2,0.5 0.3,0.9 0.4,1.2 l -7.4,2.9 z m 4,-3.9 c -0.4,-1 -1.5,-2.5 -3.3,-1.8 -1.7,0.7 -1.8,2.5 -1.5,3.7 l 4.8,-1.9 z" style="fill:#75b640"/><path id="path123" d="m 605,235.7 c -0.6,-1.5 -1,-2.5 -1.5,-3.5 l 2.4,-1 0.9,2 0.1,0 c -0.1,-1.8 0.9,-3 2,-3.5 0.3,-0.1 0.4,-0.1 0.7,-0.2 l 1,2.6 c -0.2,0 -0.5,0.1 -0.8,0.2 -1.3,0.5 -1.9,1.7 -1.6,3.1 0.1,0.3 0.1,0.6 0.2,0.9 l 2.2,5.6 -2.7,1.1 -2.9,-7.3 z" style="fill:#75b640"/><path id="path125" d="m 613.7,228.2 4.3,5 c 0.5,0.6 1,1.3 1.4,1.9 l 0.1,0 c -0.1,-0.7 -0.2,-1.6 -0.3,-2.4 l -0.6,-6.5 2.9,-1.2 0.2,8.5 c 0.1,4.7 -0.2,6.9 -1,8.5 -0.7,1.4 -1.7,2.2 -2.3,2.6 l -1.6,-2.1 c 0.4,-0.3 0.9,-0.8 1.3,-1.4 0.4,-0.5 0.7,-1.4 0.8,-2.3 0,-0.2 0,-0.4 0,-0.6 0,-0.1 -0.1,-0.3 -0.4,-0.5 l -7.9,-8.4 3.1,-1.1 z" style="fill:#75b640"/><path id="path127" d="m 633.3,235.8 -7.1,-17.8 4.3,-1.7 0.6,1.6 -2.3,0.9 5.8,14.6 2.3,-0.9 0.6,1.6 -4.2,1.7 z" style="fill:#75b640"/><path id="path129" d="m 638.3,230.9 -0.7,-1.7 1.1,-2.3 c 2.1,-4.5 3.1,-6.9 2.3,-8.8 -0.5,-1.3 -1.7,-2.2 -3.6,-1.4 -1.3,0.5 -2.1,1.6 -2.6,2.4 l -1.6,-1.6 c 0.7,-1.3 2,-2.5 3.9,-3.3 3.2,-1.3 5.6,0.1 6.5,2.5 1,2.5 0,5.3 -1.6,8.7 l -0.8,1.6 0,0 5.9,-2.4 0.9,2.3 -9.7,4 z" style="fill:#75b640"/><path id="path131" d="m 650.6,229.2 c -0.1,-1.9 -0.4,-4.5 -0.9,-6.5 l 2.8,-1.4 c 0.2,2.3 0.2,5.2 -0.1,6.9 l -1.8,1 z" style="fill:#75b640"/><path id="path133" d="m 659.8,208.2 -5.6,2.2 0.7,3.1 c 0.3,-0.2 0.6,-0.3 1,-0.5 1.3,-0.5 2.7,-0.7 3.9,-0.5 1.4,0.3 2.7,1.2 3.4,2.9 1.1,2.8 -0.3,5.9 -3.9,7.4 -1.7,0.7 -3.2,0.8 -4.2,0.7 l -0.3,-2.3 c 0.8,0.1 2.2,0 3.5,-0.5 1.6,-0.6 2.8,-2.2 2.1,-3.9 -0.7,-1.6 -2.3,-2.3 -5.2,-1.1 -0.8,0.3 -1.4,0.6 -1.9,0.9 l -2,-7.7 7.5,-3 1,2.3 z" style="fill:#75b640"/><path id="path135" d="m 665.4,202.4 7.1,17.8 -4.3,1.7 -0.6,-1.6 2.3,-0.9 -5.8,-14.6 -2.3,0.9 -0.6,-1.6 4.2,-1.7 z" style="fill:#75b640"/></g></svg>