<svg xmlns="http://www.w3.org/2000/svg" xmlns:svg="http://www.w3.org/2000/svg" id="Layer_1" width="100%" height="100%" x="0" y="0" enable-background="new 0 0 510 250" version="1.1" viewBox="0 0 453.2 185.7" xml:space="preserve"><metadata id="metadata3497"/><path id="path3335" d="M 450.2,185.7 H 3 c -1.7,0 -3,-1.3 -3,-3 V 3 C 0,1.3 1.3,0 3,0 h 447.2 c 1.7,0 3,1.3 3,3 v 179.7 c 0,1.7 -1.3,3 -3,3 z" style="fill:#f8faf6"/><g id="g3337" transform="translate(-30,-30)"><path id="path3339" d="m 51.7,194.9 c -0.5,0 -0.9,-0.4 -0.9,-0.9 V 63.8 c 0,-1.4 1.1,-2.5 2.5,-2.5 H 135 c 1.4,0 2.5,1.1 2.5,2.5 V 194 c 0,0.5 -0.4,0.9 -0.9,0.9 H 51.7 z" style="fill:#fff"/><path id="path3341" d="m 135,62.2 c 0.9,0 1.7,0.8 1.7,1.7 V 194 c 0,0.1 -0.1,0.1 -0.1,0.1 H 51.7 c -0.1,0 -0.1,-0.1 -0.1,-0.1 V 63.8 c 0,-0.9 0.8,-1.7 1.7,-1.7 H 135 m 0,-1.5 H 53.3 c -1.8,0 -3.3,1.5 -3.3,3.3 V 194 c 0,1 0.8,1.7 1.7,1.7 h 84.8 c 1,0 1.7,-0.8 1.7,-1.7 V 63.8 c 0.1,-1.8 -1.4,-3.2 -3.2,-3.2 l 0,0 z" style="fill:#75b640"/></g><path id="path3343" d="M 20,41.9 V 23.3 C 20,21.5 21.5,20 23.3,20 H 105 c 1.8,0 3.3,1.5 3.3,3.3 V 41.9 H 20 z" style="fill:#75b640"/><g id="g3345" transform="translate(-30,-30)"><path id="path3347" d="m 73.3,65.8 v -8.6 h 2.3 l 1.8,3.2 c 0.5,0.9 1,2 1.4,3 h 0 c -0.1,-1.1 -0.2,-2.3 -0.2,-3.6 v -2.5 h 1.8 v 8.6 h -2 l -1.8,-3.3 c -0.5,-0.9 -1.1,-2 -1.5,-3 l 0,0 c 0.1,1.1 0.1,2.4 0.1,3.8 V 66 h -1.9 z" style="fill:#fff"/><path id="path3349" d="m 90,61.4 c 0,2.8 -1.7,4.5 -4.2,4.5 -2.6,0 -4.1,-1.9 -4.1,-4.4 0,-2.6 1.7,-4.5 4.2,-4.5 2.7,0 4.1,2 4.1,4.4 z m -6.2,0.1 c 0,1.7 0.8,2.9 2.1,2.9 1.3,0 2.1,-1.3 2.1,-2.9 0,-1.5 -0.7,-2.9 -2.1,-2.9 -1.4,-0.1 -2.1,1.2 -2.1,2.9 z" style="fill:#fff"/><path id="path3351" d="m 91.3,57.3 c 0.7,-0.1 1.7,-0.2 2.6,-0.2 1.6,0 2.7,0.3 3.5,0.9 0.9,0.7 1.5,1.7 1.5,3.3 0,1.7 -0.6,2.8 -1.4,3.5 -0.9,0.8 -2.3,1.1 -4,1.1 -1,0 -1.7,-0.1 -2.2,-0.1 v -8.5 z m 1.9,7 c 0.2,0 0.4,0 0.7,0 1.8,0 2.9,-1 2.9,-3 0,-1.8 -1,-2.7 -2.7,-2.7 -0.4,0 -0.7,0 -0.9,0.1 v 5.6 z" style="fill:#fff"/><path id="path3353" d="m 105.3,62.1 h -3.2 v 2 h 3.5 v 1.6 h -5.5 v -8.6 h 5.3 v 1.6 H 102 v 1.8 h 3.2 v 1.6 z" style="fill:#fff"/><path id="path3355" d="m 111.8,59.2 0,0 -1.6,0.8 -0.3,-1.5 2.2,-1 h 1.6 v 8.3 h -1.9 v -6.6 z" style="fill:#fff"/></g><g id="g3357" transform="translate(-30,-30)"><path id="path3359" d="m 83.6,125.8 c -2.3,0 -4.2,-1.9 -4.2,-4.2 v -21.1 c 0,-2.3 1.9,-4.2 4.2,-4.2 h 21.1 c 2.3,0 4.2,1.9 4.2,4.2 v 21.1 c 0,2.3 -1.9,4.2 -4.2,4.2 H 83.6 z" style="fill:#fff"/><g id="g3361"><path id="path3363" d="m 104.7,98.2 c 1.2,0 2.2,1 2.2,2.2 v 21.1 c 0,1.2 -1,2.2 -2.2,2.2 H 83.6 c -1.2,0 -2.2,-1 -2.2,-2.2 v -21.1 c 0,-1.2 1,-2.2 2.2,-2.2 h 21.1 m 0,-4 H 83.6 c -3.4,0 -6.2,2.8 -6.2,6.2 v 21.1 c 0,3.4 2.8,6.2 6.2,6.2 h 21.1 c 3.4,0 6.2,-2.8 6.2,-6.2 v -21.1 c 0,-3.5 -2.7,-6.2 -6.2,-6.2 l 0,0 z" style="fill:#75b640"/></g></g><g id="g3365" transform="translate(-30,-30)"><path id="path3367" d="m 87.7,106.2 c 0.6,-0.1 1.4,-0.2 2.6,-0.2 1.2,0 2.1,0.2 2.6,0.7 0.6,0.4 0.9,1.2 0.9,2 0,0.8 -0.3,1.6 -0.8,2 -0.7,0.6 -1.7,0.9 -2.8,0.9 -0.3,0 -0.5,0 -0.7,0 v 3.1 h -1.9 v -8.5 z m 2,4 c 0.2,0 0.4,0.1 0.7,0.1 1,0 1.7,-0.5 1.7,-1.4 0,-0.8 -0.6,-1.3 -1.5,-1.3 -0.4,0 -0.7,0 -0.8,0.1 v 2.5 z" style="fill:#454746"/><path id="path3369" d="m 101,110.6 c 0,2.6 -1,4.3 -3.2,4.3 -2.2,0 -3.1,-1.9 -3.1,-4.3 0,-2.4 1,-4.3 3.2,-4.3 2.2,0 3.1,2 3.1,4.3 z m -4.3,0 c 0,1.9 0.4,2.8 1.2,2.8 0.8,0 1.2,-0.9 1.2,-2.8 0,-1.8 -0.4,-2.8 -1.2,-2.8 -0.7,0 -1.2,0.9 -1.2,2.8 z" style="fill:#454746"/></g><g id="g3371" transform="translate(-30,-30)"><path id="path3373" d="m 160,194.9 c -0.5,0 -0.9,-0.4 -0.9,-0.9 V 63.8 c 0,-1.4 1.1,-2.5 2.5,-2.5 h 81.7 c 1.4,0 2.5,1.1 2.5,2.5 V 194 c 0,0.5 -0.4,0.9 -0.9,0.9 H 160 z" style="fill:#fff"/><path id="path3375" d="m 243.3,62.2 c 0.9,0 1.7,0.8 1.7,1.7 V 194 c 0,0.1 -0.1,0.1 -0.1,0.1 H 160 c -0.1,0 -0.1,-0.1 -0.1,-0.1 V 63.8 c 0,-0.9 0.8,-1.7 1.7,-1.7 h 81.7 m 0,-1.5 h -81.7 c -1.8,0 -3.3,1.5 -3.3,3.3 V 194 c 0,1 0.8,1.7 1.7,1.7 h 84.8 c 1,0 1.7,-0.8 1.7,-1.7 V 63.8 c 0.1,-1.8 -1.4,-3.2 -3.2,-3.2 l 0,0 z" style="fill:#75b640"/></g><path id="path3377" d="M 128.3,41.9 V 23.3 c 0,-1.8 1.5,-3.3 3.3,-3.3 h 81.7 c 1.8,0 3.3,1.5 3.3,3.3 v 18.6 h -88.3 z" style="fill:#75b640"/><g id="g3379" transform="translate(-30,-30)"><path id="path3381" d="m 181.6,65.8 v -8.6 h 2.3 l 1.8,3.2 c 0.5,0.9 1,2 1.4,3 h 0 c -0.1,-1.1 -0.2,-2.3 -0.2,-3.6 v -2.5 h 1.8 v 8.6 h -2 l -1.8,-3.3 c -0.5,-0.9 -1.1,-2 -1.5,-3 l 0,0 c 0.1,1.1 0.1,2.4 0.1,3.8 V 66 h -1.9 z" style="fill:#fff"/><path id="path3383" d="m 198.3,61.4 c 0,2.8 -1.7,4.5 -4.2,4.5 -2.6,0 -4.1,-1.9 -4.1,-4.4 0,-2.6 1.7,-4.5 4.2,-4.5 2.7,0 4.1,2 4.1,4.4 z m -6.2,0.1 c 0,1.7 0.8,2.9 2.1,2.9 1.3,0 2.1,-1.3 2.1,-2.9 0,-1.5 -0.7,-2.9 -2.1,-2.9 -1.4,-0.1 -2.1,1.2 -2.1,2.9 z" style="fill:#fff"/><path id="path3385" d="m 199.6,57.3 c 0.7,-0.1 1.7,-0.2 2.6,-0.2 1.6,0 2.7,0.3 3.5,0.9 0.9,0.7 1.5,1.7 1.5,3.3 0,1.7 -0.6,2.8 -1.4,3.5 -0.9,0.8 -2.3,1.1 -4,1.1 -1,0 -1.7,-0.1 -2.2,-0.1 v -8.5 z m 1.9,7 c 0.2,0 0.4,0 0.7,0 1.8,0 2.9,-1 2.9,-3 0,-1.8 -1,-2.7 -2.7,-2.7 -0.4,0 -0.7,0 -0.9,0.1 v 5.6 z" style="fill:#fff"/><path id="path3387" d="m 213.6,62.1 h -3.2 v 2 h 3.5 v 1.6 h -5.5 v -8.6 h 5.3 v 1.6 h -3.4 v 1.8 h 3.2 v 1.6 z" style="fill:#fff"/><path id="path3389" d="m 217.6,65.8 v -1.2 l 1.1,-1 c 1.8,-1.6 2.7,-2.6 2.7,-3.5 0,-0.7 -0.4,-1.2 -1.4,-1.2 -0.7,0 -1.3,0.4 -1.8,0.7 l -0.5,-1.4 c 0.6,-0.5 1.6,-0.9 2.7,-0.9 1.9,0 2.9,1.1 2.9,2.6 0,1.4 -1,2.5 -2.2,3.6 l -0.8,0.6 v 0 h 3.1 v 1.6 h -5.8 z" style="fill:#fff"/></g><g id="g3391" transform="translate(-30,-30)"><path id="path3393" d="m 191.9,171.4 c -2.3,0 -4.2,-1.9 -4.2,-4.2 V 146 c 0,-2.3 1.9,-4.2 4.2,-4.2 H 213 c 2.3,0 4.2,1.9 4.2,4.2 v 21.1 c 0,2.3 -1.9,4.2 -4.2,4.2 h -21.1 z" style="fill:#fff"/><g id="g3395"><path id="path3397" d="m 213,143.8 c 1.2,0 2.2,1 2.2,2.2 v 21.1 c 0,1.2 -1,2.2 -2.2,2.2 h -21.1 c -1.2,0 -2.2,-1 -2.2,-2.2 V 146 c 0,-1.2 1,-2.2 2.2,-2.2 H 213 m 0,-4 h -21.1 c -3.4,0 -6.2,2.8 -6.2,6.2 v 21.1 c 0,3.4 2.8,6.2 6.2,6.2 H 213 c 3.4,0 6.2,-2.8 6.2,-6.2 V 146 c 0,-3.5 -2.7,-6.2 -6.2,-6.2 l 0,0 z" style="fill:#75b640"/></g></g><g id="g3399" transform="translate(-30,-30)"><path id="path3401" d="m 196,151.8 c 0.6,-0.1 1.4,-0.2 2.6,-0.2 1.2,0 2.1,0.2 2.6,0.7 0.6,0.4 0.9,1.2 0.9,2 0,0.8 -0.3,1.6 -0.8,2 -0.7,0.6 -1.7,0.9 -2.8,0.9 -0.3,0 -0.5,0 -0.7,0 v 3.1 H 196 v -8.5 z m 2,4 c 0.2,0 0.4,0.1 0.7,0.1 1,0 1.7,-0.5 1.7,-1.4 0,-0.8 -0.6,-1.3 -1.5,-1.3 -0.4,0 -0.7,0 -0.8,0.1 v 2.5 z" style="fill:#454746"/><path id="path3403" d="m 205.6,153.8 0,0 -1.6,0.8 -0.3,-1.5 2.2,-1 h 1.6 v 8.3 h -1.9 v -6.6 z" style="fill:#454746"/></g><g id="g3405" transform="translate(-30,-30)"><path id="path3407" d="m 268.3,194.9 c -0.5,0 -0.9,-0.4 -0.9,-0.9 V 63.8 c 0,-1.4 1.1,-2.5 2.5,-2.5 h 81.7 c 1.4,0 2.5,1.1 2.5,2.5 V 194 c 0,0.5 -0.4,0.9 -0.9,0.9 h -84.9 z" style="fill:#fff"/><path id="path3409" d="m 351.6,62.2 c 0.9,0 1.7,0.8 1.7,1.7 V 194 c 0,0.1 -0.1,0.1 -0.1,0.1 h -84.8 c -0.1,0 -0.1,-0.1 -0.1,-0.1 V 63.8 c 0,-0.9 0.8,-1.7 1.7,-1.7 h 81.6 m 0,-1.5 h -81.7 c -1.8,0 -3.3,1.5 -3.3,3.3 V 194 c 0,1 0.8,1.7 1.7,1.7 h 84.8 c 1,0 1.7,-0.8 1.7,-1.7 V 63.8 c 0.1,-1.8 -1.4,-3.2 -3.2,-3.2 l 0,0 z" style="fill:#75b640"/></g><path id="path3411" d="M 236.6,41.9 V 23.3 c 0,-1.8 1.5,-3.3 3.3,-3.3 h 81.7 c 1.8,0 3.3,1.5 3.3,3.3 v 18.6 h -88.3 z" style="fill:#75b640"/><g id="g3413" transform="translate(-30,-30)"><path id="path3415" d="m 289.9,65.8 v -8.6 h 2.3 l 1.8,3.2 c 0.5,0.9 1,2 1.4,3 h 0 c -0.1,-1.1 -0.2,-2.3 -0.2,-3.6 v -2.5 h 1.8 v 8.6 h -2 l -1.8,-3.3 c -0.5,-0.9 -1.1,-2 -1.5,-3 l 0,0 c 0.1,1.1 0.1,2.4 0.1,3.8 V 66 h -1.9 z" style="fill:#fff"/><path id="path3417" d="m 306.6,61.4 c 0,2.8 -1.7,4.5 -4.2,4.5 -2.6,0 -4.1,-1.9 -4.1,-4.4 0,-2.6 1.7,-4.5 4.2,-4.5 2.7,0 4.1,2 4.1,4.4 z m -6.2,0.1 c 0,1.7 0.8,2.9 2.1,2.9 1.3,0 2.1,-1.3 2.1,-2.9 0,-1.5 -0.7,-2.9 -2.1,-2.9 -1.4,-0.1 -2.1,1.2 -2.1,2.9 z" style="fill:#fff"/><path id="path3419" d="m 307.9,57.3 c 0.7,-0.1 1.7,-0.2 2.6,-0.2 1.6,0 2.7,0.3 3.5,0.9 0.9,0.7 1.5,1.7 1.5,3.3 0,1.7 -0.6,2.8 -1.4,3.5 -0.9,0.8 -2.3,1.1 -4,1.1 -1,0 -1.7,-0.1 -2.2,-0.1 v -8.5 z m 1.9,7 c 0.2,0 0.4,0 0.7,0 1.8,0 2.9,-1 2.9,-3 0,-1.8 -1,-2.7 -2.7,-2.7 -0.4,0 -0.7,0 -0.9,0.1 v 5.6 z" style="fill:#fff"/><path id="path3421" d="m 321.9,62.1 h -3.2 v 2 h 3.5 v 1.6 h -5.5 v -8.6 h 5.3 v 1.6 h -3.4 v 1.8 h 3.2 v 1.6 z" style="fill:#fff"/><path id="path3423" d="m 326.2,63.9 c 0.3,0.2 1.1,0.5 1.9,0.5 1,0 1.5,-0.5 1.5,-1.1 0,-0.8 -0.8,-1.2 -1.7,-1.2 h -0.8 v -1.4 h 0.8 c 0.7,0 1.5,-0.3 1.5,-1 0,-0.5 -0.4,-0.9 -1.2,-0.9 -0.7,0 -1.4,0.3 -1.7,0.5 l -0.4,-1.4 c 0.5,-0.3 1.5,-0.6 2.6,-0.6 1.8,0 2.8,0.9 2.8,2.1 0,0.9 -0.5,1.6 -1.5,1.9 v 0 c 1,0.2 1.8,0.9 1.8,2 0,1.5 -1.3,2.5 -3.4,2.5 -1.1,0 -2,-0.3 -2.5,-0.6 l 0.3,-1.3 z" style="fill:#fff"/></g><g id="g3425" transform="translate(-30,-30)"><path id="path3427" d="m 300.2,125.8 c -2.3,0 -4.2,-1.9 -4.2,-4.2 v -21.1 c 0,-2.3 1.9,-4.2 4.2,-4.2 h 21.1 c 2.3,0 4.2,1.9 4.2,4.2 v 21.1 c 0,2.3 -1.9,4.2 -4.2,4.2 h -21.1 z" style="fill:#fff"/><g id="g3429"><path id="path3431" d="m 321.3,98.2 c 1.2,0 2.2,1 2.2,2.2 v 21.1 c 0,1.2 -1,2.2 -2.2,2.2 h -21.1 c -1.2,0 -2.2,-1 -2.2,-2.2 v -21.1 c 0,-1.2 1,-2.2 2.2,-2.2 h 21.1 m 0,-4 h -21.1 c -3.4,0 -6.2,2.8 -6.2,6.2 v 21.1 c 0,3.4 2.8,6.2 6.2,6.2 h 21.1 c 3.4,0 6.2,-2.8 6.2,-6.2 v -21.1 c 0,-3.5 -2.7,-6.2 -6.2,-6.2 l 0,0 z" style="fill:#c6c6c6"/></g></g><g id="g3433" transform="translate(-30,-30)"><path id="path3435" d="m 304.2,106.2 c 0.6,-0.1 1.6,-0.2 2.6,-0.2 1.3,0 2.2,0.2 2.8,0.7 0.5,0.4 0.8,1 0.8,1.8 0,1.1 -0.8,1.9 -1.5,2.1 v 0 c 0.6,0.2 0.9,0.8 1.2,1.6 0.3,1 0.5,2.1 0.7,2.4 h -2 c -0.1,-0.2 -0.3,-0.9 -0.6,-2 -0.2,-1.1 -0.6,-1.4 -1.4,-1.4 h -0.6 v 3.4 h -1.9 v -8.4 z m 2,3.8 h 0.8 c 1,0 1.5,-0.5 1.5,-1.2 0,-0.8 -0.5,-1.2 -1.4,-1.2 -0.5,0 -0.7,0 -0.9,0.1 v 2.3 z" style="fill:#454746"/><path id="path3437" d="m 317.7,110.6 c 0,2.6 -1,4.3 -3.2,4.3 -2.2,0 -3.1,-1.9 -3.1,-4.3 0,-2.4 1,-4.3 3.2,-4.3 2.2,0 3.1,2 3.1,4.3 z m -4.3,0 c 0,1.9 0.4,2.8 1.2,2.8 0.8,0 1.2,-0.9 1.2,-2.8 0,-1.8 -0.4,-2.8 -1.2,-2.8 -0.8,0 -1.3,0.9 -1.2,2.8 z" style="fill:#454746"/></g><g id="g3439" transform="translate(-30,-30)"><path id="path3441" d="m 376.6,194.9 c -0.5,0 -0.9,-0.4 -0.9,-0.9 V 63.8 c 0,-1.4 1.1,-2.5 2.5,-2.5 h 81.7 c 1.4,0 2.5,1.1 2.5,2.5 V 194 c 0,0.5 -0.4,0.9 -0.9,0.9 h -84.9 z" style="fill:#fff"/><path id="path3443" d="m 459.9,62.2 c 0.9,0 1.7,0.8 1.7,1.7 V 194 c 0,0.1 -0.1,0.1 -0.1,0.1 h -84.8 c -0.1,0 -0.1,-0.1 -0.1,-0.1 V 63.8 c 0,-0.9 0.8,-1.7 1.7,-1.7 h 81.6 m 0,-1.5 h -81.7 c -1.8,0 -3.3,1.5 -3.3,3.3 V 194 c 0,1 0.8,1.7 1.7,1.7 h 84.8 c 1,0 1.7,-0.8 1.7,-1.7 V 63.8 c 0.1,-1.8 -1.4,-3.2 -3.2,-3.2 l 0,0 z" style="fill:#75b640"/></g><path id="path3445" d="M 344.9,41.9 V 23.3 c 0,-1.8 1.5,-3.3 3.3,-3.3 h 81.7 c 1.8,0 3.3,1.5 3.3,3.3 v 18.6 h -88.3 z" style="fill:#75b640"/><g id="g3447" transform="translate(-30,-30)"><path id="path3449" d="m 398.2,65.8 v -8.6 h 2.3 l 1.8,3.2 c 0.5,0.9 1,2 1.4,3 h 0 c -0.1,-1.1 -0.2,-2.3 -0.2,-3.6 v -2.5 h 1.8 v 8.6 h -2 l -1.8,-3.3 c -0.5,-0.9 -1.1,-2 -1.5,-3 l 0,0 c 0.1,1.1 0.1,2.4 0.1,3.8 V 66 h -1.9 z" style="fill:#fff"/><path id="path3451" d="m 414.9,61.4 c 0,2.8 -1.7,4.5 -4.2,4.5 -2.6,0 -4.1,-1.9 -4.1,-4.4 0,-2.6 1.7,-4.5 4.2,-4.5 2.7,0 4.1,2 4.1,4.4 z m -6.2,0.1 c 0,1.7 0.8,2.9 2.1,2.9 1.3,0 2.1,-1.3 2.1,-2.9 0,-1.5 -0.7,-2.9 -2.1,-2.9 -1.4,-0.1 -2.1,1.2 -2.1,2.9 z" style="fill:#fff"/><path id="path3453" d="m 416.2,57.3 c 0.7,-0.1 1.7,-0.2 2.6,-0.2 1.6,0 2.7,0.3 3.5,0.9 0.9,0.7 1.5,1.7 1.5,3.3 0,1.7 -0.6,2.8 -1.4,3.5 -0.9,0.8 -2.3,1.1 -4,1.1 -1,0 -1.7,-0.1 -2.2,-0.1 v -8.5 z m 1.9,7 c 0.2,0 0.4,0 0.7,0 1.8,0 2.9,-1 2.9,-3 0,-1.8 -1,-2.7 -2.7,-2.7 -0.4,0 -0.7,0 -0.9,0.1 v 5.6 z" style="fill:#fff"/><path id="path3455" d="M 430.2,62.1 H 427 v 2 h 3.5 v 1.6 H 425 v -8.6 h 5.3 v 1.6 H 427 v 1.8 h 3.2 v 1.6 z" style="fill:#fff"/><path id="path3457" d="m 437.6,65.8 v -2 H 434 v -1.3 l 3.1,-5.1 h 2.4 v 4.9 h 1 v 1.5 h -1 v 2 h -1.9 z m 0,-3.5 v -1.8 c 0,-0.5 0,-1 0.1,-1.5 h -0.1 c -0.3,0.5 -0.5,1 -0.8,1.5 l -1.1,1.8 v 0 h 1.9 z" style="fill:#fff"/></g><g id="g3459" transform="translate(-30,-30)"><path id="path3461" d="m 408.5,171.4 c -2.3,0 -4.2,-1.9 -4.2,-4.2 V 146 c 0,-2.3 1.9,-4.2 4.2,-4.2 h 21.1 c 2.3,0 4.2,1.9 4.2,4.2 v 21.1 c 0,2.3 -1.9,4.2 -4.2,4.2 h -21.1 z" style="fill:#fff"/><g id="g3463"><path id="path3465" d="m 429.6,143.8 c 1.2,0 2.2,1 2.2,2.2 v 21.1 c 0,1.2 -1,2.2 -2.2,2.2 h -21.1 c -1.2,0 -2.2,-1 -2.2,-2.2 V 146 c 0,-1.2 1,-2.2 2.2,-2.2 h 21.1 m 0,-4 h -21.1 c -3.4,0 -6.2,2.8 -6.2,6.2 v 21.1 c 0,3.4 2.8,6.2 6.2,6.2 h 21.1 c 3.4,0 6.2,-2.8 6.2,-6.2 V 146 c 0,-3.5 -2.7,-6.2 -6.2,-6.2 l 0,0 z" style="fill:#c6c6c6"/></g></g><g id="g3467" transform="translate(-30,-30)"><path id="path3469" d="m 412.5,151.8 c 0.6,-0.1 1.6,-0.2 2.6,-0.2 1.3,0 2.2,0.2 2.8,0.7 0.5,0.4 0.8,1 0.8,1.8 0,1.1 -0.8,1.9 -1.5,2.1 v 0 c 0.6,0.2 0.9,0.8 1.2,1.6 0.3,1 0.5,2.1 0.7,2.4 h -2 c -0.1,-0.2 -0.3,-0.9 -0.6,-2 -0.2,-1.1 -0.6,-1.4 -1.4,-1.4 h -0.6 v 3.4 h -1.9 v -8.4 z m 2,3.8 h 0.8 c 1,0 1.5,-0.5 1.5,-1.2 0,-0.8 -0.5,-1.2 -1.4,-1.2 -0.5,0 -0.7,0 -0.9,0.1 v 2.3 z" style="fill:#454746"/><path id="path3471" d="m 422.3,153.8 0,0 -1.6,0.8 -0.3,-1.5 2.2,-1 h 1.6 v 8.3 h -1.9 v -6.6 z" style="fill:#454746"/></g><g id="g3473" transform="translate(-30,-30)"><g id="g3475"><path id="path3477" stroke-miterlimit="10" d="m 116.9,110.9 c 0,0 106.8,0.2 163.3,0.2" style="fill:none;stroke:#454746;stroke-width:1.60000002;stroke-linecap:round;stroke-miterlimit:10"/><g id="g3479"><path id="path3481" d="m 287.9,111.1 c -3.6,1.3 -8.2,3.6 -10.9,6.1 l 2.2,-6.1 -2.2,-6.1 c 2.8,2.4 7.3,4.7 10.9,6.1 z" style="fill:#454746"/></g></g></g><g id="g3483" transform="translate(-30,-30)"><g id="g3485"><path id="path3487" stroke-miterlimit="10" d="m 225.2,156.4 c 0,0 106.8,0.2 163.3,0.2" style="fill:none;stroke:#454746;stroke-width:1.60000002;stroke-linecap:round;stroke-miterlimit:10"/><g id="g3489"><path id="path3491" d="m 396.2,156.7 c -3.6,1.3 -8.2,3.6 -10.9,6.1 l 2.2,-6.1 -2.2,-6.1 c 2.8,2.4 7.3,4.7 10.9,6.1 z" style="fill:#454746"/></g></g></g></svg>