<svg xmlns="http://www.w3.org/2000/svg" xmlns:svg="http://www.w3.org/2000/svg" id="Layer_1" width="100%" height="100%" x="0" y="0" enable-background="new 0 0 510 250" version="1.1" viewBox="0 0 453.2 185.7" xml:space="preserve"><metadata id="metadata3332"/><path id="path3142" d="M 341.9,185.7 H 3 c -1.7,0 -3,-1.3 -3,-3 V 3 C 0,1.3 1.3,0 3,0 h 338.9 c 1.7,0 3,1.3 3,3 v 179.7 c 0,1.7 -1.3,3 -3,3 z" style="fill:#f8faf6"/><g id="g3144" transform="translate(-30,-29.7)"><path id="path3146" d="m 51.7,194.6 c -0.5,0 -0.9,-0.4 -0.9,-0.9 V 63.6 c 0,-1.4 1.1,-2.5 2.5,-2.5 H 135 c 1.4,0 2.5,1.1 2.5,2.5 v 130.1 c 0,0.5 -0.4,0.9 -0.9,0.9 H 51.7 z" style="fill:#fff"/><path id="path3148" d="m 135,61.9 c 0.9,0 1.7,0.8 1.7,1.7 v 130.1 c 0,0.1 -0.1,0.1 -0.1,0.1 H 51.7 c -0.1,0 -0.1,-0.1 -0.1,-0.1 V 63.6 c 0,-0.9 0.8,-1.7 1.7,-1.7 H 135 m 0,-1.6 H 53.3 c -1.8,0 -3.3,1.5 -3.3,3.3 v 130.1 c 0,1 0.8,1.7 1.7,1.7 h 84.8 c 1,0 1.7,-0.8 1.7,-1.7 V 63.6 c 0.1,-1.9 -1.4,-3.3 -3.2,-3.3 l 0,0 z" style="fill:#75b640"/></g><path id="path3150" d="M 20,41.9 V 23.3 C 20,21.5 21.5,20 23.3,20 H 105 c 1.8,0 3.3,1.5 3.3,3.3 V 41.9 H 20 z" style="fill:#75b640"/><g id="g3152" transform="translate(-30,-29.7)"><path id="path3154" d="m 73.3,65.5 v -8.6 h 2.3 l 1.8,3.2 c 0.5,0.9 1,2 1.4,3 h 0 C 78.7,62 78.6,60.8 78.6,59.5 V 57 h 1.8 v 8.6 h -2 l -1.8,-3.3 c -0.5,-0.9 -1.1,-2 -1.5,-3 l 0,0 c 0.1,1.1 0.1,2.4 0.1,3.8 v 2.6 h -1.9 z" style="fill:#fff"/><path id="path3156" d="m 90,61.1 c 0,2.8 -1.7,4.5 -4.2,4.5 -2.6,0 -4.1,-1.9 -4.1,-4.4 0,-2.6 1.7,-4.5 4.2,-4.5 2.7,0 4.1,2 4.1,4.4 z m -6.2,0.1 c 0,1.7 0.8,2.9 2.1,2.9 1.3,0 2.1,-1.3 2.1,-2.9 0,-1.5 -0.7,-2.9 -2.1,-2.9 -1.4,0 -2.1,1.2 -2.1,2.9 z" style="fill:#fff"/><path id="path3158" d="m 91.3,57 c 0.7,-0.1 1.7,-0.2 2.6,-0.2 1.6,0 2.7,0.3 3.5,0.9 0.9,0.7 1.5,1.7 1.5,3.3 0,1.7 -0.6,2.8 -1.4,3.5 -0.9,0.8 -2.3,1.1 -4,1.1 -1,0 -1.7,-0.1 -2.2,-0.1 V 57 z m 1.9,7 c 0.2,0 0.4,0 0.7,0 1.8,0 2.9,-1 2.9,-3 0,-1.8 -1,-2.7 -2.7,-2.7 -0.4,0 -0.7,0 -0.9,0.1 V 64 z" style="fill:#fff"/><path id="path3160" d="m 105.3,61.8 h -3.2 v 2 h 3.5 v 1.6 h -5.5 v -8.6 h 5.3 v 1.6 H 102 v 1.8 h 3.2 v 1.6 z" style="fill:#fff"/><path id="path3162" d="m 111.8,58.9 0,0 -1.6,0.8 -0.3,-1.5 2.2,-1 h 1.6 v 8.3 h -1.9 v -6.6 z" style="fill:#fff"/></g><g id="g3164" transform="translate(-30,-29.7)"><path id="path3166" d="m 83.6,125.5 c -2.3,0 -4.2,-1.9 -4.2,-4.2 v -21.1 c 0,-2.3 1.9,-4.2 4.2,-4.2 h 21.1 c 2.3,0 4.2,1.9 4.2,4.2 v 21.1 c 0,2.3 -1.9,4.2 -4.2,4.2 H 83.6 z" style="fill:#fff"/><g id="g3168"><path id="path3170" d="m 104.7,97.9 c 1.2,0 2.2,1 2.2,2.2 v 21.1 c 0,1.2 -1,2.2 -2.2,2.2 H 83.6 c -1.2,0 -2.2,-1 -2.2,-2.2 v -21.1 c 0,-1.2 1,-2.2 2.2,-2.2 h 21.1 m 0,-4 H 83.6 c -3.4,0 -6.2,2.8 -6.2,6.2 v 21.1 c 0,3.4 2.8,6.2 6.2,6.2 h 21.1 c 3.4,0 6.2,-2.8 6.2,-6.2 v -21.1 c 0,-3.4 -2.7,-6.2 -6.2,-6.2 l 0,0 z" style="fill:#75b640"/></g></g><g id="g3172" transform="translate(-30,-29.7)"><path id="path3174" d="m 87.7,106 c 0.6,-0.1 1.4,-0.2 2.6,-0.2 1.2,0 2.1,0.2 2.6,0.7 0.6,0.4 0.9,1.2 0.9,2 0,0.8 -0.3,1.6 -0.8,2 -0.7,0.6 -1.7,0.9 -2.8,0.9 -0.3,0 -0.5,0 -0.7,0 v 3.1 H 87.6 V 106 z m 2,3.9 c 0.2,0 0.4,0.1 0.7,0.1 1,0 1.7,-0.5 1.7,-1.4 0,-0.8 -0.6,-1.3 -1.5,-1.3 -0.4,0 -0.7,0 -0.8,0.1 v 2.5 z" style="fill:#454746"/><path id="path3176" d="m 101,110.3 c 0,2.6 -1,4.3 -3.2,4.3 -2.2,0 -3.1,-1.9 -3.1,-4.3 0,-2.4 1,-4.3 3.2,-4.3 2.2,0 3.1,2 3.1,4.3 z m -4.3,0 c 0,1.9 0.4,2.8 1.2,2.8 0.8,0 1.2,-0.9 1.2,-2.8 0,-1.8 -0.4,-2.8 -1.2,-2.8 -0.7,0 -1.2,0.9 -1.2,2.8 z" style="fill:#454746"/></g><g id="g3178" transform="translate(-30,-29.7)"><path id="path3180" d="m 83.6,171.1 c -2.3,0 -4.2,-1.9 -4.2,-4.2 v -21.1 c 0,-2.3 1.9,-4.2 4.2,-4.2 h 21.1 c 2.3,0 4.2,1.9 4.2,4.2 v 21.1 c 0,2.3 -1.9,4.2 -4.2,4.2 H 83.6 z" style="fill:#fff"/><g id="g3182"><path id="path3184" d="m 104.7,143.5 c 1.2,0 2.2,1 2.2,2.2 v 21.1 c 0,1.2 -1,2.2 -2.2,2.2 H 83.6 c -1.2,0 -2.2,-1 -2.2,-2.2 v -21.1 c 0,-1.2 1,-2.2 2.2,-2.2 h 21.1 m 0,-4 H 83.6 c -3.4,0 -6.2,2.8 -6.2,6.2 v 21.1 c 0,3.4 2.8,6.2 6.2,6.2 h 21.1 c 3.4,0 6.2,-2.8 6.2,-6.2 v -21.1 c 0,-3.4 -2.7,-6.2 -6.2,-6.2 l 0,0 z" style="fill:#c6c6c6"/></g></g><g id="g3186" transform="translate(-30,-29.7)"><path id="path3188" d="m 87.6,151.6 c 0.6,-0.1 1.6,-0.2 2.6,-0.2 1.3,0 2.2,0.2 2.8,0.7 0.5,0.4 0.8,1 0.8,1.8 0,1.1 -0.8,1.9 -1.5,2.1 v 0 c 0.6,0.2 0.9,0.8 1.2,1.6 0.3,1 0.5,2.1 0.7,2.4 h -2 c -0.1,-0.2 -0.3,-0.9 -0.6,-2 -0.2,-1.1 -0.6,-1.4 -1.4,-1.4 h -0.6 v 3.4 h -1.9 v -8.4 z m 2,3.7 h 0.8 c 1,0 1.5,-0.5 1.5,-1.2 0,-0.8 -0.5,-1.2 -1.4,-1.2 -0.5,0 -0.7,0 -0.9,0.1 v 2.3 z" style="fill:#454746"/><path id="path3190" d="m 97.4,153.5 0,0 -1.6,0.8 -0.3,-1.5 2.2,-1 h 1.6 v 8.3 h -1.9 v -6.6 z" style="fill:#454746"/></g><g id="g3192" transform="translate(-30,-29.7)"><path id="path3194" d="m 160,194.6 c -0.5,0 -0.9,-0.4 -0.9,-0.9 V 63.6 c 0,-1.4 1.1,-2.5 2.5,-2.5 h 81.7 c 1.4,0 2.5,1.1 2.5,2.5 v 130.1 c 0,0.5 -0.4,0.9 -0.9,0.9 H 160 z" style="fill:#fff"/><path id="path3196" d="m 243.3,61.9 c 0.9,0 1.7,0.8 1.7,1.7 v 130.1 c 0,0.1 -0.1,0.1 -0.1,0.1 H 160 c -0.1,0 -0.1,-0.1 -0.1,-0.1 V 63.6 c 0,-0.9 0.8,-1.7 1.7,-1.7 h 81.7 m 0,-1.6 h -81.7 c -1.8,0 -3.3,1.5 -3.3,3.3 v 130.1 c 0,1 0.8,1.7 1.7,1.7 h 84.8 c 1,0 1.7,-0.8 1.7,-1.7 V 63.6 c 0.1,-1.9 -1.4,-3.3 -3.2,-3.3 l 0,0 z" style="fill:#75b640"/></g><path id="path3198" d="M 128.3,41.9 V 23.3 c 0,-1.8 1.5,-3.3 3.3,-3.3 h 81.7 c 1.8,0 3.3,1.5 3.3,3.3 v 18.6 h -88.3 z" style="fill:#75b640"/><g id="g3200" transform="translate(-30,-29.7)"><path id="path3202" d="m 181.6,65.5 v -8.6 h 2.3 l 1.8,3.2 c 0.5,0.9 1,2 1.4,3 h 0 C 187,62 186.9,60.8 186.9,59.5 V 57 h 1.8 v 8.6 h -2 l -1.8,-3.3 c -0.5,-0.9 -1.1,-2 -1.5,-3 l 0,0 c 0.1,1.1 0.1,2.4 0.1,3.8 v 2.6 h -1.9 z" style="fill:#fff"/><path id="path3204" d="m 198.3,61.1 c 0,2.8 -1.7,4.5 -4.2,4.5 -2.6,0 -4.1,-1.9 -4.1,-4.4 0,-2.6 1.7,-4.5 4.2,-4.5 2.7,0 4.1,2 4.1,4.4 z m -6.2,0.1 c 0,1.7 0.8,2.9 2.1,2.9 1.3,0 2.1,-1.3 2.1,-2.9 0,-1.5 -0.7,-2.9 -2.1,-2.9 -1.4,0 -2.1,1.2 -2.1,2.9 z" style="fill:#fff"/><path id="path3206" d="m 199.6,57 c 0.7,-0.1 1.7,-0.2 2.6,-0.2 1.6,0 2.7,0.3 3.5,0.9 0.9,0.7 1.5,1.7 1.5,3.3 0,1.7 -0.6,2.8 -1.4,3.5 -0.9,0.8 -2.3,1.1 -4,1.1 -1,0 -1.7,-0.1 -2.2,-0.1 V 57 z m 1.9,7 c 0.2,0 0.4,0 0.7,0 1.8,0 2.9,-1 2.9,-3 0,-1.8 -1,-2.7 -2.7,-2.7 -0.4,0 -0.7,0 -0.9,0.1 V 64 z" style="fill:#fff"/><path id="path3208" d="m 213.6,61.8 h -3.2 v 2 h 3.5 v 1.6 h -5.5 v -8.6 h 5.3 v 1.6 h -3.4 v 1.8 h 3.2 v 1.6 z" style="fill:#fff"/><path id="path3210" d="m 217.6,65.5 v -1.2 l 1.1,-1 c 1.8,-1.6 2.7,-2.6 2.7,-3.5 0,-0.7 -0.4,-1.2 -1.4,-1.2 -0.7,0 -1.3,0.4 -1.8,0.7 l -0.5,-1.4 c 0.6,-0.5 1.6,-0.9 2.7,-0.9 1.9,0 2.9,1.1 2.9,2.6 0,1.4 -1,2.5 -2.2,3.6 l -0.8,0.6 v 0 h 3.1 v 1.6 h -5.8 z" style="fill:#fff"/></g><g id="g3212" transform="translate(-30,-29.7)"><path id="path3214" d="m 191.9,125.5 c -2.3,0 -4.2,-1.9 -4.2,-4.2 v -21.1 c 0,-2.3 1.9,-4.2 4.2,-4.2 H 213 c 2.3,0 4.2,1.9 4.2,4.2 v 21.1 c 0,2.3 -1.9,4.2 -4.2,4.2 h -21.1 z" style="fill:#fff"/><g id="g3216"><path id="path3218" d="m 213,97.9 c 1.2,0 2.2,1 2.2,2.2 v 21.1 c 0,1.2 -1,2.2 -2.2,2.2 h -21.1 c -1.2,0 -2.2,-1 -2.2,-2.2 v -21.1 c 0,-1.2 1,-2.2 2.2,-2.2 H 213 m 0,-4 h -21.1 c -3.4,0 -6.2,2.8 -6.2,6.2 v 21.1 c 0,3.4 2.8,6.2 6.2,6.2 H 213 c 3.4,0 6.2,-2.8 6.2,-6.2 v -21.1 c 0,-3.4 -2.7,-6.2 -6.2,-6.2 l 0,0 z" style="fill:#c6c6c6"/></g></g><g id="g3220" transform="translate(-30,-29.7)"><path id="path3222" d="m 195.9,106 c 0.6,-0.1 1.6,-0.2 2.6,-0.2 1.3,0 2.2,0.2 2.8,0.7 0.5,0.4 0.8,1 0.8,1.8 0,1.1 -0.8,1.9 -1.5,2.1 v 0 c 0.6,0.2 0.9,0.8 1.2,1.6 0.3,1 0.5,2.1 0.7,2.4 h -2 c -0.1,-0.2 -0.3,-0.9 -0.6,-2 -0.2,-1.1 -0.6,-1.4 -1.4,-1.4 h -0.6 v 3.4 H 196 V 106 z m 2,3.7 h 0.8 c 1,0 1.5,-0.5 1.5,-1.2 0,-0.8 -0.5,-1.2 -1.4,-1.2 -0.5,0 -0.7,0 -0.9,0.1 v 2.3 z" style="fill:#454746"/><path id="path3224" d="m 209.4,110.3 c 0,2.6 -1,4.3 -3.2,4.3 -2.2,0 -3.1,-1.9 -3.1,-4.3 0,-2.4 1,-4.3 3.2,-4.3 2.2,0 3.1,2 3.1,4.3 z m -4.3,0 c 0,1.9 0.4,2.8 1.2,2.8 0.8,0 1.2,-0.9 1.2,-2.8 0,-1.8 -0.4,-2.8 -1.2,-2.8 -0.8,0 -1.3,0.9 -1.2,2.8 z" style="fill:#454746"/></g><g id="g3226" transform="translate(-30,-29.7)"><path id="path3228" d="m 191.9,171.1 c -2.3,0 -4.2,-1.9 -4.2,-4.2 v -21.1 c 0,-2.3 1.9,-4.2 4.2,-4.2 H 213 c 2.3,0 4.2,1.9 4.2,4.2 v 21.1 c 0,2.3 -1.9,4.2 -4.2,4.2 h -21.1 z" style="fill:#fff"/><g id="g3230"><path id="path3232" d="m 213,143.5 c 1.2,0 2.2,1 2.2,2.2 v 21.1 c 0,1.2 -1,2.2 -2.2,2.2 h -21.1 c -1.2,0 -2.2,-1 -2.2,-2.2 v -21.1 c 0,-1.2 1,-2.2 2.2,-2.2 H 213 m 0,-4 h -21.1 c -3.4,0 -6.2,2.8 -6.2,6.2 v 21.1 c 0,3.4 2.8,6.2 6.2,6.2 H 213 c 3.4,0 6.2,-2.8 6.2,-6.2 v -21.1 c 0,-3.4 -2.7,-6.2 -6.2,-6.2 l 0,0 z" style="fill:#75b640"/></g></g><g id="g3234" transform="translate(-30,-29.7)"><path id="path3236" d="m 196,151.6 c 0.6,-0.1 1.4,-0.2 2.6,-0.2 1.2,0 2.1,0.2 2.6,0.7 0.6,0.4 0.9,1.2 0.9,2 0,0.8 -0.3,1.6 -0.8,2 -0.7,0.6 -1.7,0.9 -2.8,0.9 -0.3,0 -0.5,0 -0.7,0 v 3.1 H 196 v -8.5 z m 2,3.9 c 0.2,0 0.4,0.1 0.7,0.1 1,0 1.7,-0.5 1.7,-1.4 0,-0.8 -0.6,-1.3 -1.5,-1.3 -0.4,0 -0.7,0 -0.8,0.1 v 2.5 z" style="fill:#454746"/><path id="path3238" d="m 205.6,153.5 0,0 -1.6,0.8 -0.3,-1.5 2.2,-1 h 1.6 v 8.3 h -1.9 v -6.6 z" style="fill:#454746"/></g><g id="g3240" transform="translate(-30,-29.7)"><path id="path3242" d="m 268.3,194.6 c -0.5,0 -0.9,-0.4 -0.9,-0.9 V 63.6 c 0,-1.4 1.1,-2.5 2.5,-2.5 h 81.7 c 1.4,0 2.5,1.1 2.5,2.5 v 130.1 c 0,0.5 -0.4,0.9 -0.9,0.9 h -84.9 z" style="fill:#fff"/><path id="path3244" d="m 351.6,61.9 c 0.9,0 1.7,0.8 1.7,1.7 v 130.1 c 0,0.1 -0.1,0.1 -0.1,0.1 h -84.8 c -0.1,0 -0.1,-0.1 -0.1,-0.1 V 63.6 c 0,-0.9 0.8,-1.7 1.7,-1.7 h 81.6 m 0,-1.6 h -81.7 c -1.8,0 -3.3,1.5 -3.3,3.3 v 130.1 c 0,1 0.8,1.7 1.7,1.7 h 84.8 c 1,0 1.7,-0.8 1.7,-1.7 V 63.6 c 0.1,-1.9 -1.4,-3.3 -3.2,-3.3 l 0,0 z" style="fill:#75b640"/></g><path id="path3246" d="M 236.6,41.9 V 23.3 c 0,-1.8 1.5,-3.3 3.3,-3.3 h 81.7 c 1.8,0 3.3,1.5 3.3,3.3 v 18.6 h -88.3 z" style="fill:#75b640"/><g id="g3248" transform="translate(-30,-29.7)"><path id="path3250" d="m 289.9,65.5 v -8.6 h 2.3 l 1.8,3.2 c 0.5,0.9 1,2 1.4,3 h 0 c -0.1,-1.1 -0.2,-2.3 -0.2,-3.6 V 57 h 1.8 v 8.6 h -2 l -1.8,-3.3 c -0.5,-0.9 -1.1,-2 -1.5,-3 l 0,0 c 0.1,1.1 0.1,2.4 0.1,3.8 v 2.6 h -1.9 z" style="fill:#fff"/><path id="path3252" d="m 306.6,61.1 c 0,2.8 -1.7,4.5 -4.2,4.5 -2.6,0 -4.1,-1.9 -4.1,-4.4 0,-2.6 1.7,-4.5 4.2,-4.5 2.7,0 4.1,2 4.1,4.4 z m -6.2,0.1 c 0,1.7 0.8,2.9 2.1,2.9 1.3,0 2.1,-1.3 2.1,-2.9 0,-1.5 -0.7,-2.9 -2.1,-2.9 -1.4,0 -2.1,1.2 -2.1,2.9 z" style="fill:#fff"/><path id="path3254" d="m 307.9,57 c 0.7,-0.1 1.7,-0.2 2.6,-0.2 1.6,0 2.7,0.3 3.5,0.9 0.9,0.7 1.5,1.7 1.5,3.3 0,1.7 -0.6,2.8 -1.4,3.5 -0.9,0.8 -2.3,1.1 -4,1.1 -1,0 -1.7,-0.1 -2.2,-0.1 V 57 z m 1.9,7 c 0.2,0 0.4,0 0.7,0 1.8,0 2.9,-1 2.9,-3 0,-1.8 -1,-2.7 -2.7,-2.7 -0.4,0 -0.7,0 -0.9,0.1 V 64 z" style="fill:#fff"/><path id="path3256" d="m 321.9,61.8 h -3.2 v 2 h 3.5 v 1.6 h -5.5 v -8.6 h 5.3 v 1.6 h -3.4 v 1.8 h 3.2 v 1.6 z" style="fill:#fff"/><path id="path3258" d="m 326.2,63.6 c 0.3,0.2 1.1,0.5 1.9,0.5 1,0 1.5,-0.5 1.5,-1.1 0,-0.8 -0.8,-1.2 -1.7,-1.2 h -0.8 v -1.4 h 0.8 c 0.7,0 1.5,-0.3 1.5,-1 0,-0.5 -0.4,-0.9 -1.2,-0.9 -0.7,0 -1.4,0.3 -1.7,0.5 l -0.4,-1.4 c 0.5,-0.3 1.5,-0.6 2.6,-0.6 1.8,0 2.8,0.9 2.8,2.1 0,0.9 -0.5,1.6 -1.5,1.9 v 0 c 1,0.2 1.8,0.9 1.8,2 0,1.5 -1.3,2.5 -3.4,2.5 -1.1,0 -2,-0.3 -2.5,-0.6 l 0.3,-1.3 z" style="fill:#fff"/></g><g id="g3260" transform="translate(-30,-29.7)"><path id="path3262" d="m 300.2,125.5 c -2.3,0 -4.2,-1.9 -4.2,-4.2 v -21.1 c 0,-2.3 1.9,-4.2 4.2,-4.2 h 21.1 c 2.3,0 4.2,1.9 4.2,4.2 v 21.1 c 0,2.3 -1.9,4.2 -4.2,4.2 h -21.1 z" style="fill:#fff"/><g id="g3264"><path id="path3266" d="m 321.3,97.9 c 1.2,0 2.2,1 2.2,2.2 v 21.1 c 0,1.2 -1,2.2 -2.2,2.2 h -21.1 c -1.2,0 -2.2,-1 -2.2,-2.2 v -21.1 c 0,-1.2 1,-2.2 2.2,-2.2 h 21.1 m 0,-4 h -21.1 c -3.4,0 -6.2,2.8 -6.2,6.2 v 21.1 c 0,3.4 2.8,6.2 6.2,6.2 h 21.1 c 3.4,0 6.2,-2.8 6.2,-6.2 v -21.1 c 0,-3.4 -2.7,-6.2 -6.2,-6.2 l 0,0 z" style="fill:#c6c6c6"/></g></g><g id="g3268" transform="translate(-30,-29.7)"><path id="path3270" d="m 304.2,106 c 0.6,-0.1 1.6,-0.2 2.6,-0.2 1.3,0 2.2,0.2 2.8,0.7 0.5,0.4 0.8,1 0.8,1.8 0,1.1 -0.8,1.9 -1.5,2.1 v 0 c 0.6,0.2 0.9,0.8 1.2,1.6 0.3,1 0.5,2.1 0.7,2.4 h -2 c -0.1,-0.2 -0.3,-0.9 -0.6,-2 -0.2,-1.1 -0.6,-1.4 -1.4,-1.4 h -0.6 v 3.4 h -1.9 V 106 z m 2,3.7 h 0.8 c 1,0 1.5,-0.5 1.5,-1.2 0,-0.8 -0.5,-1.2 -1.4,-1.2 -0.5,0 -0.7,0 -0.9,0.1 v 2.3 z" style="fill:#454746"/><path id="path3272" d="m 317.7,110.3 c 0,2.6 -1,4.3 -3.2,4.3 -2.2,0 -3.1,-1.9 -3.1,-4.3 0,-2.4 1,-4.3 3.2,-4.3 2.2,0 3.1,2 3.1,4.3 z m -4.3,0 c 0,1.9 0.4,2.8 1.2,2.8 0.8,0 1.2,-0.9 1.2,-2.8 0,-1.8 -0.4,-2.8 -1.2,-2.8 -0.8,0 -1.3,0.9 -1.2,2.8 z" style="fill:#454746"/></g><g id="g3274" transform="translate(-30,-29.7)"><path id="path3276" d="m 300.2,171.1 c -2.3,0 -4.2,-1.9 -4.2,-4.2 v -21.1 c 0,-2.3 1.9,-4.2 4.2,-4.2 h 21.1 c 2.3,0 4.2,1.9 4.2,4.2 v 21.1 c 0,2.3 -1.9,4.2 -4.2,4.2 h -21.1 z" style="fill:#fff"/><g id="g3278"><path id="path3280" d="m 321.3,143.5 c 1.2,0 2.2,1 2.2,2.2 v 21.1 c 0,1.2 -1,2.2 -2.2,2.2 h -21.1 c -1.2,0 -2.2,-1 -2.2,-2.2 v -21.1 c 0,-1.2 1,-2.2 2.2,-2.2 h 21.1 m 0,-4 h -21.1 c -3.4,0 -6.2,2.8 -6.2,6.2 v 21.1 c 0,3.4 2.8,6.2 6.2,6.2 h 21.1 c 3.4,0 6.2,-2.8 6.2,-6.2 v -21.1 c 0,-3.4 -2.7,-6.2 -6.2,-6.2 l 0,0 z" style="fill:#c6c6c6"/></g></g><g id="g3282" transform="translate(-30,-29.7)"><path id="path3284" d="m 304.2,151.6 c 0.6,-0.1 1.6,-0.2 2.6,-0.2 1.3,0 2.2,0.2 2.8,0.7 0.5,0.4 0.8,1 0.8,1.8 0,1.1 -0.8,1.9 -1.5,2.1 v 0 c 0.6,0.2 0.9,0.8 1.2,1.6 0.3,1 0.5,2.1 0.7,2.4 h -2 c -0.1,-0.2 -0.3,-0.9 -0.6,-2 -0.2,-1.1 -0.6,-1.4 -1.4,-1.4 h -0.6 v 3.4 h -1.9 v -8.4 z m 2,3.7 h 0.8 c 1,0 1.5,-0.5 1.5,-1.2 0,-0.8 -0.5,-1.2 -1.4,-1.2 -0.5,0 -0.7,0 -0.9,0.1 v 2.3 z" style="fill:#454746"/><path id="path3286" d="m 314,153.5 0,0 -1.6,0.8 -0.3,-1.5 2.2,-1 h 1.6 v 8.3 H 314 v -6.6 z" style="fill:#454746"/></g><g id="g3288" transform="translate(-30,-29.7)"><g id="g3290"><path id="path3292" stroke-miterlimit="10" d="m 116.9,112.7 c 0,0 8.1,0.2 55,0.2" style="fill:none;stroke:#454746;stroke-width:1.60000002;stroke-linecap:round;stroke-miterlimit:10"/><g id="g3294"><path id="path3296" d="m 179.6,112.9 c -3.6,1.3 -8.2,3.6 -11,6 l 2.2,-6.1 -2.2,-6.1 c 2.9,2.5 7.4,4.8 11,6.2 z" style="fill:#454746"/></g></g></g><g id="g3298" transform="translate(-30,-29.7)"><g id="g3300"><path id="path3302" stroke-miterlimit="10" d="m 116.9,104.5 c 0,0 81.2,-48.8 164.5,2" style="fill:none;stroke:#454746;stroke-width:1.60000002;stroke-linecap:round;stroke-miterlimit:10"/><g id="g3304"><path id="path3306" d="m 287.9,110.7 c -3.8,-0.8 -8.8,-1.3 -12.5,-0.7 l 5.1,-4 1.4,-6.3 c 1.1,3.5 3.7,7.9 6,11 z" style="fill:#454746"/></g></g></g><g id="g3308" transform="translate(-30,-29.7)"><g id="g3310"><path id="path3312" stroke-miterlimit="10" d="m 179.6,156.3 c 0,0 -8.1,0.2 -55,0.2" style="fill:none;stroke:#454746;stroke-width:1.60000002;stroke-linecap:round;stroke-miterlimit:10"/><g id="g3314"><path id="path3316" d="m 116.9,156.5 c 3.6,-1.4 8.1,-3.7 10.9,-6.1 l -2.2,6.1 2.2,6.1 c -2.7,-2.5 -7.2,-4.8 -10.9,-6.1 z" style="fill:#454746"/></g></g></g><g id="g3318" transform="translate(-30,-29.7)"><g id="g3320"><path id="path3322" stroke-miterlimit="10" d="m 225.2,156.3 c 0,0 8.1,0.2 55,0.2" style="fill:none;stroke:#454746;stroke-width:1.60000002;stroke-linecap:round;stroke-miterlimit:10"/><g id="g3324"><path id="path3326" d="m 287.9,156.5 c -3.6,1.3 -8.2,3.6 -11,6 l 2.2,-6.1 -2.2,-6.1 c 2.9,2.5 7.4,4.8 11,6.2 z" style="fill:#454746"/></g></g></g></svg>