<svg xmlns="http://www.w3.org/2000/svg" xmlns:svg="http://www.w3.org/2000/svg" id="Layer_1" width="100%" height="100%" x="0" y="0" enable-background="new 0 0 510 250" version="1.1" viewBox="0 0 453.2 185.7" xml:space="preserve"><metadata id="metadata3139"/><path id="path3041" d="M 233.6,185.7 H 3 c -1.7,0 -3,-1.3 -3,-3 V 3 C 0,1.3 1.3,0 3,0 h 230.6 c 1.7,0 3,1.3 3,3 v 179.7 c 0,1.7 -1.3,3 -3,3 z" style="fill:#f8faf6"/><g id="g3043" transform="translate(-30,-30)"><path id="path3045" d="m 51.7,194.9 c -0.5,0 -0.9,-0.4 -0.9,-0.9 V 63.8 c 0,-1.4 1.1,-2.5 2.5,-2.5 H 135 c 1.4,0 2.5,1.1 2.5,2.5 V 194 c 0,0.5 -0.4,0.9 -0.9,0.9 H 51.7 z" style="fill:#fff"/><path id="path3047" d="m 135,62.2 c 0.9,0 1.7,0.8 1.7,1.7 V 194 c 0,0.1 -0.1,0.1 -0.1,0.1 H 51.7 c -0.1,0 -0.1,-0.1 -0.1,-0.1 V 63.8 c 0,-0.9 0.8,-1.7 1.7,-1.7 H 135 m 0,-1.5 H 53.3 c -1.8,0 -3.3,1.5 -3.3,3.3 V 194 c 0,1 0.8,1.7 1.7,1.7 h 84.8 c 1,0 1.7,-0.8 1.7,-1.7 V 63.8 c 0.1,-1.8 -1.4,-3.2 -3.2,-3.2 l 0,0 z" style="fill:#75b640"/></g><path id="path3049" d="M 20,41.9 V 23.3 C 20,21.5 21.5,20 23.3,20 H 105 c 1.8,0 3.3,1.5 3.3,3.3 V 41.9 H 20 z" style="fill:#75b640"/><g id="g3051" transform="translate(-30,-30)"><path id="path3053" d="m 73.3,65.8 v -8.6 h 2.3 l 1.8,3.2 c 0.5,0.9 1,2 1.4,3 h 0 c -0.1,-1.1 -0.2,-2.3 -0.2,-3.6 v -2.5 h 1.8 v 8.6 h -2 l -1.8,-3.3 c -0.5,-0.9 -1.1,-2 -1.5,-3 l 0,0 c 0.1,1.1 0.1,2.4 0.1,3.8 V 66 h -1.9 z" style="fill:#fff"/><path id="path3055" d="m 90,61.4 c 0,2.8 -1.7,4.5 -4.2,4.5 -2.6,0 -4.1,-1.9 -4.1,-4.4 0,-2.6 1.7,-4.5 4.2,-4.5 2.7,0 4.1,2 4.1,4.4 z m -6.2,0.1 c 0,1.7 0.8,2.9 2.1,2.9 1.3,0 2.1,-1.3 2.1,-2.9 0,-1.5 -0.7,-2.9 -2.1,-2.9 -1.4,-0.1 -2.1,1.2 -2.1,2.9 z" style="fill:#fff"/><path id="path3057" d="m 91.3,57.3 c 0.7,-0.1 1.7,-0.2 2.6,-0.2 1.6,0 2.7,0.3 3.5,0.9 0.9,0.7 1.5,1.7 1.5,3.3 0,1.7 -0.6,2.8 -1.4,3.5 -0.9,0.8 -2.3,1.1 -4,1.1 -1,0 -1.7,-0.1 -2.2,-0.1 v -8.5 z m 1.9,7 c 0.2,0 0.4,0 0.7,0 1.8,0 2.9,-1 2.9,-3 0,-1.8 -1,-2.7 -2.7,-2.7 -0.4,0 -0.7,0 -0.9,0.1 v 5.6 z" style="fill:#fff"/><path id="path3059" d="m 105.3,62.1 h -3.2 v 2 h 3.5 v 1.6 h -5.5 v -8.6 h 5.3 v 1.6 H 102 v 1.8 h 3.2 v 1.6 z" style="fill:#fff"/><path id="path3061" d="m 111.8,59.2 0,0 -1.6,0.8 -0.3,-1.5 2.2,-1 h 1.6 v 8.3 h -1.9 v -6.6 z" style="fill:#fff"/></g><g id="g3063" transform="translate(-30,-30)"><path id="path3065" d="m 83.6,125.8 c -2.3,0 -4.2,-1.9 -4.2,-4.2 v -21.1 c 0,-2.3 1.9,-4.2 4.2,-4.2 h 21.1 c 2.3,0 4.2,1.9 4.2,4.2 v 21.1 c 0,2.3 -1.9,4.2 -4.2,4.2 H 83.6 z" style="fill:#fff"/><g id="g3067"><path id="path3069" d="m 104.7,98.2 c 1.2,0 2.2,1 2.2,2.2 v 21.1 c 0,1.2 -1,2.2 -2.2,2.2 H 83.6 c -1.2,0 -2.2,-1 -2.2,-2.2 v -21.1 c 0,-1.2 1,-2.2 2.2,-2.2 h 21.1 m 0,-4 H 83.6 c -3.4,0 -6.2,2.8 -6.2,6.2 v 21.1 c 0,3.4 2.8,6.2 6.2,6.2 h 21.1 c 3.4,0 6.2,-2.8 6.2,-6.2 v -21.1 c 0,-3.5 -2.7,-6.2 -6.2,-6.2 l 0,0 z" style="fill:#75b640"/></g></g><g id="g3071" transform="translate(-30,-30)"><path id="path3073" d="m 87.7,106.2 c 0.6,-0.1 1.4,-0.2 2.6,-0.2 1.2,0 2.1,0.2 2.6,0.7 0.6,0.4 0.9,1.2 0.9,2 0,0.8 -0.3,1.6 -0.8,2 -0.7,0.6 -1.7,0.9 -2.8,0.9 -0.3,0 -0.5,0 -0.7,0 v 3.1 h -1.9 v -8.5 z m 2,4 c 0.2,0 0.4,0.1 0.7,0.1 1,0 1.7,-0.5 1.7,-1.4 0,-0.8 -0.6,-1.3 -1.5,-1.3 -0.4,0 -0.7,0 -0.8,0.1 v 2.5 z" style="fill:#454746"/><path id="path3075" d="m 101,110.6 c 0,2.6 -1,4.3 -3.2,4.3 -2.2,0 -3.1,-1.9 -3.1,-4.3 0,-2.4 1,-4.3 3.2,-4.3 2.2,0 3.1,2 3.1,4.3 z m -4.3,0 c 0,1.9 0.4,2.8 1.2,2.8 0.8,0 1.2,-0.9 1.2,-2.8 0,-1.8 -0.4,-2.8 -1.2,-2.8 -0.7,0 -1.2,0.9 -1.2,2.8 z" style="fill:#454746"/></g><g id="g3077" transform="translate(-30,-30)" style="opacity:.4"><path id="path3079" d="m 106.9,167.1 c 0,1.2 -1,2.2 -2.2,2.2 H 83.6 c -1.2,0 -2.2,-1 -2.2,-2.2 V 146 c 0,-1.2 1,-2.2 2.2,-2.2 h 21.1 c 1.2,0 2.2,1 2.2,2.2 v 21.1 z" style="fill:#fff"/><g id="g3081"><path id="path3083" d="m 104.7,141.8 h -0.5 c -0.6,0 -1,0.4 -1,1 0,0.6 0.4,1 1,1 h 0.5 c 0,0 0,0 0,0 0,0 0,0 0,0 0.1,0 0.1,0 0.2,0 l 0,0 c 0,0 0,0 0,0 0,0 0,0 0,0 0,0 0,0 0,0 0,0 0,0 0,0 0,0 0,0 0,0 l 0,0 c 0,0 0,0 0,0 0,0 0,0 0,0 0,0 0,0 0,0 0,0 0,0 0,0 0,0 0,0 0,0 0,0 0,0 0,0 0,0 0,0 0,0 l 0,0 c 0,0 0,0 0,0 0,0 0,0 0,0 0,0 0,0 0,0 0,0 0,0 0,0 0,0 0,0 0,0 0,0 0,0 0,0 l 0,0 c 0,0 0,0 0,0 l 0,0 c 0,0 0,0 0,0 0,0 0,0 0,0 0,0 0,0 0,0 l 0,0 c 0,0 0,0 0,0 l 0,0 c 0,0 0,0 0,0 0,0 0,0 0,0 0,0 0,0 0,0 0,0 0,0 0,0 0,0 0,0 0,0 0,0 0,0 0,0 0,0 0,0 0,0 l 0,0 c 0,0 0,0 0,0 l 0,0 c 0,0 0,0 0,0 l 0,0 c 0,0 0,0 0,0 0,0 0,0 0,0 0,0 0,0 0,0 l 0,0 c 0,0 0,0 0,0 l 0,0 c 0,0 0,0 0,0 l 0,0 c 0,0 0,0 0,0 l 0,0 c 0,0 0,0 0,0 l 0,0 c 0,0 0,0 0,0 l 0,0 c 0,0 0,0 0,0 l 0,0 c 0,0 0,0 0,0 0,0 0,0 0,0 0,0 0,0 0,0 l 0,0 c 0,0 0,0 0,0 l 0,0 c 0,0 0,0 0,0 l 0,0 c 0,0 0,0 0,0 l 0,0 c 0,0 0,0 0,0 0,0 0,0 0,0 0,0 0,0 0,0 l 0,0 c 0,0 0,0 0,0 0,0 0,0 0,0 0,0 0,0 0,0 0,0 0,0 0,0 0,0 0,0 0,0 0,0 0,0 0,0 0,0 0,0 0,0 0,0 0,0 0,0 0,0 0,0 0,0 0,0 0,0 0,0 l 0,0 c 0,0 0,0 0,0 0,0 0,0 0,0 0,0 0,0 0,0 0,0 0,0 0,0 0,0 0,0 0,0 0,0 0,0 0,0 0,0 0,0 0,0 l 0,0 c 0,0 0,0 0,0 0,0 0,0 0,0 0,0 0,0 0,0 l 0,0 c 0,0 0.1,0 0.1,0 0.1,0 0.2,0 0.3,0 0.4,0 0.8,-0.3 1,-0.7 0.1,-0.5 -0.2,-1.1 -0.7,-1.2 -0.3,-0.1 -0.6,-0.1 -0.9,-0.1 0,0 0,0 0,0 0.1,0 0.1,0 0,0 0.1,0 0,0 0,0 l 0,0 z m -3.5,0 h -0.5 c -0.6,0 -1,0.4 -1,1 0,0.6 0.4,1 1,1 h 0.5 c 0.6,0 1,-0.4 1,-1 0,-0.6 -0.4,-1 -1,-1 l 0,0 z m -3.5,0 h -0.5 c -0.6,0 -1,0.4 -1,1 0,0.6 0.4,1 1,1 h 0.5 c 0.6,0 1,-0.4 1,-1 0,-0.6 -0.4,-1 -1,-1 l 0,0 z m -3.5,0 h -0.5 c -0.6,0 -1,0.4 -1,1 0,0.6 0.4,1 1,1 h 0.5 c 0.6,0 1,-0.4 1,-1 0,-0.6 -0.4,-1 -1,-1 l 0,0 z m -3.5,0 h -0.5 c -0.6,0 -1,0.4 -1,1 0,0.6 0.4,1 1,1 h 0.5 c 0.6,0 1,-0.4 1,-1 0,-0.6 -0.4,-1 -1,-1 l 0,0 z m -3.5,0 h -0.5 c -0.6,0 -1,0.4 -1,1 0,0.6 0.4,1 1,1 h 0.5 c 0.6,0 1,-0.4 1,-1 0,-0.6 -0.4,-1 -1,-1 l 0,0 z m -3.5,0 h -0.1 c -0.2,0 -0.4,0 -0.7,0.1 -0.5,0.1 -0.9,0.6 -0.8,1.1 0.1,0.5 0.5,0.8 1,0.8 0.1,0 0.1,0 0.2,0 l 0,0 c 0,0 0,0 0,0 0,0 0,0 0,0 0,0 0,0 0,0 0,0 0,0 0,0 l 0,0 c 0,0 0,0 0,0 0,0 0,0 0,0 0,0 0,0 0,0 l 0,0 c 0,0 0,0 0,0 l 0,0 c 0.1,0 0.2,0 0.2,0 h 0 c 0,0 0,0 0,0 h 0 c 0,0 0,0 0,0 h 0 c 0,0 0,0 0,0 h 0 c 0,0 0,0 0,0 l 0,0 c 0,0 0,0 0,0 h 0 c 0,0 0,0 0,0 l 0,0 c 0,0 0,0 0,0 h 0 c 0,0 0,0 0,0 l 0,0 c 0,0 0,0 0,0 0,0 0,0 0,0 0,0 0,0 0,0 h 0 c 0,0 0,0 0,0 h 0 c 0,0 0,0 0,0 0,0 0,0 0,0 0,0 0,0 0,0 h 0 c 0,0 0,0 0,0 h 0 c 0,0 0,0 0,0 h 0 c 0,0 0,0 0,0 0,0 0,0 0,0 0,0 0,0 0,0 h 0 c 0,0 0,0 0,0 0,0 0,0 0,0 0,0 0,0 0,0 h 0 c 0,0 0,0 0,0 h 0.1 c 0.6,0 1,-0.4 1,-1 0.1,-0.6 -0.3,-1 -0.9,-1 l 0,0 z m -3.3,3 c -0.5,0 -1,0.4 -1,0.9 0,0.1 0,0.2 0,0.3 v 0.4 c 0,0.6 0.4,1 1,1 0.6,0 1,-0.4 1,-1 V 146 l 0,0 0,0 0,0 c 0,0 0,0 0,0 0,0 0,0 0,0 0,0 0,0 0,0 0,0 0,0 0,0 0,0 0,0 0,0 v 0 c 0,0 0,0 0,0 0,0 0,0 0,0 0,0 0,0 0,0 0,0 0,0 0,0 0,0 0,0 0,0 0,0 0,0 0,0 0,0 0,0 0,0 v 0 c 0,0 0,0 0,0 0,0 0,0 0,0 0,0 0,0 0,0 0,0 0,0 0,0 0,0 0,0 0,0 0,0 0,0 0,0 0,0 0,0 0,0 0,0 0,0 0,0 l 0,0 c 0,0 0,0 0,0 0,0 0,0 0,0 0,0 0,0 0,0 0,0 0,0 0,0 0,0 0,0 0,0 v 0 c 0,0 0,0 0,0 v 0 c 0,0 0,0 0,0 l 0,0 c 0,0 0,0 0,0 v 0 c 0,0 0,0 0,0 0,0 0,0 0,0 0,0 0,0 0,0 0,0 0,0 0,0 0,0 0,0 0,0 0,0 0,0 0,0 0,0 0,0 0,0 0,0 0,0 0,0 l 0,0 c 0,0 0,0 0,0 0,0 0,0 0,0 0,-0.7 -0.4,-1.2 -1,-1.2 0,0 0,0 0,0 l 0,0 z m -0.1,3.5 c -0.6,0 -1,0.4 -1,1 v 0.5 c 0,0.6 0.4,1 1,1 0.6,0 1,-0.4 1,-1 v -0.5 c 0,-0.5 -0.4,-1 -1,-1 l 0,0 z m 0,3.5 c -0.6,0 -1,0.4 -1,1 v 0.5 c 0,0.6 0.4,1 1,1 0.6,0 1,-0.4 1,-1 v -0.5 c 0,-0.5 -0.4,-1 -1,-1 l 0,0 z m 0,3.5 c -0.6,0 -1,0.4 -1,1 v 0.5 c 0,0.6 0.4,1 1,1 0.6,0 1,-0.4 1,-1 v -0.5 c 0,-0.5 -0.4,-1 -1,-1 l 0,0 z m 0,3.5 c -0.6,0 -1,0.4 -1,1 v 0.5 c 0,0.6 0.4,1 1,1 0.6,0 1,-0.4 1,-1 v -0.5 c 0,-0.5 -0.4,-1 -1,-1 l 0,0 z m 0,3.5 c -0.6,0 -1,0.4 -1,1 v 0.5 c 0,0.6 0.4,1 1,1 0.6,0 1,-0.4 1,-1 v -0.5 c 0,-0.5 -0.4,-1 -1,-1 l 0,0 z m 0,3.5 c -0.6,0 -1,0.4 -1,1 v 0.3 c 0,0.1 0,0.3 0,0.4 0,0.5 0.5,0.9 1,0.9 0,0 0.1,0 0.1,0 0.5,-0.1 1,-0.5 0.9,-1.1 0,0 0,-0.1 0,-0.1 v 0 c 0,0 0,0 0,0 l 0,0 c 0,0 0,0 0,0 v 0 c 0,0 0,0 0,0 v 0 c 0,0 0,0 0,0 v 0 c 0,0 0,0 0,0 l 0,0 c 0,0 0,0 0,0 v 0 c 0,0 0,0 0,0 l 0,0 c 0,0 0,0 0,0 0,0 0,0 0,0 0,0 0,0 0,0 0,0 0,0 0,0 0,0 0,0 0,0 0,0 0,0 0,0 0,0 0,0 0,0 v 0 c 0,0 0,0 0,0 0,0 0,0 0,0 0,0 0,0 0,0 0,0 0,0 0,0 0,0 0,0 0,0 v 0 c 0,0 0,0 0,0 0,0 0,0 0,0 0,0 0,0 0,0 l 0,0 v -0.3 c 0,-0.6 -0.4,-1.1 -1,-1.1 l 0,0 z m 2.9,3.5 c -0.5,0 -0.9,0.4 -1,0.9 -0.1,0.5 0.3,1 0.9,1.1 0.2,0 0.4,0 0.5,0 h 0.2 c 0.6,0 1,-0.4 1,-1 0,-0.6 -0.4,-1 -1,-1 h -0.2 c 0,0 0,0 0,0 h 0 c 0,0 0,0 0,0 l 0,0 c 0,0 0,0 0,0 0,0 0,0 0,0 0,0 0,0 0,0 0,0 0,0 0,0 0,0 0,0 0,0 h 0 c 0,0 0,0 0,0 0,0 0,0 0,0 0,0 0,0 0,0 h 0 c 0,0 0,0 0,0 l 0,0 c 0,0 0,0 0,0 0,0 0,0 0,0 0,0 0,0 0,0 0,0 0,0 0,0 0,0 0,0 0,0 l 0,0 c 0,0 0,0 0,0 0,0 0,0 0,0 0,0 0,0 0,0 0,0 0,0 0,0 0,0 0,0 0,0 l 0,0 c 0,0 0,0 0,0 l 0,0 c 0,0 0,0 0,0 0,0 0,0 0,0 0,0 0,0 0,0 0,0 0,0 0,0 0,0 0,0 0,0 l 0,0 c 0,0 0,0 0,0 0,0 0,0 0,0 0,0 0,0 0,0 0,0 0,0 0,0 0,0 0,0 0,0 0,0 0,0 0,0 0,0 0,0 0,0 0,0 0,0 0,0 0,0 0,0 0,0 0,0 0,0 0,0 0,0 0,0 0,0 0,0 0,0 0,0 0,0 0,0 0,0 0,0 0,0 0,0 0,0 0,0 0,0 0,0 0,0 0,0 0,0 0,0 0,0 0,0 0,0 0,0 0,0 0,0 0,0 0,0 0,0 0,0 0,0 0,0 0,0 0,0 0,0 0,0 l 0,0 c 0,0 0,0 0,0 0,0 0,0 0,0 0,0 0,0 0,0 l 0,0 c 0,0 0,0 0,0 h 0 c 0,0 0,0 0,0 0,0 0,0 0,0 0,0 -0.1,0 -0.1,0 -0.3,0 -0.3,0 -0.3,0 l 0,0 z m 4.1,0.1 h -0.5 c -0.6,0 -1,0.4 -1,1 0,0.6 0.4,1 1,1 h 0.5 c 0.6,0 1,-0.4 1,-1 0,-0.6 -0.5,-1 -1,-1 l 0,0 z m 3.5,0 h -0.5 c -0.6,0 -1,0.4 -1,1 0,0.6 0.4,1 1,1 h 0.5 c 0.6,0 1,-0.4 1,-1 0,-0.6 -0.5,-1 -1,-1 l 0,0 z m 3.5,0 h -0.5 c -0.6,0 -1,0.4 -1,1 0,0.6 0.4,1 1,1 h 0.5 c 0.6,0 1,-0.4 1,-1 0,-0.6 -0.5,-1 -1,-1 l 0,0 z m 3.5,0 h -0.5 c -0.6,0 -1,0.4 -1,1 0,0.6 0.4,1 1,1 h 0.5 c 0.6,0 1,-0.4 1,-1 0,-0.6 -0.5,-1 -1,-1 l 0,0 z m 3.5,0 h -0.5 c -0.6,0 -1,0.4 -1,1 0,0.6 0.4,1 1,1 h 0.5 c 0.6,0 1,-0.4 1,-1 0,-0.6 -0.5,-1 -1,-1 l 0,0 z m 3.5,0 c 0,0 0,0 0,0 0,0 0,0 0,0 0,0 0,0 0,0 l 0,0 c 0,0 0,0 0,0 l 0,0 c -0.1,0 -0.1,0 0,0 l 0,0 c -0.1,0 -0.1,0 0,0 l 0,0 c -0.1,0 -0.1,0 0,0 -0.1,0 -0.1,0 0,0 -0.1,0 -0.1,0 0,0 l 0,0 c -0.1,0 -0.1,0 0,0 l 0,0 c -0.1,0 -0.1,0 0,0 l -0.5,0 c -0.6,0 -1,0.4 -1,1 0,0.6 0.4,1 1,1 h 0.4 l 0.1,0 c 0.6,0 1,-0.5 1,-1 0,-0.6 -0.5,-1 -1,-1 l 0,0 z m 3.1,-3.3 c -0.6,0 -1,0.4 -1,1 v 0.1 l 0,0 0,0 0,0 c 0,0 0,0 0,0 0,0 0,0 0,0 0,0 0,0 0,0 v 0 c 0,0 0,0 0,0 0,0 0,0 0,0 0,0 0,0 0,0 l 0,0 c 0,0 0,0 0,0 0,0 0,0 0,0 0,0 0,0 0,0 l 0,0 c 0,0 0,0 0,0 0,0 0,0 0,0 0,0 0,0 0,0 0,0 0,0 0,0 0,0 0,0 0,0 l 0,0 c 0,0 0,0 0,0 0,0 0,0 0,0 l 0,0 c 0,0 0,0 0,0 0,0 0,0 0,0 0,0 0,0 0,0 0,0 0,0 0,0 l 0,0 c 0,0 0,0 0,0 0,0 0,0 0,0 0,0 0,0 0,0 l 0,0 c 0,0 0,0 0,0 0,0 0,0 0,0 0,0 0,0 0,0 l 0,0 c 0,0 0,0 0,0 0,0 0,0 0,0 l 0,0 c 0,0 0,0 0,0 0,0 0,0 0,0 0,0 0,0 0,0 l 0,0 c 0,0 0,0 0,0 0,0 0,0 0,0 0,0 0,0 0,0 l 0,0 c 0,0 0,0 0,0 0,0 0,0 0,0 0,0 0,0 0,0 v 0 c 0,0 0,0 0,0 0,0 0,0 0,0 0,0 0,0 0,0 0,0 0,0 0,0 0,0 0,0 0,0 l 0,0 c 0,0 0,0 0,0 0,0 0,0 0,0 0,0 0,0 0,0 l 0,0 c 0,0 0,0 0,0 0,0 0,0 0,0 0,0 0,0 0,0 l 0,0 c 0,0 0,0 0,0 l 0,0 c 0,0 0,0 0,0 l 0,0 c 0,0 0,0 0,0 0,0 0,0 0,0 0,0 0,0 0,0 l 0,0 c 0,0 0,0 0,0 0,0 0,0 0,0 0,0 0,0 0,0 0,0 0,0 0,0 0,0 0,0 0,0 0,0 0,0 0,0 0,0 0,0 0,0 l 0,0 c 0,0 0,0 0,0 l 0,0 c 0,0 0,0 0,0 l 0,0 c 0,0 0,0 0,0 v 0 c 0,0 0,0 0,0 l 0,0 c 0,0 0,0 0,0 v 0 c 0,0 0,0 0,0 v 0 c 0,0 0,0 0,0 l 0,0 c 0,0 0,0 0,0 0,0 0,0 0,0 0,0 0,0 0,0 l 0,0 c 0,0 0,0 0,0 l 0,0 c 0,0 0,0 0,0 0,0 0,0 0,0 0,0 0,0 0,0 v 0 c 0,0 0,0 0,0 0,0 0,0 0,0 0,0 0,0 0,0 v 0 c 0,0 0,0 0,0 l 0,0 c 0,0 0,0 0,0 0,0 0,0 0,0 0,0 0,0 0,0 l 0,0 c 0,0 0,0 0,0 l 0,0 c 0,0 0,0 0,0 0,0 0,0 0,0 0,0 0,0 0,0 l 0,0 c 0,0 0,0 0,0 l 0,0 c 0,0 0,0 0,0 l 0,0 c 0,0 0,0 0,0 l 0,0 c 0,0 0,0 0,0 0,0 0,0 0,0 0,0 0,0 0,0 l 0,0 c 0,0 0,0 0,0 0,0 0,0 0,0 l 0,0 c 0,0 0,0 0,0 0,0 0,0 0,0 0,0 0,0 0,0 l 0,0 c 0,0 0,0 0,0 0,0 0,0 0,0 0,0 0,0 0,0 0,0 0,0 0,0 0,0 0,0 0,0 l 0,0 c 0,0 0,0 0,0 l 0,0 c 0,0 0,0 0,0 0,0 0,0 0,0 0,0 0,0.1 0,0.1 -0.1,0.5 0.2,1.1 0.8,1.2 0.1,0 0.1,0 0.2,0 0.5,0 0.9,-0.3 1,-0.8 0.1,-0.3 0.1,-0.5 0.1,-0.8 v -0.1 c -0.1,-0.3 -0.5,-0.7 -1.1,-0.7 l 0,0 z m 0,-3.5 c -0.6,0 -1,0.4 -1,1 v 0.5 c 0,0.6 0.4,1 1,1 0.6,0 1,-0.4 1,-1 v -0.5 c 0,-0.6 -0.4,-1 -1,-1 l 0,0 z m 0,-3.5 c -0.6,0 -1,0.4 -1,1 v 0.5 c 0,0.6 0.4,1 1,1 0.6,0 1,-0.4 1,-1 v -0.5 c 0,-0.6 -0.4,-1 -1,-1 l 0,0 z m 0,-3.5 c -0.6,0 -1,0.4 -1,1 v 0.5 c 0,0.6 0.4,1 1,1 0.6,0 1,-0.4 1,-1 v -0.5 c 0,-0.6 -0.4,-1 -1,-1 l 0,0 z m 0,-3.5 c -0.6,0 -1,0.4 -1,1 v 0.5 c 0,0.6 0.4,1 1,1 0.6,0 1,-0.4 1,-1 v -0.5 c 0,-0.6 -0.4,-1 -1,-1 l 0,0 z m 0,-3.5 c -0.6,0 -1,0.4 -1,1 v 0.5 c 0,0.6 0.4,1 1,1 0.6,0 1,-0.4 1,-1 v -0.5 c 0,-0.6 -0.4,-1 -1,-1 l 0,0 z m 0,-3.5 c -0.6,0 -1,0.4 -1,1 v 0.5 c 0,0.6 0.4,1 1,1 0.6,0 1,-0.4 1,-1 v -0.5 c 0,-0.6 -0.4,-1 -1,-1 l 0,0 z" style="fill:#75b640"/></g></g><g id="g3085" transform="translate(-30,-30)"><path id="path3087" d="m 87.7,151.8 c 0.6,-0.1 1.4,-0.2 2.6,-0.2 1.2,0 2.1,0.2 2.6,0.7 0.6,0.4 0.9,1.2 0.9,2 0,0.8 -0.3,1.6 -0.8,2 -0.7,0.6 -1.7,0.9 -2.8,0.9 -0.3,0 -0.5,0 -0.7,0 v 3.1 h -1.9 v -8.5 z m 2,4 c 0.2,0 0.4,0.1 0.7,0.1 1,0 1.7,-0.5 1.7,-1.4 0,-0.8 -0.6,-1.3 -1.5,-1.3 -0.4,0 -0.7,0 -0.8,0.1 v 2.5 z" style="fill:#d5d8d2"/><path id="path3089" d="m 97.3,153.8 0,0 -1.6,0.8 -0.3,-1.5 2.2,-1 h 1.6 v 8.3 h -1.9 v -6.6 z" style="fill:#d5d8d2"/></g><g id="g3091" transform="translate(-30,-30)"><path id="path3093" d="m 160,194.9 c -0.5,0 -0.9,-0.4 -0.9,-0.9 V 63.8 c 0,-1.4 1.1,-2.5 2.5,-2.5 h 81.7 c 1.4,0 2.5,1.1 2.5,2.5 V 194 c 0,0.5 -0.4,0.9 -0.9,0.9 H 160 z" style="fill:#fff"/><path id="path3095" d="m 243.3,62.2 c 0.9,0 1.7,0.8 1.7,1.7 V 194 c 0,0.1 -0.1,0.1 -0.1,0.1 H 160 c -0.1,0 -0.1,-0.1 -0.1,-0.1 V 63.8 c 0,-0.9 0.8,-1.7 1.7,-1.7 h 81.7 m 0,-1.5 h -81.7 c -1.8,0 -3.3,1.5 -3.3,3.3 V 194 c 0,1 0.8,1.7 1.7,1.7 h 84.8 c 1,0 1.7,-0.8 1.7,-1.7 V 63.8 c 0.1,-1.8 -1.4,-3.2 -3.2,-3.2 l 0,0 z" style="fill:#75b640"/></g><path id="path3097" d="M 128.3,41.9 V 23.3 c 0,-1.8 1.5,-3.3 3.3,-3.3 h 81.7 c 1.8,0 3.3,1.5 3.3,3.3 v 18.6 h -88.3 z" style="fill:#75b640"/><g id="g3099" transform="translate(-30,-30)"><path id="path3101" d="m 181.6,65.8 v -8.6 h 2.3 l 1.8,3.2 c 0.5,0.9 1,2 1.4,3 h 0 c -0.1,-1.1 -0.2,-2.3 -0.2,-3.6 v -2.5 h 1.8 v 8.6 h -2 l -1.8,-3.3 c -0.5,-0.9 -1.1,-2 -1.5,-3 l 0,0 c 0.1,1.1 0.1,2.4 0.1,3.8 V 66 h -1.9 z" style="fill:#fff"/><path id="path3103" d="m 198.3,61.4 c 0,2.8 -1.7,4.5 -4.2,4.5 -2.6,0 -4.1,-1.9 -4.1,-4.4 0,-2.6 1.7,-4.5 4.2,-4.5 2.7,0 4.1,2 4.1,4.4 z m -6.2,0.1 c 0,1.7 0.8,2.9 2.1,2.9 1.3,0 2.1,-1.3 2.1,-2.9 0,-1.5 -0.7,-2.9 -2.1,-2.9 -1.4,-0.1 -2.1,1.2 -2.1,2.9 z" style="fill:#fff"/><path id="path3105" d="m 199.6,57.3 c 0.7,-0.1 1.7,-0.2 2.6,-0.2 1.6,0 2.7,0.3 3.5,0.9 0.9,0.7 1.5,1.7 1.5,3.3 0,1.7 -0.6,2.8 -1.4,3.5 -0.9,0.8 -2.3,1.1 -4,1.1 -1,0 -1.7,-0.1 -2.2,-0.1 v -8.5 z m 1.9,7 c 0.2,0 0.4,0 0.7,0 1.8,0 2.9,-1 2.9,-3 0,-1.8 -1,-2.7 -2.7,-2.7 -0.4,0 -0.7,0 -0.9,0.1 v 5.6 z" style="fill:#fff"/><path id="path3107" d="m 213.6,62.1 h -3.2 v 2 h 3.5 v 1.6 h -5.5 v -8.6 h 5.3 v 1.6 h -3.4 v 1.8 h 3.2 v 1.6 z" style="fill:#fff"/><path id="path3109" d="m 217.6,65.8 v -1.2 l 1.1,-1 c 1.8,-1.6 2.7,-2.6 2.7,-3.5 0,-0.7 -0.4,-1.2 -1.4,-1.2 -0.7,0 -1.3,0.4 -1.8,0.7 l -0.6,-1.4 c 0.6,-0.5 1.6,-0.9 2.7,-0.9 1.9,0 2.9,1.1 2.9,2.6 0,1.4 -1,2.5 -2.2,3.6 l -0.8,0.6 v 0 h 3.1 v 1.6 h -5.7 z" style="fill:#fff"/></g><g id="g3111" transform="translate(-30,-30)"><path id="path3113" d="m 191.9,171.4 c -2.3,0 -4.2,-1.9 -4.2,-4.2 V 146 c 0,-2.3 1.9,-4.2 4.2,-4.2 H 213 c 2.3,0 4.2,1.9 4.2,4.2 v 21.1 c 0,2.3 -1.9,4.2 -4.2,4.2 h -21.1 z" style="fill:#fff"/><g id="g3115"><path id="path3117" d="m 213,143.8 c 1.2,0 2.2,1 2.2,2.2 v 21.1 c 0,1.2 -1,2.2 -2.2,2.2 h -21.1 c -1.2,0 -2.2,-1 -2.2,-2.2 V 146 c 0,-1.2 1,-2.2 2.2,-2.2 H 213 m 0,-4 h -21.1 c -3.4,0 -6.2,2.8 -6.2,6.2 v 21.1 c 0,3.4 2.8,6.2 6.2,6.2 H 213 c 3.4,0 6.2,-2.8 6.2,-6.2 V 146 c 0,-3.5 -2.7,-6.2 -6.2,-6.2 l 0,0 z" style="fill:#75b640"/></g></g><g id="g3119" transform="translate(-30,-30)"><path id="path3121" d="m 196,151.8 c 0.6,-0.1 1.4,-0.2 2.6,-0.2 1.2,0 2.1,0.2 2.6,0.7 0.6,0.4 0.9,1.2 0.9,2 0,0.8 -0.3,1.6 -0.8,2 -0.7,0.6 -1.7,0.9 -2.8,0.9 -0.3,0 -0.5,0 -0.7,0 v 3.1 H 196 v -8.5 z m 2,4 c 0.2,0 0.4,0.1 0.7,0.1 1,0 1.7,-0.5 1.7,-1.4 0,-0.8 -0.6,-1.3 -1.5,-1.3 -0.4,0 -0.7,0 -0.8,0.1 v 2.5 z" style="fill:#454746"/><path id="path3123" d="m 205.6,153.8 0,0 -1.6,0.8 -0.3,-1.5 2.2,-1 h 1.6 v 8.3 h -1.9 v -6.6 z" style="fill:#454746"/></g><g id="g3125" transform="translate(-30,-30)"><g id="g3127"><path id="path3129" stroke-miterlimit="10" d="m 116.9,156.6 c 0,0 8.1,0.2 55,0.2" style="fill:none;stroke:#454746;stroke-width:1.60000002;stroke-linecap:round;stroke-miterlimit:10"/><g id="g3131"><path id="path3133" d="m 179.6,156.8 c -3.6,1.3 -8.2,3.6 -11,6 l 2.2,-6.1 -2.2,-6.1 c 2.9,2.5 7.4,4.8 11,6.2 z" style="fill:#454746"/></g></g></g></svg>